<svg width="272" height="167" viewBox="0 0 272 167" fill="none" xmlns="http://www.w3.org/2000/svg">
<path d="M159.484 15.08C158.204 18.28 157.344 21.73 155.594 24.63C135.054 58.62 117.584 94.13 103.274 131.14C98.7844 142.76 95.6344 154.89 91.2644 166.74C89.6044 158.77 92.0844 151.12 94.1544 143.56C96.2844 135.75 98.9244 128.06 101.704 120.45C104.544 112.67 107.834 105.05 111.714 95.4C104.304 104.57 98.3644 112.17 92.1344 119.53C89.4344 122.71 86.4244 125.79 83.0244 128.16C80.8244 129.7 77.0544 131.2 75.1244 130.29C73.2344 129.41 71.5444 125.25 71.9344 122.88C73.2944 114.44 75.5244 106.14 77.5444 97.82C78.2344 94.98 79.2944 92.23 80.5544 88.26C69.9344 100.55 60.3244 111.91 50.4044 122.99C47.3344 126.42 43.6744 129.53 39.7744 131.99C33.9944 135.64 28.7544 132.95 29.8444 126.37C31.9344 113.63 34.6044 100.85 38.5644 88.57C46.8244 62.93 56.0644 37.6 64.8844 12.14C65.3144 10.89 65.4944 9.55999 64.4744 7.29999C56.2644 16.41 47.6744 25.22 39.9244 34.71C26.4944 51.17 13.7044 68.11 5.9644 88.23C4.5144 92 4.0444 94.95 9.0244 97.54C6.8144 97.93 3.84441 99.35 2.59441 98.44C0.98441 97.25 -0.435592 93.83 0.124408 92C2.28441 84.93 4.5044 77.69 8.0844 71.28C22.1944 46.08 39.9344 23.57 60.9344 3.73001C63.1244 1.66001 66.8344 1.21 69.8444 0C70.3044 3.38 71.9644 7.15001 71.0244 10.07C63.7044 32.58 55.6144 54.85 48.3044 77.36C43.6544 91.69 39.9044 106.31 35.8344 120.82C35.2944 122.74 35.2844 124.81 34.7344 129.12C40.0344 124.74 44.1644 122.12 47.3044 118.61C66.9544 96.72 85.9944 74.45 98.7144 47.44C104.354 35.46 111.694 24.25 118.494 12.83C120.164 10.02 122.734 7.74 124.884 5.22C125.774 5.61 126.674 6.00999 127.564 6.39999C126.934 9.15999 126.894 12.24 125.584 14.61C119.264 26.04 112.794 37.39 106.034 48.55C92.3944 71.08 83.8844 95.59 77.5744 120.98C77.3644 121.84 77.5444 122.8 77.5444 125.88C82.6344 120.79 86.8944 117.07 90.5144 112.81C112.354 87.07 129.794 58.44 145.654 28.76C148.564 23.31 152.394 18.34 155.794 13.14C157.014 13.77 158.244 14.4 159.464 15.03L159.484 15.08Z" fill="#0E3060"/>
<path d="M156.754 106.7C157.584 106.48 159.804 105.89 162.034 105.3C161.404 107.71 161.054 110.23 160.094 112.51C156.754 120.46 153.194 128.32 149.724 136.21C150.694 136.8 151.664 137.39 152.624 137.98C157.224 132.64 161.484 126.95 166.494 122.03C174.114 114.55 182.114 107.42 190.314 100.58C192.034 99.14 195.344 99.6 197.924 99.18C198.024 101.96 198.924 105.01 198.084 107.48C195.164 116.05 191.314 124.31 188.444 132.89C185.504 141.69 188.214 145.56 197.274 143.6C206.654 141.56 216.004 137.96 224.454 133.36C238.544 125.7 251.904 116.69 265.594 108.28C267.124 107.34 268.814 106.67 270.434 105.87C270.804 106.47 271.174 107.08 271.544 107.68C268.964 109.76 266.554 112.13 263.764 113.88C247.004 124.39 230.394 135.18 213.204 144.93C207.384 148.23 200.064 149.84 193.294 150.31C184.244 150.94 178.534 143.04 181.124 134.29C183.744 125.45 187.234 116.86 189.364 106.95C182.534 113.89 175.654 120.78 168.904 127.79C164.704 132.15 161.074 137.14 156.474 140.99C154.274 142.83 149.264 144.22 147.564 143C145.544 141.54 145.544 137.08 145.014 133.86C144.814 132.64 145.584 131.26 146.244 128.57C141.024 132.92 137.114 136.85 132.544 139.76C129.564 141.66 125.024 143.78 122.274 142.78C117.424 141.02 119.294 135.88 120.884 132.44C125.454 122.58 130.024 112.64 135.734 103.44C137.774 100.15 143.334 96.87 146.834 97.29C150.204 97.7 152.994 102.9 156.724 106.7H156.754ZM126.014 136.01C126.544 136.6 127.074 137.19 127.604 137.77C133.944 131.69 140.454 125.79 146.554 119.49C152.084 113.78 151.484 108.25 144.934 102.07C134.734 111.31 129.814 123.35 126.014 136.01Z" fill="#0E3060"/>
</svg>
