<svg width="119" height="31" viewBox="0 0 119 31" fill="none" xmlns="http://www.w3.org/2000/svg">
<path fill-rule="evenodd" clip-rule="evenodd" d="M68.0089 19.7285L68.0074 19.8247C70.7825 20.0281 72.9945 21.5535 72.9536 24.1821C72.9187 26.4262 70.7957 28.4293 67.1557 28.3726L60.7381 28.2728L60.9842 12.4527L66.8749 12.5443C70.9778 12.6082 72.4886 14.0425 72.459 15.95C72.4221 18.3221 70.1027 19.6006 68.0089 19.7285ZM70.528 24.0803C70.5883 20.2014 67.479 19.9126 65.9465 19.8888L62.961 19.8424L62.8376 27.7764C63.0597 27.876 63.8861 28.1294 65.1951 28.1498C66.7278 28.1736 70.4639 28.1997 70.528 24.0803ZM14.0504 29.0377C24.8107 29.189 28.1711 20.5196 28.2596 14.8296C28.3614 8.28998 24.8596 0.379655 14.4507 0.217762C4.15351 0.0576066 0.320572 8.30273 0.225838 14.3936C0.22185 14.65 0.21811 14.8905 0.229838 15.1631C1.21439 14.489 2.32418 13.9772 3.52626 13.6914C3.86044 5.55215 7.66223 0.336631 14.4472 0.442159C21.4237 0.550668 25.1133 6.65225 24.9869 14.7787C24.8747 21.9915 21.3195 28.8141 14.1975 28.8156C14.1486 28.879 14.0994 28.9583 14.0504 29.0377ZM77.9367 23.0893C77.757 22.333 77.6741 21.5141 77.6878 20.6326C77.7743 15.0706 81.0898 12.3646 85.4801 12.4329C89.8701 12.5012 93.1037 15.0846 93.0137 20.8709C93.011 21.0472 93.0083 21.2235 92.9896 21.3835C92.2566 21.2921 91.3789 21.2623 90.5804 21.266C90.5807 21.2499 90.5807 21.2499 90.5809 21.2338C88.5367 21.2502 86.4551 21.6025 83.7779 22.2823C83.4411 22.3733 82.3028 22.6602 82.0783 22.7209C81.4369 22.8873 80.9565 22.992 80.5079 23.0812C80.4116 23.0958 80.3155 23.1263 80.2356 23.1411C80.7766 27.366 82.9424 28.7625 85.2256 28.798C85.8162 28.8072 86.4084 28.7202 86.9704 28.5205C88.141 28.202 89.6591 27.1033 91.509 25.2083L91.908 25.2145C90.577 27.6307 88.128 29.0355 85.2064 28.9901C81.6783 28.9352 78.8852 26.8075 77.9806 23.3465C77.9008 23.3453 77.8372 23.3443 77.7734 23.3273C76.0194 23.1717 74.8857 22.1281 74.2505 19.8577L74.5232 19.7817C75.144 21.9557 76.167 22.9015 77.8097 23.0553C77.857 23.0881 77.8889 23.0886 77.9367 23.0893ZM80.2075 22.8841C80.2876 22.8694 80.3676 22.8546 80.4638 22.8401C80.9121 22.7509 81.3931 22.63 82.0181 22.4794C82.2426 22.4188 83.3809 22.132 83.7178 22.041C86.4269 21.3617 88.5245 20.9935 90.6007 20.9776C90.6014 20.9296 90.6021 20.8815 90.6026 20.8494C90.6994 14.6304 88.1429 12.6828 85.4927 12.6415C82.8106 12.5998 80.2266 14.4675 80.1299 20.6865C80.1017 21.4877 80.1221 22.2095 80.2075 22.8841ZM103.571 6.3815C103.938 6.38722 104.481 6.39566 105.167 6.40633C107.258 6.43886 108.829 6.06248 109.88 5.24515C108.712 7.43945 107.322 8.52407 105.693 8.49874C104.608 8.48186 103.762 8.4687 103.123 8.45877C102.756 8.45305 102.213 8.44461 101.527 8.43394C99.4353 8.40141 97.8646 8.77779 96.8138 9.59512C97.9817 7.40082 99.3717 6.3162 101 6.34153C102.086 6.35841 102.948 6.37182 103.571 6.3815ZM70.1909 15.9788C70.15 18.6075 68.8868 19.7422 66.0612 19.6982L62.964 19.6501L63.0675 12.9982C63.6934 12.7834 64.6533 12.6862 65.9623 12.7065C67.1275 12.7407 70.237 13.0135 70.1909 15.9788ZM103.52 12.7135C106.106 12.7537 107.077 14.0193 107.512 14.7796C108.901 13.7431 110.912 12.8285 112.748 12.857C114.424 12.8831 115.725 13.4324 116.399 14.1964C117.592 15.5296 117.562 17.5011 117.543 18.6873C117.476 21.9568 117.438 24.3931 117.397 26.0277C117.365 28.1275 117.739 29.7044 118.553 30.7593C116.368 29.5869 115.288 28.1913 115.313 26.5565C115.332 25.3383 115.387 22.806 115.479 18.9758C115.495 17.9179 115.686 15.9488 114.732 14.6514C114.184 13.9535 113.217 13.4415 111.765 13.4189C110.679 13.402 108.977 14.0008 107.605 14.9735C107.93 15.6038 108.174 16.329 108.149 17.948L107.977 29.0076L105.934 28.9758L106.106 17.9162C106.163 14.2617 104.676 13.3247 102.537 13.2914C101.387 13.2735 99.9748 13.7486 98.8122 14.5802L98.5901 28.8616L96.5308 28.8295L96.7684 13.5544L96.7769 13.0094C97.4543 12.555 98.145 12.2932 98.8491 12.208C98.8491 12.208 98.8456 12.4324 98.8384 12.8972L98.8157 14.3558C100.74 12.8306 102.738 12.7013 103.52 12.7135ZM41.3858 11.7471C43.972 11.7873 44.9424 13.0529 45.3777 13.8132C46.767 12.7767 48.7774 11.8621 50.6133 11.8906C52.2894 11.9167 53.5905 12.466 54.2652 13.23C55.4581 14.5632 55.4275 16.5348 55.409 17.7209C55.3423 20.9904 55.3044 23.4267 55.2628 25.0613C55.2301 27.1611 55.605 28.738 56.419 29.7929C54.2337 28.6205 53.1535 27.2249 53.1789 25.5901C53.1979 24.3719 53.2531 21.8396 53.3446 18.0094C53.3611 16.9515 53.5513 14.9824 52.5973 13.685C52.0495 12.9871 51.0832 12.4751 49.6306 12.4525C48.5449 12.4356 46.8428 13.0344 45.4706 14.0071C45.7959 14.6374 46.0402 15.3626 46.0151 16.9816L45.8431 28.0412L43.7836 28.0091L43.9557 16.9495C44.0125 13.295 42.5259 12.358 40.3867 12.3248C39.2375 12.3069 37.8245 12.7819 36.662 13.6136L36.4399 27.8949L34.3805 27.8629L34.6181 12.5878L34.6265 12.0428C35.3043 11.5884 35.995 11.3266 36.6989 11.2413C36.6989 11.2413 36.6954 11.4657 36.6882 11.9306L36.6655 13.3892C38.5894 11.8639 40.6035 11.7349 41.3858 11.7471Z" fill="#06223E"/>
</svg>
