<svg width="249" height="88" viewBox="0 0 249 88" fill="none" xmlns="http://www.w3.org/2000/svg">
<path d="M36.4259 39.5589C33.9594 41.3974 31.5303 43.3542 28.9325 45.0197C27.1756 46.134 25.2806 47.0155 23.2951 47.642C20.7413 48.4436 18.8282 47.0749 18.3045 44.4254C18.0276 42.3064 18.2661 40.1528 18.9999 38.1467C19.2852 37.0817 19.6995 36.0513 19.9824 34.9955C20.0587 34.7108 20.0227 34.219 19.8423 34.0821C19.6916 34.0261 19.5298 34.0068 19.3703 34.0256C19.2107 34.0445 19.0581 34.101 18.9249 34.1906C17.1292 35.2602 15.7519 36.9069 15.0186 38.861C13.8216 42.4074 12.1716 45.803 10.6873 49.2429C10.1337 50.5325 9.48612 51.7797 8.74981 52.9747C8.53845 53.3215 7.70268 53.6781 7.50136 53.5455C7.06342 53.1976 6.77736 52.6942 6.70323 52.141C6.68383 51.5333 6.80182 50.9292 7.04847 50.3737C8.20295 47.1701 9.34147 43.9524 10.604 40.7876C11.249 39.3729 11.9768 37.9974 12.7836 36.668C14.5625 33.4546 15.191 29.8936 15.8747 26.3474C15.9927 25.5195 16.2099 24.7088 16.5217 23.9328C16.711 23.521 17.3066 23.287 17.7648 22.9768C17.942 23.4573 18.3224 23.9528 18.2712 24.4016C17.9761 26.7924 17.5753 29.1352 17.2126 31.5571C17.2293 31.8026 17.2734 32.0454 17.3443 32.2812C17.881 31.9723 18.3195 31.7356 18.7537 31.478C21.0265 30.178 22.5077 30.8012 22.9406 33.3477C23.0584 34.1718 23.0277 35.01 22.8499 35.8228C22.4413 37.7896 21.9013 39.7311 21.4627 41.6996C20.9022 44.1964 21.719 45.1631 24.1923 44.4778C26.3294 43.8184 28.3845 42.9199 30.3184 41.7994C32.4414 40.6168 34.3841 39.1496 36.4126 37.8038L38.2593 36.5471L38.8964 38.3316C39.3237 37.741 39.6967 37.1131 40.011 36.4556C41.2252 32.8449 42.3934 29.2218 43.5708 25.6012C43.6298 25.3809 43.6484 25.0907 43.8007 24.9642C44.1783 24.6846 44.5756 24.4326 44.9897 24.2102C45.1239 24.63 45.4792 25.1089 45.3673 25.4528C44.4253 28.5264 43.4004 31.5778 42.4057 34.6273C42.3329 34.8438 42.2737 35.0645 42.2285 35.2884C41.9555 36.3074 42.1764 36.5143 43.2221 36.332C45.059 35.9568 46.962 36.0536 48.7525 36.6133C52.9078 38.0121 54.4386 41.4334 52.4912 45.3494C51.7526 46.8732 50.6538 48.1946 49.2893 49.2002C47.9247 50.2058 46.3353 50.8655 44.6575 51.1225C42.9856 51.4322 41.3728 51.2264 40.234 49.7306C39.0951 48.2348 39.5184 46.3605 40.3068 44.7809C41.3984 42.7247 43 40.9824 44.9593 39.72C45.3546 39.4074 45.7263 39.0663 46.0716 38.6994L45.9097 38.2723C44.7763 38.4507 43.6655 38.6549 42.5284 38.7734C41.0327 38.904 40.8505 40.0261 40.4515 41.1099C39.0086 44.948 37.5283 48.7662 36.0104 52.5645C35.4419 53.9866 35.0975 55.2719 36.3248 56.5848C36.6437 57.0356 36.8428 57.5596 36.9037 58.1077C36.9423 58.2951 36.6499 58.6497 36.4239 58.7565C36.1979 58.8632 35.9359 58.6257 35.7935 58.4203C34.4932 56.9009 34.5049 56.8942 33.7403 58.7164C31.4125 64.5675 29.0253 70.3829 26.7964 76.2703C26.1871 78.213 25.6966 80.192 25.3275 82.194C25.2318 82.531 25.1169 82.861 24.9832 83.184C24.5774 82.918 24.269 82.528 24.1045 82.072C23.9401 81.616 23.9285 81.12 24.0714 80.657C24.8063 77.442 25.7681 74.2834 26.9497 71.2044C28.8048 66.5649 30.4486 61.8295 32.1429 57.1272C32.5277 56.0594 33.419 55.1272 32.9223 53.8133C32.6717 53.0646 32.505 52.2906 32.4254 51.5055C32.0467 48.7418 32.5346 45.9302 33.8221 43.4566C34.5359 42.2939 35.3488 41.1948 36.2519 40.1716C36.3864 40.001 36.5025 39.8254 36.6254 39.6616L36.4259 39.5589ZM41.8498 45.8733C41.6306 47.2807 42.2048 48.2316 43.2971 48.1701C44.4959 48.1338 45.6754 47.8616 46.7677 47.369C47.8601 46.8765 48.8437 46.1733 49.6621 45.2999C51.734 43.1293 51.5029 40.9715 49.1657 39.3809C48.6077 38.9952 48.0835 38.8154 47.5381 39.3777C46.2015 40.6826 44.8747 41.9507 43.6849 43.3342C43.0257 44.1453 42.413 44.993 41.8498 45.8733ZM38.2259 41.2024C35.3513 42.6855 33.0073 49.1128 34.4047 51.78C35.5655 48.1845 37.2223 44.8006 38.2259 41.2024Z" fill="#BE9334"/>
<path d="M229.728 44.496C223.619 42.9477 219.688 40.8218 217.353 36.4963C216.535 34.7945 216.077 32.9433 216.008 31.0582C215.761 28.2959 216.913 25.6918 216.522 22.9501C216.509 22.2661 216.614 21.5852 216.834 20.9378C216.944 20.354 217.224 19.8159 217.64 19.3914C218.056 18.9669 218.588 18.675 219.171 18.5528C219.699 18.3995 220.174 18.1048 220.544 17.7005C222.532 15.5862 224.329 13.2632 226.469 11.3175C228.659 9.2475 231.278 7.6821 234.142 6.7315C235.138 6.3785 236.187 6.2003 237.244 6.2048C238.301 6.2653 239.297 6.71649 240.039 7.47019C240.78 8.22389 241.214 9.226 241.255 10.2806C241.511 13.4253 240.769 16.5692 239.133 19.2669C236.408 24.0935 232.084 27.8224 226.901 29.8147C224.59 30.7405 222.192 31.3672 219.716 30.1824C219.017 29.8473 218.802 30.2816 218.875 30.8917C219.41 35.2664 221.775 38.301 225.628 40.3863C228.798 42.1114 232.24 42.8566 235.681 43.641C236.298 43.8063 236.988 43.6269 237.616 43.7855C238.077 43.9089 238.824 44.2864 238.829 44.5632C238.845 45.276 238.238 45.5167 237.523 45.4235L229.728 44.496ZM238.487 13.8687C238.626 13.0862 238.719 12.2963 238.766 11.503C238.802 9.96779 237.762 9.0595 236.325 9.5601C231.519 11.1085 227.315 14.108 224.294 18.1444C222.42 20.1804 220.946 22.5487 219.946 25.127C219.888 25.4011 219.892 25.6847 219.958 25.9573C220.023 26.2299 220.147 26.4849 220.323 26.704C221.458 27.9922 223.016 27.7012 224.378 27.2985C231.11 25.1957 236.176 21.2789 238.487 13.8687Z" fill="#BE9334"/>
<path d="M135.304 16.7354C134.478 19.4285 132.995 21.8744 130.988 23.8546C125.6 29.712 118.886 33.6991 111.867 37.2404C111.114 37.6192 110.78 38.0215 111.015 38.9112C111.803 41.9366 110.56 44.0733 107.529 45.1801C105.845 45.7917 104.161 45.8913 102.788 44.6774C101.416 43.4634 101.068 41.5595 101.443 39.6428C102.414 35.0536 104.614 30.8145 107.809 27.3756C110.11 24.5656 112.557 21.8775 115.139 19.3223C119.194 15.5677 123.417 11.9267 128.932 10.3145C130.752 9.81829 132.59 9.70059 134.091 11.0967C134.799 11.8319 135.287 12.749 135.502 13.7451C135.716 14.7412 135.648 15.7768 135.304 16.7354ZM106.256 33.5032C106.534 34.05 107.737 34.274 106.72 35.1232C106.481 35.3151 106.415 35.7105 106.272 35.9871C106.6 36.1192 106.943 36.2112 107.294 36.2609C107.675 36.2702 108.053 36.1933 108.4 36.0359C110.86 35.0548 113.257 33.9223 115.576 32.6449C119.292 30.3727 122.885 27.9063 126.34 25.2559C128.238 23.5808 129.988 21.7452 131.57 19.7693C132.751 18.5123 133.43 16.8677 133.48 15.1446C133.527 14.7735 133.481 14.3964 133.346 14.0472C133.211 13.698 132.991 13.3875 132.706 13.1435C132.422 12.8995 132.081 12.7297 131.714 12.6492C131.348 12.5687 130.967 12.58 130.607 12.6822C129.343 12.9182 128.113 13.3054 126.942 13.8355C121.931 16.2221 117.967 20.0014 114.104 23.847C112.259 25.6849 110.553 27.6682 108.891 29.6729C107.896 30.8823 107.121 32.2293 106.256 33.5032ZM104.647 41.8297C104.717 41.3067 104.817 40.788 104.945 40.2761C105.098 39.9844 105.266 39.701 105.449 39.427C105.533 39.275 105.583 39.1063 105.595 38.9328C105.607 38.7594 105.58 38.5853 105.518 38.423C105.455 38.2607 105.357 38.1141 105.231 37.9935C105.105 37.8729 104.954 37.7813 104.789 37.7252C103.908 37.3315 103.796 38.1182 103.73 38.6221C103.56 39.7648 103.498 40.921 103.545 42.0756C103.585 42.4844 103.782 42.8622 104.095 43.1296C104.408 43.397 104.812 43.5331 105.223 43.5094C105.931 43.5536 106.638 43.4201 107.28 43.1211C107.923 42.8222 108.479 42.3673 108.899 41.7981C109.183 41.4117 109.311 40.9322 109.255 40.4557C109.2 39.9792 108.966 39.5409 108.601 39.2286C108.029 38.8588 107.212 39.3288 106.675 40.3364C106.512 40.7499 106.235 41.1091 105.876 41.3731C105.517 41.6371 105.092 41.7953 104.647 41.8297Z" fill="#BE9334"/>
<path d="M93.3625 34.7708C92.9491 34.6667 92.5266 34.6029 92.1009 34.5803C91.5158 34.6003 90.9342 34.481 90.404 34.2324C89.8739 33.9838 89.4106 33.613 89.0522 33.1507C88.6939 32.6883 88.451 32.1477 88.3435 31.5735C88.236 30.9994 88.267 30.4081 88.434 29.8487C88.9454 27.9789 89.875 26.2495 91.1531 24.7906C92.4312 23.3316 94.0245 22.1809 95.8134 21.4249C98.4508 20.3112 100.28 22.1397 100.45 24.6355C100.592 26.8732 100.137 29.1076 99.1299 31.1107C97.9127 33.5937 96.5077 35.9805 94.9271 38.2503C94.4674 38.9478 93.922 39.5851 93.3036 40.1473C91.7631 41.4763 92.221 43.0455 92.6439 44.6348C92.7163 44.8805 92.8899 45.1534 92.8401 45.3762C92.7569 45.6477 92.5718 45.8766 92.3235 46.0151C92.2092 46.0731 91.8618 45.8226 91.7355 45.6312C91.4994 45.2442 91.3016 44.8353 91.1448 44.4103C90.729 43.3837 90.4429 43.3464 89.5345 44.0477C87.9653 45.3 86.4071 46.5848 84.7409 47.6833C83.6375 48.4238 82.435 49.0059 81.1687 49.4125C78.7868 50.1617 77.1637 48.4476 77.8223 46.0263C78.0389 45.3336 78.4593 44.7221 79.0288 44.2712C79.5984 43.8202 80.291 43.5506 81.0167 43.4972C81.3132 43.565 81.5892 43.7026 81.8218 43.8984C82.0543 44.0942 82.2366 44.3426 82.3534 44.6229C82.7335 45.7087 83.2763 45.5983 83.9464 45.0497C85.7196 43.6257 87.389 42.0361 89.2247 40.7469C91.3595 39.2624 91.7536 36.7603 93.3625 34.7708ZM97.9102 27.7433C97.9534 27.2137 98.0551 26.5029 98.0523 25.8133C98.0597 24.3491 97.3011 23.9392 95.9795 24.5986C93.6951 25.7577 92.2385 27.7684 90.915 29.8345C90.7419 30.108 90.6461 30.4232 90.6378 30.7467C90.6295 31.0703 90.709 31.3902 90.8678 31.6727C91.0267 31.9551 91.2591 32.1897 91.5403 32.3515C91.8216 32.5133 92.1414 32.5964 92.4659 32.592C95.1261 32.7931 96.3292 32.0232 97.2292 29.5485C97.3725 28.9768 97.6306 28.4555 97.9102 27.7433Z" fill="#BE9334"/>
<path d="M176.427 32.5853C175.738 32.8338 175.334 32.9813 174.976 33.1018C173.781 33.4706 172.615 33.9552 171.33 33.3355C170.693 33.0268 170.188 33.3639 169.979 33.9575C169.34 35.7542 168.016 37.2691 168.052 39.3452C168.066 39.5066 168.041 39.6689 167.978 39.8184C167.916 39.9679 167.818 40.1001 167.693 40.2038C167.569 40.3076 167.421 40.3797 167.262 40.4143C167.104 40.4488 166.939 40.4446 166.782 40.4021C166.524 40.333 166.202 39.5087 166.307 39.1532C166.971 36.9695 167.235 34.698 168.65 32.6958C170.23 30.4821 171.231 27.8869 172.594 25.5264C173.762 23.4875 175.067 21.5249 176.355 19.5574C176.495 19.3293 176.896 19.2694 177.18 19.1291C177.311 19.4496 177.627 19.8195 177.549 20.0741C177.262 21.1329 176.858 22.1567 176.346 23.1269C175.04 25.3847 173.581 27.5522 172.25 29.7934C172.145 30 172.087 30.2274 172.082 30.459C172.076 30.6907 172.122 30.9208 172.217 31.1326C172.372 31.2773 172.557 31.3872 172.758 31.4547C172.96 31.5223 173.174 31.546 173.385 31.5243C176.329 31.3291 178.129 29.6565 179.176 26.9653C179.573 26.0231 180.107 25.145 180.762 24.3597C182.046 22.7356 183.376 21.124 184.816 19.6203C185.42 18.9852 186.288 18.1749 187.305 18.8015C188.321 19.4281 187.83 20.5263 187.678 21.4991C187.016 24.8151 184.826 27.1312 182.278 28.9083C180.152 30.3953 179.582 32.4469 178.969 34.6246C178.814 35.2129 178.728 35.8174 178.714 36.4257C178.654 36.7282 178.678 37.0415 178.785 37.331C178.893 37.6205 179.078 37.875 179.321 38.0663C179.563 38.2576 179.854 38.3783 180.162 38.4151C180.469 38.4519 180.78 38.4034 181.061 38.2748C182.813 37.5929 184.492 36.7045 186.217 35.9369C186.546 35.8657 186.884 35.8467 187.219 35.8806C187.131 36.2111 187.219 36.727 187.011 36.8778C185.278 38.2847 183.428 39.5436 181.483 40.6412C178.618 42.0485 176.311 40.6037 176.023 37.4071C176.003 36.2083 176.093 35.0104 176.291 33.8282C176.28 33.5006 176.334 33.1902 176.427 32.5853ZM185.933 22.5962L185.674 22.4187C184.099 23.3251 183.573 24.1091 183.836 25.5965C184.583 24.4681 185.241 23.5226 185.933 22.5962Z" fill="#BE9334"/>
<path d="M155.38 44.058C154.14 43.7937 152.997 43.1956 152.074 42.3289C151.151 41.4622 150.483 40.36 150.143 39.1421C149.754 38.0538 149.437 37.9099 148.471 38.6447C147.89 39.0796 147.151 39.8853 146.53 39.1088C145.909 38.3323 146.567 37.5344 147.327 37.1672C149.498 36.1353 150.118 34.1169 150.907 32.0945C152.702 27.638 155.818 23.8354 159.838 21.1936C160.317 20.8781 160.832 20.623 161.374 20.4341C161.807 20.2511 162.281 20.1855 162.747 20.244C163.214 20.3024 163.658 20.4829 164.032 20.7671C164.407 21.0513 164.7 21.4291 164.881 21.8623C165.063 22.2955 165.126 22.7686 165.065 23.2338C165.015 24.4013 164.722 25.5452 164.204 26.5924C163.685 27.6395 162.953 28.5669 162.054 29.315C159.333 31.5872 156.453 33.7182 153.61 35.8199C153.236 36.0062 152.948 36.328 152.805 36.7194C152.661 37.1108 152.673 37.5423 152.838 37.9256C153.636 40.2156 155.032 41.8197 157.596 42.0837C158.037 42.133 158.49 41.9887 158.931 42.0379C159.366 42.12 159.794 42.2346 160.211 42.3809C159.925 42.7472 159.715 43.3108 159.345 43.438C157.863 43.8871 156.328 44.3122 155.38 44.058ZM153.845 32.9507C154.191 32.8761 154.357 32.8813 154.456 32.8093C156.399 31.3029 158.414 29.9338 160.224 28.2245C161.161 27.2069 161.941 26.0565 162.54 24.8106C162.735 24.4889 162.511 23.9269 162.477 23.4651C162.017 23.5508 161.572 23.6997 161.154 23.9078C158.24 25.9806 156.207 28.8505 154.193 31.7254C154.025 32.1002 153.912 32.4975 153.858 32.9048L153.845 32.9507Z" fill="#BE9334"/>
<path d="M193.077 28.8596C194.124 27.0147 195.226 24.9286 196.469 22.9395C197.423 21.4043 198.547 19.9735 199.632 18.5028C199.792 18.288 199.976 18.093 200.182 17.9221C200.665 17.5201 201.179 16.9295 201.858 17.5248C202.537 18.1202 201.948 18.661 201.607 19.1992C199.337 22.7338 196.912 26.1872 195.6 30.2344C195.488 30.5316 195.406 30.8391 195.354 31.1525C195.261 31.7965 194.878 32.7468 195.747 32.8912C196.129 32.9136 196.512 32.8449 196.862 32.6906C197.212 32.5363 197.521 32.301 197.761 32.004C199.213 29.5689 200.42 26.9797 201.812 24.509C202.551 23.2347 203.377 22.0126 204.283 20.8511C205.308 19.4924 206.388 18.1876 207.509 16.9136C208.034 16.3163 208.776 15.649 209.555 16.3891C209.878 16.7174 210.066 17.1553 210.08 17.6152C210.094 18.0751 209.933 18.523 209.63 18.8694C208.153 21.2879 206.804 23.7801 205.343 26.2127C204.768 27.1804 204.014 28.0412 203.389 28.9757C202.395 30.2541 201.52 31.6204 200.775 33.0577C199.919 35.0028 198.755 36.9148 199.034 39.2234C199.062 39.526 198.654 39.8694 198.448 40.1978C198.171 39.9762 197.747 39.7935 197.645 39.5104C197.306 38.3977 197.053 37.2607 196.888 36.1096C196.791 35.3654 196.683 35.0706 195.858 35.3121C195.489 35.4383 195.094 35.4711 194.708 35.4077C194.322 35.3442 193.959 35.1864 193.649 34.9484C193.339 34.7104 193.093 34.3996 192.933 34.0439C192.773 33.6881 192.704 33.2985 192.732 32.9098C192.75 31.6257 192.946 30.3793 193.077 28.8596Z" fill="#BE9334"/>
<path d="M139.703 28.4922C138.068 29.6973 136.335 30.7876 134.79 32.0957C131.289 35.3016 128.346 39.0653 126.082 43.2334C125.445 44.4366 124.738 45.6008 123.963 46.7199C123.623 47.1797 122.871 47.3326 122.307 47.634C122.177 46.94 121.733 46.0928 121.961 45.5733C123.522 42.2131 125.089 38.8346 127.574 36.0071C129.439 33.8699 131.155 31.5939 133.225 29.6493C135.325 27.4855 137.911 25.8512 140.77 24.8812C143.179 24.1393 144.48 25.3244 144.022 27.8091C143.945 28.2199 143.793 28.6129 143.573 28.9681C142.033 31.4386 140.433 33.8734 138.902 36.3463C138.121 37.6032 137.482 38.918 136.715 40.1982C136.511 40.5175 136.071 40.685 135.741 40.9214C135.623 40.5158 135.362 40.0915 135.421 39.7235C135.963 36.1078 137.435 32.6951 139.694 29.818C139.88 29.5268 140.028 29.2123 140.132 28.8825L139.703 28.4922Z" fill="#BE9334"/>
<path d="M74.1899 37.1121C72.1415 42.9888 68.6919 46.5811 63.103 47.9176C60.2318 48.6144 59.0422 46.8295 58.5066 44.6294C58.357 44.0087 58.7547 43.151 57.6791 42.8923C57.5572 42.3417 57.5945 41.7682 57.7867 41.2384C59.0804 38.4031 60.9401 35.8613 63.2525 33.7682C64.2512 32.914 65.1321 31.9102 66.14 31.0584C66.7732 30.5828 67.4574 30.1787 68.1801 29.8536C68.3852 29.7511 68.8383 29.7544 68.9242 29.8758C69.5568 30.7932 70.5509 30.5085 71.3981 30.7355C72.0865 30.9234 72.706 31.3058 73.1819 31.8367C73.6578 32.3675 73.9698 33.0241 74.0803 33.7273C74.234 34.8489 74.2707 35.9833 74.1899 37.1121ZM71.6883 37.9768C72.4607 35.094 71.5809 32.4474 68.4719 33.5529C68.1139 33.6735 67.7381 33.7499 67.401 33.8662C64.6783 34.6717 63.4935 37.0308 62.2585 39.2091C61.5032 40.6388 60.9834 42.1807 60.7191 43.7757C60.4218 45.2902 61.2693 46.0683 62.7848 45.7167C64.808 45.2907 66.6879 44.3562 68.2461 43.0017C69.8042 41.6471 70.9891 39.9175 71.6883 37.9768Z" fill="#BE9334"/>
</svg>
