<svg width="249" height="88" viewBox="0 0 249 88" fill="none" xmlns="http://www.w3.org/2000/svg">
<path d="M125.15 19.6142C124.357 21.5249 123.186 23.2565 121.708 24.7063C119.761 26.753 117.39 28.0743 115.094 29.578C114.657 29.81 114.199 30.0006 113.725 30.1472C112.814 30.5023 112.498 31.0706 113.036 31.8801C114.328 33.8447 114.29 36.0418 114.265 38.2239C114.299 38.9178 114.169 39.6095 113.885 40.2433C113.601 40.877 113.17 41.4349 112.63 41.8717C111.494 42.7544 110.622 43.9765 109.123 44.5219C105.942 45.6856 103.693 43.5633 103.111 40.9557C102.62 38.977 102.819 36.8914 103.676 35.0429C103.82 34.7234 103.941 34.3889 104.067 34.0651C104.802 32.1884 104.41 31.4156 102.466 30.9286C102.164 30.8301 101.837 30.8419 101.543 30.9619C99.7514 31.9447 97.9837 32.9791 96.2117 33.9941C95.7931 34.2479 95.3601 34.4774 94.9149 34.6814C94.6869 34.7494 94.475 34.8625 94.292 35.0141C94.1089 35.1656 93.9583 35.3524 93.8492 35.5633C93.7401 35.7742 93.6747 36.0049 93.6569 36.2418C93.6392 36.4785 93.6693 36.7165 93.7457 36.9416C93.8757 37.6569 93.8963 38.3875 93.807 39.1087C93.7227 40.5209 93.4802 41.9189 93.0839 43.2768C92.0986 46.2226 90.9088 49.0962 89.5235 51.8767C87.9982 54.5287 86.3247 57.0927 84.5106 59.5567C84.1715 59.9668 83.7737 60.3249 83.3301 60.6199C82.9754 60.9051 82.4721 61.0886 82.2098 61.4419C81.3156 62.6915 80.0209 63.5992 78.5391 64.0153C77.8845 64.3426 77.1512 64.4811 76.4213 64.4152C75.6915 64.3504 74.9939 64.0838 74.4069 63.6456C72.9569 62.5335 71.8435 61.0425 71.19 59.3387C70.5366 57.6349 70.3687 55.7845 70.7049 53.9929C71.2624 50.0112 73.7306 47.2376 76.3494 44.5928C78.5237 42.5018 80.8168 40.5371 83.2172 38.7086C84.3618 37.8955 85.5531 37.1496 86.7848 36.4747C87.2802 36.2071 87.7521 35.8982 88.1955 35.5515C88.6083 35.1808 88.7178 34.6702 88.1411 34.3069C87.2762 33.7439 87.3318 33.0101 87.6153 32.1694C88.1288 30.6294 88.0879 30.683 86.6722 30.0184C86.2892 29.8313 85.8329 29.097 85.9274 28.756C86.1073 27.8252 86.5231 26.9563 87.1351 26.2319C88.8574 24.5753 90.3968 22.6996 92.6398 21.6293C93.1318 21.3164 93.7002 21.1435 94.2839 21.1289C94.8676 21.1144 95.4444 21.2591 95.9524 21.5471C96.4657 21.8578 96.8401 22.353 96.9985 22.9304C97.1569 23.508 97.0871 24.1237 96.8035 24.6506C95.9941 26.4415 95.0872 28.1867 94.0868 29.8786C93.8268 30.3697 93.3881 30.7704 93.1109 31.2571C93.0453 31.3845 93.0099 31.5251 93.0074 31.6683C93.0048 31.8115 93.0352 31.9534 93.0961 32.0832C93.2134 32.1857 93.3557 32.2557 93.5087 32.2861C93.6617 32.3164 93.8199 32.306 93.9674 32.2559C95.6513 31.4466 97.3008 30.5559 98.9782 29.736C100.057 29.1751 101.165 28.6735 102.299 28.2335C103.656 27.7436 105.088 27.4642 106.426 26.9421C107.023 26.6611 107.533 26.2251 107.903 25.6799C109.642 23.3346 111.144 20.7659 113.093 18.6095C114.749 16.8445 116.653 15.3281 118.745 14.1079C119.995 13.354 121.539 12.519 123.246 13.3383C125.16 14.2008 126.099 16.5878 125.15 19.6142ZM90.2847 41.746C90.4514 41.0354 90.559 40.3121 90.6064 39.5836C90.5977 39.1437 90.3887 38.4076 90.1154 38.33C89.613 38.2962 89.1154 38.4434 88.7131 38.7447C88.1684 39.1317 87.6458 39.5488 87.1477 39.9939C86.0683 40.8359 84.9157 41.6049 83.9094 42.5199C82.4473 43.8314 81.1766 45.3641 79.6414 46.5661C78.1766 47.8831 76.9185 49.4121 75.9091 51.1021C74.2195 53.469 74.227 55.96 75.1768 58.5594C75.7303 60.0018 77.3289 60.9221 78.2449 60.1484C79.6791 58.9484 81.5609 58.1888 82.4033 56.321C82.605 55.9466 82.8574 55.6018 83.1536 55.2962C86.6214 51.2685 88.4304 46.342 90.2847 41.746ZM122.471 18.3689C122.338 17.8102 122.146 17.2671 121.898 16.7484C121.821 16.6195 121.182 16.651 120.967 16.816C118.808 18.6094 116.468 20.1753 114.947 22.6024C114.453 23.3333 113.909 24.0289 113.319 24.684C112.889 25.1964 112.412 25.6786 112.03 26.1845C111.925 26.4647 111.878 26.7631 111.892 27.0618C112.15 27.0536 112.46 27.1311 112.668 27.0284C113.651 26.5819 114.603 26.0674 115.513 25.489C116.831 24.6756 118.056 23.7231 119.169 22.6478C120.353 21.2872 121.455 19.8584 122.471 18.3689ZM110.942 38.5677C110.828 37.3446 110.796 36.3705 110.635 35.4091C110.474 34.4477 109.923 34.1638 108.985 34.6949C108.058 35.2347 107.352 36.0834 106.991 37.0919C106.63 38.1003 106.637 39.2041 107.011 40.209C107.336 41.0654 108.052 41.3817 108.766 40.8311C109.542 40.1266 110.268 39.3705 110.942 38.5677ZM88.4011 28.6278C88.1863 29.4858 88.5199 29.9797 89.2319 29.8389C90.1395 29.6468 92.253 27.231 92.2633 26.3491C92.2653 25.7934 91.9661 25.4541 91.4823 25.8162C90.4457 26.596 89.504 27.4726 88.5321 28.3233C88.4642 28.4126 88.4193 28.5172 88.4011 28.6278Z" fill="#BE9334"/>
<path d="M16.7928 82.5515C18.4195 78.7922 20.0203 75.0257 21.6814 71.2752C23.3424 67.5237 25.0014 63.7819 26.727 60.0655C27.8259 57.6965 28.9878 55.3556 30.2129 53.0425C30.5272 52.5557 30.6815 51.9831 30.6542 51.4044C30.6271 50.8256 30.4196 50.2695 30.0609 49.8131C29.4335 48.8447 29.013 47.7579 28.8256 46.6206C28.6382 45.4833 28.6879 44.32 28.9717 43.2035C29.8051 39.7585 31.3164 36.5141 33.418 33.6584C33.4838 33.5353 33.5647 33.4208 33.6588 33.3175C34.8285 32.2974 36.0434 31.2797 37.2754 30.3026C37.9184 29.8218 38.5906 29.3812 39.2882 28.9831C39.5807 28.8011 39.9378 28.7264 40.2366 28.5551C41.0301 28.0882 41.8194 27.6021 42.5871 27.0923C42.623 27.0231 42.6436 26.9472 42.6473 26.8694C42.6509 26.7916 42.6377 26.714 42.6084 26.6417C42.4136 26.5185 42.1842 26.461 41.9544 26.478C39.9488 27.1001 37.9762 27.8233 36.0444 28.6448C33.3343 29.9297 30.7536 31.4694 28.337 33.2429C25.5674 35.2845 23.1829 37.6871 20.4907 39.7483C17.9341 41.7065 16.7845 44.5825 14.8819 46.9598C13.7388 48.5675 13.2438 50.5458 13.4948 52.5026C13.501 53.0672 13.667 53.6188 13.9735 54.094C14.2801 54.5692 14.7148 54.9487 15.2275 55.1886C16.8563 55.9886 18.5366 56.8014 20.2555 57.4599C20.9738 57.6097 21.7094 57.6589 22.4411 57.6062C23.2064 57.6438 23.9675 57.743 24.7169 57.9026C24.9321 57.9565 25.0399 58.4393 25.1949 58.7335C24.9327 58.9169 24.6441 59.0599 24.339 59.1573C23.5717 59.3099 22.7936 59.4015 22.0117 59.4316C21.3844 59.4232 20.7602 59.3433 20.1509 59.1934C19.1162 58.98 18.1093 58.6184 17.0682 58.467C13.6047 57.9826 11.3255 55.1049 11.0035 51.6415C10.6966 48.4464 12.3024 46.0858 13.5747 43.5233C13.8473 43.1573 14.1555 42.8191 14.4949 42.5137C15.1785 41.7185 15.817 40.8845 16.5094 40.0914C17.2855 39.1825 18.1067 38.3124 18.8807 37.4121C20.5383 35.4657 22.6522 34.0713 24.6261 32.4685C27.1866 30.3793 29.9308 28.5246 32.8255 26.927C34.8531 25.8633 36.9446 24.9255 39.0882 24.1188C40.7227 23.4706 42.4864 23.1463 44.0822 22.4337C44.7553 21.9996 45.286 21.378 45.6086 20.6459C46.4855 19.042 47.2419 17.4078 48.0393 15.8296C48.1202 15.5931 48.2644 15.3833 48.4563 15.2229C48.9364 15.0152 49.4275 14.8338 49.9274 14.6795C50.0653 15.1517 50.4183 15.7142 50.2959 16.0939C49.9221 17.222 49.3461 18.2813 48.869 19.3836C48.5891 19.9936 48.3578 20.6247 48.1773 21.2709C47.9969 21.9917 48.2294 22.3417 49.1177 22.3363C52.9617 22.3234 56.7121 25.0589 56.5485 29.8048C56.5853 32.7588 55.6738 35.6456 53.9473 38.0432C51.8154 40.8366 49.4761 43.4661 46.9492 45.9097C45.4183 47.3499 43.3128 48.2724 41.4936 49.4397C39.5178 50.6042 37.3809 51.4728 35.1512 52.0181C34.5347 52.231 34.0228 52.6699 33.7192 53.2459C30.8393 58.9072 27.9487 64.6478 25.1807 70.4099C22.8962 75.1535 20.7602 79.962 18.5833 84.7502C18.2782 85.4214 18.1624 86.1767 17.8895 86.8655C17.8229 87.1307 17.4638 87.2876 17.2467 87.4967C17.0699 87.2693 16.9297 87.0159 16.8312 86.7462C16.4452 85.3749 16.432 83.927 16.7928 82.5515ZM49.2999 25.7373C46.7184 25.0907 46.256 25.3669 45.216 27.696C42.7146 33.3426 40.1531 38.9741 37.6109 44.6013C37.3043 45.1573 37.0323 45.7317 36.7965 46.3212C36.717 46.6386 36.8655 47.0315 36.9109 47.3984C37.2507 47.3496 37.5821 47.2548 37.896 47.1163C39.0335 46.4073 40.1583 45.6769 41.242 44.8907C42.5628 44.0304 43.8151 43.0698 44.9878 42.0176C46.4865 40.5238 48.4973 39.5047 49.3976 37.4417C49.3976 37.4417 49.4126 37.3816 49.4729 37.3602C51.2984 35.8545 52.4864 33.7167 52.8 31.3734C53.375 27.8337 52.998 26.7455 49.3343 25.7459L49.2999 25.7373ZM32.6086 42.0447C32.4754 42.5766 32.3939 42.9026 32.3553 43.2759C32.1365 44.0913 31.9921 44.9248 31.924 45.7664C31.92 46.1848 32.3891 46.6123 32.641 47.031C33.028 46.8044 33.3813 46.5245 33.6902 46.1997C33.9338 45.7719 34.1353 45.3216 34.292 44.8551C36.1573 40.9822 38.0406 37.1108 39.9419 33.2408C40.204 32.7046 40.5717 32.2223 40.8339 31.6862C40.8781 31.5769 40.8997 31.4597 40.8979 31.3419C40.8959 31.2239 40.8704 31.1076 40.8228 30.9996C40.7884 30.918 40.4011 30.8939 40.2743 30.9625C39.326 31.573 38.0569 31.7474 37.5993 33.0278C37.4033 33.4455 37.1143 33.8127 36.7544 34.1019C34.5072 36.2004 33.0551 39.0086 32.643 42.0533L32.6086 42.0447Z" fill="#BE9334"/>
<path d="M210.951 24.7732C211.9 21.174 213.409 17.7462 215.422 14.6145C215.887 14.0023 216.42 13.4444 217.009 12.9512C217.362 12.658 217.688 12.3338 217.983 11.9825C219.599 9.65204 222.077 8.33947 224.419 6.94748C225.816 6.12232 227.373 5.60464 228.987 5.42911C232.167 5.11291 233.869 6.86141 234.902 10.2204C236.35 14.923 234.928 18.9251 231.514 22.2642C229.672 24.2256 227.361 25.6891 224.798 26.518C223.686 26.8321 222.576 27.1742 221.442 27.4282C220.358 27.7078 219.206 27.5611 218.227 27.0186C217.246 26.4761 216.511 25.5792 216.173 24.513C215.961 24.1735 215.694 23.8721 215.382 23.6216C215.091 23.941 214.62 24.2151 214.555 24.5819C213.952 27.759 214.163 30.866 215.942 33.6552C216.904 35.1326 218.402 36.1811 220.121 36.58C221.527 37.0501 222.97 37.3936 224.437 37.6061C226.011 37.7087 227.617 37.6546 229.202 37.6778C230.114 37.6874 231.069 37.3066 232.058 37.5909C232.385 37.6728 232.798 37.4115 233.17 37.3861C233.608 37.3262 234.056 37.3633 234.478 37.4949C234.716 37.6003 234.808 38.0424 234.974 38.33C234.714 38.4806 234.446 38.6143 234.169 38.7304C233.567 38.9443 232.947 39.1174 232.326 39.2991C232.091 39.3671 231.852 39.4199 231.61 39.457C230.762 39.5913 229.921 39.7727 229.067 39.8233C227.497 39.9224 225.935 39.9508 224.361 39.994C223.909 39.9122 223.451 39.8587 222.993 39.8337C220.588 40.198 218.523 39.2065 216.505 38.2087C214.207 37.0132 212.917 34.8941 211.936 32.5692C211.009 30.0801 210.672 27.4119 210.951 24.7732ZM232.276 15.2705C232.61 14.2982 232.713 13.2618 232.577 12.2425C232.443 11.2232 232.072 10.2485 231.497 9.39483C231.301 9.07825 231.016 8.82672 230.677 8.6719C230.338 8.51725 229.961 8.4664 229.593 8.5259C228.252 8.59133 226.962 9.06376 225.898 9.88C224.447 11.0392 222.933 12.1188 221.529 13.3445C220.63 14.1225 219.924 15.1129 219.056 15.9166C217.923 16.9731 217.878 17.4451 219.068 18.4635C219.817 19.1251 219.843 19.5693 219.096 20.1757C218.35 20.782 217.693 21.4014 218.119 22.4017C218.279 22.929 218.592 23.3974 219.02 23.7477C219.446 24.0979 219.966 24.3144 220.516 24.3697C222.353 24.4444 224.168 23.9649 225.726 22.9938C228.117 21.7691 230.184 20.1622 231.305 17.6166C231.7 16.731 232.04 15.8495 232.276 15.2705Z" fill="#BE9334"/>
<path d="M152.082 23.0769C153.135 22.2018 154.231 21.3809 155.368 20.6174C156.35 20.0179 157.415 19.5658 158.529 19.2757C159.504 19.0364 160.294 19.7174 160.707 20.7328C161.401 22.4564 161.879 22.5578 163.448 21.6198C164.639 20.8695 165.919 20.2712 167.259 19.8389C167.943 19.6114 168.681 19.6031 169.371 19.8151C170.062 20.0271 170.667 20.4487 171.105 21.0212C171.995 22.1503 172.524 23.5183 172.628 24.9493C172.721 27.7302 171.983 30.4746 170.508 32.8342C169.414 34.4293 168.346 36.0673 167.105 37.5529C166.22 38.5017 165.235 39.3523 164.167 40.09C164.006 40.1787 163.828 40.2277 163.646 40.2327C163.462 40.2378 163.281 40.1987 163.116 40.1189C162.973 40.0025 162.859 39.8534 162.785 39.6841C162.712 39.5149 162.68 39.3304 162.693 39.1464C162.904 38.3686 163.187 37.6125 163.541 36.8881C165.022 33.5662 166.528 30.2507 168.009 26.9288C168.145 26.6408 168.223 26.3289 168.238 26.0108C168.349 23.9597 167.383 23.2527 165.672 24.3193C164.076 25.3971 162.542 26.5623 161.076 27.8094C159.41 29.2893 158.035 31.066 157.021 33.0488C156.226 34.1684 155.228 35.1305 154.08 35.8863C153.824 35.9914 153.544 36.0282 153.27 35.9928C152.994 35.9575 152.733 35.8515 152.512 35.685C152.154 35.0026 151.915 34.2644 151.806 33.5022C151.815 33.3583 151.882 33.2242 151.991 33.1289C154.097 30.9214 155.285 28.2192 156.68 25.6053C156.798 25.3887 157.022 25.1894 157.042 24.9663C157.039 24.5406 157.008 24.1155 156.949 23.6938C156.574 23.8007 156.107 23.8023 155.848 24.038C154.83 25.1498 153.752 26.2038 152.616 27.1949C150.371 28.8574 149.168 31.3643 147.365 33.3749C146.49 34.5231 145.734 35.7573 145.108 37.0586C144.313 38.4458 143.703 38.767 142.721 38.2295C141.549 37.5803 141.267 36.5157 142.064 35.2657C143.466 33.0638 145.026 30.9564 146.325 28.692C147.412 26.7944 148.227 24.7462 149.144 22.7604C149.233 22.4557 149.359 22.1626 149.518 21.8875C149.896 21.4352 150.352 21.0388 150.752 20.6102C151.077 21.1018 151.423 21.5807 151.717 22.0917C151.868 22.4088 151.989 22.7385 152.082 23.0769Z" fill="#BE9334"/>
<path d="M178.248 31.9097C179.916 27.0401 182.116 22.3685 184.806 17.9791C185.319 17.2599 185.949 16.6318 186.67 16.121C187.214 15.7011 187.901 15.2984 188.544 15.9429C188.859 16.2799 189.057 16.7096 189.107 17.1676C189.158 17.6256 189.058 18.0873 188.822 18.4836C185.678 22.8086 183.461 27.7347 182.312 32.9549C182.261 33.2349 182.273 33.5227 182.347 33.7979C182.42 34.073 182.553 34.3288 182.736 34.5474C182.964 34.7686 183.807 34.6151 184.218 34.3623C186.235 33.0987 188.246 31.7879 190.179 30.3845C190.711 29.9221 191.131 29.3443 191.406 28.6952C192.736 26.1198 193.978 23.495 195.357 20.9497C195.942 20.0293 196.601 19.1576 197.326 18.3428C197.729 17.946 198.083 17.5019 198.379 17.0201C199.004 15.5447 200.402 15.0012 201.604 14.2537C201.749 14.1466 201.919 14.0786 202.098 14.0563C202.277 14.0342 202.458 14.0584 202.625 14.1268C202.793 14.1953 202.939 14.3054 203.05 14.4468C203.162 14.5881 203.235 14.7558 203.263 14.9336C203.492 15.7234 203.452 16.5664 203.148 17.3301C201.597 20.1691 199.924 22.9052 198.191 25.699C197.784 26.3559 197.306 26.9669 196.766 27.5212C194.752 29.6516 193.734 32.3325 192.575 34.951C192.285 35.518 192.067 36.1189 191.926 36.7397C191.792 37.5529 191.767 38.3803 191.85 39.2007C191.921 39.8293 192.102 40.5311 191.397 40.7192C191.134 40.7297 190.872 40.6784 190.632 40.5693C190.393 40.4602 190.182 40.2964 190.018 40.0911C189.581 39.4531 189.283 38.7327 189.139 37.9746C188.818 36.2985 188.06 35.963 186.649 36.9592C185.262 38.0643 183.527 38.6437 181.751 38.595C180.956 38.5674 180.194 38.2746 179.585 37.7635C178.977 37.2524 178.558 36.5525 178.396 35.7763C178.277 34.491 178.229 33.2001 178.248 31.9097Z" fill="#BE9334"/>
<path d="M120.592 35.8151C121.746 31.8839 123.518 28.1607 125.84 24.784C126.618 23.6842 127.87 23.5781 129.016 23.3822C129.705 23.2627 130.574 24.4652 130.636 25.3472C130.672 25.5482 130.661 25.7543 130.607 25.951C130.554 26.1477 130.458 26.3301 130.325 26.4856C130.193 26.6411 130.028 26.7657 129.843 26.8509C129.656 26.936 129.455 26.9794 129.251 26.9784C129.003 27.0304 128.77 27.1327 128.565 27.2791C128.36 27.4255 128.187 27.6126 128.058 27.8289C126.686 30.6853 125.385 33.5418 124.11 36.4863C123.959 36.8315 124.18 37.3339 124.23 37.7567C124.637 37.667 125.158 37.7061 125.426 37.4725C127.11 36.1528 128.763 34.8072 130.361 33.3928C130.758 32.9444 131.065 32.424 131.266 31.8597C132.022 30.2257 132.635 28.5098 133.517 26.9531C134.396 25.563 135.356 24.2265 136.394 22.9504C136.795 22.3732 137.238 21.8258 137.718 21.3127C138.099 20.9248 138.563 20.421 139.034 20.3658C139.741 20.2336 140.472 20.3839 141.07 20.7842C141.385 21.1712 141.564 21.6507 141.58 22.1489C141.596 22.6471 141.448 23.1363 141.157 23.5415C140.236 25.1347 139.373 26.833 138.313 28.3638C136.286 31.5175 134.749 34.9599 133.755 38.574C133.347 39.8759 132.638 41.1024 132.92 42.5681C132.955 42.7591 132.205 43.3462 132.068 43.2667C131.349 42.9662 130.713 42.494 130.218 41.8914C129.899 41.1879 129.716 40.4305 129.679 39.6594C129.49 38.6272 129.115 38.5152 128.248 39.0914C127.123 39.8664 125.941 40.5579 124.713 41.1601C124.36 41.3225 123.975 41.4078 123.585 41.4104C123.195 41.413 122.809 41.333 122.453 41.1755C122.096 41.0181 121.777 40.7869 121.516 40.4972C121.256 40.2074 121.061 39.8659 120.942 39.4952C120.382 38.115 120.143 36.6965 120.592 35.8151Z" fill="#BE9334"/>
<path d="M79.8549 27.153C78.6233 29.2244 77.454 31.1928 76.302 33.1654C75.5711 34.4048 74.7715 35.6268 74.1784 36.9372C74.0609 37.473 74.0466 38.0263 74.1361 38.5678C74.2006 39.1157 74.179 39.6702 74.0723 40.2112C73.7307 41.1742 73.0037 41.2657 72.2914 40.5312C71.1917 39.4077 70.172 39.3166 69.082 40.3838C68.6826 40.7615 68.1882 41.0246 67.651 41.1453C67.1138 41.2658 66.5538 41.2396 66.0299 41.0692C65.5292 40.8745 65.0953 40.5396 64.7806 40.105C64.466 39.6702 64.2839 39.1541 64.2563 38.619C63.954 36.7035 64.1792 34.7429 64.9077 32.9468C66.3938 28.8962 68.6901 25.1905 71.6573 22.0546C72.6966 21.115 73.9242 20.4062 75.2593 19.9752C76.6852 19.4662 77.9807 20.7571 78.3579 22.5748C78.6375 23.4923 78.9676 24.3937 79.3465 25.2751C79.5661 25.8589 79.6911 26.4921 79.8549 27.153ZM73.1644 25.3863C72.9021 25.5211 72.7773 25.5446 72.7322 25.6153C70.4082 28.9579 68.6613 32.6654 67.5638 36.5844C67.2975 37.4294 67.9858 37.6749 68.6914 37.6691C69.6078 37.6616 70.8526 36.3413 71.1146 35.2945C71.3766 34.2478 71.7547 33.2848 72.0124 32.2552C72.4225 30.6164 72.8326 28.9776 73.1653 27.3194C73.2376 26.678 73.2401 26.0306 73.1731 25.3884L73.1644 25.3863ZM76.1561 24.394L75.5404 23.2004C75.2328 23.4425 74.8221 23.6223 74.6803 23.8968C74.6416 24.0512 74.9602 24.5321 75.2248 24.6805C75.4895 24.8288 75.6959 24.5522 76.1475 24.3919L76.1561 24.394Z" fill="#BE9334"/>
</svg>
