<svg width="249" height="86" viewBox="0 0 249 86" fill="none" xmlns="http://www.w3.org/2000/svg">
<path d="M36.4261 37.5589C33.9596 39.3974 31.5304 41.3542 28.9326 43.0197C27.1757 44.134 25.2808 45.0155 23.2953 45.642C20.7415 46.4436 18.8284 45.0749 18.3046 42.4254C18.0278 40.3064 18.2663 38.1528 19.0001 36.1467C19.2854 35.0817 19.6997 34.0513 19.9826 32.9955C20.0589 32.7108 20.0229 32.219 19.8424 32.0821C19.6918 32.0261 19.53 32.0068 19.3704 32.0256C19.2109 32.0445 19.0582 32.101 18.9251 32.1906C17.1294 33.2602 15.7521 34.9069 15.0188 36.861C13.8218 40.4074 12.1718 43.803 10.6875 47.2429C10.1338 48.5325 9.48628 49.7797 8.74997 50.9747C8.53861 51.3215 7.70284 51.6781 7.50152 51.5455C7.06358 51.1976 6.77752 50.6942 6.70339 50.141C6.68399 49.5333 6.80198 48.9292 7.04863 48.3737C8.20311 45.1701 9.34163 41.9524 10.6042 38.7876C11.2492 37.3729 11.9769 35.9974 12.7838 34.668C14.5626 31.4546 15.1911 27.8936 15.8749 24.3474C15.9929 23.5195 16.2101 22.7088 16.5219 21.9328C16.7111 21.521 17.3068 21.287 17.7649 20.9768C17.9422 21.4573 18.3226 21.9528 18.2714 22.4016C17.9762 24.7924 17.5755 27.1352 17.2127 29.5571C17.2294 29.8026 17.2736 30.0454 17.3444 30.2812C17.8812 29.9723 18.3196 29.7356 18.7538 29.478C21.0267 28.178 22.5079 28.8012 22.9408 31.3477C23.0586 32.1718 23.0278 33.01 22.85 33.8228C22.4415 35.7896 21.9015 37.7311 21.4629 39.6996C20.9024 42.1964 21.7191 43.1631 24.1925 42.4778C26.3296 41.8184 28.3847 40.9199 30.3186 39.7994C32.4416 38.6168 34.3842 37.1496 36.4127 35.8038L38.2595 34.5471L38.8966 36.3316C39.3239 35.741 39.6969 35.1131 40.0112 34.4556C41.2254 30.8449 42.3936 27.2218 43.571 23.6012C43.63 23.3809 43.6486 23.0907 43.8009 22.9642C44.1784 22.6846 44.5758 22.4326 44.9898 22.2102C45.1241 22.63 45.4794 23.1089 45.3675 23.4528C44.4255 26.5264 43.4006 29.5778 42.4058 32.6273C42.3331 32.8438 42.2739 33.0645 42.2287 33.2884C41.9556 34.3074 42.1766 34.5143 43.2222 34.332C45.0591 33.9568 46.9622 34.0536 48.7527 34.6133C52.9079 36.0121 54.4388 39.4334 52.4914 43.3494C51.7528 44.8732 50.654 46.1946 49.2894 47.2002C47.9249 48.2058 46.3354 48.8655 44.6577 49.1225C42.9857 49.4322 41.3729 49.2264 40.2341 47.7306C39.0953 46.2348 39.5185 44.3605 40.307 42.7809C41.3985 40.7247 43.0002 38.9824 44.9594 37.72C45.3547 37.4074 45.7265 37.0663 46.0718 36.6994L45.9099 36.2723C44.7764 36.4507 43.6657 36.6549 42.5286 36.7734C41.0329 36.904 40.8507 38.0261 40.4517 39.1099C39.0088 42.948 37.5284 46.7662 36.0106 50.5645C35.4421 51.9866 35.0976 53.2719 36.325 54.5848C36.6438 55.0356 36.843 55.5596 36.9038 56.1077C36.9424 56.2951 36.65 56.6497 36.4241 56.7565C36.1981 56.8632 35.936 56.6257 35.7937 56.4203C34.4934 54.9009 34.5051 54.8942 33.7405 56.7164C31.4127 62.5675 29.0254 68.3829 26.7965 74.2703C26.1873 76.2133 25.6968 78.1916 25.3277 80.1942C25.232 80.5305 25.117 80.8611 24.9834 81.1843C24.5775 80.9181 24.2692 80.5277 24.1047 80.0719C23.9403 79.6161 23.9286 79.1196 24.0716 78.6571C24.8065 75.4422 25.7683 72.2834 26.9499 69.2044C28.8049 64.5649 30.4488 59.8295 32.143 55.1272C32.5279 54.0594 33.4191 53.1272 32.9224 51.8133C32.6719 51.0646 32.5052 50.2906 32.4256 49.5055C32.0468 46.7418 32.5347 43.9302 33.8223 41.4566C34.5361 40.2939 35.349 39.1948 36.252 38.1716C36.3866 38.001 36.5027 37.8254 36.6256 37.6616L36.4261 37.5589ZM41.85 43.8733C41.6308 45.2807 42.205 46.2316 43.2973 46.1701C44.4961 46.1338 45.6756 45.8616 46.7679 45.369C47.8602 44.8765 48.8439 44.1733 49.6623 43.2999C51.7342 41.1293 51.5031 38.9715 49.1658 37.3809C48.6079 36.9952 48.0837 36.8154 47.5382 37.3777C46.2017 38.6826 44.8749 39.9507 43.685 41.3342C43.0258 42.1453 42.4132 42.993 41.85 43.8733ZM38.2261 39.2024C35.3514 40.6855 33.0075 47.1128 34.4049 49.78C35.5657 46.1845 37.2224 42.8006 38.2261 39.2024Z" fill="#BE9334"/>
<path d="M229.728 42.496C223.619 40.9477 219.688 38.8218 217.353 34.4963C216.535 32.7945 216.077 30.9433 216.008 29.0582C215.761 26.2959 216.913 23.6918 216.522 20.9501C216.509 20.2661 216.614 19.5852 216.834 18.9378C216.943 18.354 217.224 17.8159 217.64 17.3914C218.055 16.9669 218.588 16.675 219.171 16.5528C219.698 16.3995 220.173 16.1048 220.544 15.7005C222.532 13.5862 224.329 11.2632 226.469 9.31752C228.659 7.24749 231.278 5.6821 234.142 4.73154C235.138 4.37851 236.187 4.20029 237.244 4.20477C238.301 4.26527 239.297 4.71647 240.039 5.47021C240.78 6.22394 241.214 7.22603 241.255 8.2806C241.511 11.4253 240.768 14.5692 239.133 17.2669C236.408 22.0935 232.084 25.8224 226.901 27.8147C224.59 28.7405 222.192 29.3672 219.716 28.1824C219.017 27.8473 218.802 28.2816 218.875 28.8917C219.41 33.2664 221.775 36.301 225.628 38.3863C228.798 40.1114 232.24 40.8566 235.681 41.641C236.298 41.8063 236.988 41.6269 237.616 41.7855C238.077 41.9089 238.824 42.2864 238.829 42.5632C238.845 43.276 238.238 43.5167 237.523 43.4235L229.728 42.496ZM238.487 11.8687C238.626 11.0862 238.719 10.2963 238.766 9.50298C238.802 7.96781 237.762 7.05947 236.325 7.56007C231.519 9.10845 227.315 12.108 224.294 16.1444C222.42 18.1804 220.945 20.5486 219.946 23.127C219.888 23.4011 219.892 23.6847 219.957 23.9573C220.023 24.2299 220.147 24.4849 220.323 24.704C221.458 25.9922 223.016 25.7012 224.378 25.2985C231.109 23.1957 236.176 19.2789 238.487 11.8687Z" fill="#BE9334"/>
<path d="M135.304 14.7354C134.478 17.4285 132.995 19.8744 130.988 21.8546C125.599 27.712 118.886 31.6991 111.867 35.2404C111.114 35.6192 110.78 36.0215 111.015 36.9112C111.803 39.9366 110.559 42.0733 107.529 43.1801C105.845 43.7917 104.161 43.8913 102.788 42.6774C101.416 41.4634 101.068 39.5595 101.443 37.6428C102.414 33.0536 104.614 28.8145 107.809 25.3756C110.11 22.5656 112.556 19.8775 115.139 17.3223C119.194 13.5677 123.417 9.92666 128.932 8.31452C130.752 7.81834 132.59 7.70064 134.091 9.09671C134.799 9.83187 135.287 10.749 135.502 11.7451C135.716 12.7412 135.647 13.7768 135.304 14.7354ZM106.256 31.5032C106.534 32.05 107.737 32.274 106.72 33.1232C106.481 33.3151 106.415 33.7105 106.272 33.9871C106.6 34.1192 106.943 34.2112 107.294 34.2609C107.675 34.2702 108.053 34.1933 108.4 34.0359C110.86 33.0548 113.257 31.9223 115.576 30.6449C119.292 28.3727 122.885 25.9063 126.339 23.2559C128.238 21.5809 129.988 19.7452 131.57 17.7693C132.751 16.5123 133.43 14.8677 133.48 13.1446C133.527 12.7735 133.481 12.3964 133.346 12.0472C133.211 11.698 132.991 11.3875 132.706 11.1435C132.422 10.8995 132.081 10.7297 131.714 10.6492C131.348 10.5687 130.967 10.58 130.607 10.6822C129.343 10.9182 128.112 11.3054 126.942 11.8355C121.93 14.2221 117.967 18.0014 114.104 21.847C112.259 23.6849 110.553 25.6682 108.891 27.6729C107.896 28.8823 107.121 30.2293 106.256 31.5032ZM104.647 39.8297C104.717 39.3067 104.817 38.788 104.945 38.2761C105.098 37.9844 105.266 37.701 105.448 37.4271C105.533 37.275 105.583 37.1063 105.595 36.9328C105.607 36.7594 105.58 36.5853 105.517 36.423C105.455 36.2607 105.357 36.1141 105.231 35.9935C105.105 35.8729 104.954 35.7813 104.789 35.7252C103.908 35.3315 103.796 36.1182 103.73 36.6221C103.56 37.7648 103.498 38.921 103.545 40.0756C103.584 40.4844 103.782 40.8622 104.095 41.1296C104.408 41.397 104.812 41.5331 105.223 41.5094C105.931 41.5536 106.638 41.4201 107.28 41.1211C107.923 40.8222 108.479 40.3673 108.899 39.7981C109.183 39.4117 109.311 38.9322 109.255 38.4557C109.2 37.9792 108.966 37.5409 108.601 37.2286C108.029 36.8588 107.212 37.3288 106.675 38.3364C106.512 38.7499 106.235 39.1091 105.876 39.3731C105.517 39.6371 105.091 39.7953 104.647 39.8297Z" fill="#BE9334"/>
<path d="M93.3622 32.7708C92.9488 32.6667 92.5263 32.6029 92.1006 32.5803C91.5155 32.6003 90.9339 32.481 90.4038 32.2324C89.8737 31.9838 89.4103 31.613 89.052 31.1507C88.6937 30.6883 88.4507 30.1477 88.3432 29.5735C88.2357 28.9994 88.2668 28.4081 88.4338 27.8487C88.9451 25.9789 89.8748 24.2495 91.1528 22.7906C92.4309 21.3316 94.0242 20.1809 95.8131 19.4249C98.4506 18.3112 100.28 20.1397 100.45 22.6355C100.592 24.8732 100.136 27.1076 99.1296 29.1107C97.9124 31.5937 96.5075 33.9805 94.9269 36.2503C94.4672 36.9478 93.9217 37.5851 93.3033 38.1473C91.7629 39.4763 92.2208 41.0455 92.6437 42.6348C92.716 42.8805 92.8896 43.1534 92.8398 43.3762C92.7566 43.6477 92.5716 43.8766 92.3232 44.0151C92.209 44.0731 91.8616 43.8226 91.7352 43.6312C91.4992 43.2442 91.3014 42.8353 91.1445 42.4103C90.7287 41.3837 90.4426 41.3464 89.5342 42.0477C87.965 43.3 86.4068 44.5848 84.7406 45.6833C83.6372 46.4238 82.4347 47.0059 81.1684 47.4125C78.7865 48.1617 77.1634 46.4476 77.8221 44.0263C78.0387 43.3336 78.459 42.7221 79.0286 42.2712C79.5982 41.8202 80.2907 41.5506 81.0164 41.4972C81.3129 41.565 81.589 41.7026 81.8215 41.8984C82.054 42.0942 82.2363 42.3426 82.3531 42.6229C82.7333 43.7087 83.2761 43.5983 83.9461 43.0497C85.7193 41.6257 87.3888 40.0361 89.2245 38.7469C91.3593 37.2624 91.7534 34.7603 93.3622 32.7708ZM97.91 25.7433C97.9532 25.2137 98.0548 24.5029 98.0521 23.8133C98.0595 22.3491 97.3008 21.9392 95.9793 22.5986C93.6948 23.7577 92.2382 25.7684 90.9148 27.8345C90.7416 28.108 90.6459 28.4232 90.6376 28.7467C90.6292 29.0703 90.7087 29.3902 90.8676 29.6727C91.0264 29.9551 91.2588 30.1897 91.5401 30.3515C91.8214 30.5133 92.1412 30.5964 92.4656 30.592C95.1258 30.7931 96.3289 30.0232 97.2289 27.5485C97.3722 26.9768 97.6303 26.4555 97.91 25.7433Z" fill="#BE9334"/>
<path d="M176.427 30.5853C175.738 30.8338 175.334 30.9813 174.976 31.1018C173.781 31.4706 172.615 31.9552 171.33 31.3355C170.693 31.0268 170.188 31.3639 169.979 31.9575C169.34 33.7542 168.016 35.2691 168.052 37.3452C168.066 37.5066 168.041 37.6689 167.978 37.8184C167.916 37.9679 167.818 38.1001 167.693 38.2038C167.569 38.3076 167.421 38.3797 167.262 38.4143C167.104 38.4488 166.939 38.4446 166.782 38.4021C166.524 38.333 166.202 37.5087 166.307 37.1532C166.971 34.9695 167.235 32.698 168.649 30.6958C170.23 28.4821 171.231 25.8869 172.594 23.5264C173.762 21.4875 175.067 19.5249 176.355 17.5574C176.495 17.3293 176.896 17.2694 177.18 17.1291C177.311 17.4496 177.627 17.8195 177.548 18.0741C177.261 19.1329 176.858 20.1567 176.346 21.1269C175.04 23.3847 173.581 25.5522 172.25 27.7934C172.145 28 172.087 28.2274 172.082 28.459C172.076 28.6907 172.122 28.9208 172.217 29.1326C172.372 29.2773 172.557 29.3872 172.758 29.4547C172.96 29.5223 173.174 29.546 173.385 29.5243C176.329 29.3291 178.129 27.6565 179.176 24.9653C179.573 24.0231 180.107 23.145 180.762 22.3597C182.046 20.7356 183.376 19.124 184.816 17.6203C185.42 16.9852 186.288 16.1749 187.305 16.8015C188.321 17.4281 187.83 18.5263 187.678 19.4991C187.016 22.8151 184.826 25.1312 182.277 26.9083C180.152 28.3953 179.582 30.4469 178.969 32.6246C178.814 33.2129 178.728 33.8174 178.714 34.4257C178.653 34.7282 178.678 35.0415 178.785 35.331C178.892 35.6205 179.078 35.875 179.321 36.0663C179.563 36.2576 179.854 36.3783 180.161 36.4151C180.469 36.4519 180.78 36.4034 181.061 36.2748C182.813 35.5929 184.492 34.7045 186.217 33.9369C186.546 33.8657 186.884 33.8467 187.219 33.8806C187.131 34.2111 187.219 34.727 187.011 34.8778C185.277 36.2847 183.428 37.5436 181.483 38.6412C178.618 40.0485 176.311 38.6037 176.023 35.4071C176.003 34.2083 176.093 33.0104 176.291 31.8282C176.28 31.5006 176.334 31.1902 176.427 30.5853ZM185.933 20.5962L185.674 20.4187C184.099 21.3251 183.573 22.1091 183.836 23.5965C184.582 22.4681 185.24 21.5226 185.933 20.5962Z" fill="#BE9334"/>
<path d="M155.379 42.058C154.14 41.7937 152.997 41.1956 152.074 40.3289C151.151 39.4622 150.483 38.36 150.143 37.1421C149.754 36.0538 149.437 35.9099 148.471 36.6447C147.89 37.0796 147.151 37.8853 146.53 37.1088C145.909 36.3323 146.567 35.5344 147.327 35.1672C149.498 34.1353 150.118 32.1169 150.907 30.0945C152.702 25.638 155.818 21.8354 159.838 19.1936C160.317 18.8781 160.832 18.623 161.374 18.4341C161.807 18.2511 162.281 18.1855 162.747 18.244C163.214 18.3024 163.657 18.4829 164.032 18.7671C164.407 19.0513 164.7 19.4291 164.881 19.8623C165.062 20.2955 165.126 20.7686 165.065 21.2338C165.015 22.4013 164.722 23.5452 164.204 24.5924C163.685 25.6395 162.953 26.5669 162.054 27.315C159.333 29.5872 156.452 31.7182 153.61 33.8199C153.236 34.0062 152.948 34.328 152.805 34.7194C152.661 35.1108 152.673 35.5423 152.838 35.9256C153.636 38.2156 155.032 39.8197 157.596 40.0837C158.037 40.133 158.49 39.9887 158.931 40.0379C159.366 40.12 159.793 40.2346 160.211 40.3809C159.925 40.7472 159.715 41.3108 159.345 41.438C157.863 41.8871 156.328 42.3122 155.379 42.058ZM153.845 30.9507C154.191 30.8761 154.357 30.8813 154.456 30.8093C156.399 29.3029 158.414 27.9338 160.224 26.2245C161.161 25.2069 161.941 24.0565 162.54 22.8106C162.735 22.4889 162.511 21.9269 162.476 21.4651C162.017 21.5508 161.572 21.6997 161.154 21.9078C158.24 23.9806 156.207 26.8505 154.193 29.7254C154.025 30.1002 153.912 30.4975 153.858 30.9048L153.845 30.9507Z" fill="#BE9334"/>
<path d="M193.077 26.8596C194.124 25.0147 195.226 22.9286 196.469 20.9395C197.423 19.4043 198.547 17.9735 199.632 16.5028C199.791 16.288 199.976 16.093 200.182 15.9221C200.665 15.5201 201.179 14.9295 201.858 15.5248C202.537 16.1202 201.948 16.661 201.607 17.1992C199.337 20.7338 196.912 24.1872 195.6 28.2344C195.488 28.5316 195.406 28.8391 195.354 29.1525C195.261 29.7965 194.878 30.7468 195.747 30.8912C196.129 30.9136 196.512 30.8449 196.862 30.6906C197.212 30.5363 197.52 30.301 197.761 30.004C199.213 27.5689 200.42 24.9797 201.812 22.509C202.551 21.2347 203.377 20.0126 204.283 18.8511C205.308 17.4924 206.388 16.1876 207.509 14.9136C208.034 14.3163 208.776 13.649 209.555 14.3891C209.878 14.7174 210.066 15.1553 210.08 15.6152C210.094 16.0751 209.933 16.523 209.63 16.8694C208.153 19.2879 206.804 21.7801 205.343 24.2127C204.768 25.1804 204.014 26.0412 203.389 26.9757C202.395 28.2541 201.52 29.6204 200.775 31.0577C199.918 33.0028 198.755 34.9148 199.034 37.2234C199.062 37.526 198.654 37.8694 198.448 38.1978C198.171 37.9762 197.747 37.7935 197.645 37.5104C197.306 36.3977 197.053 35.2607 196.888 34.1096C196.791 33.3654 196.683 33.0706 195.858 33.3121C195.489 33.4383 195.094 33.4711 194.708 33.4077C194.322 33.3442 193.958 33.1864 193.649 32.9484C193.339 32.7104 193.093 32.3996 192.933 32.0439C192.773 31.6881 192.704 31.2985 192.732 30.9098C192.75 29.6257 192.946 28.3793 193.077 26.8596Z" fill="#BE9334"/>
<path d="M139.703 26.4922C138.068 27.6973 136.335 28.7876 134.79 30.0957C131.289 33.3016 128.346 37.0653 126.081 41.2334C125.445 42.4366 124.738 43.6008 123.963 44.7199C123.623 45.1797 122.871 45.3326 122.307 45.634C122.177 44.94 121.733 44.0928 121.961 43.5733C123.522 40.2131 125.089 36.8346 127.574 34.0071C129.439 31.8699 131.154 29.5939 133.225 27.6493C135.325 25.4855 137.911 23.8512 140.77 22.8812C143.179 22.1393 144.48 23.3244 144.022 25.8091C143.945 26.2199 143.793 26.6129 143.573 26.9681C142.033 29.4386 140.433 31.8734 138.902 34.3463C138.121 35.6032 137.482 36.918 136.715 38.1982C136.511 38.5175 136.071 38.685 135.741 38.9214C135.623 38.5158 135.362 38.0915 135.421 37.7235C135.963 34.1078 137.435 30.6951 139.694 27.8179C139.88 27.5268 140.028 27.2123 140.132 26.8825L139.703 26.4922Z" fill="#BE9334"/>
<path d="M74.1897 35.1121C72.1413 40.9888 68.6917 44.5811 63.1028 45.9176C60.2316 46.6144 59.0419 44.8295 58.5063 42.6294C58.3568 42.0087 58.7544 41.151 57.6789 40.8923C57.557 40.3417 57.5943 39.7682 57.7865 39.2384C59.0801 36.4031 60.9399 33.8613 63.2523 31.7682C64.251 30.914 65.1319 29.9102 66.1398 29.0584C66.773 28.5828 67.4572 28.1787 68.1799 27.8536C68.385 27.7511 68.8381 27.7544 68.924 27.8758C69.5566 28.7932 70.5507 28.5085 71.3979 28.7355C72.0863 28.9234 72.7058 29.3058 73.1817 29.8367C73.6576 30.3675 73.9696 31.0241 74.0801 31.7273C74.2338 32.8489 74.2705 33.9833 74.1897 35.1121ZM71.688 35.9768C72.4605 33.094 71.5807 30.4474 68.4717 31.5529C68.1137 31.6735 67.7379 31.7499 67.4008 31.8662C64.6781 32.6717 63.4933 35.0308 62.2583 37.2091C61.5029 38.6388 60.9832 40.1807 60.7188 41.7757C60.4216 43.2902 61.2691 44.0683 62.7845 43.7167C64.8078 43.2907 66.6876 42.3562 68.2458 41.0017C69.804 39.6471 70.9889 37.9175 71.688 35.9768Z" fill="#BE9334"/>
</svg>
