<svg width="249" height="88" viewBox="0 0 249 88" fill="none" xmlns="http://www.w3.org/2000/svg">
<path d="M26.5408 75.8252C25.7708 78.2202 25.0008 80.6152 24.2309 83.0101C24.066 83.5235 24.2799 84.1228 24.154 84.646C24.041 84.9973 23.717 85.5302 23.4223 85.5781C22.8249 85.6705 22.5184 85.3323 22.4716 84.6351C22.2846 81.2003 23.013 77.7666 24.5912 74.6429C26.2885 70.971 27.6283 67.1458 29.5033 63.5544C32.1791 58.4196 35.1968 53.4343 38.0962 48.3688C38.6804 47.3671 38.8613 46.2058 38.6053 45.0986C37.9255 42.2533 38.4104 39.26 39.9644 36.7076C41.1079 35.003 42.4837 33.4437 44.0565 32.0699C45.4855 30.9636 46.9772 29.9308 48.5249 28.976C49.2647 28.447 49.9394 27.8423 50.5362 27.1734C51.1364 26.4923 51.5733 25.6872 52.0972 24.9536C52.3372 24.6286 52.5845 24.202 52.9363 24.0826C53.1676 23.9804 53.4183 23.9242 53.6729 23.9179C53.9273 23.9117 54.1797 23.9553 54.4138 24.0462C54.722 24.2734 54.7315 24.929 54.7227 25.4044C54.7151 25.6651 54.3957 25.9208 54.2284 26.1779C53.525 27.285 53.7573 27.6427 55.1033 27.8573C56.3142 27.9819 57.4834 28.3322 58.5423 28.8876C61.4019 30.6923 62.4305 33.4487 62.1821 36.5668C61.8271 41.0178 59.3584 44.4801 55.8867 47.3989C53.7047 49.2645 51.0819 50.6165 48.2396 51.341C47.5702 51.5458 46.8655 51.6239 46.1668 51.5707C45.4682 51.5175 44.7895 51.3342 44.1706 51.0315C43.7529 50.8321 43.3823 50.557 43.0801 50.2221C42.7778 49.8871 42.5498 49.4987 42.4091 49.0793C42.2036 48.6919 41.9386 48.3355 41.6223 48.0212C41.2633 48.2831 40.9448 48.5907 40.6763 48.9347C38.3636 53.0447 36.2067 57.2765 33.7438 61.2736C31.6771 64.6768 29.7975 68.1736 28.1126 71.753C27.4877 73.0647 26.9749 74.4221 26.41 75.7577L26.5408 75.8252ZM46.8514 38.5558L47.197 38.8248C47.6014 38.6581 47.994 38.4669 48.3723 38.2524C49.388 37.5967 50.3548 36.856 51.4132 36.2518C52.1713 35.8529 52.9752 35.5369 53.8087 35.3101C53.9616 35.3021 54.1137 35.3306 54.2507 35.3929C54.3878 35.4552 54.5053 35.5493 54.5922 35.6664C54.6331 35.8032 54.6387 35.9474 54.6084 36.0874C54.5781 36.2272 54.513 36.3588 54.4181 36.4713C54.0623 36.8294 53.6523 37.1366 53.2015 37.383C50.8645 38.7911 48.7766 40.5355 47.0159 42.5506C46.3036 43.3672 45.7594 44.2998 45.4117 45.3001C45.2817 45.954 45.3872 46.6271 45.7117 47.2134C45.8808 47.3806 46.0922 47.5051 46.3269 47.5759C46.5614 47.6466 46.812 47.6613 47.0555 47.6186C48.4306 47.3771 49.7582 46.9313 50.9876 46.2982C52.6984 45.2421 54.2625 43.9895 55.643 42.5702C57.5378 40.5765 59.1072 38.3829 58.7144 35.441C58.666 34.7297 58.4613 34.0369 58.1129 33.4064C57.7646 32.776 57.28 32.2211 56.6899 31.7768C56.1567 31.3964 55.5369 31.1352 54.877 31.0129C54.2172 30.8905 53.5347 30.9102 52.8806 31.0704C52.2265 31.2306 51.6177 31.5272 51.1005 31.9379C50.5831 32.3486 50.1705 32.8627 49.8936 33.4416C49.2977 34.6892 48.4719 35.8345 47.7559 37.0336C47.4337 37.5353 47.1503 38.0476 46.8514 38.5558ZM40.5399 43.1396L40.9606 43.2541C41.261 42.7941 41.5769 42.3385 41.8719 41.8692C42.8302 40.3378 43.7496 38.7957 44.7266 37.2853C45.3172 36.3707 46.0175 35.5098 46.5956 34.6077C46.738 34.3756 46.639 33.9983 46.6452 33.6894C46.3457 33.7514 45.9583 33.7177 45.7365 33.8804C43.4557 35.8886 41.3804 38.0482 40.7393 41.0436C40.6287 41.7303 40.6116 42.4425 40.5399 43.1396Z" fill="#BE9334"/>
<path d="M225.564 45.8485C222.362 44.9781 219.781 43.3848 218.432 40.4378C217.455 38.5106 217.016 36.3781 217.156 34.2373C217.231 33.6029 217.157 32.962 216.938 32.3611C216.718 31.7602 216.357 31.214 215.883 30.7617C213.706 28.5213 213.489 24.034 215.396 21.5262C215.568 21.3203 215.785 21.1505 216.032 21.0282C216.279 20.9057 216.55 20.8335 216.827 20.8163C217.237 20.8322 217.703 21.3332 217.985 21.7205C218.198 22.1601 218.378 22.6134 218.523 23.0772C218.701 23.3354 218.908 23.5736 219.143 23.7871C219.42 23.5997 219.663 23.3731 219.867 23.1158C220.61 21.7251 221.198 20.2922 222.037 18.9992C223.923 15.9279 225.817 12.8587 228.566 10.3409C229.184 9.76041 229.551 8.93631 230.199 8.39575C232.2 6.73339 234.242 5.12248 236.349 3.57673C237.007 3.17451 237.74 2.8976 238.509 2.76208C239.015 2.60644 239.563 2.62678 240.051 2.81929C240.539 3.0118 240.934 3.36366 241.163 3.81003C241.664 4.84818 241.948 5.96867 242 7.11146C241.977 11.422 240.003 15.1936 237.842 18.8831C237.428 19.5668 236.653 20.1049 236.154 20.8134C234.051 23.7018 231.386 26.1962 228.301 28.1639C226.369 29.3671 224.367 30.4661 222.302 31.4553C221.791 31.6541 221.357 31.9984 221.064 32.439C220.769 32.8797 220.631 33.3943 220.667 33.9095C220.58 35.547 220.781 37.1836 221.262 38.7539C221.556 39.6015 222.037 40.3797 222.674 41.0386C223.311 41.6975 224.091 42.2223 224.963 42.5792C226.717 43.261 228.561 43.7249 230.449 43.9592C232.643 44.1355 234.848 44.2029 237.052 44.1612C237.635 44.1682 238.12 44.2922 238.205 44.8967C238.231 45.0264 238.226 45.1601 238.191 45.2884C238.155 45.4167 238.09 45.5367 238 45.6397C237.912 45.7428 237.799 45.8266 237.672 45.8852C237.544 45.9437 237.405 45.9758 237.265 45.9789C233.35 46.4521 229.44 46.8865 225.564 45.8485ZM238.646 11.321C238.775 10.0258 238.969 8.60523 239.029 7.18009C239.07 6.3947 238.244 6.09059 237.573 6.67292C235.681 8.25903 233.879 9.93868 232.177 11.7048C230.67 13.334 229.52 15.2513 228.057 16.956C225.402 19.9454 223.75 23.4227 222.125 26.9232C221.989 27.2129 222.119 27.5986 222.119 27.9411C222.543 27.889 223.065 27.9754 223.368 27.771C226.389 25.7012 229.692 23.915 232.085 21.1647C233.32 19.7482 234.818 18.4834 235.829 16.9501C236.892 15.1295 237.834 13.2494 238.646 11.321ZM218.67 26.9715C218.737 26.4788 218.729 25.9804 218.645 25.4917C218.526 25.1802 218.083 24.9725 217.785 24.7162C217.527 24.9887 217.126 25.2378 217.062 25.5392C217.007 25.9882 217.067 26.4418 217.239 26.8614C217.338 27.1351 217.676 27.5299 217.875 27.52C218.072 27.5101 218.425 27.1519 218.67 26.9715Z" fill="#BE9334"/>
<path d="M173.053 38.7027C174.427 35.6435 175.913 32.3122 177.399 28.9811C177.93 27.8034 178.511 26.6311 178.943 25.4186C179.02 25.1868 179.046 24.9429 179.018 24.7024C178.99 24.4619 178.91 24.2299 178.782 24.0211C178.625 23.8269 177.824 23.9438 177.397 24.1143C174.681 25.208 172.575 27.1203 170.382 28.9056C170.027 29.2996 169.755 29.7527 169.58 30.2406C168.381 32.5505 167.34 34.9436 165.946 37.145C165.027 38.3753 163.929 39.4789 162.681 40.4227C162.092 40.9393 161.278 41.3631 160.467 40.8245C160.114 40.574 159.856 40.2225 159.733 39.8221C159.61 39.4217 159.629 38.9933 159.785 38.6001C159.939 38.0057 160.18 37.4333 160.501 36.8994C161.939 34.6938 163.037 32.3082 165.149 30.4776C165.828 29.9625 166.375 29.3101 166.746 28.5705C167.118 27.8308 167.304 27.0235 167.293 26.2101C167.264 25.8518 167.166 25.3393 166.905 25.2046C166.715 25.1429 166.513 25.1237 166.314 25.1484C166.116 25.173 165.924 25.241 165.757 25.3467C163.237 26.8364 161.129 28.8701 159.615 31.2748C157.888 34.2219 156.109 37.1469 154.374 40.0919C153.887 40.9231 153.506 41.8153 152.993 42.6233C152.644 43.207 152.188 43.7302 151.648 44.1693C151.454 44.3085 151.229 44.404 150.989 44.4482C150.75 44.4923 150.504 44.4839 150.27 44.4238C150.056 44.2854 149.877 44.1049 149.746 43.8945C149.615 43.6843 149.534 43.4493 149.509 43.2056C149.528 42.5946 149.704 41.9949 150.021 41.4571C151.906 38.0989 153.74 34.7112 155.782 31.4435C156.84 29.7637 158.193 28.2679 158.973 26.4176C159.205 25.8832 159.978 25.5357 160.548 25.1573C161.119 24.7788 161.666 24.5532 162.223 24.2428C163.491 23.4429 164.806 22.7128 166.163 22.0563C167.87 21.3336 169.288 21.9819 170.039 23.5959C170.072 23.6767 170.104 23.7647 170.145 23.8475C170.63 24.9749 171.045 24.9761 172.084 24.2712C173.81 23.092 175.645 22.0532 177.463 20.9548C177.747 20.7849 178.154 20.8082 178.485 20.6751C180.678 19.8376 182.328 20.9233 182.559 23.2877C182.696 24.6461 182.487 26.0193 181.948 27.2949C180.137 31.2944 178.097 35.1915 176.174 39.1445C175.647 40.2279 175.218 41.3535 174.767 42.4654C174.587 43.022 174.345 43.7764 173.651 43.6194C173.37 43.5066 173.124 43.3305 172.934 43.1068C172.744 42.883 172.617 42.6185 172.564 42.3363C172.634 41.1167 172.798 39.9023 173.053 38.7027Z" fill="#BE9334"/>
<path d="M150.785 21.5558C149.781 23.2023 148.861 24.9035 147.755 26.4742C146.186 28.716 144.478 30.8954 142.692 32.9982C141.332 34.5956 139.796 36.0499 138.304 37.5314C137.972 37.8035 137.704 38.1362 137.516 38.5085C137.327 38.8809 137.222 39.2849 137.209 39.695C137.208 40.7538 136.727 40.9576 135.608 40.6694C135.393 40.6178 135.168 40.6083 134.948 40.6416C134.727 40.6747 134.515 40.75 134.326 40.8625C131.758 42.8104 128.968 44.4858 126.01 45.8572C125.107 46.2778 124.136 46.5526 123.139 46.6697C121.237 46.9489 119.593 44.8138 120.279 42.8898C120.733 41.7165 121.373 40.6124 122.18 39.6155C122.777 38.9173 123.48 38.3033 124.265 37.7931C125.376 36.9723 126.483 37.3767 126.677 38.6717C126.689 39.1841 126.668 39.697 126.614 40.2079C126.644 40.5948 126.698 40.9794 126.779 41.3594C127.211 41.3277 127.635 41.2278 128.034 41.0636C129.174 40.3621 130.259 39.5737 131.376 38.7863C131.376 38.7863 131.392 38.735 131.451 38.7352C133.347 37.9523 133.603 36.7078 133.256 34.8615C132.752 32.16 133.785 29.6057 135.388 27.3337C136.422 25.7738 137.625 24.3179 138.979 22.9898C141.5 20.6567 144.107 18.3468 147.684 17.3919C148.192 17.2095 148.754 17.2126 149.256 17.4007C149.757 17.5887 150.163 17.9479 150.391 18.4064C150.898 19.3806 151.036 20.4901 150.785 21.5558ZM136.626 33.9698L137.012 34.17C137.285 34.0364 137.543 33.8738 137.777 33.6853C138.644 32.7819 139.54 31.8945 140.355 30.9376C142.182 28.6788 143.96 26.3906 145.712 24.0793C145.915 23.8159 145.824 23.3611 145.865 22.9978C145.486 23.0941 144.992 23.0791 144.75 23.3003C143.909 24.0193 143.151 24.8245 142.324 25.5792C140.167 27.5771 138.404 29.9169 137.121 32.4873C136.916 32.9693 136.746 33.4632 136.611 33.9656L136.626 33.9698Z" fill="#BE9334"/>
<path d="M185.642 34.1527C186.892 30.9088 188.561 27.816 190.61 24.9431C191.654 23.5146 192.771 22.1218 193.941 20.7754C194.108 20.6063 194.317 20.4781 194.548 20.402C194.78 20.326 195.027 20.3045 195.268 20.3395C195.49 20.4614 195.68 20.6321 195.817 20.8371C195.954 21.0421 196.037 21.2756 196.058 21.518C196.004 22.1468 195.783 22.7547 195.414 23.2859C194.552 24.6448 193.474 25.8408 192.74 27.2262C191.188 30.1571 189.806 33.1661 188.365 36.1434C188.226 36.4197 188.132 36.7134 188.084 37.0149C187.976 38.0127 188.703 38.5448 189.591 38.0218C191.757 36.739 194.075 35.5928 195.005 33.0665C195.353 32.3075 195.818 31.5992 196.385 30.9645C198.204 28.624 200.021 26.2667 201.925 23.9809C202.655 23.1573 203.48 22.4118 204.386 21.7587C204.671 21.453 205.065 21.2541 205.493 21.1989C205.92 21.1437 206.353 21.2361 206.71 21.4588C207.594 22.0573 207.422 22.9344 207.025 23.6947C206.56 24.5624 206.011 25.3889 205.384 26.1634C203.716 28.2666 201.891 30.2793 200.343 32.4624C198.693 34.8014 197.258 37.2864 195.768 39.7326C195.143 40.7532 194.943 41.9503 195.205 43.0917C195.291 43.571 195.28 44.0623 195.172 44.54C194.989 45.3983 194.254 45.6285 193.599 45.0044C193.087 44.5347 192.698 43.9598 192.461 43.324C192.225 42.6883 192.148 42.0085 192.236 41.3369C192.255 41.0951 192.387 40.8682 192.375 40.6179C192.415 39.8326 191.968 39.5359 191.217 39.8971C190.466 40.2582 189.742 40.6906 188.982 41.0497C187.406 41.7916 186.133 41.2946 185.462 39.7981C184.636 37.989 185.152 36.1222 185.642 34.1527Z" fill="#BE9334"/>
<path d="M33.1281 38.9192C33.307 38.3625 33.486 37.8058 33.665 37.2493C33.9746 36.0751 33.3942 35.1927 32.1325 35.2957C30.5929 35.4191 29.0733 35.7202 27.6081 36.1922C23.5446 37.6424 19.8936 39.9684 16.9533 42.9803C15.7994 44.0922 15.17 45.6811 14.286 47.0336C12.4495 49.8475 10.7546 52.7476 8.41422 55.2572C7.9727 55.7344 7.48006 56.0545 6.7915 55.7718C6.50156 55.6619 6.26583 55.456 6.12881 55.1928C5.99179 54.9296 5.96296 54.6273 6.04772 54.3431C6.12238 53.768 6.30242 53.208 6.57987 52.688C8.44928 49.8512 10.1047 46.8369 12.3671 44.306C13.9586 42.5317 15.1731 40.4902 15.9437 38.2938C16.249 37.1822 16.4246 36.0442 16.4671 34.9C16.4384 34.3577 16.4547 33.8137 16.5159 33.2727C16.6336 32.9064 17.1079 32.4062 17.4323 32.3988C17.7566 32.3915 18.5337 32.7938 18.5682 33.0819C18.6539 34.2153 18.6727 35.3531 18.6248 36.49C18.627 36.9047 18.6698 37.2987 18.6829 37.7322C19.096 37.613 19.489 37.4381 19.8496 37.2131C23.3508 34.3148 27.7131 32.4953 32.3346 32.0057C35.4389 31.6788 36.9539 33.7391 36.7299 36.386C36.5139 39.2437 35.4073 41.9891 33.5476 44.2815C32.1186 46.0911 30.9083 48.0636 29.6084 49.9721C29.5732 50.082 29.4731 50.1822 29.3934 50.2721C28.9894 50.7118 28.7108 51.5519 27.9358 51.2218C27.1608 50.8917 27.4721 50.0286 27.7354 49.4471C28.6077 47.7091 29.5921 46.0175 30.5243 44.3039C31.4565 42.5901 32.395 40.8304 33.3367 39.0873L33.1281 38.9192Z" fill="#BE9334"/>
<path d="M96.9477 41.4616C98.328 38.7229 99.6406 35.9578 101.118 33.2613C102.213 31.2496 103.479 29.3159 104.703 27.3789C105.882 25.557 107.15 23.7752 108.363 22.0025C108.455 21.8762 108.533 21.7381 108.625 21.6116C109.241 20.7757 110.044 20.4921 110.663 20.8836C110.825 21.0128 110.956 21.1725 111.048 21.3523C111.139 21.5324 111.19 21.7287 111.195 21.9289C111.201 22.129 111.162 22.3286 111.081 22.5149C111.001 22.7012 110.879 22.8702 110.725 23.0109C107.952 26.1036 106.15 29.7312 103.933 33.1744C103.024 34.6422 102.607 36.3271 102.734 38.0093C102.79 39.5216 103.615 40.0405 105.009 39.2885C106.583 38.5107 108.067 37.5791 109.435 36.5096C110.375 35.5758 111.155 34.5112 111.746 33.3548C113.663 30.2124 116.376 27.6767 118.87 24.9779C119.589 24.2707 120.416 23.6687 121.325 23.1923C121.517 23.0991 121.73 23.0523 121.945 23.0565C122.159 23.0606 122.37 23.1154 122.554 23.2159C122.704 23.3785 122.809 23.5727 122.861 23.7823C122.913 23.9917 122.911 24.2105 122.854 24.4202C122.394 25.325 121.864 26.1978 121.269 27.0316C120.696 27.8876 120.117 28.7415 119.47 29.5449C117.929 31.4359 116.398 33.3289 114.77 35.1485C112.884 37.272 110.946 39.3493 110.019 42.0202C109.814 42.6573 109.796 43.3454 109.605 43.9941C109.45 44.3331 109.253 44.6538 109.018 44.9495C108.647 44.7055 108.109 44.5352 107.944 44.2038C107.762 43.6612 107.658 43.0974 107.636 42.5272C107.564 42.0935 107.474 41.6868 107.409 41.2311L106.106 41.6733C105.338 41.9265 104.59 42.2249 103.808 42.4184C103.562 42.509 103.301 42.5532 103.038 42.5486C102.775 42.5439 102.517 42.4905 102.278 42.3914C102.039 42.2923 101.823 42.1495 101.644 41.9712C101.466 41.793 101.327 41.5828 101.236 41.3529C101.165 41.2116 101.06 41.088 100.93 40.9916C100.799 40.8952 100.646 40.8289 100.482 40.7977C100.228 40.8242 99.9506 41.1867 99.7863 41.4607C99.4991 41.9321 99.4283 42.5739 99.016 42.9078C98.8049 43.0975 98.5543 43.2441 98.2803 43.3384C98.0064 43.4326 97.715 43.4723 97.4251 43.455C96.6997 43.3135 96.7807 42.5869 96.8864 41.9945C96.9211 41.8475 96.9675 41.703 97.0254 41.5624L96.9477 41.4616Z" fill="#BE9334"/>
<path d="M71.3483 37.3384C72.3923 35.4879 73.6939 33.1259 75.0664 30.8072C75.6697 29.8239 76.3416 28.8785 77.0776 27.9771C77.4898 27.3588 78.0255 26.82 78.6551 26.3909C78.9329 26.2581 79.2355 26.1781 79.5453 26.1556C79.8551 26.1332 80.1658 26.1687 80.4593 26.2602C81.1309 26.4906 81.2252 27.225 80.9938 27.839C80.7867 28.3119 80.5125 28.7571 80.1787 29.1625C79.4969 30.0443 78.6844 30.8589 78.0914 31.7807C76.1988 34.5436 74.7719 37.5597 73.8615 40.7214C73.7026 41.3471 73.5579 42.2715 73.9095 42.6537C74.5403 43.3269 75.3114 42.5889 75.8666 42.2061C77.592 41.0028 79.2484 39.7248 80.9335 38.4626C81.1089 38.3237 81.2612 38.1611 81.3851 37.9801C82.5755 36.2808 83.8046 34.592 84.9396 32.8538C86.0459 31.2308 87.434 29.7908 89.0457 28.5942C89.4106 28.2851 89.8409 28.0518 90.3078 27.9099C90.8576 27.7806 91.654 27.6228 92.0097 27.8866C92.4158 28.3317 92.6246 28.9065 92.5941 29.495C92.5298 29.9741 92.3137 30.4259 91.9738 30.7918C91.4423 31.4437 90.8134 32.0294 90.2187 32.6402C89.0476 33.8589 87.8187 35.046 86.7057 36.3203C85.4746 37.6674 84.3453 39.093 83.3262 40.5863C82.8477 41.5112 82.5297 42.5003 82.3843 43.5159C82.227 44.1899 82.298 44.9179 82.1382 45.5992C81.9785 46.2805 81.3193 46.4598 80.9299 45.9319C80.5885 45.343 80.3411 44.7097 80.1956 44.0519C80.0547 43.6471 79.9636 43.1924 79.8436 42.8014C79.3673 42.917 78.9103 43.0958 78.4867 43.3325C77.0811 44.3839 75.7828 45.5761 73.9414 45.9277C72.4845 46.2166 71.6361 45.9302 71.0807 44.6802C70.6677 43.7967 70.4673 42.8371 70.4935 41.8685C70.676 40.3442 70.9615 38.8312 71.3483 37.3384Z" fill="#BE9334"/>
</svg>
