<svg width="570" height="615" viewBox="0 0 570 615" fill="none" xmlns="http://www.w3.org/2000/svg">
<g clip-path="url(#clip0_2045_36)">
<rect x="-274.248" y="-274.445" width="1192" height="1192" fill="#E4DAD1"/>
<path d="M420.565 122.753C422.551 118.206 426.553 116.008 430.54 113.494C439.236 107.999 447.331 101.36 457.095 97.8674C465.37 94.9167 474.006 92.9897 482.476 90.6262C484.176 90.6262 486.087 91.1832 486.96 88.9401C487.922 88.6841 488.87 88.4282 489.833 88.1723C491.533 89.5272 488.494 93.6371 492.436 93.351C495.415 93.1403 499.658 95.82 501.132 90.581C505.255 91.9359 509.362 92.7488 513.454 90.4154C509.377 89.5573 505.27 86.5614 501.237 90.6262C496.98 90.31 498.62 86.8324 497.988 84.5743C513.574 81.8644 528.514 84.8452 543.243 89.7229C542.732 91.138 542.22 92.5682 541.724 93.9834C538.564 93.9834 536.293 95.7296 537.526 98.6502C540.34 105.274 540.535 111.371 535.901 117.122C534.653 118.673 535.435 119.983 536.217 120.841C537.767 122.527 538.865 120.103 539.166 119.576C541.604 115.556 547.246 114.713 548.66 109.776C549.502 106.87 551.428 107.999 553.068 108.812C556.017 110.272 554.076 112.004 552.902 113.088C547.953 117.604 542.973 122.12 537.752 126.305C524.663 136.783 511.092 146.614 495.761 153.569C487.125 157.483 478.429 161.894 468.168 157.318C466.318 156.49 462.707 158.04 460.224 155.918C459.728 154.503 459.246 153.087 458.75 151.657C462.782 150.438 466.483 152.47 470.26 153.102C482.175 155.075 492.331 150.905 502.08 145.003C505.45 142.956 502.005 143.061 500.982 142.489C500.38 141.812 499.944 142.037 499.598 142.745C492.587 143.874 485.801 143.814 479.918 139.011C479.392 137.34 478.113 137.16 476.639 137.34C471.568 130.731 467.672 123.43 464.106 115.948C463.023 113.675 462.361 111.146 461.804 108.662C461.187 105.997 461.097 103.197 464.979 103.227C468.605 103.242 466.904 105.922 467.506 107.894C470.139 116.565 472.877 125.312 479.302 132.282C484.763 138.198 491.533 139.087 499.026 138.771C501.328 138.68 502.938 137.611 504.863 136.949C505.315 137.431 505.947 137.837 506.172 138.409C506.699 139.779 504.081 142.384 507.496 142.519C510.009 142.609 510.821 140.532 510.851 138.259C510.866 136.889 510.821 135.534 510.806 134.164C515.184 129.708 521.729 129.03 526.468 125.041C531.298 120.991 535.57 110.95 533.84 105.139C532.907 101.992 532.215 98.9664 532.08 95.6544C531.915 92.0413 519.517 86.8776 517.938 89.6777C516.478 92.2521 517.456 96.1512 517.065 99.4331C515.365 113.931 499.236 128.579 483.905 122.798C476.594 120.043 470.756 109.67 470.591 100.698C470.56 98.7105 468.74 97.7018 466.242 98.9212C452.13 105.786 437.943 112.485 426.418 123.581C424.989 124.95 422.807 125.568 420.987 126.516C420.851 125.252 420.716 123.987 420.58 122.722L420.565 122.753ZM478.971 109.324C479.302 104.416 483.59 102.82 481.829 98.8158C481.363 97.747 479.798 97.7319 478.79 98.4997C475.315 101.149 476.594 104.22 478.971 109.324ZM494.467 118.071C491.729 116.926 489.562 117.152 487.652 119.32C489.788 118.793 492.361 121.699 494.467 118.071ZM496.814 117.122C496.98 116.896 497.326 116.43 497.672 115.963C497.205 115.647 496.634 114.999 496.318 115.105C495.836 115.27 495.28 115.933 495.219 116.445C495.129 117.152 495.746 117.453 496.829 117.137L496.814 117.122Z" fill="#486495"/>
<path d="M310.751 6.17045C311.744 11.6051 307.862 15.3838 305.891 19.7346C302.025 28.3006 301.799 38.0108 297.617 46.3209C294.247 53.0202 293.419 60.5775 289.658 67.1263C288.499 69.1436 287.371 71.3415 285.445 70.4232C283.655 69.5651 282.301 66.9607 282.677 64.5068C282.978 62.4744 283.655 60.427 284.512 58.5452C286.242 54.7665 288.514 51.1835 282.421 48.9856C281.037 48.4888 280.871 46.351 280.962 44.5896C281.278 38.8538 281.413 33.1181 281.624 27.3673C288.8 28.7372 291.072 25.9822 291.057 15.971C294.201 4.108 298.173 -7.60444 300.25 -19.6481C302.311 -31.6164 306.403 -42.9676 309.036 -54.7553C313.158 -73.2573 319.116 -91.3679 324.457 -109.599C325.104 -111.812 323.9 -116.313 328.7 -114.988C333.048 -113.784 332.266 -109.96 331.408 -106.859C328.685 -96.9983 325.435 -87.273 322.892 -77.3672C315.505 -48.613 306.343 -20.2954 301.378 9.06094C300.731 12.8547 297.21 15.9258 298.564 20.4422C304.011 18.2743 303.289 12.4331 306.027 8.83509C307.742 8.18775 307.546 4.18325 310.736 6.17045L310.751 6.17045Z" fill="#486495"/>
<path d="M207.737 72.3801C203.78 74.7135 203.63 79.3352 201.854 82.8429C189.773 106.674 176.864 130.039 163.128 152.952C156.96 163.234 150.656 173.441 144.758 183.874C142.005 188.752 137.657 191.326 133.083 193.84C137.943 188.405 139.342 180.983 144.006 175.293C148.489 169.798 151.874 163.4 155.771 157.408C157.02 155.496 159.156 153.795 159.487 151.763C160.721 144.115 166.333 138.996 169.898 132.734C180.415 114.277 190.465 95.5942 199.462 76.3394C200.184 74.7737 200.982 72.2446 203.72 72.365C205.059 72.365 206.398 72.365 207.737 72.365L207.737 72.3801Z" fill="#526B9A"/>
<path d="M53.9303 83.6559C51.9895 97.0695 53.7197 110.573 53.8551 123.972C54.0206 139.328 55.841 154.834 57.8119 170.114C58.9403 178.861 59.9484 187.984 63.7247 196.731C65.846 201.653 65.6354 208.654 67.3506 214.57C65.9062 214.585 64.4469 214.6 63.0025 214.615C60.0988 211.258 59.3616 206.877 58.9253 202.888C57.9323 193.78 55.5401 184.943 54.0506 175.955C52.4559 166.32 51.5832 156.58 50.5301 146.96C49.5522 138.093 48.6645 128.985 49.1008 119.847C49.5822 109.776 48.9503 99.6137 48.2884 89.5272C48.1379 87.1938 48.7548 85.5077 49.5371 83.6259C50.9965 83.6259 52.4559 83.6259 53.9152 83.6259L53.9303 83.6559Z" fill="#526B9A"/>
<path d="M284.242 14.6458C284.588 -2.39593 287.567 -19.1516 289.598 -36.0127C290.29 -41.7485 291.027 -47.5896 292.727 -53.0845C295.465 -61.9667 295.014 -71.2554 297.211 -80.2429C300.957 -95.6287 303.499 -111.316 306.524 -126.882C306.749 -128.056 306.87 -129.562 308.359 -129.14C309.864 -128.719 311.669 -127.499 311.007 -125.617C308.224 -117.789 309.111 -108.967 305.064 -101.635C303.033 -97.9621 305.26 -94.9512 304.658 -91.7145C301.047 -72.1586 296.443 -52.7383 294.081 -33.0319C292.727 -21.7561 288.138 -10.9017 289.703 0.825752C290.305 5.35717 288.966 10.0542 287.191 14.4049C286.228 14.4802 285.25 14.5555 284.272 14.6458L284.242 14.6458Z" fill="#486495"/>
<path d="M207.737 72.3804C206.398 72.3804 205.059 72.3804 203.72 72.3804C201.478 69.0232 205.42 68.3307 206.308 66.3134C214.297 48.2329 223.73 30.8299 231.553 12.644C236.909 0.208981 243.8 -11.5787 250.36 -23.4417C251.548 -25.5945 250.916 -27.4763 251.413 -29.4183C251.985 -31.6464 250.901 -35.0187 255.009 -35.0036C256.182 -34.8982 257.341 -34.8079 258.514 -34.7025C258.604 -31.5712 257.506 -28.771 255.987 -26.1515C248.539 -13.3401 242.491 0.254127 236.142 13.5172C230.109 26.1479 224.046 38.9593 218.238 51.7557C215.906 56.8893 214.959 63.7843 208.82 67.1565C207.812 67.7135 208.068 70.5738 207.752 72.3653L207.737 72.3804Z" fill="#486495"/>
<path d="M461.533 64.9129C459.006 66.584 456.493 68.2852 453.966 69.9412C452.837 70.6788 450.641 71.2057 451.167 72.6209C454.252 80.7503 449.392 77.9351 445.616 76.8662C440.861 75.5264 437.612 78.7782 434.452 81.2019C424.161 89.1206 413.78 96.9791 405.731 107.412C404.843 108.571 403.7 111.778 401.308 110.122C398.554 108.225 400.736 106.208 402.06 104.341C406.543 98.0178 412.246 92.7036 418.384 88.2927C425.124 83.4451 428.494 76.1286 433.474 70.1218C438.966 63.4828 439.522 62.0677 447.09 66.0872C449.136 67.1711 450.204 65.7259 451.483 65.1689C454.402 63.8892 456.614 61.1192 460.134 61.0138C460.601 62.3235 461.082 63.6182 461.548 64.928L461.533 64.9129Z" fill="#486495"/>
<path d="M327.752 77.9955C325.705 64.326 326.006 50.4457 326.638 36.8514C327.225 24.0852 326.909 10.9426 329.527 -1.37205C330.746 -7.09277 331.723 -12.121 330.745 -17.7213C332.145 -16.6524 333.544 -17.0137 334.943 -17.7513C335.635 -7.96589 334.386 1.69911 333.514 11.4093C332.626 21.2399 331.678 31.1006 331.483 40.9613C331.257 52.8394 331.799 64.7325 332.009 76.6255C330.475 76.7008 328.79 76.3094 327.767 77.9804L327.752 77.9955Z" fill="#526B9A"/>
<path d="M71.2775 224.536C71.5934 224.882 72.0297 225.168 72.2103 225.575C75.0839 232.199 78.8301 238.206 87.1651 237.122C93.9204 236.249 99.7429 233.298 104.512 227.668C110.861 220.17 117.526 212.974 123.454 205.101C125.515 202.376 129.246 201.382 132.978 200.75C128.208 201.322 127.937 204.86 126.448 208.368C122.687 217.22 115.149 223.452 108.439 230.106C105.535 232.982 102.932 236.143 99.1561 238.386C86.2173 246.079 74.1661 242.602 68.3286 228.842C69.3065 227.412 70.2995 225.981 71.2775 224.536Z" fill="#526B9A"/>
<path d="M461.533 64.913C461.067 63.6032 460.586 62.3086 460.119 60.9988C474.788 54.134 489.593 48.0519 506.428 50.8822C508.399 51.2134 510.55 50.6262 512.582 50.295C514.522 49.9789 516.463 49.4219 516.553 52.4027C516.629 55.0372 514.944 55.2932 512.837 55.3082C505.871 55.3534 498.86 55.0674 491.94 55.7298C481.258 56.7535 471.478 61.1795 461.533 64.898L461.533 64.913Z" fill="#526B9A"/>
<path d="M327.751 77.9952C328.775 76.3242 330.46 76.7156 331.994 76.6403C333.589 82.1503 331.573 88.7291 337.064 93.1401C338.223 94.0735 339.186 95.5488 340.073 93.5767C342.436 88.2775 347.31 84.559 348.574 78.4619C349.763 72.7111 352.335 67.3066 356.036 62.5945C356.503 63.1214 356.984 63.6634 357.451 64.1903C357.375 65.0634 357.315 65.9215 357.24 66.7947C356.021 67.442 355.63 68.27 356.728 69.384C357.631 74.1714 352.922 76.4296 351.688 80.4491C350.078 85.7634 347.175 90.8217 344.09 95.5187C340.329 101.239 335.048 100.457 331.513 94.5854C328.368 89.3614 329.181 83.4751 327.751 77.9952Z" fill="#486495"/>
<path d="M357.436 64.1905C356.97 63.6636 356.488 63.1216 356.022 62.5947C358.083 55.3385 359.272 47.6757 362.446 40.9463C366.132 33.1481 369.186 25.1391 372.587 17.2505C373.309 15.5794 374.633 15.203 375.927 15.6697C377.145 16.1063 377.341 17.7021 376.634 18.6806C371.729 25.4401 372.888 34.3825 368.043 41.3227C364.402 46.5466 362.085 52.734 361.544 59.2677C361.303 62.0678 359.979 63.5131 357.451 64.1905L357.436 64.1905Z" fill="#526B9A"/>
<path d="M53.9299 83.6557C52.4705 83.6557 51.0111 83.6557 49.5517 83.6557C47.4003 74.0359 49.8075 64.5515 50.4244 55.007C50.8607 48.2324 51.5377 41.4729 51.9138 34.6833C52.0342 32.5757 53.0723 31.5219 54.8326 31.6574C56.4725 31.7928 57.0442 33.5844 56.7132 34.8941C54.983 41.8192 56.1415 48.9099 55.1034 55.9554C53.7794 65.0483 54.2308 74.3972 53.9148 83.6407L53.9299 83.6557Z" fill="#486495"/>
<path d="M53.4941 28.9476C53.78 20.5321 55.3297 12.2973 57.3758 4.18286C58.5493 -0.45394 62.6867 0.705298 64.4169 2.8581C66.5834 5.55286 67.5614 9.43689 68.2384 12.9747C68.5694 14.6759 66.6887 15.805 64.9285 14.0135C63.8302 12.8994 62.8974 11.6048 61.4831 9.90361C59.5122 16.6179 59.3768 23.1064 56.8342 28.9777C55.7208 28.9777 54.6075 28.9626 53.4941 28.9476Z" fill="#526B9A"/>
<path d="M420.565 122.753C420.701 124.017 420.836 125.282 420.972 126.546C419.256 132.734 414.562 138.183 416.834 145.395C417.316 146.945 415.646 148.421 413.63 146.554C410.455 143.603 410.425 139.945 411.448 136.226C412.968 130.762 416.669 126.667 420.565 122.753Z" fill="#526B9A"/>
<path d="M541.724 93.9836C542.235 92.5685 542.747 91.1383 543.243 89.7231C548.133 90.9877 553.068 92.1319 557.897 93.5771C559.341 94.0137 561.493 95.0073 561.087 96.7536C560.485 99.2677 557.581 99.1924 555.896 98.7559C551.082 97.5063 546.433 95.6245 541.724 93.9986L541.724 93.9836Z" fill="#526B9A"/>
<path d="M284.241 14.6458C285.219 14.5705 286.197 14.4802 287.16 14.4049C289.236 12.9748 289.567 15.9405 291.071 15.9706C291.087 25.9819 288.8 28.7369 281.638 27.3669C282.165 23.0613 282.105 18.6202 284.241 14.6458ZM284.587 24.1302C284.527 24.2958 284.467 24.4614 284.406 24.6119C284.647 24.642 284.888 24.6571 285.129 24.6872C285.099 24.5216 285.099 24.3108 285.008 24.1904C284.948 24.1151 284.737 24.1452 284.587 24.1302Z" fill="#526B9A"/>
<path d="M71.2775 224.536C70.2996 225.966 69.3066 227.397 68.3287 228.842C65.109 224.642 63.0178 220.02 63.0328 214.615C64.4771 214.6 65.9365 214.585 67.3808 214.57C68.6898 217.897 69.9837 221.209 71.2926 224.536L71.2775 224.536Z" fill="#486495"/>
<path d="M501.132 90.5808C499.658 95.8198 495.4 93.1401 492.436 93.3509C488.509 93.6369 491.533 89.5421 489.833 88.1721C491.127 83.7461 495.926 87.2387 497.987 84.5741C498.619 86.8323 496.964 90.3099 501.237 90.626L501.132 90.5808Z" fill="#526B9A"/>
<path d="M458.765 151.688C459.261 153.103 459.743 154.518 460.239 155.948C455.289 156.43 450.565 156.339 447.406 151.055C451.618 149.249 455.259 149.414 458.765 151.688Z" fill="#526B9A"/>
<path d="M309.697 -0.845278C310.916 -0.875387 312.15 -0.890423 313.368 -0.920532C311.984 1.26238 315.114 5.10128 310.75 6.18521C307.546 4.19801 307.741 8.21756 306.041 8.84985C305.109 4.80018 308.012 2.21079 309.697 -0.845278Z" fill="#526B9A"/>
<path d="M510.806 134.179C510.821 135.549 510.866 136.904 510.851 138.274C510.821 140.547 509.994 142.64 507.496 142.534C504.066 142.399 506.684 139.794 506.172 138.424C505.962 137.852 505.315 137.446 504.863 136.964C506.398 135.082 508.73 134.902 510.806 134.179Z" fill="#526B9A"/>
<path d="M486.959 88.9252C486.102 91.1683 484.191 90.6113 482.476 90.6113C483.499 88.8198 485.094 88.5338 486.959 88.9252Z" fill="#526B9A"/>
<path d="M356.714 69.3842C355.616 68.2701 356.022 67.4572 357.225 66.7948C357.782 67.8035 357.451 68.6315 356.714 69.3842Z" fill="#526B9A"/>
<path d="M476.654 137.37C478.128 137.19 479.407 137.37 479.934 139.042C478.444 139.252 477.331 138.74 476.654 137.37Z" fill="#526B9A"/>
<path d="M53.4937 28.9478C54.607 28.9478 55.7203 28.9628 56.8337 28.9778C55.7053 32.1242 54.5919 30.8747 53.4937 28.9478Z" fill="#486495"/>
<path d="M499.597 142.775C499.943 142.068 500.379 141.842 500.981 142.519C500.515 142.61 500.049 142.7 499.597 142.775Z" fill="#526B9A"/>
<path d="M284.587 24.1302C284.738 24.1302 284.948 24.1001 285.009 24.1904C285.099 24.3108 285.099 24.5216 285.129 24.6872C284.888 24.6571 284.647 24.642 284.407 24.6119C284.467 24.4463 284.527 24.2807 284.587 24.1302Z" fill="#486495"/>
</g>
<defs>
<clipPath id="clip0_2045_36">
<rect width="569.042" height="613.87" fill="white" transform="translate(0.751953 0.554688)"/>
</clipPath>
</defs>
</svg>
