<svg width="730" height="718" viewBox="0 0 730 718" fill="none" xmlns="http://www.w3.org/2000/svg">
<path d="M729.979 0.0200195H0.335938V717.825H729.979V0.0200195Z" fill="#CCC4C1"/>
<path style="mix-blend-mode:multiply" opacity="0.19" d="M729.979 0.0200195H0.335938V717.825H729.979V0.0200195Z" fill="url(#paint0_linear_2034_95)"/>
<path d="M0.335938 717.825H61.241C70.89 717.825 80.3882 715.469 88.8844 710.969C97.3806 706.47 104.609 699.967 109.923 692.043L305.102 401.36C314.001 388.106 318.724 372.561 318.677 356.677C318.631 340.793 313.817 325.275 304.84 312.072L109.954 25.4826C104.622 17.6419 97.4079 11.2149 88.9497 6.77022C80.4915 2.32555 71.0503 0.000266538 61.4611 0H0.335938V717.825Z" fill="#102F60"/>
<path d="M729.979 717.825H669.064C659.415 717.822 649.918 715.466 641.422 710.966C632.926 706.467 625.697 699.965 620.382 692.043L425.224 401.38C416.327 388.124 411.607 372.58 411.656 356.696C411.704 340.811 416.519 325.295 425.496 312.092L620.371 25.5028C625.704 17.6627 632.918 11.2362 641.376 6.79163C649.834 2.34703 659.275 0.0211911 668.864 0.0200195H730L729.979 717.825Z" fill="#102F60"/>
<path style="mix-blend-mode:multiply" opacity="0.19" d="M719.35 566.6L502.733 313.753C497.326 307.446 490.585 302.376 482.981 298.895C475.377 295.415 467.093 293.608 458.706 293.602H274.702C266.372 293.601 258.142 295.379 250.579 298.811C243.015 302.244 236.3 307.25 230.894 313.485L11.3848 566.476C7.21951 571.282 3.5204 576.461 0.335938 581.945V717.876H729.937V581.512C726.864 576.243 723.321 571.252 719.35 566.6Z" fill="url(#paint1_linear_2034_95)"/>
<path d="M454.89 95.928H277.731C269.708 95.9285 261.782 98.4865 254.497 103.426C247.213 108.365 240.744 115.568 235.537 124.537L24.1104 488.555C8.55524 515.31 0.00590888 549.344 0 584.535V717.783H729.601V584.012C729.602 549.143 721.214 515.397 705.921 488.74L497.314 124.923C492.102 115.846 485.607 108.55 478.279 103.542C470.952 98.5347 462.97 95.9361 454.89 95.928Z" fill="#102F60"/>
<path style="mix-blend-mode:multiply" opacity="0.19" d="M0 26.9614H730V71.0686C729.978 91.6969 722.295 111.782 708.066 128.408L445.835 435.71C436.505 446.554 424.333 455.363 410.302 461.424C396.271 467.485 380.776 470.628 365.068 470.6C349.351 470.636 333.845 467.497 319.804 461.435C305.763 455.374 293.583 446.561 284.248 435.71L22.0169 128.408C7.78786 111.782 0.104787 91.6969 0.0837399 71.0686L0 26.9614Z" fill="url(#paint2_linear_2034_95)"/>
<path d="M0 0H730V45.5829C730.001 66.8447 722.327 87.5708 708.058 104.841L445.845 422.307C436.632 433.459 424.496 442.545 410.441 448.811C396.386 455.078 380.817 458.346 365.021 458.345C349.225 458.347 333.655 455.079 319.6 448.812C305.545 442.546 293.409 433.46 284.196 422.307L21.9839 104.841C7.71808 87.57 0.0473224 66.8438 0.0524937 45.5829L0 0Z" fill="#102F60"/>
<defs>
<linearGradient id="paint0_linear_2034_95" x1="368.879" y1="14.3443" x2="365.399" y2="346.889" gradientUnits="userSpaceOnUse">
<stop offset="0.12" stop-color="white"/>
<stop offset="0.19" stop-color="#F6F6F6"/>
<stop offset="0.31" stop-color="#DEDEDE"/>
<stop offset="0.46" stop-color="#B6B6B6"/>
<stop offset="0.63" stop-color="#7E7E7E"/>
<stop offset="0.82" stop-color="#393939"/>
<stop offset="0.97"/>
</linearGradient>
<linearGradient id="paint1_linear_2034_95" x1="334.778" y1="71.2604" x2="359.434" y2="556.298" gradientUnits="userSpaceOnUse">
<stop offset="0.34" stop-color="white"/>
<stop offset="0.38" stop-color="#F7F7F7"/>
<stop offset="0.43" stop-color="#E0E0E0"/>
<stop offset="0.49" stop-color="#BCBCBC"/>
<stop offset="0.57" stop-color="#898989"/>
<stop offset="0.65" stop-color="#484848"/>
<stop offset="0.74"/>
</linearGradient>
<linearGradient id="paint2_linear_2034_95" x1="333.684" y1="550.56" x2="346.865" y2="264.744" gradientUnits="userSpaceOnUse">
<stop offset="0.1" stop-color="white"/>
<stop offset="0.13" stop-color="#F2F2F2"/>
<stop offset="0.44" stop-color="#8C8C8C"/>
<stop offset="0.68" stop-color="#414141"/>
<stop offset="0.85" stop-color="#121212"/>
<stop offset="0.94"/>
</linearGradient>
</defs>
</svg>
