<svg width="780" height="739" viewBox="0 0 780 739" fill="none" xmlns="http://www.w3.org/2000/svg">
<path d="M754.979 21.02H25.3359V738.825H754.979V21.02Z" fill="#CCC4C1"/>
<path style="mix-blend-mode:multiply" opacity="0.19" d="M754.979 21.02H25.3359V738.825H754.979V21.02Z" fill="url(#paint0_linear_2034_94)"/>
<path d="M25.3359 738.825H86.241C95.89 738.825 105.388 736.469 113.884 731.969C122.381 727.47 129.609 720.967 134.923 713.043L330.102 422.36C339.001 409.106 343.724 393.561 343.677 377.677C343.631 361.793 338.817 346.275 329.84 333.072L134.954 46.4826C129.622 38.6419 122.408 32.2149 113.95 27.7702C105.491 23.3255 96.0503 21.0003 86.4611 21H25.3359V738.825Z" fill="#ECECEC"/>
<path d="M754.979 738.825H694.064C684.415 738.822 674.918 736.466 666.422 731.966C657.926 727.467 650.697 720.965 645.382 713.043L450.224 422.38C441.327 409.124 436.607 393.58 436.656 377.696C436.704 361.811 441.519 346.295 450.496 333.092L645.371 46.5028C650.704 38.6627 657.918 32.2362 666.376 27.7916C674.834 23.347 684.275 21.0212 693.864 21.02H755L754.979 738.825Z" fill="#ECECEC"/>
<path style="mix-blend-mode:multiply" opacity="0.19" d="M744.35 587.6L527.733 334.753C522.326 328.446 515.585 323.376 507.981 319.895C500.377 316.415 492.093 314.608 483.706 314.602H299.702C291.372 314.601 283.142 316.379 275.579 319.811C268.015 323.244 261.3 328.25 255.894 334.485L36.3848 587.476C32.2195 592.282 28.5204 597.461 25.3359 602.945V738.876H754.937V602.512C751.864 597.243 748.321 592.252 744.35 587.6Z" fill="url(#paint1_linear_2034_94)"/>
<path d="M479.89 116.928H302.731C294.708 116.929 286.782 119.487 279.497 124.426C272.213 129.365 265.744 136.568 260.537 145.537L49.1104 509.555C33.5552 536.31 25.0059 570.344 25 605.535V738.783H754.601V605.012C754.602 570.143 746.214 536.397 730.921 509.74L522.314 145.923C517.102 136.846 510.607 129.55 503.279 124.542C495.952 119.535 487.97 116.936 479.89 116.928Z" fill="#ECECEC"/>
<path style="mix-blend-mode:multiply" opacity="0.19" d="M25 47.9614H754.999V92.0686C754.978 112.697 747.295 132.782 733.066 149.408L470.835 456.71C461.505 467.554 449.333 476.363 435.302 482.424C421.271 488.485 405.776 491.628 390.068 491.6C374.351 491.636 358.845 488.497 344.804 482.435C330.763 476.374 318.583 467.561 309.248 456.71L47.0169 149.408C32.7879 132.782 25.1048 112.697 25.0837 92.0686L25 47.9614Z" fill="url(#paint2_linear_2034_94)"/>
<g filter="url(#filter0_d_2034_94)">
<path d="M25 21H754.999V66.5829C755.001 87.8447 747.327 108.571 733.058 125.841L470.845 443.307C461.632 454.459 449.496 463.545 435.441 469.811C421.386 476.078 405.817 479.346 390.021 479.345C374.225 479.347 358.655 476.079 344.6 469.812C330.545 463.546 318.409 454.46 309.196 443.307L46.9839 125.841C32.7181 108.57 25.0473 87.8438 25.0525 66.5829L25 21Z" fill="#ECECEC"/>
</g>
<defs>
<filter id="filter0_d_2034_94" x="0" y="0" width="779.999" height="508.345" filterUnits="userSpaceOnUse" color-interpolation-filters="sRGB">
<feFlood flood-opacity="0" result="BackgroundImageFix"/>
<feColorMatrix in="SourceAlpha" type="matrix" values="0 0 0 0 0 0 0 0 0 0 0 0 0 0 0 0 0 0 127 0" result="hardAlpha"/>
<feOffset dy="4"/>
<feGaussianBlur stdDeviation="12.5"/>
<feComposite in2="hardAlpha" operator="out"/>
<feColorMatrix type="matrix" values="0 0 0 0 0 0 0 0 0 0 0 0 0 0 0 0 0 0 0.25 0"/>
<feBlend mode="normal" in2="BackgroundImageFix" result="effect1_dropShadow_2034_94"/>
<feBlend mode="normal" in="SourceGraphic" in2="effect1_dropShadow_2034_94" result="shape"/>
</filter>
<linearGradient id="paint0_linear_2034_94" x1="393.879" y1="35.3443" x2="390.399" y2="367.889" gradientUnits="userSpaceOnUse">
<stop offset="0.12" stop-color="white"/>
<stop offset="0.19" stop-color="#F6F6F6"/>
<stop offset="0.31" stop-color="#DEDEDE"/>
<stop offset="0.46" stop-color="#B6B6B6"/>
<stop offset="0.63" stop-color="#7E7E7E"/>
<stop offset="0.82" stop-color="#393939"/>
<stop offset="0.97"/>
</linearGradient>
<linearGradient id="paint1_linear_2034_94" x1="359.778" y1="92.2604" x2="384.434" y2="577.298" gradientUnits="userSpaceOnUse">
<stop offset="0.34" stop-color="white"/>
<stop offset="0.38" stop-color="#F7F7F7"/>
<stop offset="0.43" stop-color="#E0E0E0"/>
<stop offset="0.49" stop-color="#BCBCBC"/>
<stop offset="0.57" stop-color="#898989"/>
<stop offset="0.65" stop-color="#484848"/>
<stop offset="0.74"/>
</linearGradient>
<linearGradient id="paint2_linear_2034_94" x1="358.684" y1="571.56" x2="371.865" y2="285.744" gradientUnits="userSpaceOnUse">
<stop offset="0.1" stop-color="white"/>
<stop offset="0.13" stop-color="#F2F2F2"/>
<stop offset="0.44" stop-color="#8C8C8C"/>
<stop offset="0.68" stop-color="#414141"/>
<stop offset="0.85" stop-color="#121212"/>
<stop offset="0.94"/>
</linearGradient>
</defs>
</svg>
