<svg width="724" height="473" viewBox="0 0 724 473" fill="none" xmlns="http://www.w3.org/2000/svg">
<path d="M172.43 245.83C173.101 242.261 173.749 238.693 174.49 235.119C174.773 233.761 175.364 232.452 175.766 231.133C176.757 227.777 177.794 224.417 178.711 221.019C179.13 219.466 179.391 217.874 179.489 216.268C179.863 210.745 183.06 206.041 184.035 200.736C184.944 197.019 186.196 193.395 187.776 189.91C189.146 186.27 189.606 182.362 190.735 178.621C191.561 175.605 192.674 172.663 193.598 169.711C194.914 165.627 197.614 161.896 196.735 157.258C196.718 157.001 196.684 156.51 196.893 156.472C199.186 155.705 198.644 153.604 199.207 151.898C200.057 149.233 201.843 146.879 202.933 144.291C203.535 142.794 203.294 140.978 203.828 139.532C204.827 136.645 206.136 133.831 207.232 130.985C207.788 129.514 208.153 127.985 208.639 126.519C208.876 125.869 209.305 125.276 209.517 124.604C209.729 123.932 209.981 122.81 210.224 121.901C209.207 121.782 207.831 121.195 207.226 121.612C202.327 124.742 197.642 128.256 192.693 131.342C188.464 133.979 183.997 136.21 179.66 138.644C178.769 139.143 177.944 139.752 177.204 140.455C175.747 142.466 173.642 143.912 171.245 144.55C169.16 144.927 167.623 147.827 165.583 149.211C162.091 151.603 158.456 153.781 154.701 155.732C150.914 157.634 150.223 161.252 148.951 164.604C147.678 167.956 146.105 171.704 144.992 175.327C144.194 177.731 144.102 180.509 143.309 182.982C142.517 185.456 141.05 188.023 140.174 190.643C139.452 192.783 139.281 195.096 138.656 197.277C138.031 199.457 136.87 201.697 136.23 203.996C135.119 207.995 134.249 212.094 133.187 216.113C132.999 216.807 132.331 217.323 132.072 217.998C131.814 218.673 131.021 220.113 131.365 220.701C132.46 222.646 131.424 223.962 130.763 225.628C129.856 228.262 129.107 230.949 128.521 233.673C127.564 237.168 126.511 240.646 125.697 244.178C124.882 247.71 124.542 250.975 123.835 254.359C123.24 257.336 122.433 260.28 121.79 263.237C121.364 265.239 121.056 267.257 120.795 269.272C120.533 271.286 120.616 273.183 120.182 275.069C119.945 276.071 118.921 276.869 118.255 277.76C117.383 277.021 116.193 276.421 115.761 275.581C115.293 274.417 115.103 273.159 115.206 271.908C114.973 267.778 115.035 263.637 115.392 259.516C116.271 253.137 117.742 246.858 119.019 240.476C119.489 238.095 121.047 235.827 119.303 233.292C119.04 232.887 119.582 231.887 119.841 231.212C122.771 223.95 124.937 216.402 126.302 208.69C127.077 205.513 128.12 202.409 129.421 199.41C130.242 197.005 131.156 194.593 131.86 192.196C133.128 187.741 134.132 183.209 135.471 178.772C136.199 176.373 137.504 174.194 138.376 171.855C138.517 171.008 138.514 170.142 138.366 169.296C137.506 169.401 136.673 169.665 135.91 170.074C133.037 172.314 130.319 174.754 127.473 177.039C125.249 178.811 122.872 180.406 120.603 182.205C119.132 183.339 117.738 184.562 116.321 185.786C115.768 186.27 115.35 187.027 114.714 187.329C109.015 190.066 105.902 195.658 101.234 199.429C99.6987 200.638 98.1959 201.985 96.6273 203.056C86.5857 210.553 78.6939 220.346 69.2772 228.411C66.8737 230.673 64.8225 233.284 63.1921 236.155C62.1955 237.703 61.4063 239.542 59.0546 239.444C58.7744 239.463 58.4233 239.816 58.2074 240.089L47.2218 254.721C44.7696 257.966 42.1694 261.103 39.9385 264.497C37.2202 268.652 34.7978 273.022 32.2524 277.306C30.6538 279.999 28.8621 282.612 27.4816 285.407C25.6496 289.15 24.0374 293.018 22.5434 296.902C22.0815 298.037 22.5586 299.532 22.2197 300.753C21.7791 301.709 21.1901 302.59 20.4747 303.362C19.6873 302.828 18.9479 302.226 18.2648 301.563C17.6453 300.872 17.2542 300.006 17.1451 299.084C17.036 298.162 17.2144 297.229 17.6557 296.413C18.7901 293.446 19.2019 290.2 20.0715 287.134C20.6624 285.181 21.4028 283.277 22.2862 281.439C23.3712 278.97 24.6097 276.571 25.9942 274.257C28.6764 269.916 31.5051 265.659 34.3588 261.424C37.2124 257.189 40.3747 252.322 43.7154 248.007C47.7673 242.774 52.0919 237.758 56.3932 232.743C60.6945 227.728 64.5513 223.072 68.9078 218.523C72.7843 214.501 77.1128 210.917 81.1655 207.07C86.1427 202.338 90.9172 197.384 96.0207 192.785C99.0262 190.09 102.563 187.969 105.717 185.382C107.94 183.586 109.855 181.411 112.025 179.525C113.462 178.4 114.956 177.35 116.5 176.378C117.276 175.878 118.022 175.333 118.734 174.745C120.439 173.267 122.042 171.677 123.772 170.22C125.502 168.764 126.823 167.851 128.221 166.675L131.796 164.083C135.964 161.287 139.961 158.246 143.768 154.974C145.507 153.305 145.947 150.127 146.814 147.719C147.344 146.203 147.371 144.533 147.919 142.946C149.241 139.285 150.756 135.705 152.149 132.063C153.542 128.421 154.821 125.162 156.128 121.644C157.758 116.999 159.459 112.373 160.753 107.61C162.46 102.184 164.669 96.9295 167.351 91.9146C168.706 89.0973 169.29 85.9567 170.521 83.0304C172.12 78.9749 173.96 74.9971 175.652 70.9352C176.396 69.3754 177.023 67.7623 177.528 66.1092C178.051 64.1474 182.256 59.4443 184.249 59.097C184.55 59.0319 184.862 59.0337 185.163 59.1025C185.463 59.1713 185.745 59.3054 185.988 59.4952C186.15 59.7597 186.245 60.0594 186.267 60.3689C186.288 60.6783 186.234 60.9883 186.109 61.2723C184.621 63.8637 185.056 67.1462 182.546 69.5489C181.115 70.915 181.223 73.8675 180.504 76.0541C179.785 78.2408 177.34 79.1827 178.544 81.708C175.33 83.4071 176.329 86.6982 175.525 89.3604C173.74 95.1669 171.477 100.841 169.334 106.555C168.2 109.522 166.921 112.428 165.715 115.376C164.047 119.459 161.572 123.41 160.901 127.661C160.25 132.568 157.885 136.746 157.011 141.456C156.561 142.574 156.039 143.661 155.45 144.711C155.271 144.838 155.125 145.006 155.023 145.2C154.92 145.395 154.865 145.61 154.861 145.83C154.857 146.05 154.904 146.267 155 146.466C155.095 146.664 155.235 146.837 155.409 146.971C155.583 147.105 155.786 147.196 156.001 147.237C156.217 147.279 156.439 147.269 156.65 147.208C156.861 147.148 157.055 147.039 157.216 146.89C157.378 146.741 157.502 146.557 157.579 146.351C163.174 142.422 168.533 138.134 174.34 134.567C180.147 130.999 186.296 128.325 192.194 125.057C196.464 122.675 200.465 119.795 204.715 117.461C206.19 116.831 207.732 116.371 209.312 116.091C213.656 114.808 215.015 111.004 216.314 107.345C216.915 105.21 217.37 103.036 217.675 100.839C217.76 100.363 217.722 99.802 217.982 99.4789C222.062 94.667 222.427 88.3232 224.843 82.8261C226.858 77.9905 229.107 73.1391 231.145 68.302C232.052 66.126 231.916 63.4339 234.405 62.1131C234.486 62.0615 234.552 61.9892 234.595 61.9036C234.639 61.818 234.659 61.7223 234.653 61.6264C234.061 56.3814 238.276 52.8522 239.577 48.2063C240.879 43.5604 242.315 38.4825 246.421 35.0782C246.643 34.8986 246.788 34.607 247.038 34.4959C249.949 33.1698 252.887 31.8889 256.574 30.2515C255.787 32.4663 255.361 34.1163 254.597 35.6482C252.582 40.4838 250.287 45.3384 248.131 50.1835C246.086 54.5748 244.178 58.9331 242.371 63.3787C241.225 66.1817 240.421 69.1728 239.372 72.0163C238.101 75.3916 236.614 78.6877 235.365 82.038C233.755 86.2822 232.217 90.5449 230.678 94.8076C229.357 98.4683 228.005 102.037 226.742 105.858C226.411 106.779 226.429 107.789 226.794 108.697C226.985 109.083 228.471 108.865 229.359 108.827C232.301 108.627 235.265 108.425 238.216 108.364C238.753 108.328 239.311 109.3 239.838 109.804C239.255 110.196 238.471 111.072 238.085 110.91C234.034 109.284 231.009 112.732 227.415 112.977C222.022 113.345 222.201 118.031 220.696 121.398C219.628 124.188 218.781 127.058 218.162 129.981C218.088 130.443 217.978 130.898 217.833 131.342C216.285 134.783 214.664 138.183 213.188 141.642C212.951 142.518 212.815 143.418 212.785 144.324C212.738 145.034 212.588 145.732 212.34 146.398C209.502 151.26 207.736 156.675 207.162 162.279C207.13 162.643 207.035 162.999 206.882 163.331C205.402 166.392 203.729 169.372 202.466 172.512C201.595 174.358 201.163 176.382 201.204 178.424C201.497 182.726 197.783 185.352 197.491 189.318C197.199 193.284 193.665 195.804 194.646 199.871C194.647 200.067 194.577 200.255 194.448 200.402C190.915 205.341 191.419 211.696 189.378 217.191C188.132 220.588 187.513 224.224 186.267 227.621C184.738 231.892 184.074 236.425 184.315 240.956C184.475 243.294 180.616 246.541 178.429 245.421C177.574 244.895 176.554 244.703 175.567 244.883C174.579 245.063 173.693 245.602 173.078 246.397L172.43 245.83Z" fill="#A2112A"/>
<path d="M521.442 151.488C515.685 151.669 512.595 148.99 512.136 143.29C512.011 141.466 512.095 139.605 511.948 137.783C511.891 137.175 511.601 136.613 511.137 136.217C510.916 136.068 510.075 136.454 509.723 136.807C505.687 140.887 502.198 145.777 497.535 148.937C492.873 152.097 489.789 157.428 483.857 158.467C480.683 159.036 477.574 161.245 474.228 158.255C472.131 156.401 469.578 150.937 470.298 148.093C470.872 145.846 471.443 143.552 471.826 141.27C471.927 140.676 471.387 139.985 471.131 139.321C470.586 139.593 469.844 139.714 469.498 140.137C465.905 144.54 462.512 149.117 458.795 153.411C455.477 157.385 451.902 161.137 448.093 164.641C443.67 168.56 438.817 172.015 434.09 175.603C432.92 176.327 431.692 176.953 430.418 177.474C429.335 178.146 428.198 178.727 427.019 179.209C423.343 180.699 419.384 181.354 415.424 181.128C413.787 180.898 412.234 180.255 410.911 179.261C409.588 178.267 408.539 176.953 407.861 175.442C407.843 175.185 407.426 174.908 407.483 174.716C408.783 171.08 406.493 167.079 408.713 163.521C409.067 162.717 409.317 161.871 409.456 161.004C408.619 160.942 407.778 160.999 406.958 161.174C405.341 161.872 403.92 163.049 402.245 163.586C399.28 164.563 396.239 165.289 393.153 165.757C390.18 166.171 387.112 165.887 384.105 166.162C383.008 166.237 381.338 166.844 381.062 167.615C379.093 173.128 377.65 178.794 375.759 184.42C374.579 187.933 373.092 191.336 371.317 194.589C370.269 196.422 368.99 194.865 368.441 193.681C367.707 191.858 367.357 189.903 367.413 187.939C367.469 185.975 367.929 184.044 368.764 182.266C369.885 179.441 371.2 176.72 372.178 173.858C373.542 169.795 373.933 165.212 376.038 161.685C379.415 156.193 380.05 150.019 382.14 144.215C383.323 140.94 384.772 137.764 386.17 134.544C388.041 130 389.816 125.416 391.833 120.956C392.954 118.592 394.257 116.32 395.732 114.16C395.956 113.903 396.241 113.707 396.561 113.591C396.882 113.474 397.226 113.441 397.563 113.495C398.16 114.008 398.603 114.677 398.843 115.428C398.861 115.685 398.656 116.122 398.517 116.484C396.945 120.608 395.254 124.693 393.826 128.854C392.398 133.015 391.164 137.962 389.665 142.457C388.914 144.857 387.772 147.026 386.801 149.3C385.8 150.929 385.127 152.739 384.82 154.627C385.284 156.353 386.294 157.882 387.696 158.988C388.2 159.494 389.616 159.28 390.567 159.121C391.517 158.962 392.487 158.05 393.362 158.155C394.32 158.221 395.28 158.067 396.17 157.705C397.059 157.343 397.855 156.783 398.496 156.067C400.652 154.434 403.074 153.188 405.655 152.384C409.694 151.071 413.066 148.239 415.06 144.484C417.541 139.945 418.95 134.822 421.106 129.977C422.168 127.631 423.409 125.371 424.819 123.217C427.484 118.971 430.271 114.788 433.033 110.583C433.519 109.794 434.109 109.074 434.787 108.443C436.162 107.292 437.485 105.37 439.521 107.368C440.386 108.016 440.972 108.971 441.158 110.037C441.344 111.102 441.116 112.199 440.521 113.102C439.041 116.492 437.806 120.053 436.232 123.449C434.658 126.845 433.433 130.546 431.692 133.906C429.264 138.535 426.372 142.89 423.92 147.521C422.744 149.948 421.763 152.466 420.986 155.05C420.244 157.238 419.719 159.505 419.097 161.732C418.475 163.959 417.408 166.546 416.812 169.147C416.215 171.748 418.41 172.984 420.753 172.261C427.467 169.98 433.7 166.473 439.137 161.916C439.493 161.633 439.771 161.239 440.125 160.933C443.686 158.216 447.105 155.318 450.367 152.247C454.359 148.193 457.925 143.745 461.567 139.386C465.944 134.476 470.063 129.341 473.909 124.004C476.228 120.533 480.143 117.424 479.184 112.298C479.219 111.566 479.473 110.861 479.914 110.275C481.998 106.445 484.077 102.545 486.17 98.8549C487.144 97.3086 488.555 95.3096 490.08 94.9707C491.536 94.562 493.078 94.5825 494.523 95.0297C495.968 95.477 497.253 96.3321 498.225 97.4925C498.454 97.7588 498.698 98.2354 498.597 98.4772C498.035 100.472 497.185 102.374 496.074 104.123C490.997 109.854 487.401 116.745 485.6 124.193C484.105 131.507 480.327 138.342 480.781 146.039C480.944 147.073 481.186 148.093 481.506 149.09C482.45 148.839 483.362 148.477 484.223 148.012C492.812 142.01 500.928 135.355 508.497 128.105C508.956 127.546 509.37 126.953 509.736 126.329L511.882 123.411C514.178 120.552 516.323 117.575 518.309 114.493C520.935 110.015 522.926 105.157 525.503 100.659C527.595 96.9461 530.172 93.4583 532.58 89.9114C533.691 88.3322 534.902 86.1355 537.089 87.2549C537.81 87.4531 538.477 87.8121 539.041 88.3051C539.604 88.7981 540.049 89.4124 540.342 90.1018C540.634 90.7913 540.768 91.5381 540.732 92.2865C540.696 93.0348 540.491 93.7653 540.134 94.4232C539.113 97.2449 537.906 99.9954 536.521 102.656C534.55 106.079 532.28 109.241 529.922 112.503C529.346 113.34 528.384 114.017 528.074 114.978C526.725 118.922 525.521 122.927 524.203 126.987C524.028 127.516 524.098 128.192 523.798 128.612C521.384 132.065 522.249 136.164 521.453 139.953C521.324 140.479 521.341 141.065 521.212 141.591C519.933 146.564 520.035 146.674 524.768 147.996C525.712 148.373 526.61 148.855 527.446 149.434C526.429 150.248 525.34 150.967 524.192 151.582C523.277 151.71 522.346 151.678 521.442 151.488Z" fill="#A2112A"/>
<path d="M395.464 346.124C394.529 345.973 393.57 346.11 392.714 346.517C391.858 346.923 391.146 347.58 390.671 348.401C387.524 352.116 383.989 355.645 383.126 360.872C382.89 362.227 381.582 363.327 381.044 364.726C379.873 367.155 378.806 369.741 377.737 372.28C377.437 373.052 377.483 374.059 377.009 374.679C374.246 378.179 374.253 382.407 373.737 386.53C373.754 386.787 373.783 387.208 373.627 387.336C372.306 388.486 371.32 389.974 370.777 391.641C370.234 393.308 370.154 395.092 370.544 396.801C370.659 397.97 370.692 399.145 370.643 400.318C370.701 401.16 370.757 401.978 370.814 402.82C370.908 404.2 370.44 406.275 371.09 406.865C372.941 408.386 375.116 409.459 377.448 410.002C379.789 410.365 382.181 410.202 384.451 409.525C388.245 408.397 391.95 406.991 395.537 405.315C398.732 403.863 401.822 402.193 404.788 400.315C406.22 399.156 407.553 397.879 408.772 396.497C413.916 391.8 419.159 387.191 424.228 382.429C425.347 381.314 426.15 379.922 426.556 378.394C428.861 369.546 433.67 362.006 438.476 354.42C439.473 353.2 440.546 352.045 441.687 350.959C446.026 345.801 449.881 340.088 455.926 336.575C456.984 336.069 458.075 335.633 459.191 335.272C459.564 335.246 460.124 335.208 460.252 335.011C462.756 330.471 466.92 334.792 469.977 333.197C470.248 333.038 470.88 333.371 471.25 333.627C474.639 336.215 478.204 338.626 480.143 342.652C480.154 342.816 480.43 343.079 480.387 343.129C478.636 345.315 480.3 347.363 480.445 349.491C480.431 352.81 480.139 356.122 479.573 359.393C479.592 359.673 479.611 359.954 479.63 360.234C477.547 369.913 474.429 379.217 468.208 387.041C464.815 391.228 461.099 395.142 457.093 398.745C454.322 401.496 451.072 403.715 447.503 405.295C445.057 406.214 442.317 407.998 439.083 406.645C436.672 405.682 433.536 406.13 431.032 405.174C429.699 404.736 428.522 403.921 427.644 402.825C426.765 401.73 426.224 400.402 426.086 399.004C425.418 397.013 424.956 394.958 424.706 392.873C424.78 391.2 422.956 391.63 421.991 392.612C420.532 393.922 419.239 395.406 418.142 397.032C416.159 400.212 413.329 402.772 409.969 404.425C408.545 405.204 407.572 406.75 406.202 407.642C401.169 410.875 396.059 413.995 390.95 417.139C390.463 417.386 389.927 417.519 389.382 417.528C387.542 417.443 385.7 417.609 383.904 418.018C379.591 419.443 374.938 419.464 370.612 418.079C367.811 417.121 365.438 415.203 363.911 412.664C361.568 408.714 360.321 404.208 360.3 399.614C360.152 397.44 361.479 395.235 361.446 393.029C361.36 386.951 364.17 381.732 366.072 376.27C368.247 369.89 370.964 363.709 374.192 357.793C377.448 351.187 381.863 345.221 387.226 340.179C389.445 338.337 391.465 336.32 394.886 337.308C395.965 337.657 397.447 336.687 398.761 336.362C399.661 336.137 401.048 335.502 401.402 335.877C402.298 336.638 403.571 338.454 403.276 338.944C401.163 342.353 403.681 344.883 404.751 347.511C406.804 353.197 408.212 358.715 405.394 364.498C405.27 364.741 405.082 365.083 405.166 365.289C406.095 367.903 404.019 369.783 403.65 371.946C402.959 374.543 401.611 376.916 399.735 378.837C397.594 381.826 392.649 380.847 390.724 377.714C390.177 376.708 389.841 375.602 389.735 374.462C389.629 373.323 389.756 372.173 390.107 371.084C390.965 366.469 391.963 361.843 392.916 357.245C393.827 353.753 394.613 350.152 395.464 346.124ZM433.017 390.263C434.304 392.97 435.24 395.349 436.56 397.514C436.904 397.858 437.325 398.113 437.788 398.257C438.251 398.402 438.743 398.431 439.22 398.343C441.477 397.798 443.62 396.856 445.55 395.563C449.831 392.311 453.902 388.744 457.898 385.089C459.701 383.525 461.216 381.657 462.375 379.569C464.309 375.937 465.781 372.078 467.423 368.302C470.222 361.886 472.549 355.432 471.774 348.203C471.348 344.356 468.533 341.94 465.002 343.121C462.923 343.733 460.919 344.579 459.03 345.642C456.664 347.048 454.574 349.07 452.321 350.422C451.469 350.882 450.719 351.512 450.118 352.271C449.517 353.031 449.076 353.906 448.823 354.842C448.016 357.302 446.916 359.656 445.549 361.854C443.769 364.63 441.524 367.132 439.595 369.8C439.199 370.549 438.937 371.362 438.821 372.202C438.46 373.448 438.14 374.598 437.761 375.915C436.187 380.697 434.612 385.456 433.017 390.263Z" fill="#A2112A"/>
<path d="M672.53 344.307C672.758 342.154 673.001 340.211 673.148 338.252C673.123 337.877 672.812 337.1 672.625 337.113C672.021 337.095 671.426 337.267 670.923 337.605C668.712 339.564 666.863 342.368 664.284 343.413C661.767 344.718 659.503 346.463 657.6 348.567C657.123 349.016 656.567 349.373 655.96 349.619C652.801 350.75 649.589 351.791 646.43 352.923C640.726 354.909 636.422 352.666 633.047 348.221C632.326 347.284 632.588 345.622 632.266 344.328C632.157 343.227 631.736 342.179 631.052 341.31C630.629 340.963 628.938 341.619 628.256 342.276C622.327 348.309 615.362 353.224 607.694 356.786C605.206 358.226 602.809 359.817 600.515 361.551C598.03 362.942 595.28 363.881 592.767 365.203C590.799 366.254 588.973 367.341 586.944 365.436C586.881 365.364 586.803 365.306 586.715 365.268C586.627 365.229 586.532 365.21 586.436 365.212C581.974 366.151 581.128 361.651 578.451 359.884C578.107 359.571 577.887 359.144 577.83 358.682C577.263 354.844 576.745 351.027 576.249 347.185C576.189 346.815 576.211 346.437 576.314 346.077C578.243 339.978 579.763 333.72 582.246 327.843C583.909 323.259 586.046 318.862 588.621 314.723C590.142 312.245 592.323 310.243 594.919 308.941C597.516 307.639 600.423 307.09 603.315 307.355C604.442 307.558 605.517 307.984 606.478 308.608C607.439 309.233 608.265 310.042 608.91 310.991C611.012 314.03 612.661 317.36 613.805 320.875C614.413 323.597 614.604 326.396 614.371 329.176C614.35 332.333 614.134 335.485 613.725 338.616C613.383 340.046 612.922 341.445 612.345 342.797C612.02 343.877 611.275 345.337 611.677 346.061C612.638 347.781 613.878 346.71 615.155 345.824C621.899 341.559 626.578 335.202 632.264 329.858C633.519 328.668 633.713 326.353 634.246 324.532C634.422 324.026 634.166 323.363 634.463 322.896C638.484 315.152 642.385 307.369 646.651 299.772C648.21 297.272 650.175 295.05 652.464 293.198C653.029 292.76 653.687 292.458 654.386 292.315C655.086 292.171 655.809 292.19 656.5 292.369C657.192 292.549 657.833 292.885 658.375 293.351C658.917 293.817 659.345 294.401 659.627 295.059C660.362 296.739 660.491 298.624 659.99 300.39C658.048 304.695 655.784 308.846 653.215 312.808C650.777 316.592 647.747 319.97 645.137 323.648C644.528 324.741 644.086 325.919 643.828 327.143C643.617 327.839 643.678 328.727 643.244 329.25C642.471 330.003 641.939 330.97 641.719 332.027C641.499 333.085 641.599 334.184 642.007 335.184C642.264 335.848 641.537 336.884 641.244 337.749C640.597 339.602 639.536 341.577 641.613 343.15C642.473 343.876 643.55 344.295 644.673 344.342C645.797 344.389 646.904 344.06 647.821 343.408C651.606 341.13 655.471 339.011 659.078 336.533C661.319 334.771 663.453 332.877 665.468 330.859C666.707 329.764 668.045 328.757 669.284 327.663C670.013 327.002 670.665 326.253 671.343 325.525L675.209 321.362C675.546 321.07 675.824 320.716 676.029 320.32C677.04 316.876 678.226 313.487 679.582 310.165C681.954 305.07 684.739 300.158 687.379 295.21C689.678 292.922 692.722 291.538 695.955 291.313C698.762 291.896 700.102 296.762 698.373 299.604C696.253 303.812 693.825 307.857 691.107 311.704C686.758 316.699 686.524 323.245 683.665 328.772C682.4 331.208 682.838 334.537 682.544 337.446C682.512 340.001 682.23 342.545 681.702 345.044C680.975 347.443 682.337 348.501 683.608 349.612C684.232 350.157 685.7 349.681 686.776 349.631L689.11 349.472C688.927 350.236 689.049 351.332 688.561 351.741C686.945 353.498 685.015 354.937 682.87 355.982C679.389 357.206 676.87 355.686 675.236 352.016C674.265 349.474 673.475 346.827 672.53 344.307ZM587.446 342.874L587.804 342.967C587.823 343.248 587.84 343.505 588 343.776C588.781 345.958 590.164 347.873 591.988 349.3C593.812 350.726 596.002 351.605 598.305 351.835C599.229 351.608 600.03 351.031 600.54 350.227C601.68 348.668 602.704 347.028 603.606 345.319C604.366 344.019 604.926 342.61 605.268 341.142C605.862 338.166 605.885 335.063 606.696 332.166C607.506 329.268 608.065 327.139 605.918 324.889C605.765 324.715 605.656 324.507 605.6 324.282C605.544 324.057 605.542 323.822 605.595 323.596C607.046 321.148 605.019 319.266 604.051 317.453C602.38 314.278 600.268 314.258 597.853 317.006C594.654 320.654 591.501 324.275 590.48 329.254C589.563 333.686 588.47 338.294 587.439 342.781L587.446 342.874ZM588.391 358.807C589.2 357.601 589.938 356.728 589.837 356.618C588.873 355.603 587.821 354.677 586.693 353.849C586.693 353.849 585.367 355.043 585.445 355.155C586.196 356.185 587.108 357.18 588.385 358.713L588.391 358.807Z" fill="#A2112A"/>
<path d="M310.119 428.899C307.218 431.624 304.167 434.185 300.981 436.569C295.421 440.331 289.748 443.795 283.839 447.252C279.33 449.908 274.81 452.401 270.292 454.918C269.929 455.107 269.214 455.273 268.984 455.007C266.793 453.136 265.255 454.65 263.607 455.937C263.118 456.323 262.309 456.848 261.876 456.689C257.472 455.04 253.265 457.652 248.944 457.219C241.552 456.455 237.191 452.007 233.846 445.587C231.153 440.485 233.176 435.767 233.548 430.902C233.941 428.037 234.531 425.203 235.315 422.419C235.341 422.053 235.419 421.691 235.546 421.346C237.106 418.092 238.567 414.751 240.347 411.623C241.953 408.468 243.88 405.487 246.096 402.727C250.047 398.055 254.416 393.755 259.15 389.88C261.583 388.043 264.533 387.02 267.58 386.956C271.03 387.063 274.419 387.896 277.526 389.402C281.017 390.738 281.443 394.233 282.733 396.987C283.34 398.769 283.711 400.624 283.836 402.503C284.001 403.209 284.221 403.901 284.494 404.572C284.715 405.074 285.315 405.62 285.226 406.025C284.662 408.413 284.015 410.971 283.384 413.41C283.214 414.008 282.544 414.5 282.444 415.095C281.499 420.491 277.017 422.512 273.138 425.125C272.55 425.367 271.913 425.465 271.28 425.411C270.647 425.357 270.036 425.153 269.498 424.815C268.959 424.478 268.508 424.017 268.183 423.47C267.857 422.924 267.666 422.307 267.626 421.672C268.147 416.586 268.878 411.486 269.657 406.406C269.756 405.788 270.517 405.267 270.971 404.695C271.424 404.124 272.203 403.507 272.066 403.211C271.821 402.735 271.673 402.214 271.63 401.68C271.588 401.146 271.651 400.609 271.817 400.1C271.983 399.59 272.248 399.119 272.597 398.713C272.946 398.307 273.371 397.974 273.849 397.734C273.99 397.724 273.42 395.907 273.042 395.863C270.555 395.486 268.049 395.249 265.536 395.153C265.211 395.151 264.889 395.217 264.591 395.347C264.293 395.476 264.026 395.666 263.805 395.905C259.131 401.298 252.376 405.071 249.746 411.898C247.315 418.195 243.153 423.881 242.575 430.874C242.151 433.908 241.937 436.968 241.933 440.032C242.029 441.357 242.405 442.647 243.036 443.815C243.668 444.984 244.54 446.005 245.595 446.81C246.65 447.616 247.864 448.187 249.156 448.487C250.448 448.787 251.789 448.809 253.09 448.55C256.262 447.958 259.864 448.84 262.816 447.769C268.81 445.575 275.563 446.242 281.2 442.24C284.354 440.005 288.58 439.388 292.083 437.458C296.271 435.246 300.19 432.536 304.27 430.12C305.916 429.162 307.694 428.407 309.418 427.561L310.119 428.899ZM275.112 408.336C275.072 408.798 275.104 409.263 275.206 409.716C275.524 410.381 275.889 411.024 276.299 411.638C276.822 411.062 277.679 410.557 277.799 409.915C277.997 408.638 277.972 407.336 277.724 406.067C277.689 405.553 276.768 404.77 276.373 404.82C276.045 404.927 275.744 405.105 275.493 405.341C275.241 405.578 275.045 405.867 274.919 406.188C274.853 406.91 274.918 407.638 275.112 408.336Z" fill="#A2112A"/>
<path d="M221.815 206.24C221.126 197.973 223.193 189.711 227.693 182.748C228.771 181.007 229.186 178.841 230.238 177.078C231.939 174.166 233.813 171.384 235.737 168.645C238.03 165.357 240.372 162.112 242.765 158.911C243.891 157.085 245.299 155.451 246.937 154.069C251.421 151.039 254.012 145.365 260.107 144.644C262.55 141.612 266.383 143.136 269.471 141.985C270.911 141.441 273.827 143.286 275.313 144.782C277.654 147.135 279.315 150.17 283.386 148.647C283.565 148.605 283.751 148.603 283.932 148.639C284.112 148.675 284.283 148.75 284.432 148.858C285.761 149.777 286.094 154.312 285.227 155.71C281.786 160.481 278.781 165.552 276.247 170.863C274.005 177.399 272.165 184.068 270.738 190.83C269.667 194.263 268.778 197.75 268.073 201.277C267.16 204.911 267.421 208.742 268.819 212.219C268.92 212.537 269.096 212.826 269.332 213.061C269.568 213.296 269.857 213.47 270.175 213.568C270.493 213.667 270.83 213.686 271.157 213.626C271.484 213.565 271.792 213.426 272.054 213.22C272.618 212.9 273.216 212.389 273.78 212.398C274.481 212.412 275.155 212.674 275.683 213.137C275.834 213.291 275.458 214.304 275.088 214.728C274.559 215.508 273.833 216.133 272.983 216.54C270.68 217.143 268.358 217.489 266.043 217.929C265.855 217.944 265.668 217.89 265.517 217.777C263.941 215.653 261.464 213.708 261.021 211.342C260.565 207.623 260.608 203.859 261.149 200.152C261.254 198.946 262.353 197.861 262.713 196.615C262.798 195.833 262.744 195.041 262.554 194.277C261.876 194.652 260.787 194.844 260.59 195.398C258.137 201.719 252.936 205.927 248.624 210.778C244.311 215.629 239.815 219.154 233.466 219.258C230.505 219.081 227.726 217.764 225.711 215.582C223.527 213.123 222.671 209.517 221.245 206.49L221.815 206.24ZM274.541 154.09C274.537 150.261 271.047 146.529 268.886 147.17C267.02 147.607 265.178 148.14 263.367 148.768C261.088 149.745 258.02 150.495 256.573 152.308C251.496 158.668 244.506 163.467 241.067 171.148C240.844 171.773 240.429 172.311 239.882 172.685C236.07 174.566 235.606 178.755 233.969 181.921C232.332 185.086 229.429 188.596 230.382 192.947C230.397 193.158 230.086 193.414 230.01 193.678C228.74 197.757 226.63 201.542 227.394 206.212C227.616 207.698 228.204 209.106 229.104 210.307C230.005 211.509 231.191 212.467 232.554 213.095C234.839 214.278 236.989 212.793 238.662 210.846C239.168 210.436 239.708 210.07 240.275 209.75C243.431 207.186 247.639 206.311 249.589 201.551C251.539 196.79 255.737 193.004 258.894 188.748C261.448 185.285 263.953 181.779 266.359 178.208C266.714 177.357 266.961 176.464 267.093 175.551C268.208 172.304 268.656 168.562 270.633 165.913C273.466 162.056 273.202 157.493 274.471 154.094L274.541 154.09Z" fill="#A2112A"/>
<path d="M322.646 137.702C322.213 138.879 321.627 139.993 320.902 141.016C316.019 145.74 312.789 151.916 311.691 158.627C311.568 159.498 311.238 160.326 310.73 161.042C309.193 163.722 308.582 166.835 308.989 169.899C309.018 170.393 309.164 170.873 309.414 171.3C309.664 171.727 310.011 172.089 310.427 172.356C310.843 172.623 311.316 172.788 311.808 172.837C312.3 172.886 312.796 172.818 313.256 172.638C315.216 172.013 317.131 171.255 318.988 170.368C321.746 168.865 324.211 166.841 327.026 165.474C332.29 162.884 334.621 158.215 336.929 153.195C338.726 149.29 341.904 146.02 343.63 142.097C344.89 139.272 346.47 136.603 348.34 134.141C350.613 131.026 353.007 127.95 357.67 128.924C359.335 129.28 360.09 130.028 359.495 131.619C358.338 134.939 357.084 138.219 355.832 141.523L354.26 145.647C354.157 146.098 353.997 146.535 353.786 146.948C351.001 150.802 348.265 154.7 345.379 158.468C342.23 162.142 340.047 166.546 339.03 171.28C338.877 172.136 337.985 172.808 337.649 173.723C337.168 174.947 336.76 176.199 336.427 177.471C336.294 178.367 336.096 179.252 335.834 180.119C333.949 184.124 331.683 188.037 330.134 192.136C329.368 194.736 328.766 197.382 328.329 200.058C327.973 201.374 327.064 202.493 326.759 203.853C326.416 205.039 326.461 206.303 326.887 207.461C327.134 207.985 328.788 207.825 329.786 208.015C330.448 208.154 331.102 208.329 331.745 208.54C331.683 209.15 331.509 209.743 331.231 210.29C330.488 211.078 329.588 211.701 328.59 212.119C327.591 212.537 326.516 212.741 325.434 212.718C324.352 212.694 323.286 212.443 322.307 211.982C321.327 211.521 320.455 210.859 319.747 210.039C319.454 209.382 319.279 208.678 319.229 207.96C319.006 206.754 318.86 205.636 318.61 204.385C318.58 203.941 318.123 203.431 318.241 203.095C319.702 198.72 321.259 194.385 322.742 190.009C323.384 188.062 323.881 186.079 324.523 184.132C325.357 181.585 326.289 179.079 327.123 176.532C327.244 175.855 327.292 175.166 327.265 174.479C326.494 174.531 325.716 174.467 324.921 174.497C324.781 174.507 324.605 174.683 324.475 174.833C319.438 180.415 313.188 181.264 306.403 179.096C305.409 178.735 304.547 178.081 303.93 177.221C302.886 175.467 301.978 173.637 301.212 171.745C301.08 171.126 301.143 170.482 301.391 169.901C301.502 169.47 302.06 169.056 302.035 168.682C301.35 162.081 305.416 156.706 307.324 150.985C309.232 145.265 313.448 140.725 316.938 135.836C317.473 135.095 319.638 135.206 320.945 135.445C321.298 135.468 321.736 136.73 322.646 137.702Z" fill="#A2112A"/>
<path d="M517.315 388.436C515.966 388.761 514.584 388.926 513.197 388.928C511.763 388.682 510.395 388.14 509.181 387.336C507.967 386.533 506.932 385.485 506.143 384.26C505.354 383.035 504.828 381.66 504.597 380.22C504.367 378.781 504.438 377.31 504.805 375.899C505.933 372.158 507.035 368.371 508.14 364.631C508.14 364.631 508.124 364.397 508.123 364.374C512.375 361.735 509.859 358.547 509.032 355.362C508.809 354.14 509.022 352.878 509.634 351.798C512.447 347.363 516.326 343.707 520.915 341.162C521.971 340.479 523.607 340.744 524.945 340.418C528.77 339.429 531.044 336.314 533.877 333.842C537.32 330.386 541.574 327.851 546.248 326.468C547.655 326.114 548.771 324.604 550.184 323.991C553.694 322.507 557.284 321.158 560.883 319.95C561.743 319.68 562.655 319.617 563.544 319.768C563.871 319.746 564.233 320.59 564.312 321.055C564.39 321.519 563.722 321.682 563.358 321.848C560.357 323.498 557.252 324.95 554.062 326.193C550.737 327.289 548.635 329.829 545.922 331.658C543.838 333.069 541.218 333.506 539.646 335.915C538.075 338.324 538.168 338.647 540.546 339.471C544.099 340.685 547.15 345.88 547.242 349.632C547.473 357.838 543.549 364.26 539.3 370.728C536.514 375.015 532.866 378.672 528.588 381.466C525.986 383.193 523.617 385.258 521.045 387.077C519.91 387.757 518.728 388.356 517.508 388.869L517.315 388.436ZM521.611 359.625C520.332 360.614 519.159 361.733 518.11 362.965C516.621 365.058 515.367 367.31 514.371 369.68C513.54 372.034 513.013 374.486 512.804 376.975C512.887 378.156 513.35 379.279 514.125 380.173C514.306 380.419 515.712 380.065 516.434 379.64C520.755 376.644 525.568 374.319 528.779 369.825C531.301 366.223 535.4 363.735 536.271 358.978C536.454 358.241 536.819 357.561 537.332 357.003C538.348 355.964 538.989 354.615 539.154 353.17C539.319 351.725 538.998 350.266 538.242 349.024C536.346 344.949 532.401 343.832 529.162 346.895C527.91 348.019 526.777 349.269 525.782 350.626C524.735 352.13 524.356 354.482 522.982 355.304C520.413 356.841 520.436 358.202 521.611 359.625Z" fill="#A2112A"/>
<path d="M563.315 282.011C563.851 281.975 564.631 282.063 564.891 281.739C567.961 277.936 572.66 278.062 576.739 277.009C579.689 276.244 582.893 275.086 585.91 277.722C586.671 278.319 587.237 279.131 587.534 280.053C587.831 280.974 587.845 281.964 587.576 282.894C587.494 283.416 586.581 283.784 586.025 284.221C585.653 283.753 585.364 283.224 585.168 282.659C584.592 279.362 584.215 279.341 581.161 280.982C576.185 283.671 571.012 285.879 565.979 288.407C559.654 291.61 553.249 294.655 547.065 298.2C540.881 301.746 534.652 305.319 528.314 308.664C524.242 310.844 520.008 312.73 515.798 314.615C513.954 315.422 511.913 315.749 510.013 316.442C508.114 317.136 507.922 318.441 508.714 320.078C509.747 322.169 510.94 324.178 511.811 326.303C512.852 328.84 512.312 329.511 509.669 329.268C507.026 329.026 507.124 330.123 507.333 332.152C507.695 334.506 507.588 336.909 507.017 339.221C505.038 345.28 503.758 351.547 503.202 357.898C502.758 360.542 502.153 363.156 501.391 365.726C500.952 367.894 500.777 370.137 500.435 372.345C500.413 373.178 500.204 373.995 499.824 374.736C498.671 376.388 498.525 377.69 500.351 379.022C500.747 379.324 500.452 380.495 500.511 381.36C500.522 381.524 500.346 381.7 500.212 381.804C498.708 383.128 498.159 386.078 495.297 385.028C493.59 384.416 492.223 380.54 492.717 378.157C492.894 377.299 493.256 376.076 492.844 375.541C490.888 372.996 492.496 370.444 492.9 368.114C493.748 361.972 495.307 355.946 496.699 349.885C497.275 347.332 498.162 344.852 498.786 342.319C499.341 340.144 499.752 337.908 500.21 335.692C500.408 334.809 500.533 333.885 500.707 333.003C500.966 331.647 501.224 330.267 501.507 328.909C501.612 328.385 501.537 327.638 501.868 327.334C504.897 324.637 503.05 321.968 501.599 319.6C499.194 315.63 499.818 313.426 504.116 311.465C506.527 310.361 508.797 308.914 511.152 307.697C513.508 306.479 515.865 305.613 518.126 304.379C525.72 300.196 533.183 295.811 540.719 291.797C544.928 289.561 549.435 287.914 553.781 285.95C556.33 284.813 558.847 283.561 561.371 282.402C561.974 282.204 562.591 282.052 563.216 281.948L563.315 282.011Z" fill="#A2112A"/>
<path d="M710.494 241.108C710.792 242.723 710.682 244.386 710.174 245.947C709.666 247.508 708.777 248.917 707.586 250.045C706.396 251.267 705.332 252.606 704.412 254.043C703.222 255.82 701.937 257.531 700.563 259.168C697.234 262.875 693.673 266.366 689.902 269.62C687.602 270.959 685.102 271.923 682.499 272.474C680.99 273.047 679.453 273.551 677.918 274.079C677.413 274.231 676.738 274.652 676.373 274.466C671.727 272.011 665.441 271.993 663.048 266.143C662.041 263.591 661.431 260.899 661.238 258.162C660.897 253.158 660.742 248.142 660.706 243.141C660.593 240.852 660.873 238.56 661.534 236.366C662.357 234.722 663.574 233.308 665.075 232.249C665.43 231.943 667.205 232.526 667.477 233.072C668.397 234.96 669.032 236.975 669.362 239.05C669.661 241.379 669.089 243.65 669.452 245.88C670.255 250.782 669.227 255.996 671.63 260.625C672.306 261.877 673.32 262.915 674.555 263.62C678.622 265.832 681.889 264.224 685.245 261.505C688.601 258.786 692.007 257.497 695.138 255.263C698.269 253.029 701.833 250.273 705 247.543C706.15 246.225 707.176 244.802 708.064 243.294C708.823 242.51 709.635 241.78 710.494 241.108Z" fill="#A2112A"/>
<path d="M134.309 376.313L128.853 377.46C129.228 375.743 130.467 375.682 131.481 375.425C137.431 373.915 143.582 373.353 149.706 373.759C150.143 373.859 150.596 373.865 151.036 373.778C151.475 373.69 151.891 373.51 152.257 373.25C152.622 372.99 152.928 372.656 153.156 372.269C153.383 371.882 153.526 371.451 153.576 371.005C155.423 366.077 156.54 360.904 156.891 355.651C155.26 356.843 154.055 357.747 152.824 358.607C151.186 359.881 149.463 361.042 147.667 362.082C144.968 363.652 141.881 364.426 138.762 364.314C135.642 364.203 132.617 363.211 130.036 361.453C128.794 360.548 127.802 359.342 127.153 357.948C126.504 356.554 126.22 355.018 126.327 353.484C125.845 339.312 128.597 325.217 134.374 312.273C137.562 304.221 142.64 297.058 149.178 291.39C150.798 290.035 152.32 288.287 154.948 289C155.545 289.148 156.447 288.616 157.098 288.196C160.802 286.086 165.167 285.461 169.314 286.447C171.632 286.797 173.817 287.757 175.643 289.23C177.47 290.703 178.874 292.635 179.711 294.829C180.706 297.169 181.281 299.666 181.41 302.206C182.18 310.399 179.348 317.357 175.504 324.267C173.304 328.404 171.488 332.735 170.078 337.205C168.786 340.957 166.274 344.347 166.469 348.585C162.796 353.534 164.413 359.696 162.667 365.053C162.484 366.195 162.098 367.295 161.529 368.302C159.879 370.247 160.644 372.52 160.342 374.631C160.105 376.315 161.656 376.703 162.871 377.325C166.862 379.22 170.596 381.618 173.981 384.46C177.289 387.409 179.98 390.986 181.898 394.984C183.913 399.427 186.292 403.705 188.489 408.065C189.249 409.587 189.508 410.979 187.857 412.219C186.207 413.459 185.183 414.609 183.68 415.957C181.53 411.946 179.179 408.066 177.281 403.967C173.934 397.124 168.72 391.371 162.243 387.374C160.691 386.572 159.076 385.896 157.415 385.355C156.575 388.16 156.009 390.524 155.203 392.811C153.727 396.952 152.081 401.011 150.604 405.152C149.871 407.196 149.293 409.293 148.875 411.424C147.935 416.96 145.878 422.246 142.828 426.958C139.778 431.669 135.8 435.708 131.138 438.826C127.987 441.096 124.26 442.429 120.385 442.672C116.511 442.916 112.646 442.059 109.235 440.202C103.752 437.403 98.8515 433.584 94.7956 428.948C89.6998 423 87.2349 408.862 93.4944 400.237C95.8516 396.976 98.5531 393.949 101.02 390.915C102.316 391.69 103.827 392.026 105.329 391.873C106.831 391.72 108.244 391.086 109.357 390.065C112.597 386.706 116.18 383.698 120.048 381.091L124.537 380.197C121.969 378.986 121.001 379.922 120.125 381.179L116.39 381.434C119.365 379.415 122.698 377.983 126.21 377.217C126.702 377.111 127.216 377.166 127.675 377.376C128.703 378.051 129.931 378.355 131.155 378.238C132.379 378.12 133.527 377.588 134.408 376.729C134.408 376.729 134.39 376.471 134.382 376.355C138.984 377.121 139.309 377.076 141.718 374.915L134.309 376.313ZM156.826 347.833C156.846 345.293 157.643 342.82 159.11 340.748C161.358 337.708 162.89 334.199 163.593 330.482C164.017 328.104 164.264 325.879 164.623 323.576C165.207 319.755 165.837 315.93 166.372 312.088C166.908 308.246 167.434 303.934 167.896 300.051C170.978 299.84 170.39 302.229 170.73 302.747L178.346 305.751C177.588 302.89 177.014 300.674 176.396 298.484C176.086 297.378 175.079 296.014 175.424 295.238C176.277 293.301 174.906 292.455 173.945 291.769C172.069 290.393 170.111 288.507 167.409 290.147C164.395 290.04 161.398 290.644 158.661 291.912C155.924 293.181 153.524 295.076 151.655 297.447C147.903 301.578 144.727 306.235 141.374 310.715C140.486 311.868 139.782 313.152 139.288 314.522C138.399 317.307 137.749 320.147 137.075 322.988C135.778 327.363 134.742 331.81 133.973 336.308C133.358 341.048 131.959 345.982 132.979 350.963C133.618 354.138 134.374 354.908 137.43 355.358C139.491 355.676 141.598 355.517 143.588 354.893C145.578 354.269 147.398 353.195 148.909 351.756C151.277 349.925 153.983 348.583 156.871 347.807L154.711 350.515L155.453 351.075L157.799 347.65L156.826 347.833ZM132.138 428.046C133.295 426.44 134.285 425.128 135.242 423.7C138.662 418.161 141.239 412.142 142.889 405.842C144.78 399.183 147.201 392.722 149.333 386.164C149.378 385.381 149.324 384.596 149.173 383.826C146.536 384.006 143.977 383.969 141.414 384.214C133.934 385.251 126.602 387.17 119.573 389.932C111.454 392.887 104.537 398.446 99.8969 405.744C98.0364 408.146 97.0035 411.087 96.9529 414.127C96.9023 417.167 97.8367 420.142 99.6161 422.606C103.12 427.02 107.601 430.558 112.703 432.942C113.674 433.329 114.704 433.545 115.748 433.58C120.595 433.961 125.438 432.81 129.594 430.286L130.582 432.051L133.897 429.077L132.138 428.046ZM122.701 434.092C125.637 434.503 125.637 434.503 127.647 432.674L122.701 434.092ZM137.828 357.069L137.986 357.669L141.099 357.245L141.077 356.918L137.828 357.069Z" fill="#A2112A"/>
<path d="M543.67 243.581C553.67 243.04 561.659 238.808 569.498 234.421C575.753 230.893 581.634 226.687 587.861 223.091C593.661 219.759 599.698 216.811 605.605 213.683C610.315 211.224 614.946 208.63 619.714 206.331C621.485 205.482 623.24 204.047 625.508 204.644C628.359 201.748 632.305 201.15 635.824 199.454C638.615 198.541 641.286 197.294 643.779 195.74C645.869 194.071 648.411 194.884 650.512 196.808C651.287 197.507 652.237 198.029 653.519 198.952C652.988 199.634 652.357 200.232 651.647 200.724C641.135 206.139 630.535 211.301 620.046 216.715C609.194 222.294 598.451 228.1 587.974 234.382C581.212 238.39 574.156 241.526 567.254 245.191C560.839 248.278 554.144 250.74 547.259 252.545C545.178 253.236 542.971 253.46 540.794 253.203C538.616 252.946 536.522 252.212 534.658 251.055L537.445 251.335C536.961 249.747 536.56 248.342 536.135 246.914C536.109 246.54 536.068 245.932 535.848 245.806C532.351 243.696 534.296 240.932 534.859 238.521C536.719 231.225 540.21 224.449 545.069 218.704C550.811 211.429 556.358 204.051 561.878 196.627C563.161 194.828 564.232 192.887 565.072 190.842C565.48 189.417 565.726 187.95 565.806 186.47C564.135 186.676 562.48 186.993 560.852 187.418C552.047 190.639 544.387 196.391 538.833 203.954C537.407 205.742 535.511 207.164 534.204 208.968C532.556 211.288 529.348 212.047 528.447 214.998C528.248 215.82 527.981 216.624 527.65 217.401C527.281 218.178 526.82 219.337 526.196 219.474C523.122 220.13 522.893 222.612 522.167 225.034C520.671 224.079 520.817 222.777 521.546 221.435C523.826 217.38 526.08 213.304 528.475 209.217C532.564 203.203 537.233 197.605 542.414 192.505C547.349 187.261 553.42 183.222 560.159 180.7C562.122 179.968 564.239 179.747 566.311 180.057C568.383 180.368 570.342 181.2 572.006 182.477C572.848 182.925 573.574 183.563 574.128 184.341C574.681 185.118 575.047 186.014 575.196 186.957C575.367 188.102 575.228 189.271 574.793 190.344C571.582 197.177 567.679 203.662 563.145 209.696C559.838 214.774 556.257 219.668 552.419 224.357C548.683 228.37 547.016 233.158 544.922 237.882C544.349 239.744 543.93 241.65 543.67 243.581ZM565.521 201.899C567.696 199.402 570.374 197.058 571.011 193.679L570.28 193.282L565.521 201.899Z" fill="#A2112A"/>
<path d="M346.113 298.867L349.217 298.655C349.381 298.996 349.632 299.238 349.598 299.428C348.348 304.822 347.395 305.639 341.975 306.619C340.469 306.886 339.016 307.596 337.373 307.92C335.06 308.383 333.85 307.15 334.002 304.908C334.107 303.35 334.378 301.828 334.704 299.387C333.151 300.338 331.885 300.683 331.239 301.526C327.768 305.637 323.14 308.605 317.96 310.042C314.478 311.521 310.709 312.195 306.932 312.016C300.266 311.249 296.694 307.358 297.51 300.748C297.914 294.486 299.925 288.434 303.347 283.179C306.603 278.658 309.095 273.579 312.349 269.034C315.179 265.301 318.199 261.716 321.396 258.293C323.202 256.244 325.134 254.303 327.113 252.383C328.346 251.195 328.88 251.464 329.534 253.486C332.436 251.545 335.447 249.771 338.552 248.173C341.45 246.796 344.565 245.932 347.758 245.619C350.055 245.92 352.227 246.844 354.038 248.292C355.353 249.353 356.532 250.575 357.545 251.928L360.699 250.374L360.686 254.651C361.144 254.831 361.743 255.025 362.301 255.292C364.381 256.231 365.015 257.268 364.022 259.215C361.773 263.714 359.427 268.173 356.836 272.484C354.474 276.357 351.666 279.884 349.16 283.719C348.614 284.761 348.209 285.871 347.955 287.02C347.823 287.498 348.036 288.212 347.847 288.53C345.92 291.575 345.968 295.024 346.113 298.867ZM343.014 249.983C341.496 250.268 340.01 250.7 338.576 251.272C334.614 253.279 331.174 256.183 328.531 259.756C326.727 262.105 324.781 264.34 322.702 266.449C321.141 267.771 319.671 269.197 318.303 270.719C315.041 275.499 311.305 279.864 309.622 285.781C308.546 289.613 307.804 293.516 306.825 297.388C306.167 300.111 307.052 300.709 309.716 301.255C312.024 301.613 314.385 301.17 316.407 300C323.471 296.629 328.99 291.249 334.616 286.05C338.597 282.512 342.039 278.407 344.83 273.867C346.661 270.458 348.666 267.146 350.837 263.943C351.848 262.574 352.423 260.932 352.487 259.23C352.551 257.528 352.1 255.847 351.195 254.405C350.458 252.909 349.274 251.679 347.808 250.887C346.342 250.095 344.667 249.779 343.014 249.983Z" fill="#A2112A"/>
<path d="M211.589 334.162C212.444 335.349 213.137 336.218 213.719 337.188C214.301 338.158 214.593 339.008 215.031 339.917C218.334 339.528 220.24 337.213 222.266 335.29C226.681 331.254 231.069 326.82 235.311 322.655C241.45 316.739 247.817 311.067 253.732 304.955C256.981 301.251 260.036 297.382 262.885 293.361C264.265 291.776 265.561 290.119 266.768 288.398C269.88 283.488 272.806 278.59 275.906 273.845C277.094 272.002 278.552 270.352 279.888 268.617C281.982 269.743 283.794 270.864 285.708 271.767C287.622 272.67 288.17 273.479 286.996 275.532C285.823 277.585 284.225 279.949 282.757 282.14C279.182 287.87 276.447 294.085 274.635 300.593C273.156 305.392 271.595 310.009 270.087 314.716C269.409 316.806 268.707 318.898 267.95 321.204L274.781 325.437C274.418 325.955 273.984 327.159 273.164 327.52C269.21 329.553 264.83 330.617 260.384 330.623C256.994 330.431 256.433 329.765 257.252 326.303L261.217 309.143C259 311.009 257.233 312.609 255.397 314.238C249.172 319.924 242.923 325.612 236.724 331.344C233.304 334.49 229.81 337.594 226.541 340.894C222.351 345.126 216.87 346.252 211.458 347.373C210.712 347.424 209.808 346.898 208.731 346.572C210.515 345.91 210.75 344.884 209.985 343.644C206.115 337.448 207.717 331.372 210.232 325.258C211.263 322.838 212.116 320.22 213.022 317.691C213.169 317.195 213.356 316.711 213.58 316.244C216.77 310.741 219.866 305.245 223.148 299.735C227.08 293.078 230.986 286.398 234.99 279.783C235.433 279.048 236.536 278.715 237.227 278.198L238.021 278.825C237.353 280.496 236.57 282.119 235.679 283.682C229.338 293.904 223.795 304.602 219.1 315.68C217.839 318.514 217.159 321.614 215.827 324.43C215.011 326.224 216.17 329.457 212.681 329.53L211.589 334.162ZM257.368 327.658L257.435 328.64C257.943 328.652 258.451 328.617 258.952 328.536C258.971 328.223 258.95 327.909 258.888 327.601L257.368 327.658Z" fill="#A2112A"/>
<path d="M454.259 246.108C453.8 250.039 451.82 253.674 453.469 257.908C453.926 255.668 454.217 253.393 454.842 251.213C455.467 249.033 456.545 246.61 457.561 243.98L454.784 244.17C456.637 240.402 458.484 236.87 460.11 233.212C460.757 231.965 461.05 230.564 460.96 229.161C460.47 224.718 461.468 220.237 463.796 216.424C468.209 209.035 474.71 203.123 482.477 199.435C483.8 198.917 485.195 198.608 486.612 198.518C489.467 197.95 492.352 197.541 495.253 197.295C501.8 197.013 505.115 199.888 507.049 206.239L502.496 200.348L501.619 200.901C502.009 201.913 502.524 202.872 503.151 203.757C504.448 205.224 505.183 207.105 505.225 209.065C505.655 213.311 506.507 217.552 506.679 221.792C506.65 224.16 506.181 226.502 505.297 228.698C502.543 236.895 498.207 244.47 492.536 250.992C491.427 252.265 490.369 253.606 489.406 254.964C485.328 260.267 479.773 264.242 473.441 266.388C470.965 267.359 468.283 267.684 465.647 267.334C463.01 266.984 460.505 265.969 458.367 264.386C457.407 263.723 456.467 263.012 455.546 262.229C453.768 261.129 452.439 259.43 451.8 257.436C451.161 255.443 451.254 253.287 452.061 251.356C452.646 249.625 453.607 247.891 454.259 246.108ZM471.888 234.664C471.667 236.582 473.168 236.926 474.434 237.615L473.33 239.311L475.501 243.979C474.02 243.7 472.583 243.221 471.23 242.555C469.086 241.033 467.179 239.214 464.888 237.256C463.725 239.802 462.57 242.112 461.609 244.527C460.229 248.027 458.995 251.588 457.64 255.11C456.944 256.942 457.233 258.426 458.166 259.044C460.339 259.271 461.619 259.466 462.891 259.544C464.762 260.002 466.712 260.029 468.595 259.624C472.862 257.548 477.45 255.708 480.488 251.766C483.526 247.824 486.533 243.438 489.507 239.242C495.723 231.035 498.563 220.753 497.444 210.512C497.429 209.516 497.141 208.545 496.61 207.703C496.08 206.861 495.328 206.182 494.438 205.74C493.547 205.298 492.552 205.111 491.562 205.198C490.573 205.286 489.626 205.645 488.827 206.237C486.587 207.775 483.746 209.097 484.58 212.728C484.61 213.172 484.271 213.712 484.07 214.196C483.973 214.314 483.851 214.41 483.714 214.478L483.2 211.413C482.05 212.024 480.975 212.767 479.998 213.628C477.683 216.135 475.435 218.942 473.351 221.739C472.155 223.307 471.484 225.214 471.433 227.187C471.383 229.16 471.955 231.1 473.069 232.728C474.208 234.647 475.461 236.511 476.826 238.65L474.414 237.663C474.04 236.303 474.311 234.429 472.018 234.515L470.948 232.238C470.614 231.463 470.258 230.712 469.902 229.961C469.664 231.974 469.449 233.985 471.888 234.664ZM501.24 204.286C501.143 202.86 500.825 201.637 499.004 202.09L501.24 204.286Z" fill="#A2112A"/>
<path d="M382.707 290.076L387.15 289.891L382.366 292.989C381.118 291.938 380.183 290.564 379.664 289.016C379.145 287.469 379.061 285.808 379.423 284.216C380.145 279.68 380.29 274.925 382.873 270.85C383.084 270.506 382.809 269.914 382.776 269.423C382.742 268.932 382.476 268.457 382.699 268.301C383.548 267.68 384.19 266.817 384.541 265.825C384.891 264.833 384.935 263.758 384.665 262.741C384.315 260.697 386.255 258.192 387.3 255.984C388.27 253.885 389.369 251.849 390.59 249.887C391.814 247.9 393.283 246.062 394.681 244.205C399.372 238.47 404.836 233.417 410.917 229.191C412.163 228.242 413.518 227.448 414.954 226.825C415.953 226.223 417.074 225.852 418.235 225.741C419.396 225.629 420.568 225.779 421.664 226.18C422.958 226.794 424.361 227.146 425.791 227.214C428.493 227.288 429.785 228.703 430.464 231.429C428.69 231.55 427.997 232.396 427.528 234.119C424.897 244.023 422.049 253.849 419.227 263.696C417.842 268.488 416.363 273.287 414.931 278.083C414.339 280.05 415.773 279.764 416.646 279.845L416.096 286.225C416.627 286.222 417.152 286.324 417.642 286.527C418.132 286.73 418.576 287.028 418.95 287.406C419.323 287.783 419.617 288.231 419.815 288.724C420.012 289.216 420.11 289.744 420.101 290.274C418.417 291.922 416.607 293.436 414.688 294.801C414.018 295.284 413.241 295.597 412.425 295.716C411.608 295.834 410.775 295.754 409.995 295.483C409.216 295.211 408.513 294.756 407.946 294.155C407.379 293.555 406.964 292.826 406.737 292.031C406.571 291.667 406.675 291.12 406.425 290.902C403.135 288.049 404.328 284.561 405.057 281.152C405.345 279.885 405.731 278.641 406.21 277.433C411.416 263.488 415.738 249.228 419.152 234.737C400.446 240.711 382.244 267.463 382.707 290.076ZM411.708 268.296L412.088 268.716L412.839 266.316L412.456 266.201L411.708 268.296Z" fill="#A2112A"/>
<path d="M428.053 238.029L429.441 233.636L430.304 233.906C429.911 235.366 429.496 236.85 429.082 238.335L428.053 238.029Z" fill="#A2112A"/>
</svg>
