<svg width="492" height="66" viewBox="0 0 492 66" fill="none" xmlns="http://www.w3.org/2000/svg">
<path d="M64.5332 7.09199C60.666 7.09199 58.3398 10.0895 58.3398 13.4223C58.3398 16.9533 60.7375 19.5511 64.6 19.5511C68.2622 19.5511 70.5262 16.9533 70.5262 13.4223C70.5286 9.82342 68.1954 7.09199 64.5332 7.09199ZM60.9367 54.4583C60.9367 61.5201 60.3379 63.8518 57.6074 64.1191L55.6152 64.3184V64.9186H75.6544V64.3184L73.7899 64.1191C71.1263 63.8518 70.4606 61.5201 70.4606 54.4583V23.2824L70.1934 23.15C66.795 24.8158 60.4668 26.7477 55.409 27.4804V28.1463L57.0742 28.0795C58.4723 28.0126 59.7379 28.5484 60.2711 29.6116C61.0035 31.077 60.9367 33.343 60.9367 36.7403V54.4583ZM123.071 19.4831V54.5251C123.071 61.587 122.405 63.8518 119.742 64.1191L117.75 64.3184V64.9186H137.326V64.3184L135.794 64.1191C133.131 63.7862 132.597 61.5201 132.597 54.4583V34.7392C134.861 32.2082 137.519 30.8707 141.454 30.8707C146.449 30.8707 149.38 34.2703 149.38 41.3966V54.5263C149.38 61.5881 148.647 63.853 146.183 64.1203L144.385 64.3196V64.9198H163.964V64.3196L162.233 64.1203C159.569 63.7873 158.903 61.5213 158.903 54.4594V39.2033C158.903 28.9434 153.442 24.9459 146.383 24.9459C140.256 24.9459 135.395 29.6093 132.597 33.1402V6.82588L132.129 6.69224C128.73 8.35806 122.606 10.29 117.545 11.0227V11.6885L119.209 11.6217C120.541 11.5561 121.873 11.9558 122.405 13.0214C123.138 14.4903 123.071 16.0858 123.071 19.4831ZM5.79496 54.4583C5.79496 61.5201 5.06136 63.7862 1.86564 64.1191L0 64.3184V64.9186H21.3787V64.3184L19.513 64.1191C16.3829 63.7862 15.5181 61.5201 15.5181 54.4583V8.22441H19.513C27.3717 8.22441 31.9666 13.6873 31.9666 22.2813C31.9666 31.941 24.708 35.5387 18.981 35.5387H18.3798V36.1378C19.9783 36.405 21.8427 39.3358 23.7705 42.4001C26.501 46.7305 29.965 52.66 32.8279 57.3233C36.2909 62.9867 39.3542 64.9186 46.3468 64.9186H53.4062V64.3184L52.2074 64.1191C48.012 63.4521 44.0159 56.0573 40.3538 50.3951C37.2237 45.5313 32.2291 38.004 30.2979 35.139C36.8956 32.2739 42.755 27.811 42.755 19.8828C42.755 10.889 34.7627 6.55859 21.1103 6.55859H0V7.1588L1.86564 7.35809C5.06136 7.69102 5.79496 9.95706 5.79496 17.0189V54.4583ZM113.814 52.3271C111.617 56.2577 107.755 59.1263 102.36 59.1263C95.6338 59.1263 89.5728 52.7315 89.5728 42.7389C89.5728 33.6783 93.7694 26.416 99.2303 26.416C101.561 26.416 102.693 27.6152 103.359 28.8778C104.199 30.4744 104.091 32.6092 104.158 34.5411C104.225 37.0721 105.491 38.8704 108.353 38.8704C111.151 38.8704 112.816 37.0053 112.816 34.2738C112.816 28.3444 106.488 24.9471 100.16 24.9471C89.1709 24.9471 80.1204 33.2703 80.1204 46.1995C80.1204 57.4535 87.9123 65.5856 98.301 65.5856C107.225 65.5856 111.887 59.3901 114.485 52.728L113.814 52.3271Z" fill="#062542"/>
<path fill-rule="evenodd" clip-rule="evenodd" d="M376.886 42.3544V42.5725C383.186 42.936 388.256 46.3169 388.256 52.2793C388.256 57.3691 383.513 61.9863 375.256 61.9863H360.7V26.1033H374.061C383.368 26.1033 386.844 29.3026 386.844 33.629C386.844 39.0094 381.63 41.9906 376.886 42.3544ZM382.752 52.1338C382.752 43.3358 375.691 42.7906 372.215 42.7906H365.444V60.7865C365.951 61.0046 367.834 61.5501 370.803 61.5501C374.279 61.5501 382.752 61.4774 382.752 52.1338ZM254.856 65.3675C279.262 65.331 286.576 45.5534 286.576 32.6474C286.576 17.8143 278.357 0 254.747 0C231.391 0 222.99 18.8322 222.99 32.6474C222.99 33.229 222.99 33.7744 223.027 34.3923C225.236 32.829 227.734 31.6292 230.45 30.9387C230.921 12.47 239.358 0.508976 254.747 0.508976C270.571 0.508976 279.153 14.215 279.153 32.6474C279.153 49.0073 271.332 64.6039 255.182 64.8585C255.073 65.004 254.964 65.1856 254.856 65.3675ZM399.518 49.6254C399.083 47.9167 398.866 46.0626 398.866 44.0631C398.866 31.4476 406.289 25.1944 416.247 25.1944C426.205 25.1944 433.629 30.9387 433.629 44.0631C433.629 44.4628 433.629 44.8629 433.592 45.2264C431.926 45.0448 429.935 45.0083 428.125 45.0448C428.125 45.0083 428.125 45.0083 428.125 44.9718C423.49 45.081 418.782 45.9534 412.735 47.5894C411.974 47.8075 409.403 48.4983 408.896 48.6438C407.448 49.0438 406.362 49.2981 405.348 49.5162C405.13 49.5527 404.913 49.6254 404.732 49.6616C406.108 59.2232 411.069 62.3136 416.247 62.3136C417.587 62.3136 418.927 62.0955 420.194 61.6228C422.837 60.8592 426.241 58.3143 430.369 53.9517H431.274C428.341 59.4779 422.837 62.7498 416.211 62.7498C408.208 62.7498 401.799 58.0235 399.626 50.207C399.445 50.207 399.301 50.207 399.156 50.1708C395.173 49.8797 392.565 47.5532 391.045 42.4271L391.66 42.2452C393.145 47.1532 395.498 49.2619 399.228 49.5527C399.337 49.6254 399.409 49.6254 399.518 49.6254ZM404.66 49.08C404.841 49.0438 405.022 49.0073 405.239 48.9711C406.253 48.753 407.339 48.4618 408.751 48.0983C409.258 47.9529 411.829 47.2624 412.59 47.0443C418.709 45.4083 423.453 44.4993 428.16 44.3901C428.16 44.2812 428.16 44.172 428.16 44.0993C428.16 29.9934 422.294 25.6671 416.283 25.6671C410.2 25.6671 404.406 29.9934 404.406 44.0993C404.37 45.9172 404.442 47.5532 404.66 49.08ZM457.057 10.8339C457.89 10.8339 459.121 10.8339 460.678 10.8339C465.421 10.8339 468.97 9.92505 471.324 8.03457C468.753 13.0517 465.639 15.5602 461.945 15.5602C459.483 15.5602 457.564 15.5602 456.115 15.5602C455.282 15.5602 454.051 15.5602 452.494 15.5602C447.751 15.5602 444.202 16.4691 441.848 18.3596C444.419 13.3425 447.533 10.8339 451.227 10.8339C453.689 10.8339 455.645 10.8339 457.057 10.8339ZM381.702 33.7744C381.702 39.7368 378.878 42.3544 372.469 42.3544H365.444V27.2667C366.855 26.7577 369.029 26.5032 371.998 26.5032C374.641 26.5396 381.702 27.0486 381.702 33.7744ZM457.165 25.1944C463.031 25.1944 465.277 28.0301 466.29 29.7389C469.405 27.3395 473.931 25.1944 478.096 25.1944C481.897 25.1944 484.866 26.3942 486.423 28.1029C489.175 31.0841 489.175 35.5558 489.175 38.2462C489.139 45.6626 489.139 51.1887 489.103 54.8969C489.103 59.6595 490.008 63.2223 491.891 65.5856C486.894 63.0041 484.396 59.8776 484.396 56.1694C484.396 53.4063 484.432 47.6621 484.504 38.9732C484.504 36.5737 484.866 32.102 482.658 29.1935C481.39 27.6302 479.181 26.5032 475.886 26.5032C473.424 26.5032 469.586 27.9211 466.508 30.1751C467.268 31.593 467.847 33.229 467.847 36.901V61.9863H463.213V36.901C463.213 28.6119 459.809 26.5396 454.957 26.5396C452.349 26.5396 449.163 27.6666 446.556 29.5935V61.9863H441.885V27.3395V26.1033C443.405 25.049 444.962 24.431 446.556 24.2129C446.556 24.2129 446.556 24.7218 446.556 25.7761V29.0845C450.864 25.558 455.391 25.1944 457.165 25.1944ZM316.233 25.1944C322.099 25.1944 324.344 28.0301 325.358 29.7389C328.472 27.3395 332.999 25.1944 337.163 25.1944C340.965 25.1944 343.934 26.3942 345.491 28.1029C348.243 31.0841 348.243 35.5558 348.243 38.2462C348.207 45.6626 348.207 51.1887 348.171 54.8969C348.171 59.6595 349.076 63.2223 350.96 65.5856C345.963 63.0041 343.464 59.8776 343.464 56.1694C343.464 53.4063 343.5 47.6621 343.572 38.9732C343.572 36.5737 343.934 32.102 341.725 29.1935C340.458 27.6302 338.249 26.5032 334.954 26.5032C332.492 26.5032 328.653 27.9211 325.576 30.1751C326.336 31.593 326.915 33.229 326.915 36.901V61.9863H322.244V36.901C322.244 28.6119 318.84 26.5396 313.988 26.5396C311.381 26.5396 308.194 27.6666 305.587 29.5935V61.9863H300.916V27.3395V26.1033C302.437 25.049 303.994 24.431 305.587 24.2129C305.587 24.2129 305.587 24.7218 305.587 25.7761V29.0845C309.896 25.558 314.459 25.1944 316.233 25.1944Z" fill="#062542"/>
<path d="M199.264 56.5521L193.376 65.0001H189.408L197.344 53.3841L189.856 42.6001H193.824L199.36 50.3761L204.768 42.6001H208.736L201.248 53.5441L209.184 65.0001H205.216L199.264 56.5521Z" fill="#062542"/>
</svg>
