<svg width="328" height="121" viewBox="0 0 328 121" fill="none" xmlns="http://www.w3.org/2000/svg">
<path d="M129.095 1.09341C121.359 1.09341 116.705 7.23809 116.705 14.0701C116.705 21.3081 121.502 26.6334 129.228 26.6334C136.554 26.6334 141.083 21.3081 141.083 14.0701C141.088 6.69259 136.421 1.09341 129.095 1.09341ZM121.9 98.1899C121.9 112.666 120.702 117.446 115.24 117.994L111.255 118.402V119.633H151.342V118.402L147.612 117.994C142.284 117.446 140.952 112.666 140.952 98.1899V34.2824L140.418 34.0108C133.619 37.4256 120.96 41.3859 110.842 42.8878V44.2528L114.173 44.1158C116.97 43.9788 119.502 45.077 120.569 47.2566C122.034 50.2605 121.9 54.9056 121.9 61.8698V98.1899ZM246.196 26.494V98.3269C246.196 112.803 244.865 117.446 239.536 117.994L235.551 118.402V119.633H274.712V118.402L271.648 117.994C266.32 117.311 265.253 112.666 265.253 98.1899V57.7677C269.782 52.5794 275.099 49.8375 282.971 49.8375C292.962 49.8375 298.825 56.8065 298.825 71.4148V98.3293C298.825 112.806 297.36 117.448 292.43 117.996L288.834 118.405V119.635H328V118.405L324.538 117.996C319.209 117.314 317.875 112.669 317.875 98.1924V66.9186C317.875 45.8869 306.951 37.6923 292.831 37.6923C280.573 37.6923 270.849 47.2518 265.253 54.4899V0.547902L264.315 0.273955C257.517 3.68874 245.266 7.64902 235.141 9.15094V10.5159L238.47 10.3789C241.135 10.2443 243.8 11.0638 244.865 13.2482C246.33 16.2593 246.196 19.5299 246.196 26.494ZM11.5925 98.1899C11.5925 112.666 10.1249 117.311 3.73209 117.994L0 118.402V119.633H42.7667V118.402L39.0346 117.994C32.773 117.311 31.043 112.666 31.043 98.1899V3.41478H39.0346C54.7554 3.41478 63.9473 14.6131 63.9473 32.2301C63.9473 52.0315 49.4268 59.4066 37.9703 59.4066H36.7677V60.6346C39.9653 61.1825 43.695 67.1902 47.5514 73.4718C53.0136 82.3488 59.9433 94.5036 65.6703 104.063C72.5977 115.672 78.7256 119.633 92.714 119.633H106.836V118.402L104.438 117.994C96.0452 116.626 88.0512 101.468 80.7253 89.8609C74.4637 79.8905 64.4724 64.4603 60.609 58.5872C73.8073 52.714 85.5287 43.5655 85.5287 27.3134C85.5287 8.87699 69.5407 0 42.2299 0H0V1.23038L3.73209 1.6389C10.1249 2.32138 11.5925 6.96654 11.5925 21.4427V98.1899ZM227.679 93.8211C223.283 101.879 215.557 107.759 204.766 107.759C191.31 107.759 179.185 94.6502 179.185 74.1663C179.185 55.5929 187.58 40.7058 198.504 40.7058C203.167 40.7058 205.432 43.1642 206.763 45.7523C208.444 49.0253 208.228 53.4013 208.362 57.3616C208.496 62.5498 211.027 66.2362 216.755 66.2362C222.35 66.2362 225.682 62.4129 225.682 56.8137C225.682 44.6589 213.022 37.6948 200.363 37.6948C178.381 37.6948 160.276 54.7566 160.276 81.2602C160.276 104.33 175.863 121 196.645 121C214.497 121 223.823 108.3 229.02 94.643L227.679 93.8211Z" fill="#062542"/>
</svg>
