<svg width="183" height="208" viewBox="0 0 183 208" fill="none" xmlns="http://www.w3.org/2000/svg">
<g clip-path="url(#clip0_2072_40)">
<path d="M177.204 72.3647C177.427 72.2958 177.646 72.2149 177.861 72.1224C178.296 71.9097 178.74 71.7663 179.204 71.9874C179.771 72.2562 180.32 72.5648 180.552 73.2066C180.684 73.5725 180.857 73.9359 180.914 74.315C181.022 75.0094 181.365 75.646 181.885 76.1188C182.047 76.2751 182.132 76.5129 182.244 76.7171C182.325 76.8521 182.368 77.0062 182.369 77.1634C182.369 77.3207 182.327 77.4752 182.248 77.6108C181.8 78.3438 181.253 79.0116 180.622 79.5953C179.059 81.0003 177.531 82.4423 175.965 83.8445C175.043 84.6758 174.183 85.574 173.393 86.5317C172.442 87.6749 171.388 88.712 170.045 89.4072C169.076 89.906 168.273 90.6556 167.262 91.1072C166.56 91.4219 166.032 92.0361 165.541 92.6537C165.157 93.1366 164.271 92.9145 163.993 92.3139C163.754 91.8185 163.694 91.2565 163.822 90.722C163.872 90.5328 163.96 90.3558 164.081 90.2014C164.202 90.047 164.352 89.9185 164.524 89.8234C165.125 89.45 165.828 89.275 166.534 89.3232C166.943 89.3456 167.288 89.1647 167.589 88.8962C168.809 87.8093 170.033 86.728 171.248 85.6354C172.345 84.648 173.407 83.6243 174.622 82.7754C175.078 82.4739 175.487 82.1063 175.835 81.6848C176.657 80.6238 177.7 79.8142 178.683 78.9242C179.198 78.4623 179.638 77.9175 180.098 77.3971C180.255 77.2194 180.028 76.6984 179.787 76.618C179.4 76.4904 178.995 76.4695 178.649 76.6559C178.175 76.9242 177.722 77.2267 177.293 77.5611C176.3 78.3099 175.307 79.0606 174.34 79.8434C173.436 80.5796 172.6 81.3959 171.585 81.9938C171.257 82.1868 171.011 82.5142 170.725 82.7784C169.474 83.9529 168.151 85.0493 166.765 86.0614C165.879 86.696 165.031 87.3824 164.227 88.117C163.421 88.8553 162.534 89.4923 161.665 90.1525C160.671 90.9033 159.72 91.7106 158.763 92.509C158.279 92.9144 157.958 93.4804 157.859 94.1029C157.719 94.8657 157.476 95.6191 157.414 96.3878C157.22 98.8086 156.505 101.124 156.034 103.488C155.166 107.838 154.204 112.168 153.281 116.507C152.908 118.256 152.705 120.044 152.035 121.723C151.98 121.87 151.944 122.023 151.928 122.178C151.555 125.197 150.732 128.123 150.097 131.087C149.897 132 149.894 132.945 150.088 133.859C150.497 135.838 150.843 137.83 151.225 139.814C151.4 140.725 151.606 141.632 151.782 142.545C152.225 144.837 152.652 147.132 153.095 149.424C153.437 151.181 153.789 152.936 154.152 154.69C154.235 155.067 154.362 155.433 154.528 155.782C154.65 156.064 154.704 156.37 154.686 156.677C154.678 157.533 154.679 158.388 155.3 159.105C155.409 159.231 155.353 159.552 155.299 159.754C155.191 160.146 155.144 160.549 155.353 160.892C155.692 161.432 155.927 161.978 155.817 162.628C156.531 163.627 156.052 164.719 156.066 165.77C156.07 166.024 155.537 166.216 155.303 166.105C154.921 165.924 154.725 165.596 154.55 165.249C154.343 164.844 154.002 164.683 153.587 164.786C152.61 165.022 151.561 164.979 150.65 165.514C150.439 165.617 150.209 165.678 149.975 165.694C147.729 165.985 145.599 166.788 143.374 167.195C142.695 167.322 142.289 167.687 142.154 168.413C141.827 170.172 141.471 171.926 141.078 173.675C140.44 176.482 139.753 179.278 139.097 182.081C138.958 182.684 138.866 183.305 138.747 183.917C138.065 187.429 137.399 190.941 136.673 194.443C136.374 195.887 135.889 197.294 135.577 198.736C135.152 200.71 134.796 202.7 134.443 204.689C134.349 205.218 134.363 205.769 134.344 206.309C134.322 206.944 133.948 207.304 133.307 207.254C132.918 207.227 132.532 207.173 132.151 207.09C131.547 206.951 130.945 206.768 130.344 206.601C129.295 206.309 128.252 205.968 127.141 206.04C126.927 206.054 126.744 205.792 126.761 205.543C126.778 205.159 126.979 204.779 127.181 204.776C127.488 204.755 127.797 204.76 128.103 204.791C129.028 204.928 129.947 205.104 130.873 205.244C131.18 205.281 131.489 205.293 131.798 205.282C132.051 205.28 132.424 204.972 132.487 204.721C132.571 204.422 132.638 204.118 132.69 203.812C132.791 203.119 132.856 202.425 133.177 201.779C133.297 201.491 133.381 201.19 133.425 200.881C133.904 198.517 134.355 196.148 134.857 193.789C135.505 190.744 136.186 187.719 136.852 184.685C137.435 182.026 138.14 179.393 138.571 176.701C138.705 175.857 138.966 175.033 139.152 174.196C139.304 173.513 139.434 172.825 139.563 172.137C139.607 171.909 139.564 171.649 139.655 171.448C140.344 169.934 140.303 168.256 140.751 166.691C141.199 165.126 141.444 163.497 141.752 161.891C142.102 160.062 142.597 158.26 143.001 156.441C143.469 154.324 143.886 152.196 144.278 150.063C144.602 148.304 144.98 146.549 145.442 144.821C146.307 141.588 146.862 138.286 147.674 135.037C147.974 133.826 148.163 132.591 148.238 131.346C148.301 130.412 148.494 129.491 148.812 128.61C149.423 126.843 149.888 125.029 150.202 123.186C150.391 122.115 150.651 121.055 150.916 119.998C151.518 117.586 151.969 115.137 152.45 112.704C152.901 110.412 153.446 108.146 154.035 105.887C154.25 105.066 154.532 104.251 154.556 103.381C154.565 103.079 154.683 102.771 154.772 102.48C154.842 102.258 155.024 102.052 155.037 101.837C155.099 99.8011 155.957 97.9018 156.081 95.8773C156.085 95.8041 156.055 95.7229 156.05 95.652C156.044 95.4817 155.676 95.2803 155.504 95.3731C155.155 95.5386 154.82 95.7321 154.502 95.9518C153.516 96.7153 152.518 97.462 151.591 98.2916C150.486 99.2779 149.322 100.196 148.106 101.041C145.865 102.599 143.806 104.385 141.745 106.161C139.44 108.147 136.981 109.932 134.607 111.826C132.357 113.62 130.088 115.388 127.823 117.164C127.335 117.548 126.83 117.913 126.333 118.289C125.765 118.699 125.223 119.143 124.71 119.62C124.044 120.267 123.259 120.792 122.527 121.371C121.613 122.093 120.699 122.816 119.785 123.539C119.358 123.877 118.928 124.21 118.504 124.551C117.538 125.327 116.46 125.946 115.558 126.822C114.656 127.698 113.665 128.435 112.685 129.198C111.148 130.393 109.579 131.548 108.04 132.74C107.427 133.214 106.73 133.597 106.276 134.26C106.193 134.393 106.08 134.506 105.946 134.588C104.49 135.366 103.352 136.564 102.031 137.523C101.522 137.881 101.035 138.267 100.57 138.68C100.11 139.106 99.5893 139.435 98.9134 139.439C98.6933 139.439 98.4656 139.573 98.2558 139.663C98.1164 139.732 97.9847 139.817 97.8631 139.914C95.6714 141.536 93.4226 143.073 91.0931 144.492C90.6128 144.784 90.2431 145.15 90.1399 145.747C90.1021 145.959 89.9612 146.241 89.7877 146.326C88.7571 146.831 88.1662 147.762 87.4685 148.594C87.3446 148.746 87.1868 148.866 87.0078 148.946C86.8287 149.026 86.6334 149.063 86.4376 149.054C85.9735 149.058 85.5095 149.038 85.0474 148.995C84.5066 148.925 84.203 148.109 84.5575 147.691C84.8064 147.398 85.0674 147.088 85.3854 146.885C86.7722 146.014 88.0579 144.992 89.2191 143.838C89.8224 143.231 90.4201 142.618 91.0363 142.026C91.8767 141.215 92.7339 140.422 93.5849 139.617C94.5912 138.658 95.7994 137.894 96.4124 136.553C96.5296 136.298 96.8489 136.127 97.0919 135.938C98.2576 135.029 99.3931 134.075 100.609 133.239C102.289 132.081 103.712 130.648 105.252 129.338C105.783 128.885 106.348 128.472 106.903 128.045C107.394 127.662 107.892 127.283 108.379 126.897C108.561 126.753 108.71 126.563 108.898 126.428C110.223 125.476 111.53 124.51 112.748 123.415C113.966 122.32 115.303 121.371 116.542 120.304C118.135 118.935 119.901 117.78 121.412 116.31C122.13 115.607 122.978 115.031 123.801 114.445C125.96 112.909 127.902 111.107 129.993 109.489C130.793 108.875 131.613 108.317 132.308 107.562C132.824 107.002 133.555 106.642 134.16 106.154C135.365 105.17 136.484 104.065 137.755 103.176C139.287 102.102 140.702 100.889 142.193 99.7712C142.945 99.2075 143.637 98.588 144.352 97.9893C146.09 96.5416 147.863 95.1404 149.621 93.7194C152.105 91.7137 154.572 89.6886 157.078 87.7118C157.768 87.1917 158.244 86.4389 158.419 85.5939C158.799 83.8451 159.19 82.098 159.54 80.3433C159.875 78.6649 160.125 76.9688 160.653 75.3326C161.043 72.1559 162.153 69.1388 162.713 65.9932C163.199 63.2356 163.881 60.5127 164.507 57.7859C164.659 57.1016 164.897 56.4444 164.86 55.7266C164.863 55.4928 164.913 55.2619 165.009 55.0483C165.55 53.663 165.727 52.1848 166.056 50.7523C166.385 49.3198 166.798 47.8959 166.987 46.42C167.145 45.1907 167.522 43.994 167.786 42.7792C167.951 42.0225 168.09 41.2591 168.236 40.4974C168.543 38.8952 169.077 37.3478 169.3 35.7275C169.328 35.5748 169.401 35.4339 169.51 35.3229C169.611 35.2109 169.75 35.1403 169.901 35.1245C170.03 35.1264 170.239 35.2363 170.267 35.3383C170.349 35.631 170.471 35.9859 170.375 36.2404C169.766 37.85 169.803 39.622 169.099 41.2034C169.035 41.3461 168.995 41.4983 168.98 41.654C168.749 44.3025 167.939 46.8408 167.483 49.4498C166.959 52.435 166.238 55.3859 165.607 58.3524C165.43 59.1883 165.266 60.027 165.099 60.8665C164.717 62.7727 164.458 64.7154 163.923 66.578C163.406 68.3793 163.119 70.2163 162.746 72.0366C162.088 75.2385 161.178 78.3863 160.735 81.634C160.64 82.3244 160.394 82.9919 160.24 83.6707C160.184 83.8942 160.166 84.1256 160.186 84.3551C160.203 84.488 160.331 84.618 160.433 84.7261C160.464 84.7606 160.594 84.7478 160.646 84.7113C161.345 84.2224 162.088 83.7829 162.725 83.2218C164.774 81.4281 166.914 79.7406 169.137 78.166C169.759 77.7012 170.348 77.1929 170.899 76.645C171.297 76.2659 171.69 75.9111 172.207 75.688C172.486 75.5579 172.732 75.3675 172.927 75.1306C173.896 73.9749 175.175 73.2232 176.396 72.3838C176.667 72.1976 176.989 72.2374 177.298 72.3432C177.016 72.7066 176.783 73.1326 176.437 73.4241C175.185 74.4727 173.829 75.4042 172.636 76.5137C171.096 77.9467 169.42 79.1959 167.782 80.5044C166.197 81.7581 164.621 83.0185 163.016 84.2397C162.389 84.7172 161.875 85.2949 161.344 85.8582C161.201 86.008 161.142 86.2372 161.051 86.4202C161.313 86.6892 161.526 86.9136 161.746 87.1306C162.172 87.5521 162.601 87.6431 162.943 87.3039C163.551 86.7066 164.245 86.2035 165.003 85.8114C165.548 85.5082 166.028 85.1013 166.416 84.6138C166.923 83.9934 167.556 83.5385 168.203 83.1319C170.188 81.8882 171.824 80.1948 173.764 78.8969C174.44 78.123 175.316 77.6074 176.164 77.0555C177.203 76.3748 178.099 75.5133 179.053 74.7208C179.518 74.3382 179.406 73.4804 178.901 73.0846C178.396 72.6887 177.846 72.4211 177.204 72.3647ZM153.403 162.988L153.468 163.066C153.468 163.066 153.375 163.015 153.374 163.036L153.392 163.186L153.403 162.988ZM147.278 158.674C147.872 158.829 147.872 158.829 148.22 158.275C148.724 158.517 149.321 158.626 149.74 158.316C150.547 157.716 151.523 157.511 152.372 157.033C152.505 156.961 152.62 156.859 152.706 156.734C152.791 156.609 152.845 156.465 152.864 156.315C152.919 155.881 152.701 155.609 152.308 155.458C152.478 155.113 152.68 154.785 152.543 154.363C152.361 153.804 151.934 153.588 151.508 153.915C150.351 154.832 149.083 155.599 147.733 156.198C147.121 156.461 146.779 156.982 146.352 157.418C146.321 157.449 146.346 157.566 146.38 157.624C146.398 157.656 146.422 157.683 146.451 157.706C146.48 157.728 146.513 157.744 146.548 157.753C147.119 157.842 147.614 157.659 148.064 157.32C149.001 156.627 149.938 155.933 151.023 155.469C151.233 155.368 151.462 155.314 151.694 155.309C151.927 155.304 152.158 155.349 152.372 155.441C151.452 155.851 150.734 156.615 149.74 156.914C149.47 156.997 149.256 157.288 149.035 157.502C148.756 157.773 148.496 158.064 148.227 158.35C147.83 158.271 147.562 158.515 147.286 158.747C147.176 158.846 147.061 158.941 146.959 159.049C146.941 159.066 146.987 159.143 147.005 159.195C147.268 159.108 147.28 158.894 147.278 158.674ZM148.581 153.995C148.837 154.202 149.158 154.316 149.435 154.176C150.261 153.775 151.063 153.323 151.869 152.885C152.012 152.807 152.057 152.38 151.919 152.265C151.864 152.219 151.8 152.186 151.731 152.166C151.662 152.147 151.59 152.142 151.519 152.153C150.711 152.401 150.072 153.042 149.197 153.15C149.9 152.195 151.087 151.866 151.995 151.081C151.843 150.441 151.69 149.848 151.568 149.249C151.429 148.569 151.32 147.881 151.194 147.201C151.094 146.67 150.986 146.142 150.872 145.619C150.826 145.409 150.488 145.241 150.325 145.344C149.808 145.674 149.295 146.015 148.781 146.352C148.877 147.043 148.602 147.167 148.005 146.888C147.917 146.847 147.723 146.988 147.601 147.072C147.351 147.25 147.111 147.446 146.885 147.621C146.678 148.226 146.328 148.801 146.316 149.384C146.3 150.182 146.067 150.858 145.772 151.574C145.489 152.267 145.277 153.025 145.626 153.816C145.718 154.022 145.455 154.373 145.404 154.667C145.383 154.781 145.483 154.927 145.557 155.038C145.581 155.077 145.707 155.088 145.763 155.062C146.614 154.666 147.303 154.047 148.001 153.438C148.37 153.117 148.794 152.968 149.294 153.116C149.059 153.432 148.822 153.747 148.593 154.08C148.479 154.155 148.362 154.227 148.255 154.312C148.245 154.328 148.291 154.453 148.303 154.455C148.574 154.405 148.575 154.199 148.581 153.995ZM148.261 163.153C148.174 163.024 148.044 162.93 147.894 162.886C147.744 162.843 147.584 162.854 147.441 162.917C145.898 163.47 144.487 164.287 143.048 165.048C142.989 165.095 142.942 165.156 142.912 165.226C142.882 165.296 142.87 165.372 142.878 165.448C142.948 165.66 143.073 165.85 143.24 166C143.336 166.085 143.538 166.08 143.689 166.071C144.63 166.004 145.522 165.628 146.227 165.002C146.935 164.401 147.586 163.733 148.26 163.069C148.517 162.91 148.776 162.756 149.032 162.586C149.096 162.545 149.143 162.482 149.162 162.409C149.17 162.35 149.102 162.225 149.076 162.227C148.93 162.239 148.728 162.24 148.669 162.327C148.513 162.592 148.377 162.868 148.261 163.153ZM103.515 133.328C103.718 133.359 103.983 133.49 104.147 133.412C105.2 132.906 106.193 132.284 107.107 131.556C108.204 130.688 109.264 129.779 110.32 128.859C111.611 127.733 112.968 126.694 114.293 125.612C115.976 124.24 117.762 122.999 119.371 121.529C120.459 120.535 121.667 119.663 122.875 118.809C124.145 117.907 125.291 116.869 126.473 115.865C128.428 114.203 130.516 112.704 132.492 111.061C134.641 109.274 136.957 107.692 139.115 105.905C140.973 104.37 142.937 102.96 144.808 101.433C147.76 99.0219 150.788 96.7022 153.79 94.35C154.584 93.7273 155.401 93.1325 156.209 92.5246C156.379 92.3965 156.505 92.0307 156.374 91.9104C156.211 91.7624 156.015 91.6552 155.803 91.5976C155.671 91.5624 155.497 91.6339 155.356 91.6924C154.709 91.9569 154.065 92.229 153.425 92.5088C152.715 92.8195 151.954 93.0561 151.497 93.7591C150.441 94.424 149.558 95.3072 148.596 96.0857C147.39 97.0625 146.219 98.0805 145.028 99.0751C143.595 100.27 142.169 101.474 140.714 102.645C139.143 103.915 137.54 105.147 135.964 106.409C135.116 107.09 134.294 107.804 133.455 108.496C133.155 108.743 132.864 109.026 132.52 109.186C131.786 109.531 131.283 110.12 130.738 110.674C130.41 111.006 130.12 111.392 129.744 111.656C127.767 113.043 126.074 114.796 123.996 116.052C123.536 116.33 123.151 116.738 122.75 117.106C122.462 117.367 122.242 117.73 121.916 117.914C120.478 118.726 119.411 120.006 118.043 120.906C117.464 121.288 116.972 121.802 116.448 122.263C116.039 122.624 115.674 123.043 115.232 123.355C113.391 124.66 111.738 126.198 109.937 127.552C108.383 128.722 106.846 129.914 105.312 131.109C104.765 131.54 104.236 132.004 103.712 132.465C103.593 132.566 103.506 132.699 103.46 132.847C103.425 132.977 103.49 133.134 103.515 133.328ZM147.383 145.939C147.528 145.939 147.726 145.998 147.805 145.927C148.098 145.681 148.298 145.315 148.613 145.119C148.996 144.883 149.458 144.773 149.886 144.605C149.957 144.577 150.026 144.541 150.095 144.505C150.499 144.301 150.65 144.004 150.575 143.563C150.246 141.582 149.915 139.601 149.582 137.62C149.571 137.543 149.541 137.47 149.496 137.407C149.45 137.35 149.364 137.275 149.306 137.288C149.173 137.313 149.045 137.362 148.93 137.433C148.872 137.485 148.833 137.556 148.823 137.634C148.265 140.123 147.711 142.613 147.16 145.104C147.126 145.255 147.127 145.411 147.162 145.561C147.219 145.696 147.293 145.823 147.383 145.939ZM153.871 161.967C153.862 161.815 153.909 161.617 153.829 161.527C153.683 161.357 153.497 161.227 153.287 161.149C153.212 161.132 153.133 161.131 153.057 161.146C152.981 161.161 152.908 161.191 152.845 161.236C151.647 162.095 150.346 162.771 149.051 163.463C148.884 163.553 148.794 164.023 148.923 164.073C149.052 164.123 149.235 164.219 149.36 164.181C150.84 163.72 152.265 163.102 153.613 162.337C153.726 162.267 153.784 162.095 153.871 161.967ZM153.169 158.195C153.144 158.112 153.144 158.015 153.094 157.969C152.999 157.861 152.876 157.781 152.739 157.737C152.585 157.723 152.432 157.758 152.299 157.836C151.089 158.52 149.885 159.213 148.68 159.908C148.612 159.944 148.557 160.001 148.525 160.072C148.483 160.207 148.461 160.347 148.461 160.489C148.461 160.526 148.574 160.589 148.637 160.599C148.863 160.617 149.143 160.703 149.312 160.607C150.515 159.92 151.81 159.407 152.928 158.566C153.04 158.48 153.093 158.317 153.169 158.195ZM94.7293 140.351C94.7251 140.477 94.7195 140.611 94.714 140.746C94.8543 140.743 95.0404 140.801 95.1363 140.734C95.9485 140.162 96.7451 139.571 97.5424 138.979C97.6965 138.866 97.6526 138.524 97.4754 138.363C97.2981 138.203 97.057 138.116 96.8474 138.247C95.9835 138.782 95.3267 139.534 94.7293 140.351ZM145.885 156.487C145.857 156.419 145.852 156.32 145.798 156.286C145.706 156.22 145.592 156.189 145.479 156.2C145.366 156.211 145.261 156.263 145.183 156.346C145.044 156.491 144.975 156.705 144.892 156.896C144.901 156.925 144.916 156.952 144.936 156.974C144.957 156.996 144.983 157.014 145.011 157.025C145.194 157.035 145.376 156.988 145.532 156.892C145.688 156.796 145.811 156.654 145.885 156.487ZM99.4433 137.49C99.2612 137.216 99.1745 137.017 99.0231 136.895C98.9615 136.845 98.728 136.924 98.6337 137.013C98.4701 137.159 98.5405 137.494 98.753 137.546C98.9294 137.588 99.1323 137.521 99.4433 137.49ZM146.094 161.649C146.012 161.779 146.045 161.894 146.209 161.943C146.241 161.949 146.273 161.947 146.304 161.937C146.334 161.926 146.362 161.909 146.384 161.885C146.477 161.749 146.436 161.634 146.277 161.591C146.222 161.575 146.154 161.626 146.094 161.649ZM143.886 163.675C143.909 163.502 143.834 163.395 143.654 163.384C143.595 163.382 143.481 163.439 143.48 163.47C143.486 163.59 143.504 163.709 143.534 163.825L143.886 163.675ZM147.396 161.03L147.531 160.969L147.433 160.888L147.396 161.03ZM147.24 155.174L147.094 155.244L147.204 155.332L147.24 155.174Z" fill="#435187"/>
<path d="M42.8627 1.59848C42.4099 2.57139 42.255 3.50823 42.1598 4.42033C41.9162 6.75232 41.3786 9.02195 40.9389 11.3141C40.3807 14.2181 39.7879 17.1157 39.2007 20.0154C38.8286 21.8448 38.3737 23.6609 38.0627 25.5009C37.4059 29.4129 36.4185 33.259 35.77 37.1665C35.3135 39.9174 34.6553 42.6568 34.774 45.4871C34.8307 46.8226 34.3496 48.0897 34.1222 49.3911C34.0004 50.081 33.9377 50.7871 33.4798 51.3648C33.124 52.7144 32.7187 54.0523 32.4332 55.4155C32.2898 56.0849 32.2289 56.799 32.4081 57.503C32.4589 57.7018 32.4283 58.0415 32.2981 58.1478C31.6855 58.6482 31.7041 59.3788 31.49 60.0331C30.9307 61.7399 30.6191 63.4994 30.2739 65.253C30.2395 65.4845 30.1884 65.7131 30.1211 65.9373C29.3385 68.1655 29.2006 70.5098 28.8693 72.8186C28.8251 73.125 28.8304 73.4471 28.7362 73.736C27.8593 76.4077 27.5085 79.1971 26.9058 81.9298C26.3371 84.5112 25.9212 87.1246 25.4035 89.7172C25.1149 91.1668 24.738 92.5984 24.4334 94.0448C24.1115 95.5673 23.8566 97.1042 23.5203 98.6232C23.0473 100.752 22.6604 102.894 22.2888 105.043C21.9452 107.036 21.4856 109.009 21.0839 110.994C20.9762 111.527 20.9091 112.07 20.7918 112.606C20.5617 113.667 20.4141 114.75 19.7144 115.658C19.494 115.946 19.419 116.37 19.3487 116.744C19.1565 117.738 18.8801 118.714 18.5223 119.661C17.9022 121.344 17.6103 123.118 17.1842 124.853C16.5347 127.497 16.009 130.173 15.2138 132.783C14.7303 134.342 14.3733 135.938 14.1462 137.554C13.9454 139.015 13.6541 140.462 13.2741 141.887C12.6814 144.138 12.1568 146.42 11.6124 148.69C11.5164 149.063 11.4565 149.449 11.3992 149.832C11.3174 150.37 11.303 150.924 11.1703 151.448C10.8051 152.881 10.605 154.352 10.5741 155.83C10.556 156.697 10.2811 157.511 10.0367 158.333C9.92692 158.702 9.80286 159.083 9.79122 159.46C9.73219 161.563 9.28983 163.637 8.4858 165.581C8.27878 166.085 8.15508 166.626 7.91603 167.113C7.3879 168.19 7.19324 169.332 7.20451 170.51C7.21669 171.789 6.9594 172.979 6.25461 174.065C5.89986 174.611 5.78991 175.2 5.80898 175.844C5.82608 176.465 5.76031 177.088 5.74462 177.71C5.73544 177.98 6.0329 178.331 6.30066 178.393C7.81635 178.75 9.33103 179.117 10.853 179.452C11.4597 179.587 12.0633 179.727 12.7029 179.662C13.4843 179.576 14.2732 179.732 14.9629 180.108C15.1684 180.222 15.4104 180.338 15.6234 180.318C16.681 180.222 17.5871 180.627 18.4995 181.07C18.8564 181.23 19.2346 181.338 19.6223 181.389C21.2392 181.646 22.7869 182.223 24.4267 182.384C24.9583 182.441 25.4774 182.66 25.9985 182.815C26.6792 183.012 27.3542 183.149 28.0625 182.901C28.2504 182.844 28.4484 182.827 28.6434 182.851C28.8383 182.876 29.0258 182.942 29.1932 183.045C30.5127 183.772 31.9535 184.08 33.415 184.371C35.1724 184.722 36.9084 185.174 38.6556 185.576C41.4626 186.221 44.2712 186.864 47.0814 187.506C47.3095 187.559 47.5334 187.634 47.7652 187.665C51.2443 188.141 54.6485 189.007 58.0543 189.818C61.6163 190.664 65.2477 191.177 68.7642 192.21C71.0249 192.442 73.1702 193.214 75.3933 193.622C75.9262 193.721 76.4405 193.913 76.9651 194.053C77.5663 194.212 78.1627 194.405 78.7779 194.496C82.3884 195.066 85.963 195.844 89.4837 196.826C90.7535 197.189 92.0673 197.4 93.3609 197.679C95.1885 198.072 97.0232 198.429 98.8387 198.865C100.279 199.214 101.724 199.516 103.177 199.798C104.856 200.124 106.547 200.408 108.181 200.952C109.661 201.444 111.235 201.525 112.747 201.93C114.996 202.532 117.31 202.921 119.57 203.501C121.153 203.908 122.784 204.109 124.345 204.573C124.565 204.641 124.759 204.777 124.898 204.961C125.016 205.133 125.101 205.417 125.046 205.606C124.991 205.795 124.75 205.966 124.554 206.029C124.357 206.093 124.093 206.055 123.87 206.016C122.801 205.806 121.732 205.59 120.667 205.354C116.335 204.395 112.003 203.43 107.67 202.462C107.14 202.344 106.606 202.241 106.076 202.137C105.388 202.003 104.679 201.94 104.015 201.725C102.082 201.101 100.067 200.853 98.1058 200.368C96.1449 199.884 94.1375 199.571 92.222 198.899C92.0814 198.832 91.9321 198.785 91.7784 198.76C90.1241 198.684 88.5661 198.132 86.9635 197.808C83.3771 197.085 79.7977 196.321 76.2439 195.44C74.1274 194.915 71.9827 194.508 69.8552 194.031C66.7418 193.327 63.6397 192.55 60.5082 191.93C57.9863 191.432 55.5136 190.74 53.0044 190.198C51.7666 189.929 50.5587 189.849 49.3092 190.161C47.4938 190.615 45.6549 190.974 43.8325 191.397C43.1506 191.556 42.4849 191.782 41.8102 191.976C41.4355 192.084 41.0668 192.244 40.6844 192.289C39.2025 192.467 37.7969 192.924 36.372 193.32C35.404 193.591 34.4458 193.924 33.3929 193.786C32.8434 193.719 32.3283 194.011 31.8835 194.343C31.6318 194.524 31.4398 194.779 31.1989 194.974C30.8371 195.264 29.9815 194.93 29.8514 194.461C29.8247 194.389 29.8019 194.316 29.783 194.242C29.4509 192.087 29.1255 189.932 28.7875 187.778C28.7171 187.237 28.6098 186.702 28.4663 186.176C27.9754 184.554 27.877 184.647 26.4389 184.299C23.9413 183.696 21.4592 183.03 18.9704 182.391C18.8204 182.352 18.6791 182.245 18.5307 182.239C17.2614 182.188 16.1032 181.7 14.9509 181.26C13.6117 180.75 12.2409 180.573 10.8515 180.402C10.2338 180.327 9.61185 180.318 9.01953 180.072C7.86984 179.575 6.62431 179.339 5.37225 179.379C5.14877 179.387 4.92066 179.279 4.69624 179.22C4.52063 179.174 4.31274 178.829 4.3837 178.649C4.70638 177.846 4.80088 177.024 4.78835 176.153C4.77018 175.37 4.95466 174.596 5.32396 173.904C5.61573 173.362 5.73093 172.729 5.99191 172.168C6.22443 171.675 6.34422 171.137 6.3426 170.593C6.34085 169.167 6.73317 167.843 7.24984 166.524C7.99009 164.64 8.5352 162.686 8.87663 160.691C9.0985 159.388 9.33441 158.086 9.55592 156.781C9.61789 156.476 9.6504 156.166 9.653 155.855C9.60402 153.892 9.8997 151.986 10.4054 150.102C10.3547 148.59 10.9134 147.205 11.3072 145.784C11.5069 145.109 11.5398 144.396 11.4032 143.705C11.1304 142.388 11.2421 141.064 11.4796 139.751C12.0176 136.766 12.414 133.754 13.1625 130.809C13.4305 129.754 13.7093 128.701 13.9839 127.649C14.337 126.295 14.6869 124.941 15.0472 123.589C15.2066 122.989 15.3886 122.395 15.5548 121.795C15.6367 121.497 15.7808 121.192 15.7678 120.895C15.7294 120.009 16.0261 119.219 16.3292 118.412C16.5213 117.898 16.5532 117.354 16.1947 116.85C15.8224 116.326 15.7407 115.698 15.6379 115.081C15.3435 113.316 15.0631 111.548 14.7506 109.785C14.4781 108.251 14.1692 106.725 13.8763 105.195C13.3509 102.444 12.818 99.6944 12.4289 96.9228C12.3612 96.4665 12.2369 96.0079 12.1361 95.5515C11.8178 94.1105 11.5141 92.6662 11.3703 91.1851C11.2418 89.8737 10.8985 88.5827 10.6487 87.2838C10.1408 84.7458 9.71465 82.216 9.25462 79.6941C8.86319 77.5587 8.55935 75.4049 8.07263 73.2803C7.55784 71.0154 7.28932 68.6863 6.91269 66.3862C6.87488 66.1556 6.87658 65.9082 6.78906 65.7017C6.22499 64.3969 6.17579 62.9722 5.96978 61.6013C5.53035 58.6741 4.86007 55.793 4.37839 52.8781C3.84804 49.6483 3.07193 46.4665 2.73515 43.206C2.64719 42.3588 2.40867 41.5224 2.22231 40.691C1.8443 39.0962 1.55701 37.4814 1.36181 35.8542C1.27503 35.0823 1.1147 34.3196 0.96555 33.5612C0.731456 32.3453 0.570175 31.1059 0.414223 29.8822C0.287023 28.8794 0.238961 27.8695 -0.00489529 26.8807C-0.0100035 26.8057 0.000762023 26.7305 0.0266982 26.6599C0.0526343 26.5894 0.093158 26.525 0.145642 26.4711C0.261643 26.3864 0.400277 26.338 0.543895 26.3322C0.583019 26.333 0.621331 26.3435 0.655337 26.3628C0.689343 26.3821 0.717957 26.4096 0.738574 26.4428C0.838343 26.7354 0.914028 27.0357 0.964872 27.3406C1.19927 29.2745 1.58951 31.1864 2.13181 33.0577C2.41768 34.0295 2.62102 35.0236 2.73965 36.0294C3.10416 38.9747 3.86303 41.838 4.31091 44.765C4.69988 47.3032 5.40689 49.7863 5.6218 52.3552C5.6465 52.6618 5.75519 52.9602 5.82337 53.2637C6.13423 54.6283 6.50236 55.9832 6.56386 57.3948C6.59681 57.7833 6.65969 58.1686 6.75193 58.5475C7.22142 60.9111 7.70967 63.2712 8.16239 65.6395C8.3537 66.6327 8.45542 67.6431 8.63182 68.638C9.51202 73.5382 10.2839 78.4591 11.3545 83.3224C11.3996 83.472 11.4277 83.6261 11.4382 83.7819C11.4222 85.6764 12.0821 87.4566 12.3786 89.298C12.6752 91.1395 13.0416 92.9709 13.29 94.8209C13.3419 95.2053 13.436 95.5843 13.5216 95.9635C13.6241 96.4195 13.7615 96.8683 13.8426 97.3275C14.1239 98.9331 14.377 100.542 14.6606 102.146C14.8238 103.065 15.0342 103.975 15.2086 104.891C15.4133 105.962 15.6096 107.035 15.7975 108.109C16.1164 109.948 16.4175 111.791 16.7471 113.629C16.7833 113.826 16.9606 113.998 17.1386 114.287C17.4227 113.715 17.6861 113.249 17.888 112.76C18.0365 112.404 18.0998 112.015 18.2098 111.643C18.5193 110.595 18.5312 109.498 18.9075 108.455C19.2474 107.517 19.3586 106.493 19.5606 105.505C19.6699 104.972 19.7934 104.438 19.8546 103.895C20.1321 101.419 20.774 99.0114 21.2473 96.5733C21.3209 96.1914 21.4393 95.8155 21.4748 95.4305C21.6252 93.8684 22.0805 92.3713 22.6077 90.9094C23.0626 89.6466 23.2491 88.3444 23.4393 87.0363C23.4834 86.7257 23.1675 86.491 22.8218 86.5593C22.2896 86.6627 21.7589 86.7768 21.2222 86.8499C21.1509 86.8483 21.0812 86.8289 21.0194 86.7934C20.9576 86.7579 20.9057 86.7075 20.8685 86.6467C20.8593 86.5753 20.8686 86.5028 20.8955 86.436C20.9224 86.3692 20.966 86.3104 21.0221 86.2652C21.2983 86.1252 21.5934 86.026 21.8981 85.9709C22.3603 85.8954 22.8294 85.8905 23.2923 85.8293C23.4491 85.8097 23.5956 85.7406 23.7103 85.6319C23.8249 85.5233 23.9018 85.381 23.9296 85.2256C24.2244 83.7772 24.5136 82.3267 24.7531 80.8672C25.0176 79.2577 25.1674 77.6303 25.6009 76.0491C25.6273 75.8959 25.6405 75.7407 25.6403 75.5852C25.6685 75.2868 25.3611 74.9746 25.0686 75.0043C24.2164 75.0974 23.3764 75.2802 22.5626 75.5496C21.7493 75.81 20.9108 75.9939 20.076 76.1828C19.9813 76.2037 19.7772 76.0596 19.7456 75.9557C19.7141 75.8517 19.825 75.6947 19.9 75.5774C19.9348 75.5219 20.033 75.4976 20.1075 75.478C21.7675 75.0471 23.3368 74.3111 25.0404 74.0068C25.6431 73.8991 26.0025 73.5289 26.1756 72.9622C26.2669 72.6646 26.3434 72.3619 26.423 72.061C27.1013 69.5054 27.961 67.0023 28.6853 64.4616C29.1732 62.7516 29.733 61.0395 29.7769 59.2328C29.7789 59.1305 29.5907 58.9301 29.4982 58.9344C29.037 58.9553 28.5429 58.9363 28.1255 59.0991C26.1309 59.8716 24.0056 59.9357 21.937 60.2906C21.1753 60.4204 20.3806 60.3625 19.6223 60.5C18.9355 60.6228 18.254 60.7834 17.5621 60.7622C17.3981 60.6445 17.3872 60.49 17.5674 60.4122C18.4255 60.0362 19.2947 59.7418 20.2542 59.6846C21.7305 59.5971 23.1723 59.1899 24.6604 59.1388C25.0428 59.1266 25.4245 58.9898 25.802 58.8862C27.08 58.5395 28.3586 58.1987 29.6274 57.8269C29.856 57.7696 30.0609 57.6422 30.2134 57.4628C30.3659 57.2834 30.4583 57.0609 30.4777 56.8265C30.755 54.5818 31.4462 52.4178 31.7851 50.1827C31.939 49.1859 32.1327 48.1918 32.2965 47.2012C32.3085 47.1314 32.2594 47.051 32.2283 46.9418C32.0219 46.8984 31.7892 46.7888 31.5757 46.8183C31.1927 46.8893 30.8153 46.9878 30.4464 47.113C28.8785 47.5865 27.2683 47.907 25.6384 48.0701C23.7752 48.2514 21.929 48.5768 20.1164 49.0434C18.6808 49.4126 17.189 49.5126 15.7169 49.3381C15.6716 49.3332 15.615 49.2316 15.6068 49.1699C15.5985 49.1081 15.6347 48.9997 15.6731 48.9892C15.9666 48.9049 16.2627 48.7877 16.5625 48.7749C18.1246 48.7093 19.6497 48.3722 21.1924 48.1702C22.0433 48.0655 22.8826 47.8818 23.6993 47.6213C24.5728 47.331 25.5266 47.2191 26.4515 47.1334C28.4064 46.942 30.274 46.3828 32.1549 45.8775C32.3446 45.8215 32.5151 45.7142 32.6475 45.5674C32.7798 45.4207 32.8689 45.2402 32.9047 45.046C33.0768 44.2869 33.3208 43.5299 33.3713 42.7596C33.4426 41.7401 33.6594 40.7577 33.8976 39.7763C34.022 39.2496 34.1013 38.7112 34.1907 38.1764C34.2286 37.9462 34.1828 37.6843 34.2759 37.483C34.906 36.1062 34.9103 34.6073 35.1771 33.1593C35.3579 32.1682 35.7142 31.2013 35.8692 30.2093C36.0243 29.2173 36.51 28.3064 36.5874 27.2727C36.6583 26.351 36.9979 25.4592 37.2032 24.5524C37.3066 24.0967 37.3857 23.6355 37.4617 23.1751C37.752 21.412 38.0289 19.646 38.3271 17.8837C38.4055 17.3445 38.5279 16.8127 38.693 16.2934C38.9247 15.6343 39.0662 14.9469 39.1135 14.25C39.1532 13.6358 39.3498 13.0314 39.4882 12.4251C39.835 10.9071 40.2028 9.39525 40.5345 7.8747C41.0001 5.74636 41.4401 3.61031 41.8926 1.48072C42.0392 0.806354 42.6066 0.408849 43.2832 0.55574C44.8859 0.894994 46.4844 1.24962 48.0827 1.60685C48.9954 1.8116 49.9073 2.01994 50.8109 2.25903C51.0203 2.31538 51.1983 2.50114 51.382 2.63806C51.4359 2.68001 51.4883 2.79698 51.4673 2.84593C51.4098 2.97285 51.3224 3.16942 51.2281 3.18087C50.9281 3.2183 50.594 3.24826 50.3109 3.15961C48.5929 2.65163 46.796 2.45877 45.1047 1.83774C44.6013 1.65281 44.0402 1.61265 43.501 1.542C43.2691 1.51713 43.0333 1.58227 42.8627 1.59848ZM37.2122 189.407C37.5859 189.615 37.9565 189.829 38.3348 190.028C38.3756 190.054 38.5169 189.992 38.5153 189.981C38.5011 189.849 38.5128 189.679 38.4344 189.596C38.0774 189.224 37.6266 189.368 37.201 189.425C37.4375 189.237 37.6855 189.062 37.9063 188.858C38.0735 188.702 38.1703 188.494 38.0524 188.259C37.9632 188.086 37.6221 187.949 37.4636 188.021C36.776 188.332 36.0747 188.621 35.4129 188.982C35.169 189.115 35.0165 189.424 34.8222 189.644L34.0212 189.695C33.4815 189.733 32.9422 189.773 32.4019 189.808C32.1815 189.822 31.9234 189.609 31.9156 189.406C31.9007 189.02 31.923 188.629 31.8776 188.248C31.7781 187.417 31.9542 186.73 32.7209 186.264C32.9172 186.145 32.823 185.795 32.6031 185.701C31.9617 185.423 31.3182 185.161 30.5918 185.219C30.3011 185.242 29.96 185.514 29.9779 185.788C30.0219 186.403 30.0549 187.023 30.1522 187.63C30.2852 188.469 30.4737 189.299 30.641 190.133C30.823 191.041 31.0009 191.95 31.1975 192.856C31.2754 193.216 31.7374 193.406 32.1477 193.278C32.4532 193.184 32.6237 192.927 32.5314 192.552C32.4548 192.249 32.3369 191.981 32.5436 191.682C33.0342 190.999 33.5146 190.308 34.0032 189.624L34.8092 189.576C35.4146 189.665 35.993 189.536 36.5801 189.398C36.7675 189.355 36.9911 189.407 37.2122 189.407ZM35.9526 186.943C36.0063 186.729 36.109 186.555 36.0583 186.479C35.899 186.241 35.6062 186.21 35.2833 186.392C35.1776 186.45 35.1173 186.601 35.0599 186.721C35.04 186.753 35.1032 186.873 35.1391 186.877C35.4129 186.91 35.69 186.925 35.9526 186.943ZM45.3826 189.219L45.4886 189.595C45.6214 189.54 45.78 189.527 45.8658 189.434C45.8952 189.411 45.9173 189.38 45.9294 189.344C45.9415 189.309 45.9431 189.27 45.934 189.234C45.9249 189.198 45.9055 189.165 45.8781 189.139C45.8507 189.113 45.8165 189.096 45.7795 189.089C45.6625 189.069 45.5172 189.172 45.382 189.22L45.3826 189.219ZM43.5187 189.739C43.4475 189.732 43.3755 189.736 43.3058 189.753C43.2714 189.765 43.2401 189.785 43.2137 189.81C43.1873 189.836 43.1665 189.866 43.1526 189.9C43.1298 190.077 43.2412 190.199 43.4102 190.151C43.5102 190.123 43.5803 189.981 43.6514 189.876C43.6123 189.826 43.5678 189.78 43.5187 189.739ZM40.1514 187.649C40.1008 187.617 40.0375 187.564 39.9932 187.575C39.9623 187.583 39.934 187.6 39.9108 187.622C39.8876 187.644 39.8703 187.672 39.8603 187.703C39.8643 187.886 39.9671 187.934 40.1137 187.821C40.1525 187.79 40.1419 187.703 40.1539 187.645L40.1514 187.649Z" fill="#435187"/>
<path d="M104.007 14.8634C102.759 15.132 101.535 14.9368 100.307 14.7092C99.3167 14.5249 98.3598 14.1062 97.3189 14.2423C96.7403 14.0186 96.1317 13.8536 95.5839 13.5719C94.544 13.0254 93.4832 12.5653 92.3063 12.4466C91.8422 12.392 91.3912 12.2568 90.9738 12.0471C89.5592 11.3817 88.0251 11.0067 86.4625 10.9442C85.0673 10.8782 83.6478 10.8024 82.3613 10.1488C81.0293 10.0877 79.7526 9.74245 78.4694 9.4207C77.4129 9.15644 76.3734 8.88487 75.3565 8.44942C74.2068 7.9697 73.0028 7.63149 71.7711 7.44226C70.6925 7.27047 69.6299 7.09758 68.581 6.78149C68.0749 6.62942 67.4939 6.63202 66.9592 6.68425C66.0224 6.77573 65.0774 6.63708 64.2066 6.28039C63.4761 6.0082 62.7133 5.83202 61.9372 5.75631C60.3866 5.57987 58.8713 5.17197 57.4421 4.54627C56.3803 4.07445 55.2204 3.82286 54.2931 3.06387C54.2405 3.00817 54.1962 2.94515 54.1616 2.87679C54.259 2.75157 54.3988 2.66616 54.5549 2.63661C54.7109 2.60707 54.8724 2.63542 55.0089 2.71634C55.8163 3.18565 56.7184 3.46898 57.6495 3.54562C57.9592 3.58833 58.2582 3.68775 58.5316 3.83887C59.6736 4.39669 60.8969 4.59129 62.1471 4.67024C62.9245 4.70049 63.6936 4.84062 64.4316 5.08646C65.375 5.4208 66.3561 5.66417 67.4009 5.58572C67.9281 5.54539 68.472 5.74734 69.0105 5.8258C69.8548 5.94779 70.6622 6.25647 71.538 6.24905C71.9922 6.24585 72.4499 6.42429 72.8992 6.5478C73.6501 6.75489 74.3945 6.98553 75.143 7.2008C75.3679 7.26547 75.6219 7.26829 75.8194 7.37658C77.775 8.44705 80.0028 8.54358 82.0933 9.12565C82.6174 9.27105 83.1464 9.39326 83.6704 9.53444C83.8968 9.59452 84.114 9.72205 84.3407 9.73538C86.2046 9.85008 88.0584 10.2386 89.9354 9.88269C90.9308 9.69336 91.9349 9.54532 92.9343 9.3695C95.3156 8.95331 97.696 8.53196 100.075 8.10543C101.148 7.91034 102.211 7.65969 103.282 7.46137C104.509 7.2359 105.736 7.00461 106.971 6.8383C110.064 6.42562 113.101 5.68222 116.182 5.18683C116.72 5.10075 117.259 5.03216 117.798 4.95513C118.183 4.89905 118.588 4.89692 118.948 4.77535C120.435 4.26792 122.008 4.19291 123.521 3.81457C123.936 3.71152 124.278 3.89036 124.532 4.23266C124.708 4.48755 124.897 4.73305 125.099 4.96815C125.326 5.18323 125.49 5.45677 125.571 5.75861C126.118 8.19271 126.75 10.6013 127.035 13.0844C127.081 13.4703 127.081 13.865 127.162 14.2427C127.527 15.919 127.901 17.5876 128.28 19.2589C128.332 19.4866 128.408 19.7082 128.506 19.92C128.639 20.2061 128.828 20.4512 129.157 20.5422C130.206 20.8326 131.257 21.122 132.305 21.4212C132.361 21.4381 132.443 21.5611 132.427 21.5995C132.375 21.7243 132.302 21.9107 132.204 21.9349C131.681 22.0711 131.149 22.1735 130.613 22.2415C130.313 22.278 129.992 22.1972 129.683 22.1587C129.112 22.0892 128.729 22.8255 128.161 22.5681C127.676 22.3492 127.267 21.9721 126.805 21.6961C126.596 21.591 126.372 21.5162 126.141 21.4742C124.708 21.1138 123.283 20.6881 121.828 20.414C119.836 20.0378 117.873 19.5199 115.955 18.8642C114.404 18.3365 112.834 17.8669 111.29 17.3205C110.2 16.9332 109.14 16.461 108.07 16.0183C108.029 16.0013 108.001 15.8788 108.018 15.8205C108.035 15.7622 108.122 15.6549 108.168 15.6588C108.705 15.7182 109.27 15.7047 109.776 15.8714C111.926 16.5806 114.169 16.9087 116.341 17.4908C118.975 18.1917 121.664 18.6678 124.266 19.4891C124.561 19.5826 124.856 19.7202 125.16 19.7457C127.034 19.8945 127.256 20.1254 126.941 18.0089C126.839 17.316 126.624 16.6405 126.515 15.9485C126.032 12.8725 125.324 9.83969 124.872 6.75995C124.768 6.13279 124.539 5.53287 124.198 4.99576C123.332 5.13598 122.493 5.30983 121.65 5.39875C120.808 5.48766 119.958 5.68518 119.114 5.80236C116.487 6.16734 113.931 6.91426 111.285 7.17593C110.048 7.29848 108.831 7.62265 107.605 7.85555C106.532 8.06007 105.467 8.34518 104.384 8.45521C100.807 8.82197 97.3382 9.82141 93.7708 10.2181C93.236 10.2771 92.7155 10.4831 92.1988 10.6542C92.0906 10.6901 91.9492 10.8846 91.9668 10.9799C91.9896 11.1045 92.14 11.2261 92.2652 11.3044C92.3939 11.3933 92.542 11.4504 92.6972 11.4709C93.9796 11.5823 95.0845 12.1639 96.1666 12.7864C96.7233 13.1068 97.2898 13.3146 97.9328 13.319C98.8798 13.3258 99.7801 13.5614 100.684 13.8258C101.44 14.047 102.216 14.1051 102.956 13.6806C103.222 13.5169 103.519 13.4103 103.829 13.3675C106.111 13.1707 108.21 12.2707 110.387 11.6796C111.431 11.3788 112.517 11.248 113.602 11.2923C115.068 11.3635 116.545 11.1816 118.018 11.1169C118.055 11.1264 118.089 11.1436 118.119 11.1673C118.148 11.1909 118.172 11.2205 118.189 11.2542C118.212 11.2872 118.227 11.3246 118.235 11.3639C118.242 11.4031 118.241 11.4435 118.232 11.4825C118.223 11.5215 118.206 11.5581 118.183 11.5903C118.159 11.6224 118.128 11.6492 118.094 11.6691C118.033 11.717 117.963 11.7528 117.889 11.7745C116.901 12.0156 115.905 12.2153 114.883 12.1315C113.091 11.9962 111.289 12.1986 109.571 12.7281C108.675 12.9958 107.741 13.1233 106.827 13.3188C106.293 13.4336 105.767 13.5976 105.226 13.6655C104.49 13.7589 104.179 14.2267 104.007 14.8634Z" fill="#435187"/>
<path d="M79.909 126.909C79.8484 126.526 79.8075 126.141 79.7865 125.754C79.7843 125.449 79.7852 125.094 79.9277 124.845C80.6353 123.632 80.9288 122.229 81.7324 121.063C82.0874 120.548 82.4144 120.033 82.9274 119.643C83.4331 119.278 83.8959 118.858 84.307 118.39C85.0385 117.512 86.0296 117.057 87.024 116.638C88.8237 115.883 90.7055 115.339 92.6313 115.019C94.1101 114.769 95.5692 114.965 96.8691 115.884C97.8521 116.578 97.9064 117.626 97.4374 118.326C96.8804 119.156 96.5002 120.13 95.6152 120.714C94.4577 122.286 92.9198 123.516 91.7155 125.054C91.1003 125.839 90.239 126.412 89.6654 127.273C89.1085 128.108 88.4165 128.854 87.7677 129.626C87.5186 129.921 87.23 130.185 86.9522 130.456C86.7298 130.672 86.4601 130.848 86.27 131.089C84.8703 132.858 83.3635 134.541 82 136.333C80.9649 137.694 80.0702 139.166 79.1885 140.636C78.7068 141.439 78.545 142.375 78.5507 143.327C78.5418 143.631 78.5091 143.933 78.4531 144.232C78.4401 144.266 78.4187 144.295 78.391 144.318C78.3632 144.341 78.33 144.357 78.2946 144.363C78.1515 144.351 77.9355 144.347 77.8839 144.26C77.1617 143.033 77.1854 141.836 77.7403 140.491C78.3444 139.023 79.2441 137.772 80.1016 136.478C80.9592 135.184 81.7604 133.834 83.004 132.839C83.1309 132.748 83.2413 132.636 83.3308 132.508C84.3568 130.831 85.8944 129.599 87.1327 128.112C88.5806 126.373 90.2727 124.87 91.7305 123.159C92.9953 121.677 94.3673 120.294 95.6055 118.792C95.8976 118.429 96.1499 118.036 96.3581 117.619C96.6508 117.051 96.3145 116.47 95.7737 116.307C94.5885 115.931 93.3344 115.822 92.102 115.989C89.6332 116.333 87.4893 117.377 85.4426 118.691C84.3766 119.352 83.4829 120.256 82.8351 121.329C82.3594 122.135 81.8559 122.925 81.3613 123.72C80.8667 124.515 80.3877 125.311 80.2375 126.265C80.2039 126.477 80.0043 126.663 79.8806 126.86L79.909 126.909Z" fill="#435187"/>
<path d="M168.056 30.8429C167.063 29.9894 166.085 29.719 165.093 29.5113C164.101 29.3037 163.098 29.1654 162.112 28.9741C161.353 28.8241 160.586 28.7037 159.956 28.1677C159.595 27.8609 159.136 27.7412 158.657 27.701C157.806 27.6298 156.957 27.5106 156.104 27.4592C155.228 27.4057 154.418 27.1918 153.697 26.6791C153.506 26.5431 153.308 26.4169 153.113 26.2868C152.594 25.9358 151.981 25.7475 151.354 25.746C148.459 25.731 145.627 25.2486 142.813 24.6239C142.129 24.4727 141.425 24.4109 140.745 24.2573C140.138 24.1224 139.552 23.8954 139.177 23.3423C139.149 23.3013 139.172 23.201 139.199 23.1505C139.232 23.0839 139.289 23.0323 139.359 23.0061C139.924 22.8926 140.378 23.323 140.934 23.3185C141.4 23.3272 141.865 23.3762 142.323 23.4649C143.7 23.6948 145.078 23.9022 146.442 24.2521C147.863 24.617 149.344 24.8237 150.835 24.6436C151.717 24.5348 152.512 24.7614 153.28 25.226C154.675 26.0865 156.266 26.5796 157.904 26.6592C158.37 26.6928 158.832 26.7556 159.289 26.8473C159.515 26.8889 159.797 26.9201 159.938 27.0719C160.644 27.8391 161.605 27.802 162.512 27.9699C163.654 28.1814 164.812 28.2883 165.937 28.6269C166.535 28.7897 167.106 29.0379 167.633 29.364C167.959 29.5761 168.289 29.7812 168.622 29.9907C169.282 30.403 169.926 30.8059 170.74 30.9128C171.079 30.9564 171.381 31.3064 171.692 31.5286C171.724 31.5485 171.715 31.6643 171.689 31.7196C171.675 31.7533 171.655 31.784 171.629 31.8096C171.603 31.8353 171.572 31.8553 171.538 31.8686C170.922 31.9793 170.286 31.9057 169.712 31.6571C169.066 31.3834 168.456 31.0421 168.056 30.8429Z" fill="#435187"/>
<path d="M5.3517 25.3955C5.81368 25.0978 6.34067 24.9154 6.88815 24.8639C7.65915 24.7744 8.42089 24.6116 9.18622 24.4716C10.7194 24.1878 12.2526 23.9302 13.7777 23.6151C16.9057 22.971 20.0442 22.3868 23.193 21.8624C25.4232 21.4967 27.6378 21.0523 29.8479 20.6064C31.5244 20.2658 33.2273 20.0508 34.9205 19.7939C35.0578 19.7735 35.2211 19.8438 35.3568 19.9051C35.3868 19.926 35.4123 19.9526 35.4319 19.9833C35.4515 20.0141 35.4649 20.0484 35.4712 20.0843C35.4809 20.1192 35.4836 20.1558 35.4791 20.1918C35.4745 20.2278 35.4628 20.2626 35.4447 20.294C35.3435 20.4047 35.2302 20.5478 35.0984 20.5772C33.8062 20.8736 32.5285 21.255 31.2208 21.4065C29.0475 21.6573 26.9341 22.1982 24.7854 22.5596C23.0208 22.8575 21.2744 23.2565 19.4769 23.382C18.6273 23.4403 17.7854 23.6538 16.9476 23.8299C14.8151 24.2801 12.643 24.4848 10.5131 24.9684C9.15334 25.2778 7.74422 25.3728 6.37738 25.6957C6.04116 25.7754 5.62343 25.7558 5.3517 25.3955Z" fill="#435187"/>
<path d="M15.915 38.26C16.0391 37.9608 16.2303 37.7132 16.554 37.6381C19.0388 37.0561 21.4712 36.2427 24.0325 35.9818C24.7938 35.9056 25.5449 35.645 26.2808 35.4066C27.0116 35.1523 27.7729 34.9957 28.5448 34.9406C29.3896 34.8945 30.2237 34.6581 31.0667 34.5267C31.1797 34.5067 31.2962 34.5213 31.4007 34.5687C31.5053 34.6161 31.593 34.6939 31.6524 34.792C31.7841 34.9986 31.5021 35.3247 31.121 35.4053C30.8938 35.4523 30.6675 35.511 30.4372 35.541C30.0523 35.5902 29.666 35.611 29.2801 35.6596C28.7408 35.7071 28.2044 35.7843 27.6736 35.8907C26.697 36.1249 25.7377 36.4749 24.7508 36.6529C23.8508 36.8136 22.8997 36.7712 21.9809 36.909C21.3704 37.0125 20.7732 37.1831 20.2002 37.4177C18.9575 37.8955 17.6571 38.086 16.3517 38.2624C16.2027 38.2797 16.0482 38.2107 15.8968 38.181L15.915 38.26Z" fill="#435187"/>
<path d="M60.8573 72.5025C60.7594 72.5725 60.702 72.6443 60.6353 72.6536C60.4915 72.6756 60.3094 72.719 60.2051 72.6539C60.1008 72.5887 59.9955 72.3752 60.0284 72.2743C60.3606 71.3392 60.7001 70.4059 61.0836 69.4905C61.3463 68.8514 61.6734 68.2375 61.996 67.6262C62.081 67.4966 62.2115 67.4035 62.3618 67.3649C62.4996 67.3512 62.6384 67.3784 62.7608 67.4431C62.7924 67.4649 62.8178 67.4946 62.8344 67.5292C62.8511 67.5638 62.8583 67.6021 62.8555 67.6404C62.6425 68.218 62.4232 68.7944 62.1888 69.3642C61.8075 70.2893 61.291 71.1589 61.0686 72.1502C61.0401 72.2883 60.9164 72.4084 60.8573 72.5025Z" fill="#435187"/>
<path d="M75.0564 153.259C74.9731 153.134 74.8489 153.019 74.8147 152.882C74.7425 152.617 74.7679 152.336 74.8862 152.088C75.0045 151.841 75.2079 151.645 75.4594 151.534C75.5641 151.497 75.6756 151.483 75.7864 151.492C75.8972 151.501 76.0047 151.534 76.1018 151.588C76.4941 151.833 76.6057 152.403 76.4183 152.834C76.3255 153.049 76.1564 153.222 75.9435 153.32C75.7306 153.418 75.4888 153.434 75.2646 153.366C75.1918 153.337 75.1221 153.301 75.0564 153.259Z" fill="#435187"/>
<path d="M15.897 38.1808C15.6229 38.3048 15.3587 38.4944 15.072 38.5415C14.3988 38.6493 13.7141 38.6893 13.0358 38.7566C12.9118 38.6391 12.9094 38.4623 13.0762 38.4189C13.7373 38.2469 14.4059 38.1045 15.0766 37.9744C15.3922 37.9122 15.6722 38.0499 15.9148 38.2582L15.897 38.1808Z" fill="#435187"/>
<path d="M137.478 22.519C137.558 22.5898 137.645 22.6302 137.661 22.6901C137.699 22.8172 137.753 22.9847 137.695 23.0759C137.638 23.1671 137.42 23.2613 137.35 23.2205C137.102 23.0728 136.873 22.8944 136.669 22.6894C136.584 22.6046 136.574 22.4354 136.53 22.3046C136.653 22.2891 136.787 22.2336 136.895 22.265C137.095 22.336 137.29 22.4209 137.478 22.519Z" fill="#435187"/>
<path d="M79.882 126.856L80.0601 126.899L79.9147 126.91C79.9024 126.893 79.8914 126.875 79.882 126.856Z" fill="#435187"/>
<path d="M149.839 147.578C149.892 147.627 149.992 147.701 149.985 147.715C149.79 148.054 149.525 148.313 149.123 148.383C149.085 148.386 149.046 148.381 149.01 148.368C148.974 148.355 148.941 148.334 148.913 148.308C148.89 148.278 148.874 148.243 148.867 148.207C148.86 148.17 148.862 148.132 148.872 148.096C149.078 147.713 149.444 147.615 149.839 147.578Z" fill="#435187"/>
<path d="M148.176 151.906C148.914 151.57 149.597 151.124 150.201 150.584L150.119 150.593C150.065 150.73 150.015 150.867 149.959 151.001C149.625 151.786 149.041 152.093 148.203 151.909L148.176 151.906Z" fill="#435187"/>
<path d="M148.202 151.909C148.143 152.037 148.083 152.165 148.024 152.294C148.075 152.165 148.126 152.036 148.176 151.906L148.202 151.909Z" fill="#435187"/>
<path d="M150.201 150.584L150.165 150.72C150.149 150.68 150.132 150.64 150.117 150.597C150.144 150.591 150.173 150.587 150.201 150.584Z" fill="#435187"/>
</g>
<defs>
<clipPath id="clip0_2072_40">
<rect width="183" height="208" fill="white"/>
</clipPath>
</defs>
</svg>
