<svg width="127" height="45" viewBox="0 0 127 45" fill="none" xmlns="http://www.w3.org/2000/svg">
<g clip-path="url(#clip0_2045_70358)">
<path d="M48.5453 0.611203C45.6362 0.611203 43.8863 2.88598 43.8863 5.41519C43.8863 8.09475 45.69 10.0662 48.5956 10.0662C51.3504 10.0662 53.0536 8.09475 53.0536 5.41519C53.0554 2.68403 51.3002 0.611203 48.5453 0.611203ZM45.8399 36.5566C45.8399 41.9157 45.3894 43.6852 43.3354 43.888L41.8367 44.0392V44.4947H56.9113V44.0392L55.5087 43.888C53.505 43.6852 53.0042 41.9157 53.0042 36.5566V12.8978L52.8032 12.7973C50.2467 14.0615 45.4863 15.5276 41.6816 16.0836V16.5889L42.9343 16.5382C43.9859 16.4875 44.938 16.894 45.3391 17.7009C45.8901 18.813 45.8399 20.5326 45.8399 23.1108V36.5566ZM92.5806 10.0146V36.6073C92.5806 41.9664 92.0799 43.6852 90.0761 43.888L88.5775 44.0392V44.4947H103.304V44.0392L102.152 43.888C100.148 43.6353 99.7468 41.9157 99.7468 36.5566V21.5922C101.45 19.6715 103.449 18.6564 106.41 18.6564C110.167 18.6564 112.371 21.2363 112.371 26.6444V36.6082C112.371 41.9673 111.821 43.6861 109.967 43.8889L108.614 44.0401V44.4956H123.342V44.0401L122.04 43.8889C120.037 43.6362 119.535 41.9166 119.535 36.5575V24.9799C119.535 17.1938 115.427 14.1602 110.117 14.1602C105.508 14.1602 101.851 17.6992 99.7468 20.3787V0.409256L99.3942 0.30784C96.8377 1.572 92.2307 3.03811 88.4232 3.59412V4.09943L89.675 4.04872C90.6774 3.9989 91.6797 4.30226 92.0799 5.11094C92.6309 6.22564 92.5806 7.43642 92.5806 10.0146ZM4.35928 36.5566C4.35928 41.9157 3.80743 43.6353 1.40343 43.888L0 44.0392V44.4947H16.0822V44.0392L14.6787 43.888C12.3241 43.6353 11.6735 41.9157 11.6735 36.5566V1.47058H14.6787C20.5904 1.47058 24.047 5.61624 24.047 12.1381C24.047 19.4686 18.5867 22.1989 14.2785 22.1989H13.8263V22.6535C15.0287 22.8563 16.4313 25.0804 17.8814 27.4059C19.9354 30.6922 22.5413 35.1919 24.6949 38.7308C27.2999 43.0286 29.6043 44.4947 34.8645 44.4947H40.175V44.0392L39.2732 43.888C36.1172 43.3818 33.1111 37.77 30.3563 33.4731C28.0016 29.7821 24.2445 24.0698 22.7917 21.8955C27.7548 19.7213 32.1626 16.3345 32.1626 10.3179C32.1626 3.4927 26.1504 0.206421 15.8803 0.206421H0V0.66191L1.40343 0.813147C3.80743 1.0658 4.35928 2.78545 4.35928 8.14456V36.5566ZM85.6173 34.9392C83.9643 37.9222 81.0588 40.0991 77.001 40.0991C71.9409 40.0991 67.3815 35.2462 67.3815 27.663C67.3815 20.7871 70.5383 15.2758 74.6463 15.2758C76.3997 15.2758 77.2513 16.1859 77.7521 17.144C78.3841 18.3557 78.303 19.9757 78.3533 21.4418C78.4035 23.3625 79.3556 24.7272 81.5092 24.7272C83.6135 24.7272 84.8662 23.3118 84.8662 21.239C84.8662 16.7393 80.1058 14.1611 75.3454 14.1611C67.0791 14.1611 60.2709 20.4775 60.2709 30.2892C60.2709 38.8296 66.1323 45.0009 73.9473 45.0009C80.6603 45.0009 84.1671 40.2992 86.1215 35.2435L85.6173 34.9392Z" fill="#FEFEFE"/>
<path d="M122.767 0.471521C120.533 0.471521 119.064 2.18672 119.064 4.27289C119.064 6.52721 120.765 8.04047 122.865 8.04047C124.964 8.04047 126.466 6.5281 126.466 4.27289C126.468 2.18672 124.967 0.471521 122.767 0.471521ZM124.734 6.62774C124.205 6.62774 124.034 6.36085 123.667 5.88757L122.9 4.84493C122.733 4.60918 122.6 4.40723 122.434 4.40723V4.3067C123.3 4.3067 123.6 3.80228 123.6 3.09503C123.6 2.49008 123.3 2.08619 122.667 2.08619H122.267V5.65182C122.267 6.29146 122.267 6.52721 122.866 6.56013V6.66154H120.767V6.56013C121.367 6.52721 121.367 6.29324 121.367 5.65182V2.69203C121.367 2.08619 121.367 2.01858 120.8 1.95186V1.85044H122.834C123.734 1.85044 124.634 2.18672 124.634 2.9607C124.634 3.63325 124.133 3.97042 123.433 4.23909L123.5 4.13856L124.734 5.85376C125.101 6.39199 125.301 6.52721 125.501 6.52721V6.62774H124.734ZM122.866 8.51197C120.3 8.51197 118.533 6.69535 118.533 4.27289C118.533 1.95186 120.296 0.00268555 122.764 0.00268555C125.298 0.00268555 126.996 1.95453 126.996 4.27289C127.001 6.66154 125.3 8.51197 122.866 8.51197Z" fill="#FEFEFE"/>
</g>
<defs>
<clipPath id="clip0_2045_70358">
<rect width="127" height="45" fill="white"/>
</clipPath>
</defs>
</svg>
