<svg width="1019" height="358" viewBox="0 0 1019 358" fill="none" xmlns="http://www.w3.org/2000/svg">
<g clip-path="url(#clip0_445_22)">
<path d="M389.509 4.86235C366.168 4.86235 352.127 22.9595 352.127 43.0807C352.127 64.3981 366.599 80.0818 389.913 80.0818C412.017 80.0818 425.682 64.3981 425.682 43.0807C425.696 21.3529 411.613 4.86235 389.509 4.86235ZM367.802 290.828C367.802 333.463 364.187 347.54 347.707 349.153L335.682 350.356V353.98H456.635V350.356L445.381 349.153C429.304 347.54 425.286 333.463 425.286 290.828V102.609L423.673 101.81C403.161 111.867 364.965 123.53 334.437 127.954V131.974L344.488 131.57C352.927 131.167 360.566 134.401 363.784 140.821C368.205 149.668 367.802 163.348 367.802 183.859V290.828ZM742.832 79.6713V291.231C742.832 333.866 738.815 347.54 722.737 349.153L710.713 350.356V353.98H828.871V350.356L819.626 349.153C803.549 347.143 800.331 333.463 800.331 290.828V171.778C813.996 156.497 830.038 148.422 853.79 148.422C883.936 148.422 901.627 168.947 901.627 211.971V291.238C901.627 333.873 897.206 347.547 882.331 349.16L871.48 350.364V353.987H989.653V350.364L979.206 349.16C963.128 347.15 959.104 333.47 959.104 290.835V198.729C959.104 136.787 926.142 112.652 883.54 112.652C846.554 112.652 817.214 140.807 800.331 162.124V3.25575L797.501 2.44893C776.989 12.506 740.024 24.1697 709.475 28.5931V32.6131L719.519 32.2097C727.561 31.8134 735.603 34.2268 738.815 40.6602C743.235 49.5283 742.832 59.1607 742.832 79.6713ZM34.9772 290.828C34.9772 333.463 30.5493 347.143 11.2606 349.153L0 350.356V353.98H129.037V350.356L117.777 349.153C98.884 347.143 93.6639 333.463 93.6639 290.828V11.6992H117.777C165.21 11.6992 192.944 44.6802 192.944 96.5652C192.944 154.884 149.132 176.604 114.565 176.604H110.937V180.221C120.585 181.835 131.838 199.528 143.474 218.029C159.954 244.173 180.863 279.971 198.143 308.125C219.044 342.316 237.534 353.98 279.74 353.98H322.349V350.356L315.113 349.153C289.791 345.126 265.671 300.482 243.567 266.297C224.675 236.933 194.528 191.488 182.872 174.191C222.694 156.894 258.06 129.95 258.06 82.0847C258.06 27.7863 209.821 1.64209 127.417 1.64209H0V5.26575L11.2606 6.46893C30.5493 8.47894 34.9772 22.1597 34.9772 64.7944V290.828ZM686.961 277.961C673.698 301.692 650.385 319.01 617.827 319.01C577.226 319.01 540.643 280.403 540.643 220.074C540.643 165.372 565.973 121.527 598.934 121.527C613.003 121.527 619.836 128.768 623.853 136.39C628.925 146.03 628.274 158.918 628.677 170.581C629.08 185.862 636.719 196.719 653.999 196.719C670.883 196.719 680.934 185.458 680.934 168.968C680.934 133.17 642.739 112.659 604.543 112.659C538.217 112.659 483.591 162.909 483.591 240.967C483.591 308.911 530.621 358.007 593.325 358.007C647.188 358.007 675.325 320.603 691.006 280.381L686.961 277.961Z" fill="#FEFEFE"/>
<path d="M985.034 3.75108C967.111 3.75108 955.327 17.3964 955.327 33.9931C955.327 51.9275 968.971 63.9662 985.819 63.9662C1002.67 63.9662 1014.71 51.9345 1014.71 33.9931C1014.73 17.3964 1002.69 3.75108 985.034 3.75108ZM1000.81 52.7272C996.571 52.7272 995.199 50.604 992.256 46.8388L986.102 38.544C984.766 36.6684 983.697 35.0618 982.361 35.0618V34.2621C989.314 34.2621 991.719 30.2492 991.719 24.6226C991.719 19.8099 989.314 16.5967 984.235 16.5967H981.024V44.9632C981.024 50.0519 981.024 51.9275 985.834 52.1893V52.9962H968.985V52.1893C973.802 51.9275 973.802 50.0661 973.802 44.9632V21.4165C973.802 16.5967 973.802 16.0588 969.254 15.528V14.7212H985.572C992.794 14.7212 1000.02 17.3964 1000.02 23.5539C1000.02 28.9044 995.998 31.5868 990.382 33.7242L990.919 32.9244L1000.82 46.5698C1003.76 50.8517 1005.37 51.9275 1006.98 51.9275V52.7272H1000.81ZM985.834 67.7173C965.243 67.7173 951.062 53.2651 951.062 33.9931C951.062 15.528 965.208 0.0212402 985.013 0.0212402C1005.34 0.0212402 1018.96 15.5492 1018.96 33.9931C1019.01 52.9962 1005.36 67.7173 985.834 67.7173Z" fill="#FEFEFE"/>
</g>
<defs>
<clipPath id="clip0_445_22">
<rect width="1019" height="358" fill="white"/>
</clipPath>
</defs>
</svg>
