<svg width="448" height="277" viewBox="0 0 448 277" fill="none" xmlns="http://www.w3.org/2000/svg">
<path d="M5.59145 142.612C6.03849 146.452 6.68143 150.267 7.51779 154.042C8.05982 156.403 9.24367 158.568 10.9393 160.301C12.635 162.034 14.7769 163.268 17.1298 163.867C23.5399 165.521 30.2743 165.457 36.652 163.683C45.8509 161.358 54.5971 157.522 62.5315 152.332C68.7236 148.361 74.9582 144.404 80.7378 139.895C86.5174 135.386 91.4867 130.339 96.8683 125.561C97.524 125.161 98.2379 124.864 98.9847 124.681C98.9143 125.56 99.1708 126.721 98.7024 127.26C96.1186 130.265 93.4922 133.227 90.6525 135.992C87.4862 139.068 84.2204 142.06 80.784 144.825C76.4529 148.298 72.0507 151.673 67.4494 154.75C59.7195 160.222 51.2943 164.644 42.3952 167.9C38.0193 169.456 33.4585 170.436 28.8283 170.814C25.1095 171.223 21.3493 171.039 17.6885 170.27C14.5176 169.588 11.5502 168.177 9.02278 166.15C6.49535 164.123 4.47772 161.535 3.13066 158.593C1.00265 153.784 -0.0251906 148.564 0.121698 143.31C-0.0147093 136.812 0.523429 130.317 1.72752 123.929C2.44953 120.274 3.541 116.689 4.56143 113.104C5.80844 108.471 6.81384 103.739 8.473 99.2466C10.7419 93.111 13.4372 87.1451 16.1041 81.1792C18.0334 76.8429 20.0194 72.5066 22.3182 68.4251C24.7939 63.9146 27.5084 59.5385 30.4502 55.3155C34.33 49.3942 38.7905 43.8721 43.7659 38.8306C49.5731 33.2733 55.7644 28.3107 63.4919 25.5994C67.4814 24.3228 71.7624 24.2636 75.7859 25.4294C79.8093 26.5951 83.3918 28.9327 86.0737 32.1422C91.5963 38.7349 95.0992 46.7731 96.1641 55.2968C96.6211 58.4131 96.9217 61.5578 97.4212 64.674C97.9415 68.5609 97.6394 72.5134 96.5344 76.2768C95.449 81.3365 93.2005 86.0759 89.9659 90.122C88.6172 91.6954 87.3682 93.4813 85.0809 93.837C81.8133 94.321 79.7801 92.4242 78.3291 89.9461C77.513 88.4026 76.9006 86.7602 76.5069 85.0601C74.0993 76.2504 75.3859 67.3955 76.4879 58.5975C77.2226 52.9305 78.5542 47.3763 79.829 41.8081C80.2645 40.4862 81.0087 39.2864 82.0004 38.3074C83.0083 37.1593 83.2207 36.1391 81.9981 35.1059C77.4484 30.9867 72.1901 29.2906 66.1385 30.9807C59.5764 32.9305 53.6799 36.645 49.0961 41.7167C40.4438 50.4771 33.1998 60.5169 27.6202 71.4812C25.6761 74.8967 23.8173 78.3971 22.1291 81.954C20.4408 85.5109 18.9516 89.1952 17.4481 92.8512C15.6043 97.3857 13.6894 101.906 12.073 106.526C11.3548 109.08 10.8014 111.679 10.4162 114.304C9.00023 121.119 7.58427 127.92 6.29622 134.763C5.989 137.349 5.85322 139.951 5.88977 142.555L5.59145 142.612ZM80.587 68.4968C80.5914 74.6308 79.7993 79.6321 81.6215 84.4614C82.077 85.6653 82.2202 87.1384 83.7691 87.4348C85.318 87.7312 86.0844 86.4982 86.8651 85.4635C87.0335 85.2314 87.1807 84.9848 87.305 84.7266C89.3142 81.4998 90.6232 77.8892 91.1479 74.1274C91.5289 70.4722 91.981 66.8312 92.3193 63.176C92.3457 62.2717 92.2592 61.3677 92.0616 60.4846C91.6991 57.8023 91.1753 55.1441 90.493 52.5243C89.2824 48.5303 87.7593 44.6498 86.222 40.7552C86.0512 40.2878 85.3122 40.0192 84.8004 39.6654C84.4142 40.0849 84.0979 40.5634 83.8637 41.0827C81.9646 50.1068 80.8681 59.2804 80.587 68.4968Z" fill="#FDFDFD"/>
<path d="M109.14 256.944C109.143 261.576 109.146 266.208 109.15 270.841C109.15 271.832 109.833 272.795 109.905 273.787C109.905 274.467 109.65 275.572 109.182 275.799C108.23 276.253 107.533 275.8 107.078 274.582C104.908 268.566 104.274 262.106 105.231 255.785C106.093 248.432 106.272 240.98 107.475 233.684C109.186 223.256 111.552 212.927 113.676 202.514C114.114 200.449 113.789 198.296 112.762 196.451C110.084 191.72 109.28 186.162 110.506 180.87C111.502 177.284 112.966 173.844 114.86 170.639C116.658 167.978 118.601 165.419 120.68 162.97C121.635 161.671 122.439 160.269 123.079 158.79C123.717 157.288 124.014 155.644 124.496 154.085C124.723 153.391 124.907 152.513 125.432 152.13C125.765 151.836 126.155 151.615 126.578 151.48C127.001 151.346 127.448 151.301 127.89 151.349C128.529 151.604 128.9 152.765 129.142 153.615C129.27 154.082 128.873 154.691 128.731 155.23C128.15 157.539 128.733 158.063 131.106 157.792C133.203 157.427 135.353 157.483 137.428 157.958C143.198 159.781 146.413 164.185 147.681 169.85C149.492 177.938 147.223 185.292 142.98 192.165C140.33 196.541 136.663 200.217 132.289 202.883C131.277 203.571 130.138 204.052 128.938 204.296C127.738 204.54 126.501 204.543 125.299 204.304C124.491 204.152 123.721 203.843 123.033 203.394C122.346 202.944 121.753 202.364 121.291 201.686C120.737 201.097 120.1 200.592 119.4 200.186C118.939 200.826 118.572 201.527 118.307 202.269C116.651 210.7 115.322 219.271 113.353 227.574C111.726 234.626 110.465 241.758 109.574 248.939C109.235 251.575 109.109 254.238 108.884 256.887L109.14 256.944ZM123.052 180.818L123.777 181.129C124.365 180.637 124.919 180.106 125.438 179.542C126.786 177.883 128.007 176.097 129.455 174.51C130.511 173.433 131.688 172.481 132.963 171.674C133.215 171.586 133.485 171.563 133.749 171.607C134.012 171.651 134.26 171.762 134.469 171.928C134.611 172.151 134.699 172.405 134.724 172.669C134.749 172.932 134.71 173.198 134.612 173.444C134.209 174.253 133.688 174.998 133.065 175.655C129.908 179.292 127.35 183.406 125.486 187.843C124.733 189.641 124.325 191.563 124.283 193.51C124.418 194.736 124.959 195.882 125.82 196.768C126.194 196.983 126.615 197.102 127.047 197.114C127.479 197.126 127.907 197.031 128.292 196.837C130.467 195.741 132.452 194.304 134.171 192.582C136.469 189.875 138.414 186.889 139.962 183.696C142.061 179.232 143.507 174.57 141.259 169.529C140.793 168.287 140.075 167.155 139.151 166.202C138.226 165.25 137.114 164.498 135.884 163.994C134.784 163.576 133.604 163.412 132.432 163.514C131.259 163.616 130.125 163.982 129.115 164.584C128.105 165.186 127.245 166.008 126.599 166.99C125.954 167.971 125.54 169.085 125.389 170.249C125.064 172.756 124.298 175.193 123.746 177.673C123.477 178.721 123.278 179.77 123.052 180.818ZM114.947 192.03L115.714 192.029C115.969 191.066 116.253 190.102 116.493 189.124C117.273 185.936 117.981 182.748 118.803 179.589C119.298 177.676 120.008 175.806 120.489 173.921C120.603 173.439 120.233 172.816 120.076 172.264C119.607 172.519 118.94 172.647 118.656 173.044C115.917 177.721 113.604 182.567 114.148 188.205C114.334 189.48 114.69 190.755 114.947 192.03Z" fill="#FDFDFD"/>
<path d="M163.754 95.665C163.902 90.816 165.372 86.0989 168.006 82.0198C169.539 79.6955 173.958 79.3948 175.622 81.5327C175.842 82.0357 175.912 82.5918 175.822 83.1334C175.823 84.9892 175.611 86.8309 175.641 88.6867C175.582 91.0762 174.823 93.3962 173.458 95.3606C173.143 96.1206 172.943 96.9227 172.863 97.7409C173.712 97.6551 174.539 97.4195 175.306 97.045C176.541 96.1359 177.64 95.0572 178.572 93.8411C181.666 89.674 184.675 85.422 187.627 81.085C188.086 80.3013 188.335 79.4133 188.35 78.5062C188.776 70.5731 190.593 62.7758 193.719 55.468C194.711 52.6444 196.332 50.0813 198.459 47.9707C199.439 47.1058 200.447 46.3827 201.811 46.9625C202.474 47.1712 203.051 47.5895 203.454 48.1541C203.856 48.7188 204.064 49.3989 204.044 50.0916C203.803 52.9025 203.329 55.6889 202.629 58.4224C200.809 64.899 198.402 71.1975 195.439 77.2404C194.95 78.3359 194.713 79.5267 194.746 80.7254C194.779 81.9241 195.081 83.1002 195.629 84.1675C196.269 85.5837 197.236 85.753 198.244 84.5482C202.582 79.2529 206.52 73.6437 210.024 67.7669C212.934 62.9483 213.655 57.6071 215.47 52.5342C216.716 49.3777 218.562 46.4905 220.905 44.0306C221.154 43.7308 221.473 43.4964 221.833 43.3479C222.194 43.1994 222.586 43.1413 222.974 43.1787C223.363 43.2162 223.736 43.3481 224.062 43.5628C224.387 43.7775 224.655 44.0685 224.841 44.4103C225.396 45.1385 225.721 46.014 225.778 46.9265C225.834 47.839 225.618 48.7477 225.158 49.5382C220.291 59.1039 218.295 69.3759 217.777 79.9585C217.637 82.636 217.781 85.2283 220.013 87.3092C220.567 87.8188 220.27 89.2498 220.37 90.2414C219.418 90.242 218.282 90.6395 217.529 90.2434C215.86 89.3154 214.446 87.9936 213.41 86.3939C212.373 84.7942 211.746 82.9654 211.583 81.0679C211.611 80.7852 211.611 80.5005 211.582 80.2179C211.312 79.3256 210.998 78.4334 210.685 77.5411C209.945 78.1664 209.291 78.8861 208.74 79.6816C206.479 83.8128 203.537 87.5357 200.038 90.695C197.071 93.5304 193.803 93.5327 191.286 90.2055C190.219 88.7896 189.125 88.9462 188.359 90.7034C186.472 95.1104 183.122 98.3427 179.842 101.547C178.249 102.991 176.412 104.144 174.417 104.95C173.083 105.584 171.564 105.716 170.141 105.321C168.718 104.926 167.485 104.032 166.671 102.803C165.038 100.748 164.026 98.2723 163.754 95.665Z" fill="#FDFDFD"/>
<path d="M426.617 107.164C420.778 107.168 415.591 105.585 411.737 100.998C409.058 98.0442 407.169 94.4645 406.245 90.5899C406.03 89.4245 405.559 88.3211 404.866 87.3589C404.172 86.3968 403.274 85.5998 402.234 85.0254C397.373 82.0964 394.582 74.222 396.425 68.8375C396.603 68.3876 396.875 67.9806 397.223 67.6433C397.57 67.306 397.986 67.0462 398.442 66.8811C399.138 66.7106 400.19 67.3757 400.872 67.9277C401.466 68.6065 402.013 69.3255 402.508 70.0798C402.943 70.4532 403.42 70.7761 403.929 71.0421C404.292 70.5746 404.579 70.0533 404.78 69.4973C405.276 66.6637 405.487 63.8303 406.195 61.1241C407.697 54.7482 409.213 48.3723 412.462 42.5618C413.186 41.2296 413.355 39.5862 414.15 38.3107C416.605 34.3849 419.16 30.5298 421.857 26.7597C422.741 25.726 423.822 24.8777 425.038 24.2641C425.803 23.7417 426.732 23.5125 427.654 23.6185C428.575 23.7246 429.427 24.1588 430.054 24.8414C431.454 26.445 432.536 28.3001 433.24 30.3072C435.533 37.9837 434.26 45.6486 432.632 53.257C432.306 54.6739 431.298 56.0063 430.844 57.5082C428.879 63.6643 425.759 69.3921 421.649 74.3868C419.061 77.4629 416.298 80.388 413.372 83.1475C412.622 83.749 412.081 84.5714 411.826 85.4975C411.572 86.4235 411.617 87.406 411.955 88.305C412.695 91.2592 413.916 94.0724 415.57 96.6322C416.522 97.9968 417.749 99.1476 419.174 100.01C420.599 100.873 422.19 101.429 423.843 101.641C427.153 102.003 430.496 101.934 433.789 101.436C437.563 100.686 441.295 99.7371 444.969 98.5944C445.949 98.3246 446.83 98.3098 447.299 99.3436C447.412 99.5618 447.476 99.802 447.486 100.047C447.496 100.293 447.453 100.537 447.358 100.764C447.264 100.991 447.12 101.194 446.939 101.36C446.757 101.526 446.541 101.65 446.306 101.724C440 104.463 433.679 107.131 426.617 107.164ZM429.894 39.4185C429.409 37.0531 428.966 34.4327 428.297 31.8691C427.941 30.4527 426.392 30.3121 425.583 31.6727C423.266 35.4109 421.153 39.2712 419.254 43.2369C417.609 46.8646 416.716 50.8318 415.185 54.5728C412.348 61.1763 411.457 68.1609 410.624 75.1738C410.554 75.7547 410.98 76.3777 411.165 76.9867C411.847 76.6887 412.771 76.5889 413.168 76.0787C417.114 70.9335 421.686 66.1562 424.211 60.1054C425.516 56.9878 427.347 54.0116 428.211 50.7952C429.011 47.042 429.573 43.2422 429.894 39.4185ZM404.857 76.9345C404.703 76.0257 404.42 75.1435 404.017 74.3144C403.647 73.8189 402.794 73.6636 402.155 73.3524C401.871 73.9618 401.332 74.5996 401.389 75.1662C401.537 75.9919 401.884 76.7694 402.399 77.4321C402.712 77.8711 403.494 78.4088 403.821 78.2953C404.147 78.1817 404.545 77.3739 404.857 76.9345Z" fill="#FDFDFD"/>
<path d="M334.712 119.908C335.361 113.802 336.052 107.158 336.744 100.513C336.998 98.1614 337.337 95.7954 337.406 93.4296C337.411 92.9796 337.322 92.5336 337.146 92.1193C336.969 91.7051 336.709 91.3315 336.382 91.0221C336.012 90.7532 334.734 91.349 334.109 91.8595C330.147 95.1206 327.65 99.5422 324.939 103.78C324.556 104.653 324.344 105.591 324.316 106.543C323.552 111.232 323.1 115.993 321.953 120.583C321.078 123.216 319.831 125.712 318.25 127.995C317.54 129.199 316.404 130.348 314.756 129.782C314.027 129.508 313.405 129.008 312.983 128.356C312.56 127.703 312.359 126.933 312.409 126.157C312.345 125.026 312.44 123.891 312.691 122.786C313.909 118.167 314.46 113.392 317.014 109.112C317.874 107.867 318.437 106.442 318.66 104.947C318.883 103.451 318.761 101.925 318.301 100.484C318.059 99.8607 317.618 98.9969 317.106 98.884C316.757 98.8658 316.408 98.9295 316.087 99.07C315.766 99.2104 315.483 99.4237 315.26 99.6928C311.838 103.564 309.404 108.202 308.165 113.212C306.863 119.291 305.46 125.355 304.143 131.433C303.775 133.148 303.62 134.918 303.195 136.605C302.925 137.812 302.445 138.963 301.777 140.005C301.526 140.347 301.2 140.626 300.823 140.821C300.445 141.015 300.028 141.12 299.604 141.126C299.17 140.984 298.773 140.749 298.439 140.439C298.105 140.129 297.843 139.75 297.67 139.328C297.371 138.232 297.341 137.081 297.582 135.971C298.927 129.085 300.173 122.171 301.83 115.37C302.694 111.871 304.155 108.555 304.465 104.885C304.564 103.823 305.672 102.83 306.424 101.881C307.176 100.931 307.971 100.265 308.738 99.4424C310.431 97.4058 312.242 95.4698 314.162 93.6445C316.632 91.532 319.361 91.9975 321.494 94.5034C321.593 94.6309 321.693 94.7725 321.807 94.8999C323.229 96.6696 323.925 96.4708 325.288 94.7132C327.545 91.7792 330.057 89.0433 332.513 86.2083C332.897 85.7689 333.593 85.6125 334.076 85.2155C337.299 82.6633 340.653 83.7942 342.318 87.8871C343.281 90.2366 343.673 92.7801 343.461 95.3094C342.585 103.3 341.27 111.22 340.181 119.182C339.885 121.364 339.772 123.574 339.618 125.77C339.619 126.846 339.62 128.305 338.369 128.363C337.838 128.298 337.33 128.105 336.892 127.799C336.453 127.493 336.096 127.084 335.853 126.608C335.313 124.405 334.931 122.166 334.712 119.908Z" fill="#FDFDFD"/>
<path d="M114.789 110.887C115.809 106.905 116.588 102.839 117.906 98.9563C119.179 94.5591 120.934 90.3153 123.14 86.3021C126.702 80.4063 129.767 74.171 135.717 70.1152C138.557 68.1441 140.546 68.0435 143.532 69.9821C144.854 70.8312 145.99 71.057 147.027 69.5688C147.182 69.2626 147.398 68.9909 147.661 68.7698C147.924 68.5487 148.229 68.3827 148.558 68.282C148.887 68.1812 149.233 68.1477 149.575 68.1834C149.917 68.2191 150.249 68.3232 150.55 68.4896C151.241 68.7953 151.79 69.3514 152.086 70.0455C152.382 70.7396 152.403 71.5198 152.144 72.2284C151.522 74.2768 150.725 76.268 149.761 78.1799C149.066 79.4102 148.84 80.8489 149.124 82.232C149.88 86.9729 149.513 91.8242 148.055 96.399C147.556 97.4633 146.71 98.3278 145.655 98.8515C145.084 99.1627 144.595 99.6054 144.23 100.143C143.864 100.68 143.633 101.297 143.555 101.941C143.159 104.846 142.593 107.764 142.481 110.683C142.644 112.099 143.043 113.477 143.663 114.762C143.663 114.96 143.933 115.116 144.062 115.314C144.73 116.376 145.242 117.551 144.178 118.558C143.113 119.564 142.032 118.984 141.066 118.319C140.107 117.707 139.287 116.902 138.658 115.956C138.028 115.01 137.603 113.944 137.41 112.825C137.168 111.409 137.01 109.992 136.725 108.576C136.543 108.142 136.299 107.736 136 107.372C135.576 107.598 135.184 107.88 134.835 108.209C132.521 110.973 130.307 113.879 127.922 116.529C127.01 117.467 125.95 118.247 124.783 118.841C120.65 121.167 116.372 119.144 115.516 114.442C115.302 113.28 115.316 112.076 115.215 110.9L114.789 110.887ZM142.784 77.7599C142.277 76.8293 141.646 75.972 140.907 75.2114C139.883 74.3621 138.733 75.0996 138.066 75.8934C135.456 78.6238 133.082 81.5683 130.968 84.6957C128.826 88.6568 126.931 92.7458 125.293 96.9394C124.202 99.4723 123.255 102.065 122.457 104.705C121.826 106.935 121.386 109.215 121.141 111.519C121.114 111.979 121.186 112.438 121.35 112.868C121.514 113.297 121.768 113.687 122.094 114.012C122.464 114.309 123.742 113.827 124.424 113.387C128.543 110.763 131.225 106.781 133.865 102.855C136.505 98.9288 138.605 95.1733 138.914 90.4415C139.174 88.945 139.612 87.4847 140.218 86.0915C140.998 83.4277 141.849 80.7922 142.784 77.7599Z" fill="#FDFDFD"/>
<path d="M288.109 100.208C287.316 103.623 286.693 107.094 285.687 110.424C284.269 115.171 282.582 119.875 280.724 124.481C279.306 127.981 277.518 131.311 275.815 134.67C275.407 135.314 275.137 136.036 275.023 136.789C274.908 137.543 274.952 138.312 275.151 139.047C275.72 140.931 275.025 141.527 272.993 141.556C272.604 141.569 272.221 141.661 271.87 141.827C271.518 141.993 271.204 142.229 270.947 142.521C267.694 147.23 263.923 151.562 259.704 155.435C258.417 156.62 256.938 157.579 255.33 158.271C252.29 159.69 248.38 156.689 248.491 152.935C248.618 150.629 249.095 148.355 249.907 146.191C250.533 144.66 251.379 143.227 252.419 141.939C253.839 139.941 255.913 140.124 256.938 142.333C257.235 143.238 257.478 144.161 257.664 145.095C257.922 145.769 258.222 146.426 258.561 147.063C259.269 146.797 259.927 146.414 260.507 145.929C262.04 144.128 263.431 142.201 264.879 140.259C264.879 140.259 264.879 140.16 264.978 140.131C267.733 137.82 267.49 135.483 265.91 132.368C263.605 127.808 263.957 122.764 265.417 117.947C266.306 114.672 267.537 111.499 269.09 108.481C272.056 103.11 275.178 97.7386 280.66 94.3065C281.414 93.7355 282.357 93.469 283.3 93.5602C284.243 93.6514 285.116 94.0937 285.747 94.7987C287.122 96.2858 287.954 98.1917 288.109 100.208ZM271.08 129.148L271.833 129.318C272.22 128.947 272.563 128.533 272.855 128.084C273.82 126.058 274.841 124.046 275.692 121.948C277.536 117.046 279.28 112.114 280.967 107.155C281.166 106.588 280.767 105.824 280.639 105.158C280.057 105.512 279.219 105.726 278.935 106.236C277.913 107.922 277.076 109.722 276.097 111.465C273.559 116.064 271.869 121.079 271.106 126.272C271.024 127.229 271.006 128.189 271.051 129.148L271.08 129.148Z" fill="#FDFDFD"/>
<path d="M277.45 37.3461C276.898 39.8256 276.303 42.6309 275.638 45.4221C274.286 51.0437 271.742 56.311 268.175 60.8687C265.012 65.1832 260.819 68.6431 255.977 70.9355C250.168 73.5604 244.51 69.782 244.25 62.9824C244.176 61.0039 244.473 59.0291 245.126 57.1595C246.795 52.1895 248.775 47.3289 251.055 42.6064C253.003 39.2337 255.275 36.0581 257.84 33.1244C258.724 32.1757 259.798 31.4221 260.993 30.9122C263.293 29.7068 265.665 28.6407 268.094 27.7197C268.896 27.4178 269.752 27.2848 270.608 27.3289C271.464 27.373 272.302 27.5934 273.068 27.9761C273.835 28.3588 274.513 28.8955 275.061 29.5526C275.609 30.2096 276.015 30.9727 276.253 31.7938C276.757 33.6204 277.157 35.4742 277.45 37.3461ZM269.821 38.4565C269.537 37.8192 269.38 36.9552 268.897 36.6297C268.588 36.5393 268.263 36.5257 267.948 36.5901C267.634 36.6546 267.34 36.7951 267.092 36.9993C262.826 40.7656 259.613 45.5709 257.767 50.9456C257.285 52.4617 256.889 53.8787 254.999 54.1775C254.807 54.2288 254.629 54.3231 254.479 54.4533C254.329 54.5835 254.21 54.7462 254.133 54.9289C253.333 57.1512 252.699 59.4291 252.234 61.7443C251.979 63.2886 253.258 63.996 254.736 63.2866C255.862 62.7536 256.916 62.0818 257.874 61.2869C261.285 58.462 264.098 54.9886 266.149 51.069C268.2 47.1493 269.449 42.8619 269.821 38.4565Z" fill="#FDFDFD"/>
<path d="M353.36 105.715C353.704 99.3395 354.83 93.0302 356.713 86.9279C357.692 83.8815 358.812 80.8633 360.046 77.9017C360.234 77.5202 360.514 77.191 360.861 76.9436C361.208 76.6962 361.611 76.5382 362.034 76.4836C362.475 76.5922 362.882 76.8044 363.224 77.1024C363.565 77.4003 363.83 77.7755 363.996 78.1964C364.245 79.3409 364.202 80.5294 363.871 81.653C363.162 84.4867 361.999 87.1367 361.518 89.9561C360.499 95.9208 359.808 101.942 359.002 107.935C358.918 108.494 358.918 109.062 359.003 109.621C359.36 111.448 360.866 112.042 362.073 110.681C365.012 107.35 368.277 104.188 368.473 99.2442C368.646 97.7258 369.042 96.2411 369.649 94.8377C371.435 89.7932 373.208 84.7204 375.165 79.7325C375.943 77.9139 376.924 76.1883 378.088 74.588C378.402 73.906 378.955 73.3613 379.642 73.0558C380.33 72.7503 381.105 72.7048 381.824 72.9279C383.629 73.5641 383.815 75.2073 383.56 76.7516C383.25 78.5202 382.775 80.2562 382.143 81.9374C380.484 86.486 378.512 90.9498 377.095 95.5832C375.592 100.542 374.53 105.657 373.354 110.73C372.858 112.848 373.168 115.074 374.226 116.976C374.628 117.787 374.875 118.667 374.952 119.568C375.11 121.183 374.002 121.949 372.566 121.157C371.453 120.569 370.49 119.736 369.75 118.72C369.01 117.703 368.514 116.532 368.3 115.295C368.2 114.856 368.299 114.388 368.142 113.949C367.786 112.533 366.876 112.222 365.812 113.228C364.747 114.235 363.767 115.355 362.688 116.361C360.445 118.445 358.043 118.178 356.109 115.842C353.748 113.024 353.604 109.455 353.36 105.715Z" fill="#FDFDFD"/>
<path d="M100.238 188.116C100.237 187.04 100.236 185.963 100.235 184.886C100.12 182.648 98.6698 181.36 96.6102 182.155C94.0954 183.121 91.7101 184.393 89.5087 185.942C83.4792 190.491 78.6147 196.397 75.3126 203.179C73.9789 205.715 73.7822 208.846 73.0312 211.68C71.4725 217.574 70.1981 223.553 67.6304 229.151C67.148 230.214 66.495 231.022 65.1877 230.853C64.6422 230.798 64.1357 230.546 63.7637 230.144C63.3917 229.742 63.18 229.219 63.1686 228.672C62.9829 227.613 62.9821 226.53 63.1663 225.471C64.7675 219.52 65.914 213.357 68.3396 207.759C70.0492 203.832 70.9821 199.613 71.0871 195.333C70.9984 193.209 70.6777 191.1 70.1306 189.044C69.7893 188.094 69.5226 187.118 69.3329 186.127C69.3323 185.418 69.8573 184.299 70.397 184.128C70.9368 183.958 72.4574 184.297 72.6709 184.793C73.427 186.767 74.0736 188.781 74.6076 190.826C74.8354 191.563 75.1201 192.242 75.3764 193.007C76.0045 192.595 76.569 192.093 77.0519 191.518C81.3558 184.667 87.6868 179.317 95.1708 176.206C100.199 174.12 103.853 177.05 104.908 181.866C106.09 187.052 105.718 192.471 103.839 197.449C102.421 201.36 101.458 205.455 100.31 209.479C100.31 209.691 100.196 209.918 100.111 210.117C99.6716 211.094 99.6585 212.723 98.1807 212.512C96.7029 212.301 96.7585 210.615 96.8855 209.453C97.4087 205.939 98.1451 202.454 98.7819 198.954C99.4188 195.455 100.041 191.87 100.678 188.314L100.238 188.116Z" fill="#FDFDFD"/>
<path d="M208.6 161.704C209.434 156.164 210.141 150.61 211.16 145.099C211.91 140.99 212.987 136.938 213.993 132.9C214.985 129.088 216.147 125.305 217.224 121.564C217.309 121.295 217.366 121.012 217.451 120.743C218.032 118.957 219.225 118.064 220.476 118.46C220.817 118.611 221.123 118.831 221.373 119.107C221.624 119.383 221.815 119.708 221.933 120.061C222.051 120.414 222.093 120.788 222.058 121.158C222.023 121.529 221.911 121.888 221.729 122.213C218.75 129.057 217.69 136.382 215.833 143.58C215.103 146.63 215.314 149.83 216.437 152.759C217.348 155.422 219.011 155.945 220.942 153.932C223.161 151.785 225.146 149.409 226.862 146.844C227.933 144.728 228.665 142.457 229.031 140.114C230.546 133.596 233.725 127.772 236.448 121.763C237.271 120.157 238.333 118.685 239.599 117.398C239.871 117.139 240.203 116.952 240.565 116.856C240.928 116.759 241.309 116.755 241.673 116.844C242.012 117.061 242.293 117.355 242.493 117.702C242.694 118.05 242.808 118.44 242.826 118.84C242.544 120.673 242.127 122.482 241.579 124.253C241.083 126.052 240.573 127.852 239.921 129.595C238.361 133.704 236.815 137.813 235.07 141.838C233.056 146.528 230.928 151.162 230.818 156.361C230.819 157.594 231.161 158.826 231.19 160.073C231.115 160.75 230.958 161.416 230.723 162.056C229.97 161.802 228.975 161.76 228.52 161.25C227.921 160.374 227.443 159.421 227.097 158.418C226.741 157.682 226.372 157.002 226.016 156.223L224.07 157.641C222.92 158.464 221.826 159.357 220.619 160.08C220.257 160.36 219.842 160.566 219.399 160.685C218.956 160.804 218.494 160.834 218.039 160.774C217.585 160.713 217.147 160.564 216.75 160.333C216.354 160.103 216.008 159.797 215.731 159.432C215.536 159.215 215.294 159.046 215.023 158.938C214.752 158.83 214.459 158.786 214.168 158.81C213.756 158.98 213.486 159.759 213.359 160.326C213.132 161.304 213.361 162.479 212.85 163.273C212.598 163.713 212.257 164.095 211.849 164.395C211.44 164.696 210.974 164.908 210.478 165.017C209.185 165.117 208.928 163.786 208.786 162.681C208.764 162.403 208.764 162.123 208.785 161.845L208.6 161.704Z" fill="#FDFDFD"/>
<path d="M317.998 33.2791C316.038 33.578 314.077 33.9053 312.117 34.1758C311.228 34.2897 310.326 34.1054 309.554 33.6519C308.782 33.1985 308.183 32.5017 307.852 31.6714C307.535 30.9288 307.505 30.0956 307.766 29.3319C308.028 28.5682 308.564 27.9278 309.27 27.5339C313.261 25.2927 317.295 23.0658 321.471 21.1928C328.752 17.9388 336.11 14.8453 343.544 11.9123C349.226 9.66996 355.05 7.7392 360.845 5.76595C365.618 4.14758 370.448 2.68499 375.249 1.13744C375.686 1.01709 376.096 0.814849 376.457 0.54157C377.436 -0.280774 378.175 -0.0121294 378.886 0.90817C379.598 1.82847 379.769 2.97582 378.718 3.74155C377.406 4.62807 376.019 5.39704 374.571 6.03944C367.923 9.07577 361.248 12.0413 354.586 15.0493L329.843 26.2725C327.116 27.5069 324.318 28.6281 321.647 29.9758C320.895 30.3588 320.498 31.3932 319.93 32.1445C319.362 32.8957 318.893 33.406 318.368 34.0439L317.998 33.2791Z" fill="#FDFDFD"/>
<path d="M163.45 166.779C164.2 162.982 165.106 158.151 166.154 153.362C166.634 151.321 167.25 149.314 167.997 147.354C168.354 146.054 168.961 144.837 169.785 143.768C170.179 143.397 170.643 143.108 171.15 142.918C171.657 142.728 172.198 142.641 172.739 142.661C173.99 142.746 174.545 144.006 174.489 145.21C174.397 146.151 174.178 147.076 173.837 147.959C173.171 149.858 172.248 151.7 171.752 153.627C170.072 159.458 169.31 165.513 169.492 171.577C169.564 172.767 169.821 174.481 170.617 174.99C172.038 175.882 172.932 174.195 173.656 173.246C175.899 170.269 177.985 167.194 180.129 164.132C180.348 163.8 180.515 163.437 180.625 163.055C181.703 159.456 182.851 155.857 183.814 152.216C184.792 148.793 186.341 145.559 188.397 142.65C188.842 141.924 189.437 141.3 190.143 140.822C190.995 140.325 192.245 139.658 192.984 139.955C193.906 140.55 194.566 141.471 194.833 142.532C194.984 143.416 194.866 144.324 194.494 145.139C193.955 146.556 193.217 147.903 192.55 149.277C191.245 152.012 189.826 154.719 188.649 157.525C187.313 160.517 186.19 163.6 185.288 166.749C184.986 168.626 184.987 170.539 185.292 172.416C185.393 173.691 185.905 174.951 186.006 176.24C186.106 177.529 185.098 178.167 184.159 177.417C183.269 176.536 182.512 175.529 181.912 174.43C181.457 173.779 181.059 173.014 180.646 172.377C179.91 172.813 179.241 173.353 178.658 173.979C176.87 176.53 175.337 179.279 172.44 180.797C170.153 182.017 168.576 181.919 166.969 179.965C165.799 178.594 164.945 176.985 164.465 175.25C163.947 172.45 163.608 169.621 163.45 166.779Z" fill="#FDFDFD"/>
</svg>
