<svg width="448" height="277" viewBox="0 0 448 277" fill="none" xmlns="http://www.w3.org/2000/svg">
<path d="M182.942 82.8495C181.947 84.1853 181.277 85.0001 180.707 85.8725C178.582 89.1099 176.67 92.6017 173.266 94.6762C170.219 96.5962 167.654 95.7115 166.212 92.4211C165.062 89.8239 164.748 89.8416 162.631 91.638C159.346 94.4135 156.029 97.1526 152.596 99.7811C147.873 103.382 143.147 107.053 138.197 110.347C131.264 115.074 123.87 119.092 116.128 122.34C109.504 125.228 102.438 126.979 95.2272 127.52C87.4028 127.915 80.3455 126.354 75.8763 119.098C73.2592 114.488 71.9907 109.24 72.215 103.949C72.1112 95.2773 73.3335 86.6412 75.8397 78.3378C77.2347 73.7761 78.4926 69.1723 80.2495 64.6822C82.2658 59.5808 84.6293 54.4982 87.0695 49.6106C89.5269 44.2913 92.2653 39.1055 95.273 34.0752C101.724 23.9158 108.966 14.2852 119.595 8.04953C127.131 3.6272 135.186 2.49764 142.709 8.04269C148.515 12.2615 152.418 18.5934 153.57 25.6631C154.069 28.2237 154.378 30.8175 154.494 33.4234C154.48 40.3952 152.249 47.1824 148.121 52.8084C147.922 53.0882 147.698 53.3494 147.452 53.5886C144.374 56.7226 142.281 56.141 140.936 52.005C139.2 46.7018 140.244 41.5482 141.779 36.3341C141.955 35.454 142.205 34.5902 142.527 33.7521C142.818 33.212 143.549 32.8866 144.077 32.4635C144.287 33.1 144.805 33.8225 144.655 34.3528C143.276 38.9327 143.598 43.6389 143.52 48.3235C143.641 49.0713 143.885 49.7942 144.241 50.4636C144.86 49.9586 145.716 49.5878 146.065 48.9293C148.773 43.6047 151.069 38.1537 150.619 31.9472C150.358 25.4047 147.868 19.1456 143.562 14.2014C138.469 8.49187 131.724 7.60802 124.955 10.4045C116.887 13.7041 111.173 19.8742 106.222 26.7627C102.129 32.4128 98.3746 38.2996 94.9792 44.3922C90.2099 53.0705 86.2239 62.1545 83.0682 71.5371C79.768 80.3657 77.689 89.6016 76.8884 98.9903C76.5912 104.514 76.7438 110.097 79.3265 115.185C80.145 116.807 81.3244 118.221 82.7747 119.32C84.225 120.418 85.9077 121.172 87.6944 121.522C93.9749 122.954 100.162 121.915 106.252 120.402C118.257 117.419 129.05 111.695 139.349 105.129C147.465 99.9567 155.163 94.1537 162.889 88.4566C163.948 87.4361 164.634 86.0912 164.836 84.6366C165.69 80.0979 165.703 75.3229 167.138 70.9891C169.349 64.5841 172.013 58.3438 175.11 52.3153C176.747 48.6556 179.676 45.7233 183.339 44.075C183.97 43.7377 184.663 43.5305 185.377 43.4658C186.09 43.4011 186.809 43.4802 187.492 43.6984C188.174 43.9165 188.805 44.2693 189.348 44.7358C189.89 45.2022 190.334 45.7728 190.651 46.4134C191.417 47.705 192.009 47.7021 193.05 46.8203C194.09 45.9385 194.908 44.6627 196.427 45.8733C197.039 46.3559 197.453 47.0445 197.592 47.8099C197.73 48.5752 197.583 49.3645 197.179 50.0295C195.526 53.6921 195.004 57.7627 195.679 61.7229C195.971 65.6501 195.817 69.5974 195.22 73.4898C195.055 74.6483 194.574 75.7395 193.831 76.6452C193.008 77.695 191.99 78.4912 190.514 77.1093C189.537 76.1711 188.929 76.7982 188.729 77.9163C188.109 79.7227 188.119 81.6854 188.759 83.4854C189.399 85.2854 190.631 86.8169 192.254 87.8309C192.796 88.3937 193.243 89.0392 193.58 89.743C192.72 90.4575 191.678 90.9209 190.57 91.0818C189.462 91.2428 188.331 91.0951 187.302 90.6551C186.273 90.2151 185.386 89.5 184.739 88.5887C184.092 87.6775 183.71 86.6056 183.636 85.4918C183.464 84.8052 183.307 84.1716 182.942 82.8495ZM169.993 83.9763L170.496 84.0034C170.351 85.2389 170.284 86.4823 170.296 87.7263C170.347 88.4063 170.695 89.3801 171.205 89.6159C171.554 89.6742 171.913 89.6497 172.252 89.5442C172.59 89.4387 172.899 89.2553 173.153 89.0088C177.277 85.1589 180.448 80.4075 182.417 75.1281C184.761 68.794 186.32 62.1572 188.682 55.8068C189.599 53.338 189.981 51.4135 188.103 49.4023C187.929 49.146 187.704 48.9285 187.441 48.7636C187.179 48.5986 186.885 48.4897 186.578 48.4438C186.271 48.398 185.958 48.416 185.658 48.497C185.359 48.5779 185.079 48.7199 184.838 48.914C182.243 50.5607 180.217 52.9609 179.034 55.7913C176.918 60.2881 175.082 64.9102 173.534 69.6314C171.973 74.3578 171.085 79.2073 169.993 83.9763Z" fill="#FDFDFD"/>
<path d="M79.1067 190.836C75.3966 195.047 71.7978 199.456 67.7881 203.408C65.0718 206.059 62.0212 208.347 58.7131 210.213C54.4563 212.607 50.5255 210.884 48.5921 206.352C47.2994 202.674 46.9136 198.74 47.4675 194.882C47.5755 192.873 47.9267 190.878 48.0339 188.886C48.0627 188.35 47.8131 187.485 47.4394 187.309C47.1494 187.266 46.8533 187.292 46.5756 187.386C46.298 187.48 46.0467 187.638 45.8428 187.848C43.0404 190.434 41.2024 193.893 40.6297 197.657C39.8294 204.439 38.1635 211.122 36.8103 217.822C36.3079 220.333 35.622 222.803 34.7579 225.214C34.5113 225.913 33.1538 226.864 32.7444 226.703C31.8316 226.247 31.1312 225.457 30.7904 224.497C30.5268 223.42 30.5098 222.297 30.7407 221.212C31.5943 215.058 32.4141 208.885 33.4752 202.76C34.0935 199.992 34.8743 197.262 35.8136 194.585C37.7781 188.178 37.558 181.585 37.4422 174.997C37.3409 173.474 37.4232 171.945 37.6872 170.443C37.8699 169.636 38.845 168.994 39.546 168.268C40.0434 169.059 40.9092 169.8 40.987 170.62C41.361 174.999 41.5285 179.332 41.7937 183.792C41.916 184.224 42.0863 184.641 42.3016 185.035C43.1434 184.282 43.8369 183.694 44.5149 183.071C48.0822 179.893 50.9612 180.448 52.6936 184.83C53.2144 186.257 53.4754 187.765 53.4643 189.283C53.4761 192.948 53.2439 196.617 53.2027 200.296C53.1431 204.964 54.9654 206.382 59.1223 204.227C62.6887 202.244 66.0186 199.866 69.0486 197.137C72.3927 194.226 75.3076 190.875 78.4215 187.708L81.2446 184.769L83.0543 187.714C83.5945 186.499 84.0238 185.237 84.337 183.945C85.1438 177.042 85.8638 170.135 86.6011 163.228C86.6235 162.812 86.5472 162.287 86.7715 162.004C87.3401 161.363 87.9545 160.763 88.6098 160.21C89.0076 160.909 89.8223 161.63 89.7522 162.286C89.2289 168.127 88.5493 173.961 87.9227 179.779C87.8743 180.193 87.8519 180.609 87.8556 181.026C87.7522 182.948 88.2246 183.234 90.0224 182.515C93.1601 181.153 96.5937 180.608 100.001 180.933C107.945 181.864 111.968 187.394 109.967 195.119C109.223 198.117 107.759 200.89 105.702 203.199C103.645 205.509 101.057 207.285 98.1586 208.376C95.2907 209.559 92.3342 209.799 89.7376 207.558C87.141 205.317 87.1902 201.812 88.0024 198.695C89.176 194.613 91.3786 190.9 94.4002 187.908C94.9881 187.201 95.5232 186.452 96.0013 185.667L95.5514 184.965C93.5953 185.711 91.6894 186.494 89.7042 187.134C87.0835 187.931 87.1811 190.003 86.8773 192.088C85.7479 199.483 84.5442 206.856 83.2662 214.209C82.7871 216.962 82.6567 219.386 85.3423 221.267C86.0814 221.952 86.6344 222.812 86.9496 223.767C87.0891 224.087 86.7008 224.831 86.3376 225.106C85.9744 225.382 85.4171 225.057 85.0856 224.744C82.1919 222.521 82.2102 222.505 81.532 226.046C79.5817 237.368 77.5117 248.649 75.7516 259.998C75.3962 263.696 75.2661 267.412 75.3619 271.126C75.3178 271.763 75.2372 272.396 75.1205 273.024C74.2956 272.701 73.598 272.121 73.1327 271.369C72.6674 270.617 72.4595 269.735 72.5404 268.856C72.6408 262.84 73.1673 256.839 74.1162 250.897C75.6793 241.916 76.8293 232.844 78.0816 223.811C78.3661 221.76 79.6059 219.76 78.2241 217.602C77.4946 216.36 76.9055 215.041 76.4674 213.669C74.7499 208.879 74.5613 203.676 75.9276 198.775C76.7636 196.43 77.8005 194.162 79.0269 191.995C79.2028 191.64 79.3439 191.283 79.5015 190.944L79.1067 190.836ZM91.1684 200.064C91.3075 202.659 92.6909 204.14 94.6175 203.618C96.7439 203.102 98.7467 202.171 100.511 200.881C102.275 199.59 103.766 197.964 104.898 196.096C107.779 191.441 106.553 187.676 101.781 185.717C100.64 185.239 99.6364 185.116 98.8747 186.325C96.9805 189.158 95.09 191.922 93.4873 194.84C92.6163 196.536 91.8421 198.28 91.1684 200.064ZM82.9392 193.091C78.3666 196.822 76.6045 209.179 80.1041 213.413C80.8213 206.558 82.5036 199.893 82.9392 193.091Z" fill="#FDFDFD"/>
<path d="M257.209 56.3674C255.697 58.5611 254.269 60.8287 252.64 62.9292C251.65 64.1751 250.495 65.2814 249.206 66.2176C245.8 68.674 242.026 67.2727 240.817 63.1961C240.638 62.6308 240.513 62.051 240.209 60.9058L238.75 62.755C235.165 67.2336 231.83 71.934 227.915 76.0649C225.805 78.0417 223.279 79.5253 220.522 80.4081C215.705 82.2155 210.538 78.2211 209.361 73.2259C208.319 68.0468 209.229 62.6671 211.915 58.1159C212.301 57.5424 212.804 57.0565 213.391 56.6901C213.978 56.3237 214.636 56.085 215.322 55.9895C216.882 55.8129 217.223 57.5505 217.869 58.8183C219.441 61.9766 218.668 65.0261 217.822 68.1239C217.433 69.527 217.01 70.9109 216.689 72.3351C216.369 73.7592 217.025 74.5065 218.577 74.4858C221.714 74.4462 223.907 72.5323 225.96 70.6283C231.23 65.5057 235.662 59.5914 239.096 53.1006C239.672 51.8399 240.1 50.5167 240.37 49.1576C241.848 44.0273 242.972 38.6696 244.862 33.6483C247.338 27.1303 250.257 20.7924 253.293 14.5303C254.727 12.009 256.413 9.63857 258.325 7.4552C259.111 6.43817 260.5 5.54042 261.541 6.58629C262.034 7.07287 262.419 7.6578 262.669 8.30275C262.92 8.9477 263.031 9.63809 262.995 10.3287C262.132 13.5827 261.064 16.7792 259.798 19.8991C258.797 22.6238 257.764 25.3294 256.525 27.9545C253.531 34.3926 250.3 40.7136 247.425 47.2101C245.537 50.9267 244.825 55.1272 245.383 59.2565C245.859 61.7481 246.968 62.1725 248.622 60.247C251.241 57.5027 253.579 54.5044 255.6 51.2968C258.554 46.246 261.112 40.7917 263.563 35.3838C265.816 30.4167 267.595 25.1811 269.794 20.2458C271.886 15.6869 274.369 11.288 276.717 6.8296C277.398 5.32328 278.252 3.90071 279.261 2.59027C279.912 1.82644 281.161 1.59842 282.161 1.13127C282.541 2.17627 283.436 3.33586 283.215 4.20963C282.478 6.73219 281.536 9.19056 280.399 11.5603C277.559 17.7114 274.518 23.7301 271.763 29.9379C269.891 34.3002 268.769 38.9807 266.983 43.3651C264.677 48.7911 263.15 54.5142 262.445 60.3655C262.221 64.0005 262.188 67.6448 262.346 71.2834C262.457 72.0353 262.526 72.7927 262.554 73.5522C262.378 74.1615 262.093 74.7343 261.714 75.2436C261.214 74.8347 260.463 74.5511 260.247 74.0359C258.179 69.4036 257.303 64.3308 257.696 59.2764C257.75 58.2894 257.698 57.2968 257.699 56.307L257.209 56.3674Z" fill="#FDFDFD"/>
<path d="M426.029 126.805C414.541 126.343 406.723 124.029 400.925 117.188C398.823 114.458 397.308 111.326 396.473 107.987C394.992 103.149 396.067 98.0669 394.336 93.3197C394.054 92.104 393.986 90.8487 394.135 89.6099C394.11 88.5267 394.408 87.4605 394.99 86.546C395.572 85.6315 396.414 84.9097 397.408 84.4719C398.291 83.9996 399.028 83.2944 399.538 82.4331C402.289 77.9097 404.621 73.0858 407.708 68.8062C410.838 64.2856 414.924 60.5042 419.678 57.7281C421.322 56.7228 423.128 56.0091 425.017 55.6188C426.925 55.3287 428.874 55.7587 430.482 56.8247C432.09 57.8907 433.241 59.5161 433.712 61.3832C435.354 66.9003 435.214 72.7921 433.311 78.2241C430.265 87.867 423.951 96.1529 415.451 101.663C411.675 104.186 407.629 106.208 402.764 105.026C401.388 104.692 401.168 105.548 401.529 106.61C404.133 114.217 409.498 118.743 417.162 121.014C423.47 122.899 429.895 122.932 436.334 123.035C437.498 123.097 438.661 122.518 439.843 122.564C440.711 122.61 442.188 123.003 442.301 123.495C442.599 124.761 441.605 125.42 440.294 125.523L426.029 126.805ZM430.123 68.8312C430.076 67.3822 429.945 65.9371 429.729 64.5032C429.216 61.7491 427.017 60.5194 424.641 61.9545C416.644 66.53 410.27 73.4687 406.399 81.8124C403.821 86.1529 402.081 90.9362 401.268 95.9155C401.269 96.4265 401.383 96.9312 401.602 97.3933C401.821 97.8554 402.14 98.2635 402.535 98.5885C405.047 100.46 407.719 99.3537 409.998 98.1217C421.222 91.8313 428.79 82.9302 430.123 68.8312Z" fill="#FDFDFD"/>
<path d="M247.013 112.832C246.553 117.951 244.828 122.876 241.992 127.167C234.58 139.654 224.098 149.301 212.903 158.267C211.702 159.227 211.256 160.072 212.012 161.571C214.559 166.675 213.144 170.958 208.151 174.075C205.376 175.802 202.406 176.614 199.499 174.964C196.592 173.315 195.253 170.047 195.2 166.484C195.205 157.926 197.535 149.53 201.942 142.187C204.99 136.304 208.344 130.584 211.991 125.049C217.816 116.818 223.981 108.728 233.218 103.772C236.281 102.2 239.517 101.297 242.723 103.224C244.263 104.269 245.481 105.722 246.239 107.42C246.997 109.117 247.265 110.991 247.013 112.832ZM201.479 153.711C202.181 154.582 204.413 154.528 202.918 156.428C202.563 156.86 202.594 157.591 202.442 158.139C203.078 158.251 203.726 158.286 204.37 158.242C205.054 158.115 205.7 157.835 206.26 157.424C210.282 154.745 214.133 151.821 217.792 148.666C223.569 143.21 229.053 137.453 234.221 131.42C236.98 127.715 239.412 123.778 241.491 119.655C243.125 116.966 243.718 113.774 243.158 110.68C243.102 110 242.877 109.344 242.504 108.771C242.132 108.199 241.623 107.727 241.022 107.399C240.422 107.071 239.75 106.896 239.065 106.89C238.381 106.885 237.706 107.048 237.101 107.367C234.933 108.264 232.883 109.419 230.993 110.807C222.947 116.956 217.295 125.196 211.849 133.516C209.249 137.492 206.951 141.675 204.739 145.88C203.418 148.414 202.542 151.111 201.479 153.711ZM201.744 169.181C201.672 168.221 201.655 167.257 201.69 166.295C201.853 165.717 202.046 165.148 202.269 164.59C202.363 164.286 202.389 163.966 202.344 163.652C202.3 163.338 202.188 163.037 202.014 162.771C201.841 162.505 201.611 162.28 201.341 162.113C201.071 161.945 200.767 161.838 200.451 161.8C198.729 161.43 198.826 162.876 198.898 163.8C199.025 165.904 199.35 167.992 199.869 170.035C200.094 170.75 200.588 171.35 201.248 171.709C201.907 172.069 202.681 172.159 203.406 171.962C204.686 171.774 205.898 171.269 206.932 170.494C207.965 169.718 208.787 168.696 209.323 167.522C209.684 166.725 209.731 165.821 209.453 164.991C209.174 164.162 208.592 163.467 207.822 163.048C206.661 162.603 205.38 163.75 204.802 165.751C204.666 166.55 204.307 167.296 203.766 167.903C203.225 168.509 202.525 168.952 201.744 169.181Z" fill="#FDFDFD"/>
<path d="M178.94 160.833C178.163 160.803 177.384 160.848 176.616 160.968C175.579 161.225 174.496 161.231 173.456 160.987C172.416 160.743 171.449 160.256 170.635 159.565C169.821 158.875 169.184 158.002 168.776 157.017C168.367 156.033 168.2 154.966 168.287 153.904C168.495 150.373 169.503 146.936 171.235 143.85C172.967 140.764 175.377 138.11 178.286 136.086C182.574 133.104 186.529 135.678 187.773 140.07C188.87 144.011 188.898 148.171 187.856 152.126C186.619 157.017 185.01 161.807 183.044 166.455C182.486 167.873 181.753 169.216 180.861 170.453C178.612 173.406 180.021 176.034 181.374 178.712C181.596 179.123 182.009 179.545 182.004 179.962C181.958 180.478 181.714 180.956 181.323 181.297C181.14 181.443 180.426 181.127 180.128 180.833C179.561 180.231 179.054 179.576 178.614 178.876C177.485 177.2 176.96 177.242 175.603 178.836C173.273 181.663 170.976 184.543 168.416 187.132C166.725 188.87 164.798 190.362 162.69 191.565C158.721 193.8 155.178 191.352 155.441 186.781C155.566 185.463 156.086 184.213 156.933 183.194C157.78 182.174 158.915 181.432 160.19 181.063C160.745 181.072 161.289 181.214 161.778 181.476C162.267 181.738 162.686 182.112 163 182.569C164.088 184.364 165.015 183.962 166.005 182.73C168.633 179.52 171.015 176.053 173.806 173.06C177.057 169.606 176.818 164.991 178.94 160.833ZM184.41 146.575C184.287 145.613 184.201 144.306 183.936 143.076C183.398 140.459 181.889 140.013 179.778 141.689C176.137 144.619 174.295 148.757 172.711 152.944C172.505 153.497 172.453 154.096 172.56 154.677C172.667 155.257 172.929 155.798 173.319 156.243C173.709 156.687 174.212 157.018 174.776 157.201C175.339 157.384 175.941 157.412 176.518 157.282C181.343 156.638 183.2 154.81 183.874 150.054C183.915 148.979 184.179 147.951 184.41 146.575Z" fill="#FDFDFD"/>
<path d="M326.393 125.629C325.258 126.332 324.591 126.748 323.997 127.098C322.004 128.207 320.105 129.511 317.578 128.889C316.324 128.578 315.549 129.37 315.401 130.508C314.937 133.957 313.145 137.16 313.991 140.852C314.077 141.135 314.093 141.434 314.038 141.725C313.982 142.015 313.858 142.288 313.674 142.52C313.491 142.752 313.254 142.937 312.984 143.058C312.714 143.18 312.418 143.234 312.122 143.217C311.636 143.191 310.75 141.841 310.804 141.167C311.167 137.019 310.781 132.865 312.552 128.757C314.538 124.21 315.348 119.2 316.891 114.473C318.208 110.393 319.799 106.398 321.355 102.4C321.519 101.94 322.212 101.682 322.667 101.325C323.022 101.848 323.724 102.389 323.681 102.873C323.567 104.871 323.233 106.851 322.684 108.776C321.204 113.298 319.416 117.717 317.885 122.219C317.775 122.628 317.759 123.055 317.836 123.471C317.913 123.887 318.082 124.28 318.33 124.622C318.663 124.822 319.034 124.949 319.419 124.993C319.804 125.038 320.194 125 320.563 124.882C325.745 123.424 328.329 119.76 329.183 114.561C329.536 112.73 330.16 110.961 331.033 109.312C332.713 105.929 334.48 102.551 336.482 99.3242C337.322 97.9627 338.567 96.1889 340.617 96.9244C342.668 97.6599 342.204 99.8057 342.299 101.6C342.368 107.768 339.332 112.728 335.452 116.861C332.218 120.316 331.974 124.193 331.7 128.311C331.645 129.42 331.72 130.531 331.923 131.623C331.929 132.186 332.092 132.735 332.392 133.212C332.692 133.688 333.119 134.073 333.624 134.323C334.13 134.573 334.695 134.679 335.257 134.629C335.819 134.579 336.356 134.375 336.809 134.039C339.68 132.162 342.342 129.943 345.133 127.923C345.693 127.672 346.29 127.51 346.9 127.445C346.867 128.068 347.22 128.955 346.905 129.303C344.34 132.468 341.514 135.412 338.454 138.105C333.872 141.696 329.209 139.986 327.489 134.389C327.002 132.256 326.711 130.084 326.619 127.899C326.476 127.318 326.455 126.744 326.393 125.629ZM339.598 104.215L339.07 103.996C336.6 106.207 335.956 107.805 336.986 110.361C337.893 108.066 338.711 106.13 339.598 104.215Z" fill="#FDFDFD"/>
<path d="M293.147 154.041C290.836 154.036 288.569 153.399 286.595 152.2C284.62 151.001 283.013 149.285 281.948 147.239C280.843 145.443 280.223 145.305 278.774 146.981C277.902 147.976 276.887 149.693 275.486 148.541C274.085 147.389 274.958 145.716 276.176 144.775C279.663 142.114 280.009 138.278 280.655 134.37C282.18 125.738 286.309 117.776 292.49 111.545C293.225 110.802 294.05 110.152 294.946 109.611C295.649 109.121 296.47 108.825 297.326 108.754C298.181 108.682 299.04 108.837 299.816 109.204C300.592 109.57 301.257 110.134 301.744 110.839C302.231 111.544 302.523 112.364 302.589 113.218C302.941 115.32 302.848 117.473 302.317 119.538C301.786 121.602 300.829 123.534 299.506 125.208C295.505 130.289 291.166 135.179 286.883 140.002C286.287 140.475 285.894 141.158 285.785 141.911C285.677 142.664 285.861 143.429 286.3 144.052C288.587 147.839 291.683 150.176 296.36 149.681C297.166 149.603 297.92 149.175 298.726 149.096C299.533 149.079 300.34 149.122 301.14 149.226C300.768 149.988 300.605 151.073 299.993 151.44C297.516 152.8 294.936 154.137 293.147 154.041ZM286.223 134.791C286.812 134.528 287.111 134.474 287.259 134.309C290.161 130.887 293.242 127.684 295.829 123.951C297.117 121.781 298.077 119.434 298.677 116.984C298.903 116.336 298.291 115.418 298.056 114.606C297.268 114.932 296.529 115.366 295.862 115.895C291.441 120.693 288.894 126.582 286.383 132.473C286.223 133.205 286.171 133.957 286.228 134.705L286.223 134.791Z" fill="#FDFDFD"/>
<path d="M354.713 112.704C355.887 109.016 357.067 104.877 358.538 100.858C359.663 97.7579 361.129 94.7804 362.512 91.7462C362.715 91.3027 362.972 90.885 363.275 90.5022C363.985 89.6026 364.68 88.3549 366.117 89.1616C367.554 89.9683 366.706 91.1556 366.299 92.2452C363.58 99.41 360.551 106.489 359.736 114.207C359.648 114.78 359.617 115.36 359.642 115.939C359.718 117.124 359.392 118.965 360.999 118.895C361.69 118.791 362.346 118.524 362.913 118.117C363.481 117.709 363.942 117.173 364.26 116.552C365.934 111.658 367.113 106.581 368.667 101.646C369.506 99.0931 370.519 96.6004 371.699 94.1855C373.017 91.3736 374.453 88.6376 375.974 85.9408C376.687 84.6767 377.759 83.2062 379.428 84.2337C380.129 84.6978 380.629 85.4088 380.827 86.2245C381.026 87.0401 380.908 87.9003 380.497 88.6328C378.772 93.5067 377.304 98.4638 375.612 103.357C374.95 105.301 373.929 107.122 373.165 109.025C371.872 111.682 370.825 114.451 370.037 117.297C369.241 121.092 367.884 124.944 369.253 128.96C369.416 129.489 368.818 130.256 368.573 130.92C367.996 130.629 367.169 130.463 366.881 129.996C365.856 128.137 364.976 126.203 364.249 124.21C363.795 122.918 363.491 122.433 362.11 123.175C361.498 123.539 360.805 123.747 360.092 123.779C359.38 123.811 358.671 123.666 358.028 123.358C357.386 123.05 356.83 122.588 356.41 122.013C355.99 121.438 355.72 120.769 355.623 120.064C355.172 117.765 355.052 115.466 354.713 112.704Z" fill="#FDFDFD"/>
<path d="M308.742 30.2426C307.309 39.7168 305.014 47.4081 298.711 53.1992C297.862 54.0254 296.891 54.7169 295.831 55.2497C290.753 57.703 287.709 54.3959 286.693 50.6076C285.812 46.9255 286.173 43.0566 287.721 39.6007C289.885 34.3823 292.357 29.2963 295.124 24.3695C296.332 22.5165 297.925 20.944 299.796 19.7584C300.424 19.2155 301.187 18.8506 302.004 18.7018C302.822 18.5531 303.665 18.6259 304.445 18.9127C305.225 19.1995 305.913 19.6897 306.439 20.3323C306.964 20.9749 307.307 21.7461 307.431 22.5657C308.018 25.097 308.456 27.6603 308.742 30.2426ZM293.299 39.5187C292.772 42.0681 292.389 44.6449 292.152 47.237C292.036 49.4015 293.075 49.8222 294.855 48.7891C296.979 47.3538 298.693 45.3936 299.829 43.1002C302.537 38.3114 303.623 32.7789 302.925 27.3247C302.946 26.9264 301.436 26.1852 301.238 26.3135C300.218 27.0735 299.404 28.0739 298.869 29.2251C297.878 32.4193 297.247 35.737 296.428 38.9751C295.993 40.6014 295.325 41.6769 293.264 39.5168L293.299 39.5187Z" fill="#FDFDFD"/>
<path d="M259.297 132.162C256.831 134.929 254.149 137.529 251.884 140.446C246.843 147.488 243.008 155.316 240.536 163.61C239.854 165.997 239.03 168.342 238.068 170.632C237.634 171.581 236.349 172.137 235.456 172.888C234.962 171.698 233.85 170.353 234.062 169.339C235.583 162.753 237.106 156.131 240.476 150.148C243.001 145.63 245.205 140.92 248.168 136.669C251.101 132.015 255.101 128.123 259.839 125.314C263.861 123.082 266.63 124.707 266.748 129.315C266.766 130.077 266.643 130.836 266.384 131.553C264.565 136.544 262.627 141.493 260.826 146.484C259.905 149.022 259.261 151.61 258.373 154.184C258.13 154.831 257.408 155.296 256.908 155.842C256.544 155.163 255.918 154.504 255.885 153.825C255.49 147.166 256.831 140.519 259.779 134.532C260.003 133.942 260.147 133.325 260.209 132.697L259.297 132.162Z" fill="#FDFDFD"/>
<path d="M339.521 29.867C336.829 29.7222 335.463 27.5995 336.582 25.9057C337.53 24.3946 338.88 23.175 340.481 22.3818C348.637 18.7395 356.825 15.1511 365.15 11.9174C374.457 8.26644 384.095 5.51667 393.931 3.70606C395.496 3.42559 397.099 3.40763 398.679 3.18004C399.607 3.07819 400.519 2.8649 401.396 2.54475C402.517 2.10145 403.258 2.24549 403.719 3.39906C404.179 4.55263 403.825 5.29773 402.594 5.52669C391.225 7.69364 380.966 12.8898 370.374 17.1304C361.472 20.7151 352.564 24.4211 343.658 28.0924C342.021 28.7338 340.467 29.449 339.521 29.867Z" fill="#FDFDFD"/>
<path d="M145.598 172.238C144.156 183.5 139.351 191.213 129.878 195.705C125.016 198.031 122.219 195.293 120.434 191.567C119.933 190.515 120.32 188.834 118.302 188.778C117.877 187.841 117.728 186.803 117.871 185.785C119.112 180.236 121.474 174.998 124.813 170.39C126.274 168.489 127.468 166.365 128.946 164.465C129.897 163.377 130.967 162.398 132.134 161.545C132.462 161.285 133.272 161.12 133.471 161.305C134.946 162.704 136.613 161.821 138.211 161.907C139.511 161.983 140.761 162.432 141.81 163.2C142.86 163.969 143.664 165.023 144.126 166.237C144.823 168.181 145.316 170.192 145.598 172.238ZM141.458 174.724C141.75 169.287 139.182 164.894 134.049 168.039C133.455 168.389 132.813 168.667 132.256 169.002C127.699 171.466 126.473 176.124 125.089 180.477C124.28 183.314 123.933 186.262 124.062 189.209C124.102 192.025 125.908 193.094 128.481 191.896C131.932 190.373 134.936 187.996 137.207 184.991C139.478 181.986 140.941 178.452 141.458 174.724Z" fill="#FDFDFD"/>
<path d="M82.94 193.092C82.5674 200.019 80.8193 206.611 80.1049 213.414C76.6081 209.128 78.3702 196.771 82.94 193.092Z" fill="white"/>
</svg>
