<svg width="449" height="277" viewBox="0 0 449 277" fill="none" xmlns="http://www.w3.org/2000/svg">
<path d="M6.46742 142.946C6.91447 146.787 7.5574 150.602 8.39376 154.377C8.9358 156.737 10.1196 158.903 11.8153 160.636C13.5109 162.369 15.6528 163.603 18.0057 164.202C24.4158 165.855 31.1503 165.792 37.5279 164.018C46.7268 161.693 55.4731 157.856 63.4075 152.666C69.5995 148.695 75.8342 144.738 81.6138 140.229C87.3934 135.72 92.3627 130.674 97.7442 125.896C98.4 125.495 99.1139 125.199 99.8606 125.016C99.7902 125.894 100.047 127.056 99.5783 127.594C96.9946 130.599 94.3681 133.562 91.5284 136.326C88.3622 139.403 85.0964 142.394 81.6599 145.159C77.3289 148.633 72.9267 152.008 68.3254 155.085C60.5955 160.556 52.1703 164.978 43.2712 168.235C38.8953 169.791 34.3345 170.77 29.7042 171.149C25.9855 171.557 22.2253 171.373 18.5645 170.604C15.3936 169.923 12.4262 168.512 9.89875 166.485C7.37133 164.457 5.3537 161.87 4.00664 158.928C1.87863 154.119 0.850786 148.898 0.997675 143.644C0.861267 137.146 1.39941 130.651 2.6035 124.264C3.3255 120.608 4.41697 117.023 5.4374 113.439C6.68441 108.805 7.68982 104.073 9.34898 99.5812C11.6179 93.4456 14.3132 87.4797 16.9801 81.5138C18.9093 77.1775 20.8954 72.8412 23.1942 68.7597C25.6698 64.2491 28.3843 59.8731 31.3262 55.6501C35.206 49.7288 39.6664 44.2066 44.6419 39.1652C50.4491 33.6078 56.6404 28.6452 64.3678 25.934C68.3573 24.6574 72.6384 24.5982 76.6618 25.764C80.6853 26.9297 84.2678 29.2672 86.9497 32.4768C92.4723 39.0695 95.9751 47.1076 97.0401 55.6314C97.497 58.7477 97.7977 61.8924 98.2972 65.0086C98.8175 68.8955 98.5154 72.848 97.4104 76.6114C96.3249 81.671 94.0765 86.4105 90.8419 90.4566C89.4932 92.03 88.2442 93.8158 85.9569 94.1716C82.6893 94.6556 80.6561 92.7588 79.2051 90.2807C78.389 88.7371 77.7765 87.0948 77.3829 85.3946C74.9753 76.5849 76.2619 67.7301 77.3639 58.9321C78.0986 53.265 79.4302 47.7109 80.705 42.1426C81.1404 40.8208 81.8847 39.6209 82.8763 38.642C83.8843 37.4938 84.0967 36.4737 82.874 35.4404C78.3244 31.3213 73.0661 29.6251 67.0145 31.3152C60.4524 33.265 54.5558 36.9796 49.9721 42.0513C41.3197 50.8117 34.0758 60.8514 28.4962 71.8158C26.5521 75.2313 24.6933 78.7316 23.005 82.2886C21.3168 85.8455 19.8276 89.5298 18.3241 93.1858C16.4803 97.7203 14.5654 102.241 12.9489 106.86C12.2308 109.415 11.6774 112.013 11.2921 114.639C9.8762 121.454 8.46025 128.254 7.1722 135.098C6.86498 137.683 6.72919 140.286 6.76575 142.889L6.46742 142.946ZM81.463 68.8313C81.4674 74.9653 80.6753 79.9666 82.4975 84.796C82.953 85.9998 83.0962 87.473 84.6451 87.7694C86.194 88.0657 86.9604 86.8328 87.7411 85.7981C87.9094 85.5659 88.0566 85.3193 88.181 85.0611C90.1901 81.8343 91.4992 78.2238 92.0239 74.462C92.4049 70.8068 92.8569 67.1657 93.1953 63.5106C93.2217 62.6063 93.1351 61.7022 92.9376 60.8192C92.5751 58.1368 92.0513 55.4786 91.369 52.8589C90.1584 48.8649 88.6353 44.9844 87.098 41.0898C86.9272 40.6224 86.1881 40.3538 85.6764 40C85.2902 40.4194 84.9739 40.8979 84.7396 41.4173C82.8406 50.4414 81.7441 59.615 81.463 68.8313Z" fill="#FDFDFD"/>
<path d="M110.016 257.278C110.019 261.911 110.022 266.543 110.026 271.175C110.026 272.167 110.709 273.13 110.781 274.121C110.781 274.801 110.526 275.906 110.058 276.133C109.106 276.587 108.409 276.135 107.954 274.917C105.784 268.901 105.15 262.441 106.107 256.119C106.969 248.766 107.148 241.315 108.351 234.018C110.062 223.591 112.428 213.262 114.552 202.848C114.99 200.784 114.665 198.631 113.638 196.786C110.96 192.055 110.156 186.497 111.382 181.204C112.378 177.619 113.842 174.179 115.736 170.973C117.534 168.313 119.477 165.753 121.556 163.305C122.511 162.006 123.315 160.603 123.955 159.124C124.593 157.622 124.89 155.979 125.372 154.42C125.599 153.726 125.783 152.847 126.308 152.464C126.641 152.17 127.031 151.949 127.454 151.815C127.877 151.68 128.324 151.636 128.766 151.684C129.405 151.938 129.776 153.099 130.018 153.949C130.146 154.417 129.749 155.026 129.607 155.565C129.026 157.874 129.609 158.398 131.982 158.127C134.079 157.762 136.229 157.818 138.304 158.292C144.074 160.116 147.289 164.519 148.557 170.185C150.368 178.272 148.099 185.626 143.856 192.5C141.206 196.875 137.539 200.551 133.165 203.217C132.153 203.906 131.014 204.386 129.814 204.63C128.614 204.875 127.377 204.877 126.175 204.639C125.367 204.487 124.597 204.177 123.909 203.728C123.222 203.279 122.629 202.699 122.167 202.021C121.613 201.432 120.976 200.927 120.276 200.521C119.815 201.161 119.448 201.862 119.183 202.604C117.527 211.034 116.198 219.606 114.229 227.908C112.602 234.961 111.341 242.092 110.45 249.274C110.111 251.909 109.985 254.572 109.76 257.222L110.016 257.278ZM123.928 181.153L124.653 181.464C125.241 180.971 125.795 180.441 126.314 179.876C127.662 178.218 128.883 176.432 130.331 174.844C131.387 173.767 132.564 172.816 133.839 172.009C134.091 171.92 134.361 171.897 134.625 171.942C134.888 171.986 135.136 172.096 135.345 172.262C135.487 172.486 135.575 172.74 135.6 173.003C135.625 173.267 135.586 173.532 135.488 173.778C135.085 174.587 134.564 175.333 133.941 175.989C130.784 179.626 128.225 183.74 126.362 188.178C125.609 189.975 125.201 191.897 125.159 193.845C125.294 195.071 125.835 196.217 126.696 197.102C127.07 197.317 127.491 197.436 127.923 197.449C128.355 197.461 128.783 197.365 129.168 197.171C131.343 196.075 133.328 194.639 135.047 192.917C137.345 190.21 139.29 187.224 140.838 184.031C142.937 179.567 144.383 174.905 142.135 169.863C141.669 168.622 140.951 167.489 140.027 166.537C139.102 165.584 137.99 164.833 136.76 164.328C135.66 163.91 134.48 163.746 133.308 163.848C132.135 163.951 131.001 164.317 129.991 164.919C128.981 165.521 128.121 166.343 127.475 167.324C126.83 168.305 126.416 169.42 126.265 170.583C125.94 173.091 125.174 175.528 124.622 178.007C124.352 179.056 124.154 180.104 123.928 181.153ZM115.823 192.364L116.59 192.364C116.845 191.4 117.129 190.437 117.369 189.459C118.149 186.271 118.857 183.083 119.679 179.923C120.174 178.011 120.884 176.14 121.365 174.256C121.479 173.774 121.109 173.151 120.952 172.599C120.483 172.854 119.816 172.982 119.532 173.379C116.793 178.056 114.48 182.902 115.024 188.54C115.21 189.815 115.566 191.089 115.823 192.364Z" fill="#FDFDFD"/>
<path d="M164.63 95.9995C164.778 91.1506 166.248 86.4335 168.882 82.3544C170.415 80.03 174.834 79.7294 176.498 81.8673C176.718 82.3702 176.788 82.9263 176.698 83.4679C176.699 85.3237 176.487 87.1655 176.517 89.0213C176.458 91.4107 175.699 93.7308 174.334 95.6951C174.019 96.4552 173.819 97.2572 173.739 98.0755C174.588 97.9897 175.415 97.7541 176.182 97.3796C177.417 96.4704 178.516 95.3918 179.448 94.1757C182.542 90.0086 185.551 85.7565 188.503 81.4196C188.962 80.6358 189.211 79.7479 189.226 78.8408C189.652 70.9077 191.469 63.1104 194.595 55.8026C195.587 52.979 197.208 50.4159 199.335 48.3052C200.315 47.4404 201.323 46.7172 202.687 47.2971C203.35 47.5057 203.927 47.9241 204.329 48.4887C204.732 49.0533 204.94 49.7335 204.92 50.4262C204.678 53.2371 204.205 56.0234 203.505 58.757C201.685 65.2336 199.278 71.5321 196.315 77.5749C195.826 78.6705 195.589 79.8613 195.622 81.06C195.655 82.2587 195.957 83.4348 196.505 84.5021C197.145 85.9182 198.112 86.0876 199.12 84.8827C203.458 79.5875 207.396 73.9783 210.9 68.1014C213.81 63.2828 214.531 57.9416 216.346 52.8688C217.592 49.7123 219.438 46.825 221.781 44.3652C222.03 44.0654 222.349 43.8309 222.709 43.6824C223.07 43.5339 223.462 43.4758 223.85 43.5133C224.239 43.5508 224.612 43.6826 224.938 43.8973C225.263 44.112 225.531 44.403 225.717 44.7448C226.272 45.4731 226.597 46.3486 226.654 47.2611C226.71 48.1736 226.494 49.0823 226.034 49.8728C221.167 59.4385 219.171 69.7105 218.653 80.293C218.513 82.9706 218.657 85.5629 220.889 87.6437C221.443 88.1533 221.146 89.5844 221.246 90.5759C220.294 90.5766 219.158 90.9741 218.404 90.5779C216.736 89.6499 215.322 88.3281 214.286 86.7284C213.249 85.1288 212.622 83.3 212.459 81.4024C212.487 81.1198 212.487 80.835 212.458 80.5525C212.188 79.6602 211.874 78.7679 211.561 77.8757C210.821 78.5009 210.167 79.2206 209.616 80.0162C207.355 84.1473 204.413 87.8703 200.914 91.0296C197.947 93.865 194.679 93.8673 192.162 90.54C191.095 89.1242 190.001 89.2808 189.235 91.0379C187.348 95.445 183.998 98.6773 180.718 101.881C179.125 103.326 177.288 104.478 175.292 105.285C173.959 105.919 172.44 106.05 171.017 105.656C169.594 105.261 168.361 104.367 167.547 103.137C165.914 101.083 164.902 98.6068 164.63 95.9995Z" fill="#FDFDFD"/>
<path d="M427.493 107.499C421.654 107.503 416.467 105.92 412.613 101.333C409.934 98.3788 408.045 94.799 407.121 90.9244C406.906 89.7591 406.435 88.6556 405.742 87.6935C405.048 86.7313 404.149 85.9344 403.11 85.36C398.249 82.431 395.458 74.5565 397.301 69.172C397.479 68.7222 397.751 68.3151 398.099 67.9779C398.446 67.6406 398.862 67.3808 399.318 67.2157C400.014 67.0452 401.066 67.7102 401.748 68.2622C402.342 68.941 402.889 69.6601 403.384 70.4143C403.819 70.7878 404.296 71.1107 404.805 71.3766C405.168 70.9092 405.455 70.3879 405.656 69.8319C406.152 66.9983 406.363 64.1649 407.071 61.4586C408.573 55.0827 410.089 48.7068 413.338 42.8963C414.062 41.5642 414.231 39.9208 415.026 38.6452C417.481 34.7194 420.036 30.8644 422.733 27.0942C423.617 26.0606 424.698 25.2123 425.914 24.5987C426.679 24.0763 427.608 23.847 428.53 23.9531C429.451 24.0591 430.303 24.4934 430.93 25.1759C432.33 26.7796 433.412 28.6346 434.116 30.6418C436.409 38.3183 435.136 45.9832 433.508 53.5916C433.182 55.0085 432.174 56.3408 431.72 57.8428C429.755 63.9989 426.635 69.7266 422.525 74.7214C419.937 77.7975 417.173 80.7225 414.248 83.482C413.498 84.0836 412.957 84.906 412.702 85.832C412.448 86.7581 412.493 87.7406 412.831 88.6396C413.571 91.5938 414.792 94.4069 416.446 96.9667C417.398 98.3314 418.625 99.4822 420.05 100.345C421.475 101.208 423.065 101.763 424.719 101.976C428.029 102.338 431.372 102.269 434.665 101.77C438.439 101.02 442.171 100.072 445.845 98.929C446.825 98.6591 447.706 98.6444 448.175 99.6782C448.288 99.8964 448.352 100.137 448.362 100.382C448.372 100.627 448.329 100.872 448.234 101.099C448.139 101.325 447.996 101.529 447.815 101.695C447.633 101.861 447.417 101.985 447.182 102.059C440.876 104.797 434.555 107.465 427.493 107.499ZM430.77 39.7531C430.285 37.3877 429.842 34.7672 429.173 32.2036C428.817 30.7873 427.268 30.6467 426.459 32.0072C424.142 35.7454 422.029 39.6058 420.13 43.5714C418.485 47.1992 417.592 51.1664 416.061 54.9074C413.224 61.5109 412.333 68.4955 411.5 75.5084C411.43 76.0893 411.856 76.7123 412.041 77.3213C412.723 77.0233 413.647 76.9235 414.044 76.4132C417.99 71.2681 422.562 66.4907 425.087 60.4399C426.392 57.3224 428.222 54.3462 429.087 51.1298C429.887 47.3765 430.449 43.5768 430.77 39.7531ZM405.733 77.2691C405.579 76.3603 405.296 75.478 404.893 74.649C404.523 74.1534 403.67 73.9982 403.031 73.687C402.747 74.2963 402.208 74.9342 402.265 75.5008C402.413 76.3265 402.759 77.104 403.275 77.7667C403.588 78.2056 404.37 78.7434 404.697 78.6298C405.023 78.5163 405.421 77.7085 405.733 77.2691Z" fill="#FDFDFD"/>
<path d="M335.588 120.243C336.237 114.137 336.928 107.492 337.62 100.848C337.874 98.496 338.213 96.13 338.282 93.7642C338.287 93.3142 338.198 92.8681 338.022 92.4539C337.845 92.0397 337.585 91.6661 337.258 91.3566C336.888 91.0877 335.61 91.6836 334.985 92.194C331.023 95.4551 328.526 99.8768 325.815 104.114C325.432 104.987 325.22 105.925 325.192 106.877C324.428 111.567 323.976 116.327 322.829 120.918C321.954 123.551 320.707 126.047 319.126 128.329C318.416 129.534 317.28 130.682 315.632 130.117C314.903 129.843 314.281 129.343 313.859 128.69C313.436 128.038 313.235 127.267 313.285 126.492C313.221 125.36 313.316 124.226 313.567 123.12C314.785 118.501 315.336 113.727 317.89 109.447C318.75 108.201 319.313 106.777 319.536 105.281C319.759 103.786 319.636 102.259 319.177 100.818C318.935 100.195 318.494 99.3315 317.982 99.2185C317.633 99.2004 317.284 99.2641 316.963 99.4045C316.642 99.545 316.359 99.7583 316.136 100.027C312.714 103.899 310.28 108.537 309.041 113.547C307.739 119.625 306.336 125.689 305.019 131.768C304.651 133.482 304.496 135.253 304.071 136.939C303.801 138.146 303.321 139.297 302.653 140.34C302.402 140.682 302.076 140.961 301.698 141.155C301.321 141.35 300.904 141.454 300.48 141.461C300.046 141.318 299.649 141.084 299.315 140.774C298.981 140.463 298.719 140.084 298.546 139.663C298.247 138.567 298.217 137.416 298.458 136.306C299.803 129.42 301.049 122.506 302.706 115.705C303.57 112.205 305.031 108.889 305.341 105.22C305.44 104.157 306.548 103.165 307.3 102.215C308.052 101.266 308.847 100.599 309.614 99.777C311.307 97.7403 313.118 95.8043 315.038 93.9791C317.508 91.8665 320.237 92.3321 322.37 94.838C322.469 94.9654 322.569 95.107 322.683 95.2344C324.105 97.0042 324.801 96.8054 326.164 95.0478C328.421 92.1138 330.933 89.3779 333.389 86.5429C333.773 86.1034 334.469 85.9471 334.952 85.5501C338.175 82.9978 341.529 84.1288 343.194 88.2216C344.157 90.5712 344.549 93.1146 344.337 95.6439C343.461 103.634 342.146 111.554 341.057 119.516C340.761 121.698 340.648 123.908 340.494 126.104C340.494 127.181 340.496 128.64 339.245 128.698C338.714 128.633 338.206 128.439 337.768 128.133C337.329 127.827 336.972 127.418 336.729 126.943C336.189 124.739 335.807 122.5 335.588 120.243Z" fill="#FDFDFD"/>
<path d="M115.665 111.221C116.685 107.24 117.464 103.173 118.782 99.2909C120.055 94.8937 121.81 90.6499 124.016 86.6366C127.578 80.7409 130.643 74.5056 136.593 70.4498C139.433 68.4786 141.422 68.3781 144.408 70.3167C145.73 71.1657 146.866 71.3916 147.903 69.9034C148.058 69.5972 148.273 69.3254 148.537 69.1043C148.8 68.8832 149.105 68.7173 149.434 68.6166C149.763 68.5158 150.109 68.4823 150.451 68.5179C150.793 68.5536 151.125 68.6578 151.425 68.8242C152.117 69.1298 152.666 69.686 152.962 70.3801C153.258 71.0741 153.279 71.8544 153.02 72.563C152.398 74.6114 151.601 76.6026 150.637 78.5145C149.942 79.7448 149.716 81.1835 150 82.5665C150.756 87.3075 150.389 92.1588 148.931 96.7336C148.432 97.7979 147.586 98.6623 146.531 99.1861C145.96 99.4973 145.471 99.9399 145.106 100.477C144.74 101.015 144.509 101.631 144.431 102.276C144.035 105.18 143.469 108.099 143.357 111.017C143.52 112.433 143.919 113.812 144.539 115.096C144.539 115.295 144.809 115.45 144.937 115.648C145.606 116.71 146.118 117.886 145.053 118.892C143.989 119.899 142.908 119.319 141.942 118.654C140.983 118.041 140.163 117.236 139.534 116.291C138.904 115.345 138.479 114.278 138.286 113.16C138.044 111.743 137.886 110.327 137.601 108.91C137.419 108.476 137.175 108.071 136.876 107.707C136.452 107.933 136.06 108.214 135.711 108.543C133.397 111.308 131.183 114.213 128.798 116.864C127.886 117.801 126.826 118.582 125.659 119.175C121.526 121.502 117.248 119.479 116.392 114.776C116.178 113.615 116.192 112.411 116.091 111.235L115.665 111.221ZM143.66 78.0945C143.153 77.1639 142.522 76.3065 141.783 75.5459C140.759 74.6967 139.609 75.4341 138.942 76.2279C136.332 78.9583 133.958 81.9029 131.844 85.0303C129.702 88.9914 127.807 93.0803 126.169 97.274C125.078 99.8069 124.131 102.399 123.333 105.039C122.702 107.27 122.262 109.549 122.017 111.854C121.99 112.313 122.061 112.773 122.226 113.202C122.39 113.632 122.644 114.022 122.97 114.347C123.34 114.644 124.618 114.161 125.3 113.722C129.419 111.098 132.101 107.115 134.741 103.189C137.381 99.2634 139.481 95.5079 139.79 90.7761C140.05 89.2796 140.488 87.8192 141.094 86.4261C141.874 83.7623 142.725 81.1268 143.66 78.0945Z" fill="#FDFDFD"/>
<path d="M288.985 100.543C288.192 103.958 287.569 107.429 286.563 110.759C285.145 115.505 283.458 120.21 281.6 124.815C280.182 128.315 278.394 131.646 276.691 135.004C276.283 135.648 276.013 136.37 275.899 137.124C275.784 137.877 275.828 138.646 276.027 139.382C276.596 141.266 275.9 141.861 273.869 141.891C273.48 141.904 273.097 141.996 272.746 142.162C272.394 142.328 272.08 142.564 271.823 142.856C268.57 147.565 264.799 151.896 260.58 155.769C259.293 156.955 257.814 157.914 256.205 158.606C253.166 160.024 249.256 157.024 249.367 153.27C249.494 150.963 249.971 148.689 250.783 146.526C251.409 144.994 252.255 143.562 253.295 142.274C254.715 140.276 256.789 140.458 257.814 142.667C258.111 143.573 258.354 144.495 258.54 145.429C258.798 146.103 259.098 146.761 259.437 147.398C260.145 147.132 260.803 146.748 261.383 146.263C262.916 144.463 264.307 142.535 265.755 140.594C265.755 140.594 265.755 140.494 265.854 140.466C268.609 138.155 268.366 135.818 266.786 132.702C264.481 128.142 264.833 123.099 266.293 118.281C267.182 115.007 268.413 111.834 269.966 108.816C272.932 103.444 276.054 98.0732 281.536 94.641C282.29 94.07 283.233 93.8035 284.176 93.8948C285.119 93.986 285.992 94.4282 286.623 95.1332C287.998 96.6204 288.83 98.5262 288.985 100.543ZM271.956 129.483L272.709 129.652C273.096 129.282 273.439 128.868 273.731 128.419C274.696 126.393 275.717 124.38 276.568 122.283C278.412 117.38 280.156 112.449 281.843 107.49C282.042 106.923 281.643 106.158 281.515 105.492C280.933 105.847 280.095 106.06 279.811 106.57C278.789 108.257 277.952 110.056 276.973 111.8C274.435 116.398 272.745 121.413 271.982 126.607C271.9 127.563 271.882 128.524 271.927 129.483L271.956 129.483Z" fill="#FDFDFD"/>
<path d="M278.326 37.6807C277.774 40.1601 277.179 42.9655 276.514 45.7567C275.162 51.3783 272.618 56.6456 269.051 61.2033C265.888 65.5177 261.695 68.9777 256.853 71.27C251.044 73.8949 245.386 70.1166 245.126 63.317C245.052 61.3385 245.349 59.3636 246.002 57.494C247.671 52.524 249.651 47.6634 251.931 42.941C253.879 39.5683 256.151 36.3926 258.716 33.4589C259.6 32.5102 260.674 31.7567 261.869 31.2467C264.169 30.0413 266.541 28.9752 268.97 28.0543C269.772 27.7524 270.628 27.6193 271.484 27.6635C272.34 27.7076 273.178 27.9279 273.944 28.3107C274.711 28.6934 275.389 29.2301 275.937 29.8872C276.485 30.5442 276.891 31.3073 277.129 32.1283C277.633 33.9549 278.033 35.8087 278.326 37.6807ZM270.697 38.7911C270.413 38.1538 270.256 37.2898 269.772 36.9643C269.464 36.8738 269.139 36.8603 268.824 36.9247C268.51 36.9892 268.216 37.1297 267.968 37.3339C263.702 41.1001 260.489 45.9054 258.643 51.2802C258.161 52.7963 257.765 54.2132 255.875 54.5121C255.683 54.5633 255.505 54.6576 255.355 54.7879C255.205 54.9181 255.086 55.0808 255.009 55.2635C254.209 57.4858 253.574 59.7637 253.11 62.0788C252.855 63.6231 254.134 64.3305 255.612 63.6211C256.738 63.0882 257.792 62.4164 258.75 61.6215C262.161 58.7966 264.974 55.3232 267.025 51.4035C269.076 47.4839 270.325 43.1965 270.697 38.7911Z" fill="#FDFDFD"/>
<path d="M354.236 106.049C354.58 99.6741 355.706 93.3648 357.589 87.2625C358.568 84.2161 359.688 81.1979 360.922 78.2362C361.11 77.8547 361.39 77.5256 361.737 77.2782C362.084 77.0308 362.487 76.8727 362.91 76.8182C363.351 76.9268 363.758 77.139 364.1 77.4369C364.441 77.7349 364.706 78.11 364.872 78.5309C365.121 79.6755 365.078 80.8639 364.747 81.9875C364.038 84.8213 362.875 87.4712 362.394 90.2907C361.375 96.2554 360.683 102.277 359.878 108.269C359.794 108.828 359.794 109.397 359.879 109.955C360.236 111.782 361.742 112.376 362.949 111.016C365.888 107.684 369.153 104.523 369.349 99.5788C369.522 98.0604 369.918 96.5757 370.525 95.1723C372.311 90.1278 374.084 85.055 376.041 80.0671C376.819 78.2485 377.8 76.5228 378.964 74.9226C379.278 74.2406 379.831 73.6959 380.518 73.3904C381.206 73.0849 381.981 73.0394 382.7 73.2625C384.505 73.8987 384.691 75.5418 384.436 77.0861C384.126 78.8547 383.651 80.5908 383.019 82.272C381.36 86.8206 379.388 91.2844 377.971 95.9177C376.468 100.877 375.406 105.992 374.23 111.064C373.734 113.182 374.044 115.408 375.102 117.311C375.504 118.122 375.751 119.001 375.828 119.903C375.986 121.518 374.878 122.283 373.442 121.491C372.329 120.904 371.366 120.07 370.626 119.054C369.886 118.038 369.39 116.866 369.176 115.629C369.076 115.19 369.175 114.723 369.018 114.284C368.662 112.867 367.752 112.556 366.688 113.563C365.623 114.569 364.643 115.689 363.564 116.696C361.321 118.78 358.919 118.512 356.985 116.176C354.624 113.359 354.48 109.789 354.236 106.049Z" fill="#FDFDFD"/>
<path d="M101.114 188.451C101.113 187.374 101.112 186.297 101.111 185.221C100.996 182.983 99.5458 181.695 97.4861 182.489C94.9714 183.455 92.5861 184.727 90.3846 186.277C84.3552 190.825 79.4907 196.732 76.1886 203.513C74.8549 206.05 74.6582 209.181 73.9072 212.015C72.3485 217.909 71.074 223.888 68.5063 229.485C68.024 230.548 67.371 231.356 66.0637 231.187C65.5182 231.132 65.0116 230.88 64.6397 230.479C64.2677 230.077 64.056 229.553 64.0445 229.007C63.8589 227.948 63.8581 226.865 64.0422 225.805C65.6435 219.854 66.79 213.691 69.2156 208.094C70.9252 204.167 71.8581 199.948 71.9631 195.668C71.8744 193.543 71.5536 191.434 71.0066 189.379C70.6653 188.428 70.3986 187.453 70.2088 186.461C70.2083 185.753 70.7332 184.633 71.273 184.463C71.8128 184.293 73.3334 184.632 73.5469 185.127C74.303 187.101 74.9496 189.116 75.4835 191.161C75.7114 191.897 75.9961 192.577 76.2524 193.342C76.8805 192.929 77.445 192.428 77.9279 191.853C82.2318 185.002 88.5628 179.651 96.0468 176.541C101.075 174.454 104.729 177.384 105.784 182.2C106.966 187.387 106.594 192.806 104.715 197.784C103.297 201.695 102.334 205.789 101.186 209.813C101.186 210.026 101.072 210.253 100.987 210.451C100.548 211.429 100.534 213.058 99.0567 212.847C97.5788 212.635 97.6345 210.949 97.7615 209.788C98.2847 206.274 99.021 202.788 99.6579 199.289C100.295 195.789 100.917 192.205 101.554 188.649L101.114 188.451Z" fill="#FDFDFD"/>
<path d="M209.476 162.038C210.31 156.499 211.017 150.945 212.036 145.434C212.786 141.325 213.863 137.272 214.869 133.234C215.861 129.423 217.023 125.64 218.1 121.899C218.185 121.63 218.242 121.346 218.327 121.077C218.908 119.292 220.101 118.398 221.352 118.794C221.693 118.945 221.999 119.166 222.249 119.442C222.5 119.717 222.691 120.042 222.809 120.395C222.927 120.748 222.969 121.122 222.934 121.493C222.899 121.863 222.787 122.223 222.605 122.547C219.626 129.392 218.566 136.717 216.709 143.914C215.979 146.965 216.19 150.164 217.313 153.094C218.224 155.756 219.887 156.279 221.818 154.266C224.037 152.12 226.022 149.744 227.737 147.179C228.809 145.062 229.541 142.791 229.907 140.448C231.422 133.931 234.601 128.106 237.324 122.098C238.147 120.492 239.209 119.02 240.475 117.732C240.747 117.473 241.079 117.287 241.441 117.19C241.804 117.093 242.185 117.089 242.549 117.178C242.888 117.395 243.169 117.69 243.369 118.037C243.57 118.384 243.684 118.775 243.702 119.175C243.42 121.007 243.003 122.816 242.455 124.587C241.959 126.387 241.449 128.186 240.797 129.929C239.237 134.039 237.691 138.148 235.946 142.172C233.932 146.863 231.804 151.497 231.694 156.696C231.695 157.928 232.037 159.16 232.066 160.407C231.991 161.085 231.834 161.751 231.599 162.391C230.846 162.136 229.851 162.094 229.396 161.585C228.797 160.708 228.319 159.756 227.973 158.753C227.617 158.016 227.247 157.336 226.892 156.558L224.946 157.976C223.796 158.798 222.702 159.691 221.495 160.415C221.133 160.695 220.718 160.9 220.275 161.019C219.832 161.138 219.37 161.169 218.915 161.108C218.461 161.048 218.023 160.898 217.626 160.668C217.23 160.438 216.884 160.131 216.607 159.767C216.412 159.549 216.17 159.38 215.899 159.272C215.627 159.164 215.335 159.121 215.044 159.144C214.632 159.315 214.362 160.094 214.235 160.661C214.008 161.638 214.236 162.814 213.726 163.608C213.474 164.047 213.133 164.43 212.725 164.73C212.316 165.03 211.849 165.242 211.354 165.352C210.061 165.452 209.804 164.12 209.662 163.016C209.64 162.737 209.64 162.458 209.661 162.18L209.476 162.038Z" fill="#FDFDFD"/>
<path d="M318.874 33.6137C316.914 33.9126 314.953 34.2398 312.993 34.5104C312.104 34.6243 311.202 34.44 310.43 33.9865C309.658 33.5331 309.059 32.8362 308.728 32.006C308.411 31.2634 308.381 30.4302 308.642 29.6664C308.904 28.9027 309.44 28.2624 310.146 27.8684C314.137 25.6273 318.171 23.4003 322.347 21.5274C329.628 18.2734 336.986 15.1799 344.42 12.2469C350.102 10.0045 355.926 8.07377 361.721 6.10051C366.494 4.48215 371.324 3.01955 376.125 1.472C376.562 1.35165 376.972 1.14941 377.333 0.876134C378.312 0.0537899 379.051 0.322435 379.762 1.24273C380.473 2.16303 380.645 3.31038 379.594 4.07611C378.282 4.96264 376.895 5.7316 375.447 6.374C368.799 9.41034 362.124 12.3759 355.462 15.3839L330.719 26.6071C327.992 27.8415 325.194 28.9626 322.523 30.3103C321.771 30.6933 321.374 31.7278 320.806 32.479C320.238 33.2302 319.769 33.7406 319.244 34.3784L318.874 33.6137Z" fill="#FDFDFD"/>
<path d="M164.326 167.114C165.076 163.317 165.982 158.485 167.03 153.696C167.51 151.655 168.126 149.648 168.873 147.688C169.23 146.389 169.837 145.171 170.661 144.103C171.055 143.732 171.519 143.443 172.026 143.253C172.533 143.063 173.074 142.976 173.615 142.996C174.866 143.08 175.421 144.341 175.365 145.545C175.273 146.486 175.054 147.411 174.713 148.293C174.047 150.192 173.124 152.034 172.628 153.961C170.948 159.792 170.186 165.848 170.368 171.912C170.44 173.102 170.697 174.816 171.493 175.325C172.914 176.216 173.808 174.53 174.532 173.58C176.775 170.604 178.861 167.528 181.005 164.467C181.224 164.135 181.391 163.772 181.501 163.39C182.579 159.791 183.727 156.192 184.69 152.55C185.668 149.128 187.217 145.894 189.273 142.985C189.718 142.258 190.313 141.635 191.019 141.156C191.871 140.66 193.121 139.993 193.86 140.29C194.782 140.885 195.442 141.805 195.709 142.867C195.86 143.75 195.742 144.658 195.37 145.474C194.831 146.891 194.093 148.237 193.426 149.612C192.121 152.347 190.702 155.053 189.525 157.859C188.189 160.852 187.066 163.934 186.164 167.084C185.862 168.961 185.863 170.874 186.168 172.75C186.269 174.025 186.781 175.286 186.882 176.575C186.982 177.864 185.974 178.502 185.035 177.752C184.145 176.87 183.388 175.864 182.788 174.764C182.333 174.113 181.935 173.348 181.522 172.711C180.786 173.148 180.117 173.687 179.534 174.313C177.746 176.865 176.213 179.614 173.316 181.132C171.029 182.352 169.452 182.254 167.845 180.3C166.675 178.929 165.821 177.319 165.341 175.584C164.823 172.785 164.484 169.956 164.326 167.114Z" fill="#FDFDFD"/>
</svg>
