<svg width="1138" height="808" viewBox="0 0 1138 808" fill="none" xmlns="http://www.w3.org/2000/svg">
<g clip-path="url(#clip0_2089_131)">
<path d="M485.401 388.77C482.567 385.125 480.138 382.29 478.114 379.05C477.304 377.835 477.709 376.216 478.114 375.001C479.733 371.356 477.709 369.331 474.875 368.926C465.564 367.306 465.159 363.257 467.588 355.967C472.041 342.603 479.328 330.049 491.069 321.545C495.927 317.9 501.19 317.9 506.453 320.33C511.311 322.76 512.525 328.024 510.906 335.314C508.477 345.438 505.643 355.157 503.214 364.876C502.809 366.091 503.214 367.711 503.214 370.951C508.072 367.306 512.525 364.471 516.169 360.827C527.504 349.893 540.459 340.578 554.223 332.074C557.867 329.644 560.296 324.38 562.32 319.925C567.178 308.991 570.822 297.247 576.085 286.718C582.157 274.974 590.659 264.039 601.185 255.94C614.949 245.411 628.714 257.155 630.333 269.709C632.762 287.932 624.26 302.106 614.139 315.47C607.662 323.975 598.756 331.264 591.064 338.958C588.635 341.388 587.825 343.413 590.659 346.248C599.97 355.967 603.209 368.116 604.019 381.075C604.019 383.1 604.019 385.125 603.209 386.745C599.16 394.844 594.707 403.348 587.015 408.208C574.87 415.902 561.106 411.043 555.033 396.464C551.39 387.96 550.58 379.05 552.604 369.736C553.414 366.901 553.009 363.662 552.604 360.422C551.794 355.562 544.507 353.132 539.649 355.967C538.03 357.182 536.411 358.397 534.791 359.612C527.909 366.091 521.027 372.976 513.74 379.455C510.096 382.695 509.691 385.53 511.311 390.389C514.954 400.919 516.573 411.448 514.954 422.787C513.74 430.886 512.93 438.986 512.12 447.085C510.501 461.259 505.238 474.218 501.19 487.987C497.141 500.946 489.854 511.475 482.162 522.409C473.661 534.558 458.682 535.368 446.537 526.864C427.104 513.5 423.056 485.557 431.962 464.094C439.249 446.275 450.18 430.886 461.92 415.902C467.993 408.208 475.28 401.324 481.757 393.629C483.782 391.199 484.996 389.58 485.401 388.77ZM496.332 400.919C494.307 402.943 491.878 404.158 490.259 406.183C487.83 409.018 485.401 412.663 483.377 415.902C473.256 430.886 463.135 445.87 453.824 461.259C448.966 469.358 445.322 478.268 446.537 488.392C447.751 497.706 450.18 506.21 458.682 511.475C461.516 513.095 465.159 513.905 467.183 511.475C472.041 505.805 476.495 500.136 480.138 494.061C483.377 487.987 485.401 481.507 488.235 475.028C489.449 471.383 491.069 468.143 491.878 464.499C494.712 451.54 497.546 438.581 499.57 425.217C500.785 416.712 502.809 408.613 496.332 400.919ZM580.538 326.404C582.562 325.595 584.181 325.19 584.991 324.38C599.565 311.826 610.901 296.842 616.164 277.808C616.568 275.783 614.544 273.354 612.925 271.329C612.925 270.924 609.686 272.139 608.877 272.949C595.517 287.932 589.039 306.561 580.538 323.975C580.133 323.975 580.538 324.785 580.538 326.404ZM570.417 378.645C570.012 383.91 571.631 388.365 575.68 391.604C576.49 392.414 578.109 392.819 578.919 392.414C582.157 391.604 588.635 379.86 587.825 377.025C586.61 372.976 584.991 368.926 582.967 364.876C581.348 361.232 578.919 361.637 576.894 364.067C572.846 367.711 570.012 372.571 570.417 378.645ZM491.878 343.818C491.069 343.413 490.259 343.413 489.854 343.008C486.211 348.273 482.567 353.537 479.733 358.802C479.328 359.612 480.543 361.637 480.948 363.257C482.162 362.852 484.186 362.852 484.591 362.042C487.02 358.397 489.449 354.347 491.474 350.298C491.878 348.273 491.474 345.843 491.878 343.818Z" fill="#C2A263"/>
<path d="M242.093 117.441C242.498 123.515 243.308 129.995 243.308 136.069C242.498 155.103 241.688 174.136 233.592 191.55C230.758 198.03 227.924 204.914 223.876 210.584C215.374 224.352 200.8 224.352 190.679 210.988C184.201 202.079 181.368 191.955 180.963 180.616C180.963 176.971 179.343 172.921 179.343 169.277C179.343 164.012 179.748 158.748 180.153 153.483C180.558 145.789 181.368 138.094 182.177 130.4C182.987 117.441 182.987 104.482 184.201 91.9278C185.416 80.1838 187.845 68.4397 190.274 56.6956C192.298 47.3813 195.132 38.0671 197.561 28.7528C198.371 25.1081 197.156 22.2733 193.108 20.2485C176.509 11.7441 160.316 12.5541 144.527 22.2733C126.714 33.2074 112.95 48.1913 100.805 64.795C89.0644 81.3987 77.7289 98.0024 69.6322 117.036C66.3935 124.73 61.1306 131.615 57.0822 138.904C55.058 142.549 53.4386 146.599 52.2241 150.648C44.5322 171.302 36.0306 191.955 29.1484 213.013C24.6951 226.377 22.671 240.956 19.8371 255.13C17.8129 264.444 15.3839 274.164 14.5742 283.478C13.7645 291.577 14.5742 300.081 15.3839 308.586C15.7887 314.255 16.1935 320.33 17.4081 325.594C20.6468 339.363 25.1 352.727 35.6258 363.257C43.7225 370.951 53.4387 375.001 65.179 375.811C75.2999 376.216 84.2063 372.571 93.5176 370.546C113.355 366.496 129.143 354.752 145.337 343.818C148.576 341.388 152.219 338.958 155.458 336.529C158.292 334.504 161.935 332.884 163.555 336.529C164.364 338.149 162.34 342.198 160.316 343.818C152.219 349.893 143.718 355.157 136.026 361.232C126.714 368.521 116.593 374.191 106.068 379.455C94.7321 385.125 82.587 386.745 70.4418 389.174C59.5112 391.199 49.3903 388.77 40.079 383.505C22.6709 373.381 12.1452 357.992 6.07259 339.363C1.61937 325.595 -0.404821 311.421 1.74946e-05 296.842C0.404856 289.552 -0.809659 282.263 0.404856 275.378C1.61937 264.039 3.64356 253.105 6.47743 242.171C11.3355 223.542 16.5984 204.914 23.0758 186.69C27.9338 171.707 34.0064 157.128 40.4838 142.954C53.4386 114.606 68.0128 86.6633 86.2305 61.1503C98.7805 43.3317 113.355 27.1329 131.168 14.1739C143.718 5.26464 157.077 5.50233e-05 172.461 -0.404913C185.011 -0.809881 194.727 4.45471 204.038 12.1491C216.184 22.6783 223.876 36.0422 228.734 51.0261C231.972 61.5552 235.616 71.6794 238.045 82.2086C240.474 93.5477 241.688 105.292 243.308 116.631C242.498 117.441 242.093 117.441 242.093 117.441ZM206.063 204.914C214.159 201.269 216.588 193.98 219.017 186.69C225.9 165.632 229.138 143.764 227.924 121.491C227.519 112.176 227.114 103.267 225.9 94.3576C223.876 76.944 219.827 59.9354 210.921 44.1416C210.111 42.5217 208.896 41.3068 207.682 40.0919C206.467 41.7118 205.658 43.7366 204.443 45.3565C204.038 45.7615 204.443 46.5714 204.443 47.3813C203.634 56.6956 202.419 66.4148 201.609 75.7291C200.395 87.4732 199.18 99.6222 197.966 111.366C196.751 120.681 195.537 129.995 194.322 139.309C193.917 145.789 193.917 152.268 193.917 158.748C193.917 162.392 195.537 166.037 195.537 169.682C195.942 174.541 194.727 179.401 195.942 183.856C197.561 191.55 197.966 200.054 206.063 204.914Z" fill="#C2A263"/>
<path d="M228.329 701C223.471 696.545 220.637 690.876 221.042 684.801C221.851 673.057 223.471 661.718 225.09 649.974C226.709 639.445 228.734 628.916 230.758 617.982C232.782 606.237 234.806 594.088 237.235 582.344C240.879 564.526 244.927 547.112 248.166 529.293C248.571 526.864 246.951 523.219 244.927 521.194C231.972 509.045 229.543 494.061 231.567 477.458C233.187 465.309 234.806 453.564 240.474 442.63C244.522 434.531 250.19 427.242 255.858 420.357C261.121 413.878 267.598 408.613 273.266 402.943C272.861 402.538 272.456 402.133 272.456 401.728C268.813 403.753 264.764 405.778 261.525 408.208C239.259 423.192 221.042 442.225 206.063 463.689C200.8 470.978 194.727 477.863 190.274 485.557C186.226 492.441 183.392 499.731 180.153 507.02C177.319 513.905 174.89 520.789 172.461 528.079C169.627 536.583 172.056 544.682 175.7 551.972C177.319 554.807 181.772 557.236 185.011 558.451C191.488 560.476 198.371 562.096 204.848 562.501C210.921 562.906 217.398 561.691 223.066 560.476C227.114 559.666 229.948 560.071 232.377 564.121C227.519 568.98 221.042 571.005 214.564 571.41C207.682 572.22 200.395 572.22 193.513 572.625C176.914 573.435 163.15 560.881 159.506 545.897C156.268 532.128 158.697 518.359 164.364 505.805C170.437 492.441 176.914 479.077 185.011 466.523C193.108 453.969 203.229 443.035 212.54 431.696C224.685 416.307 240.069 404.158 256.263 392.819C259.906 390.389 263.954 387.555 268.003 385.935C276.504 381.885 279.338 374.191 280.958 366.091C282.172 360.017 282.982 353.537 285.006 347.463C285.816 344.628 289.054 342.603 291.483 340.173C293.103 342.198 295.937 344.628 295.937 346.653C295.937 352.322 294.317 358.397 293.508 364.066C293.508 365.281 293.103 366.091 293.103 367.306C292.698 375.001 292.698 375.001 300.39 374.191C320.227 372.166 335.611 380.67 340.064 402.943C342.898 418.737 341.279 433.316 333.991 447.085C327.514 459.639 321.037 472.193 313.75 484.342C310.106 490.012 304.438 494.466 299.58 499.731C291.079 509.045 281.362 517.144 270.027 523.219C267.598 524.434 265.169 528.079 264.359 531.318C257.072 564.526 249.785 598.138 242.903 631.75C239.259 649.974 235.616 668.603 232.377 686.826C231.567 691.686 231.567 696.545 231.163 701C229.543 701 228.734 701 228.329 701ZM270.027 498.921C270.837 498.921 271.242 499.326 272.051 499.326C272.861 498.921 274.075 498.516 274.885 497.706C281.363 490.417 288.65 483.532 294.722 475.433C302.819 464.499 310.916 453.564 316.583 440.605C321.846 428.861 325.49 417.927 322.656 405.373C321.846 402.133 320.632 398.489 318.608 396.059C311.725 389.175 302.819 389.984 293.912 392.009C291.483 392.414 288.65 395.654 288.245 398.084C285.411 412.258 282.982 426.837 280.148 441.01C277.719 454.779 275.29 468.953 272.861 482.722C271.646 487.987 270.837 493.251 270.027 498.921ZM270.837 424.407C270.432 424.407 270.027 424.002 269.622 424.002C264.764 427.646 259.096 430.076 258.692 437.771C258.692 439.391 257.477 441.01 256.263 442.63C244.117 458.829 246.546 477.863 246.951 496.491C246.951 496.896 247.356 497.301 247.356 497.301C248.571 498.921 249.785 500.541 251.404 502.161C253.024 500.136 255.048 498.516 255.453 496.491C259.906 476.243 263.55 456.399 267.598 436.151C268.813 431.696 269.622 428.051 270.837 424.407Z" fill="#C2A263"/>
<path d="M519.407 169.682C515.764 175.756 512.525 181.426 508.882 187.5C504.428 194.79 499.57 201.269 492.283 205.724C484.186 210.989 477.304 208.964 472.041 200.459C469.207 195.195 467.993 189.93 468.398 184.261C468.398 182.236 467.993 180.616 467.588 178.591C467.183 178.591 466.778 178.591 465.969 178.186C464.349 180.211 462.73 181.831 461.515 183.856C453.419 196.005 445.727 208.559 436.416 219.898C429.533 228.402 421.032 235.287 412.935 242.981C408.482 247.031 402.409 247.841 397.551 245.006C391.478 241.766 388.645 236.097 387.835 229.212C385.811 213.823 392.693 200.054 396.337 185.476C397.551 181.426 402.004 177.376 406.053 174.541C410.506 171.302 419.412 178.186 419.007 184.666C418.603 192.36 416.983 199.649 416.578 207.344C416.174 213.013 414.554 217.468 409.291 220.303C408.077 221.113 407.672 223.138 406.862 224.757C407.267 225.162 407.672 225.567 408.077 225.567C409.291 224.757 410.911 223.948 412.125 222.733C419.817 213.418 428.724 204.509 435.201 194.79C446.132 177.781 457.062 160.772 465.564 142.954C472.851 127.565 477.709 110.961 482.972 94.7627C487.83 79.7788 493.903 65.6049 504.023 53.0509C506.857 49.4062 510.501 48.5963 513.74 50.2162C516.169 51.4311 519.002 55.0758 518.598 57.9105C518.598 62.7702 516.573 67.2248 514.954 72.0844C507.262 93.1428 499.165 113.796 491.069 134.45C484.591 150.648 485.806 167.657 485.806 184.666C485.806 185.476 486.211 186.69 487.02 187.905C493.093 185.476 495.522 180.211 498.356 175.756C502.809 169.277 506.048 161.987 510.096 155.103C511.715 151.863 513.74 149.028 514.954 145.789C520.622 134.045 525.885 122.705 531.552 110.961C538.435 97.1925 545.317 83.4235 552.604 70.0596C556.248 62.7702 561.106 56.2907 565.154 49.4062C567.583 45.3565 570.822 44.1416 575.68 46.1665C580.133 48.1913 582.562 51.836 580.538 55.8857C576.894 64.39 572.441 72.4894 568.393 80.5888C561.915 94.3577 555.033 108.127 549.365 122.301C544.912 132.83 541.673 143.764 539.244 154.698C536.815 165.632 536.411 176.566 540.864 187.095C541.673 189.12 542.483 191.55 542.078 193.98C542.078 196.005 540.864 198.435 539.649 199.244C538.435 199.649 535.196 198.839 534.386 197.625C530.743 192.36 527.099 187.095 524.265 181.426C523.051 179.401 523.456 176.566 523.051 174.541C522.646 172.517 521.836 170.492 521.027 168.467C520.622 170.087 519.812 170.087 519.407 169.682Z" fill="#C2A263"/>
<path d="M1036.79 196.815C1031.12 200.054 1032.74 204.104 1033.15 207.749C1034.77 219.493 1039.22 230.022 1047.72 238.526C1053.39 244.601 1061.08 247.436 1069.58 247.841C1086.59 249.056 1102.37 246.221 1118.16 240.146C1123.02 238.526 1127.88 237.311 1132.74 236.502C1134.36 236.097 1136.38 238.121 1138 238.931C1136.79 240.551 1136.38 242.171 1134.76 242.981C1121 252.295 1105.61 256.75 1089.42 259.585C1082.94 260.8 1076.46 262.42 1069.99 262.42C1056.63 262.015 1044.48 257.965 1035.17 247.436C1024.65 235.692 1017.36 221.923 1016.55 206.534C1015.74 193.98 1018.98 181.021 1021 168.467C1022.62 159.558 1027.48 151.458 1031.53 143.359C1038.01 129.59 1048.13 119.466 1058.65 109.342C1065.13 103.267 1072.82 98.8123 1082.13 98.0024C1092.25 97.1925 1098.73 102.457 1104.4 109.746C1119.78 130.805 1118.16 154.293 1103.18 176.566C1095.49 187.905 1085.37 196.41 1073.23 202.889C1067.56 205.724 1062.3 208.559 1055.82 208.559C1049.34 208.559 1044.48 206.129 1040.84 200.864C1039.22 199.649 1038.01 198.435 1036.79 196.815ZM1099.95 135.259C1099.54 128.375 1095.9 120.681 1088.61 115.011C1087.4 113.796 1084.97 113.796 1082.94 113.796C1075.25 115.011 1069.99 119.466 1065.13 125.54C1056.63 136.474 1048.13 147.409 1042.05 159.558C1040.43 162.797 1040.03 165.227 1043.67 167.252C1050.96 171.707 1050.96 172.112 1046.51 179.806C1045.7 181.426 1044.89 183.856 1045.29 185.476C1046.91 190.74 1054.6 194.79 1059.46 192.765C1065.53 190.335 1071.2 187.095 1076.87 183.451C1092.66 172.112 1099.54 156.318 1099.95 135.259Z" fill="#C2A263"/>
<path d="M774.86 262.015C773.241 264.444 771.217 266.469 769.597 268.899C763.93 278.213 757.452 287.528 752.999 297.652C747.736 309.396 741.663 320.735 739.234 333.289C738.83 336.529 736.401 340.578 733.971 341.793C731.138 343.413 725.875 343.413 724.255 339.364C722.636 336.124 722.231 331.264 723.446 328.024C730.328 307.776 737.615 287.933 740.044 266.874C740.449 264.444 740.854 262.015 741.663 259.99C742.473 257.965 744.092 255.94 745.307 253.51C748.141 256.345 751.38 259.18 754.213 262.42C758.262 257.965 761.905 252.7 766.359 247.841C769.192 245.006 772.836 242.576 776.075 240.146C780.528 237.312 786.6 238.931 790.244 244.196C794.697 249.866 794.697 249.866 799.96 245.816C805.223 241.766 810.081 236.907 815.344 233.262C822.226 228.402 831.133 228.807 837.61 235.287C845.302 242.576 847.326 251.485 848.946 261.205C851.375 277.808 844.492 292.387 838.825 306.966C836.396 313.041 832.347 318.305 829.108 323.57C828.299 324.785 827.489 326 825.87 326.405C824.25 327.214 821.821 327.619 820.202 326.809C818.988 326.405 817.773 323.975 817.773 322.76C818.583 315.065 819.797 307.776 821.012 300.082C823.036 287.123 825.06 274.164 827.084 261.205V260.8C827.084 257.155 826.679 252.7 822.631 251.89C820.202 251.485 816.154 253.51 814.534 255.535C802.794 269.304 791.458 283.073 787.005 301.296C785.386 307.776 780.528 313.041 776.884 318.71C774.86 321.95 769.597 321.545 767.168 318.71C763.12 314.255 763.12 310.206 765.144 304.536C769.192 292.387 772.836 279.833 776.48 267.279C776.884 266.064 775.67 264.444 775.265 262.825C775.67 262.42 775.265 262.42 774.86 262.015Z" fill="#C2A263"/>
<path d="M878.904 271.734C881.333 257.965 883.357 244.196 886.191 230.832C887.81 223.543 889.429 215.848 891.858 208.964C893.478 204.509 895.907 200.459 898.336 196.41C901.575 191.145 904.408 189.93 908.457 191.55C912.1 193.17 914.125 198.839 912.505 203.699C910.076 211.393 907.242 219.493 905.218 227.187C901.979 239.336 900.36 251.89 900.36 264.444C900.36 268.494 899.55 272.544 900.36 276.188C901.575 281.858 904.408 282.668 908.457 278.213C915.744 270.519 923.841 262.824 929.913 254.32C933.152 249.865 934.367 243.791 935.581 238.121C939.225 220.708 942.868 203.294 950.965 187.095C954.204 181.021 957.442 175.756 962.3 170.897C965.944 167.252 969.992 168.062 972.421 172.517C975.66 178.186 973.636 184.261 972.016 189.525C966.349 207.344 961.491 225.567 953.394 242.981C949.75 250.675 948.941 259.99 946.916 268.494C944.892 276.998 944.892 285.503 948.536 294.007C949.346 295.627 948.131 298.867 947.321 299.272C944.083 300.486 940.034 300.081 937.605 296.842C935.581 294.007 933.962 291.172 932.342 288.337C929.508 283.073 927.484 283.073 923.031 287.123C918.173 291.577 913.315 296.842 907.647 299.272C897.526 303.726 884.571 301.701 881.738 287.527C881.333 281.858 880.118 276.998 878.904 271.734Z" fill="#C2A263"/>
<path d="M324.68 197.624C327.919 191.145 330.348 185.475 333.587 180.616C335.206 177.781 338.04 175.351 340.469 173.326C341.683 172.516 345.327 172.111 346.137 173.326C347.756 174.946 348.97 178.186 348.566 179.806C346.137 187.095 343.708 194.385 340.469 201.269C335.206 212.203 331.562 223.542 329.943 235.286C329.133 240.956 328.324 246.221 327.919 251.89C327.514 255.94 329.538 259.18 332.777 262.014C334.801 263.634 335.611 266.874 337.23 269.304C328.324 272.949 320.227 269.709 316.179 262.419C313.75 257.965 311.321 253.105 308.487 249.055C302.414 263.634 290.674 272.544 280.553 283.073C274.48 289.552 267.598 294.817 260.716 300.081C257.072 302.916 252.619 303.726 248.166 301.701C242.498 299.271 240.474 294.817 239.259 289.552C237.235 279.428 240.474 269.709 244.117 260.395C251 242.171 259.501 224.352 270.432 208.559C277.314 198.434 286.221 189.12 298.771 185.07C305.653 182.641 311.725 183.856 316.583 189.12C319.012 191.55 321.441 194.385 324.68 197.624ZM253.429 280.238C254.238 281.858 254.238 283.883 255.048 284.288C257.072 284.693 259.501 284.693 260.716 283.883C263.954 281.858 267.193 279.428 269.622 276.998C278.124 268.494 286.625 259.585 295.127 250.675C303.629 241.766 308.891 230.427 314.559 219.898C317.393 214.633 316.988 210.178 313.75 205.724C308.487 197.219 298.771 198.029 293.508 203.699C278.529 219.898 267.193 238.931 259.501 259.585C257.477 266.064 255.453 273.353 253.429 280.238Z" fill="#C2A263"/>
<path d="M670.412 359.207C665.959 363.661 662.315 367.711 658.267 371.761C654.218 375.811 649.765 379.455 643.693 377.835C640.859 377.025 637.215 375.406 635.191 373.381C629.523 366.901 627.904 359.207 628.714 349.893C630.333 336.529 631.952 323.57 636.001 310.611C636.81 307.776 638.025 304.941 638.835 302.106C640.859 295.627 646.122 292.792 652.194 290.767C656.243 289.552 660.696 292.792 662.315 297.247C663.934 301.701 663.125 304.941 658.672 306.966C654.218 308.991 653.409 313.445 652.599 317.09C650.17 329.239 648.146 341.793 646.122 353.942C645.717 355.562 646.931 357.182 647.741 360.422C651.384 356.372 654.218 353.942 656.647 350.702C660.696 345.843 665.149 340.983 667.578 335.314C670.412 329.644 672.031 323.57 672.841 317.495C674.46 304.536 678.913 292.387 684.176 281.048C686.201 276.998 687.82 272.949 690.249 269.304C692.678 265.659 699.965 264.039 703.609 265.659C706.847 267.279 708.467 272.544 707.252 277.403C703.609 290.362 699.155 303.321 696.322 316.685C693.892 327.619 692.678 339.363 691.868 350.702C691.059 357.587 691.868 364.471 691.868 371.761C691.868 375.001 690.249 377.025 686.605 376.215C681.747 375.406 678.104 373.381 676.08 368.521C674.055 365.686 672.031 362.852 670.412 359.207Z" fill="#C2A263"/>
<path d="M415.769 332.479C418.603 334.504 422.651 336.124 424.675 338.958C428.724 343.818 431.557 349.893 435.606 355.157C439.654 360.422 438.44 365.686 436.82 371.356C432.772 384.315 429.128 397.274 425.485 410.638C425.08 412.663 425.485 415.093 425.89 417.522C426.295 421.167 427.104 424.812 427.509 428.456C427.509 431.696 425.08 433.316 422.651 431.696C414.554 426.837 409.291 429.671 403.219 436.556C397.146 443.44 387.835 442.225 382.977 433.316C377.714 424.002 376.499 413.473 378.928 403.348C381.358 391.199 384.191 378.645 387.835 366.496C391.478 354.347 397.551 343.008 409.291 336.124C410.911 334.909 413.34 334.099 415.769 332.479ZM408.077 364.067C407.267 364.067 406.862 364.067 406.053 364.067C404.433 368.926 402.409 373.786 401.599 378.645C399.575 391.604 397.551 404.563 395.932 417.522C395.527 420.762 396.741 422.382 400.385 420.762C404.433 419.142 408.077 414.688 408.482 409.423C408.887 399.704 409.291 389.985 409.291 379.86C409.291 375.001 408.482 369.331 408.077 364.067Z" fill="#C2A263"/>
<path d="M609.281 136.474C610.091 124.73 615.354 113.796 621.831 103.672C625.475 98.0023 629.523 92.3327 636.81 90.3079C643.693 88.283 650.575 85.4482 657.862 83.4234C666.364 80.9936 676.08 85.8532 678.104 94.7625C678.914 98.0023 678.104 101.647 677.294 105.292C674.46 118.656 669.198 130.805 658.672 140.119C654.219 144.169 650.17 148.218 645.717 152.268C638.025 158.747 623.451 160.367 616.569 154.293C611.711 149.433 609.281 143.764 609.281 136.474ZM657.862 106.507C657.052 106.102 656.648 105.697 655.838 105.292C653.004 107.317 649.765 108.936 647.336 111.771C641.264 118.656 635.596 125.945 629.523 133.235C629.119 134.044 629.119 135.664 629.928 136.474C630.738 137.284 631.952 137.689 633.167 137.689C634.786 137.284 636.001 136.474 637.215 135.664C645.717 129.995 651.385 121.895 655.838 112.986C657.052 111.366 657.457 108.936 657.862 106.507Z" fill="#C2A263"/>
<path d="M779.718 82.6135C780.933 80.5886 781.742 78.1588 783.362 76.5389C791.863 68.0346 801.984 63.175 812.915 58.3154C836.396 48.1912 860.686 41.3067 885.381 35.6371C898.336 32.8024 910.886 29.9676 923.841 27.5378C930.723 26.3229 937.605 25.5129 944.487 25.5129C947.321 25.5129 950.56 26.3229 952.989 27.5378C954.608 28.3477 955.823 30.3726 955.823 31.9924C955.823 32.8024 953.799 34.4222 952.179 34.8272C946.107 36.8521 939.629 38.4719 933.557 40.0918C914.125 45.3564 894.287 50.216 874.855 56.6955C854.613 63.175 834.776 70.4644 815.344 78.1588C810.891 79.7787 807.247 83.8284 804.413 87.4731C800.365 92.3327 792.673 95.1675 786.6 92.3327C782.147 91.1178 780.123 87.878 779.718 82.6135Z" fill="#C2A263"/>
</g>
<defs>
<clipPath id="clip0_2089_131">
<rect width="1138" height="701" fill="white"/>
</clipPath>
</defs>
</svg>
