<svg width="1138" height="808" viewBox="0 0 1138 808" fill="none" xmlns="http://www.w3.org/2000/svg">
<g clip-path="url(#clip0_2089_100)">
<path d="M253.17 318.227C251.725 321.478 251.003 325.451 248.836 327.618C236.557 340.261 224.277 352.542 211.276 364.462C195.024 379.271 176.966 391.552 158.908 403.472C137.239 417.198 114.125 428.757 88.8442 433.814C70.4253 437.426 51.6452 438.871 33.5874 430.925C22.7528 426.229 14.4462 418.282 9.02888 407.807C2.88924 396.248 0 383.967 0 370.963C0 364.823 0 358.682 0 352.181C0 333.398 3.2504 315.337 8.30657 297.276C11.9181 283.912 14.8074 270.547 19.5024 257.904C24.5586 243.095 30.6982 228.646 37.199 214.198C42.6163 201.556 48.756 188.913 55.2567 176.632C64.6468 158.21 75.8426 141.233 88.483 124.979C96.7896 114.143 105.818 104.029 115.57 94.6371C128.932 81.2723 144.101 70.436 162.159 64.6566C180.578 58.8773 198.274 62.1282 213.082 75.1317C230.778 90.6638 240.168 111.614 244.141 134.37C246.308 146.29 248.475 158.21 249.197 170.13C250.281 184.217 245.947 197.943 240.891 210.947C237.64 219.616 232.223 226.479 226.805 233.342C219.221 242.372 207.664 241.65 200.802 231.897C195.385 224.312 193.579 215.282 192.496 206.251C191.412 198.666 191.051 191.08 191.773 183.495C192.496 171.936 193.579 160.378 195.024 149.18C197.191 135.454 199.719 121.728 202.969 108.363C204.053 104.029 206.581 100.055 209.109 96.082C211.276 92.8311 210.915 91.025 208.387 88.8578C195.024 77.299 180.216 74.4093 163.603 80.9111C148.435 86.6905 135.794 95.7208 124.96 107.641C106.18 128.23 88.483 149.902 75.4814 175.187C70.4253 185.301 64.2856 195.054 59.5906 205.168C52.7287 219.616 46.9502 234.426 40.8105 249.235C37.199 257.543 33.5874 266.212 31.4205 274.881C27.4478 290.052 24.9197 305.584 21.6693 320.755C19.8635 329.063 18.0578 337.732 16.6131 346.04C15.8908 351.097 16.6131 356.154 16.252 361.211C15.1685 372.408 17.6966 382.883 20.5858 393.359C24.5586 408.168 35.3932 415.754 49.8394 418.282C54.5344 419.366 59.5906 420.088 64.6468 420.088C76.9261 420.449 89.2053 417.56 101.123 414.309C130.016 406.362 155.297 390.83 179.855 374.214C194.301 364.462 208.748 354.348 221.388 342.428C229.334 334.842 237.64 327.979 245.586 320.755C247.391 318.949 249.919 317.865 252.447 316.782C252.086 317.143 252.447 317.865 253.17 318.227ZM204.414 193.248C204.053 193.248 203.692 193.609 203.33 193.609C205.136 201.556 206.942 209.863 209.109 217.81C210.553 222.867 214.887 223.951 218.138 219.977C219.944 218.171 221.388 215.643 222.833 213.476C232.223 197.582 232.945 179.883 233.667 162.545C234.029 153.153 231.5 143.039 229.334 133.648C226.805 124.256 223.194 115.587 219.944 106.557C219.221 105.112 217.777 103.667 216.332 102.223C215.249 103.667 213.804 105.112 213.443 106.557C210.915 122.089 208.025 137.982 206.581 153.515C205.136 166.879 205.136 179.883 204.414 193.248Z" fill="#C2A263"/>
<path d="M303.009 510.391C301.565 516.171 300.12 521.227 299.398 525.923C295.064 546.873 290.73 567.824 286.396 589.135C283.868 601.778 282.423 614.42 279.895 627.423C276.284 647.29 277.728 667.518 277.367 687.746C277.367 691.719 278.812 695.692 278.812 699.666C278.812 701.11 277.367 703.639 275.923 704C273.756 705.084 271.589 703.278 271.228 701.111C269.422 693.886 266.533 686.301 266.171 679.077C265.81 667.518 266.894 655.598 267.616 644.039C267.977 636.815 268.338 629.591 269.422 622.367C271.228 608.279 272.672 594.553 275.2 580.466C278.451 562.406 282.423 544.706 286.035 527.007C286.757 522.672 287.841 517.977 288.563 513.642C289.646 507.501 286.035 502.445 283.507 497.026C277.006 481.133 277.367 465.601 283.868 450.069C288.563 438.51 295.425 428.396 303.37 419.005C310.232 411.419 313.483 402.028 316.011 392.636C316.372 391.914 316.372 390.83 316.733 390.469C319.261 389.024 321.789 386.135 324.317 386.496C327.568 386.857 328.29 390.83 327.929 394.081C326.845 402.75 326.845 403.112 335.513 402.389C345.987 401.667 355.016 404.556 362.6 411.058C369.101 416.476 372.351 424.062 374.518 432.37C379.574 452.959 374.518 471.742 364.406 489.441C357.544 501 348.876 510.391 337.68 517.615C329.374 523.034 320.345 525.562 311.316 520.144C308.788 517.254 306.621 514.003 303.009 510.391ZM343.097 438.871C341.653 441.761 340.93 445.012 338.764 447.54C330.457 456.932 323.956 467.407 319.261 478.966C317.094 483.662 316.011 489.441 316.372 494.498C316.733 501.361 320.706 504.251 326.484 500.638C330.457 498.11 334.791 495.943 338.041 492.692C347.792 482.578 354.654 470.658 358.988 457.293C362.239 446.818 361.516 437.065 355.016 427.674C346.709 415.393 332.263 414.309 323.234 424.423C319.983 428.035 318.9 432.37 318.178 437.065C316.733 445.012 314.566 452.959 312.76 461.266C314.566 460.905 315.65 459.822 316.372 459.099C321.067 453.681 325.401 447.902 330.096 442.845C333.707 439.233 336.958 435.259 343.097 438.871ZM293.258 489.441C297.592 472.464 301.565 456.571 305.537 440.316C295.425 442.122 287.118 476.076 293.258 489.441Z" fill="#C2A263"/>
<path d="M560.513 230.091C552.567 231.536 546.067 229.008 542.455 221.422C539.566 215.643 538.121 209.141 536.315 202.639C535.954 201.556 535.593 200.111 534.871 197.582C532.343 201.556 530.537 204.806 528.009 207.696C521.508 216.004 515.007 224.312 507.784 231.897C502.367 237.677 491.893 238.76 486.115 230.814C485.393 229.73 483.948 228.646 482.503 226.84C481.059 228.646 479.614 229.73 478.892 231.536C472.752 244.54 462.64 254.292 451.444 262.961C448.194 265.49 444.221 266.935 440.248 268.38C434.109 270.547 426.885 268.38 422.913 263.323C416.412 254.654 414.245 245.262 416.051 234.426C417.857 225.034 420.746 216.365 425.802 208.419C429.414 202.639 439.887 201.556 444.943 205.89C445.665 206.613 446.749 208.057 446.749 209.141C446.027 218.171 445.304 227.202 444.221 236.232C443.86 238.038 442.415 239.844 441.693 242.011C440.97 243.817 440.248 245.985 439.526 248.152C447.11 247.068 450.722 242.011 454.333 236.954C461.556 227.202 468.418 217.449 474.919 207.335C476.725 204.806 477.808 201.194 477.808 197.943C478.892 180.244 482.503 162.906 489.004 146.29C491.171 140.511 494.06 134.37 496.95 128.952C499.116 125.34 502.006 121.728 505.617 119.561C507.423 118.116 511.396 118.477 513.924 119.561C517.535 121.367 518.98 124.979 518.619 129.313C515.368 153.515 506.701 175.548 496.227 197.582C493.338 203.362 494.783 209.141 497.311 214.559C498.755 217.449 500.922 217.088 502.367 214.92C507.423 208.057 512.84 201.556 517.535 194.331C523.314 186.024 529.454 177.716 533.787 169.047C538.482 159.655 541.372 149.18 544.261 139.066C547.15 128.591 552.567 119.922 559.429 111.975C561.957 109.086 564.847 108.363 567.375 109.447C569.542 110.53 572.07 113.059 572.792 115.587C573.514 119.199 573.153 123.173 571.709 126.424C563.763 143.039 557.985 160.378 555.818 178.799C554.734 188.552 553.651 198.666 553.29 208.78C553.29 212.031 554.734 216.004 556.901 218.894C560.152 222.867 561.235 225.757 560.513 230.091Z" fill="#C2A263"/>
<path d="M1084.19 274.52C1073.71 274.52 1063.6 272.714 1054.93 266.574C1043.38 258.266 1036.15 247.068 1032.54 233.342C1030.74 226.479 1027.85 221.783 1021.71 217.81C1012.32 211.669 1007.62 202.278 1006.18 191.442C1005.82 187.468 1005.82 183.134 1006.18 178.799C1006.18 175.187 1007.98 171.936 1011.6 170.853C1015.57 169.769 1018.46 172.297 1020.99 175.187C1022.43 176.993 1024.6 178.438 1026.4 179.883C1027.13 177.716 1028.57 175.548 1028.57 173.381C1031.46 155.321 1035.07 137.621 1041.93 120.644C1049.16 102.223 1058.55 85.2457 1070.83 69.3524C1074.8 64.2954 1079.85 59.5997 1087.44 60.3221C1089.61 60.6833 1092.49 61.7669 1093.94 63.573C1100.44 70.7972 1103.33 79.8275 1104.05 89.5802C1105.86 105.473 1104.41 121.006 1099.72 135.815C1093.94 153.515 1087.44 171.214 1075.16 185.662C1067.21 195.054 1058.91 204.084 1050.24 213.114C1046.99 216.365 1045.91 219.977 1046.99 223.589C1049.16 230.814 1051.68 238.038 1055.3 244.178C1061.44 254.654 1071.19 259.349 1083.1 259.711C1096.11 260.072 1108.39 257.904 1120.66 253.931C1124.28 252.848 1127.53 251.764 1131.14 251.041C1133.67 250.68 1136.56 250.68 1137.28 253.931C1138 257.182 1136.19 259.349 1133.67 260.072C1122.83 264.045 1112.36 268.018 1101.52 271.269C1096.11 273.437 1089.97 273.437 1084.19 274.52ZM1044.46 195.776C1044.82 195.776 1045.54 196.137 1045.91 196.137C1047.35 195.054 1048.79 194.331 1049.88 193.248C1054.21 188.191 1058.18 182.773 1062.52 177.716C1071.55 166.879 1076.96 153.876 1083.47 141.233C1089.61 128.591 1091.05 115.226 1091.77 101.5C1092.13 95.3596 1089.61 88.8578 1088.16 82.356C1087.8 81.2723 1086.35 79.8275 1085.27 79.8275C1083.83 79.8275 1082.38 80.9111 1081.66 81.9948C1073.35 96.4432 1065.41 111.253 1059.63 127.146C1053.13 146.29 1046.63 165.796 1044.46 186.023C1044.1 189.274 1044.46 192.525 1044.46 195.776Z" fill="#C2A263"/>
<path d="M850.159 304.862C851.243 295.109 852.687 284.995 853.771 274.882C854.493 268.38 854.854 262.239 855.577 255.737C855.938 251.042 856.66 246.346 857.382 241.65C857.382 240.205 857.744 239.122 857.382 237.677C856.66 232.259 854.132 231.536 849.798 234.787C840.769 241.65 835.713 251.403 829.212 260.433C824.878 266.574 824.878 273.437 823.795 280.3C821.267 295.471 820.183 311.364 810.793 324.729C806.821 330.869 803.57 333.036 799.598 331.23C794.541 329.424 793.097 322.561 793.458 317.866C793.819 314.254 794.903 310.28 795.986 306.668C798.153 298.721 800.32 290.775 802.848 282.828C804.293 278.132 807.182 273.798 808.988 269.463C810.793 264.768 810.071 260.072 807.904 255.376C806.459 252.486 803.931 252.125 802.126 254.293C793.458 264.768 786.596 275.965 783.707 289.33C780.095 305.946 776.484 322.561 772.511 339.177C771.427 344.234 770.344 349.652 768.538 354.709C766.732 359.044 763.482 360.85 760.232 359.766C756.981 358.682 754.092 353.264 755.175 349.291C759.148 330.147 763.121 311.003 767.094 291.858C768.538 284.995 771.427 278.494 772.511 271.992C773.233 264.406 777.928 260.072 782.262 255.376C786.957 250.68 790.93 245.262 795.264 240.567C803.209 232.259 811.877 232.981 818.739 242.373C820.906 245.262 822.35 245.262 824.878 242.373C832.824 233.342 839.325 222.506 850.159 216.004C857.382 211.67 864.605 213.114 868.578 220.7C872.551 228.285 874.357 236.593 872.912 245.262C870.745 257.182 870.023 269.102 868.217 281.022C867.134 290.052 865.328 299.083 863.883 308.474C863.161 312.809 863.161 317.143 862.8 321.839C862.8 324.367 863.522 327.98 859.91 327.98C856.66 328.341 853.771 326.173 852.326 322.923C851.243 320.755 850.882 317.866 850.52 315.698C850.882 312.086 850.52 308.835 850.159 304.862Z" fill="#C2A263"/>
<path d="M345.987 273.798C343.097 276.687 340.93 278.855 339.125 281.022C334.43 286.801 329.735 292.942 325.04 298.721C319.622 305.223 307.704 308.113 301.926 304.862C296.508 301.972 294.703 296.915 292.897 291.136C289.646 279.938 293.98 269.824 296.87 259.711C300.842 246.707 305.537 234.065 311.316 221.783C318.178 208.057 325.762 194.331 337.319 183.856C340.208 181.328 343.459 179.161 346.348 176.993C352.487 172.659 358.988 174.104 364.767 178.077C368.378 180.605 370.545 179.883 373.073 176.993C376.685 173.381 379.935 172.659 383.186 174.826C386.436 176.993 387.881 180.967 386.436 184.94C384.63 189.997 383.186 194.693 380.658 199.388C378.491 203.723 378.129 208.057 379.213 212.392C381.38 223.951 378.852 234.787 376.324 245.623C375.963 247.791 373.796 249.958 371.99 251.042C365.128 255.015 364.044 261.155 363.322 268.018C362.961 271.631 362.239 275.243 361.877 278.855C361.155 283.912 363.322 288.607 365.489 292.942C366.572 295.47 367.656 299.083 366.934 301.611C366.211 304.501 362.6 305.223 360.072 303.778C352.849 300.166 348.876 294.387 347.792 286.44C347.792 282.467 347.07 278.855 345.987 273.798ZM307.343 281.744C307.704 281.744 308.065 282.106 308.427 282.106C308.427 282.467 308.065 282.828 308.427 283.55C309.149 285.718 309.51 288.246 310.593 289.691C310.955 290.052 314.566 289.33 315.65 288.246C321.067 283.189 326.484 278.494 331.179 272.714C338.764 263.323 345.626 253.57 349.598 242.011C351.404 236.232 351.765 230.091 353.571 224.312C355.738 217.088 357.905 209.863 360.794 203C362.6 198.666 361.516 196.137 358.988 192.887C357.182 190.719 355.016 190.358 352.849 192.525C344.181 201.194 335.874 210.225 330.457 221.422C325.04 231.897 320.345 242.734 316.011 253.931C312.399 262.961 310.232 272.714 307.343 281.744Z" fill="#C2A263"/>
<path d="M658.747 374.937C662.359 370.602 665.97 366.629 669.221 362.295C670.665 360.488 671.387 358.321 673.193 356.876C680.055 351.458 678.972 345.318 675.721 338.455C672.11 331.23 669.943 323.645 671.387 315.698C673.193 305.946 675.721 296.193 678.972 286.801C684.389 271.992 692.696 258.627 703.891 247.429C707.142 244.179 711.115 241.65 715.087 239.844C720.505 236.954 724.477 238.76 728.45 243.456C734.59 250.68 732.423 258.627 730.617 266.574C724.477 293.303 714.726 318.588 702.086 342.789C699.919 346.762 699.196 350.736 700.641 355.431C701.725 358.682 699.919 360.85 696.668 360.85C692.696 360.85 689.806 362.656 687.639 366.268C679.694 378.91 668.859 389.024 658.025 399.138C653.691 403.473 647.551 406.723 641.05 403.834C633.827 400.944 630.216 394.442 632.022 386.134C633.466 377.465 635.994 369.157 641.773 361.933C643.94 359.044 646.468 356.876 649.357 357.96C651.885 359.044 653.691 362.294 655.135 365.184C656.58 367.713 656.941 370.964 657.664 373.853C657.302 374.576 658.025 374.576 658.747 374.937ZM712.92 268.741C703.53 276.326 685.834 317.504 690.529 330.508C693.418 325.09 695.946 320.755 697.752 316.06C703.169 302.333 707.864 288.607 712.92 274.881C713.281 273.075 712.92 271.269 712.92 268.741Z" fill="#C2A263"/>
<path d="M619.381 157.849C621.548 150.625 623.354 142.678 625.882 135.815C629.855 125.34 634.188 114.865 639.606 104.751C647.912 89.2192 659.469 76.938 677.166 71.5198C682.944 69.7138 688.001 67.9077 693.779 70.4362C699.919 73.3259 701.725 78.7441 703.53 84.5234C706.781 94.2761 703.53 103.306 701.363 112.698C698.113 128.952 690.89 143.762 680.416 156.766C671.026 168.324 660.192 178.438 645.023 182.412C633.466 185.301 624.076 177.355 621.187 167.963C620.103 164.712 620.103 161.1 619.742 157.849C620.103 158.21 619.742 157.849 619.381 157.849ZM682.222 93.1925C681.139 93.9149 679.694 94.6373 678.611 95.3598C667.776 105.474 659.469 117.032 655.135 131.12C654.413 133.648 651.524 135.815 649.718 137.983C648.635 139.427 646.468 140.15 646.107 141.956C644.301 146.652 642.856 151.709 641.773 156.404C641.412 157.488 642.134 159.655 642.856 160.017C643.94 160.739 646.107 160.739 647.19 160.017C651.163 157.488 655.497 154.96 659.108 151.709C673.193 138.705 681.139 122.089 684.75 103.306C685.111 100.778 686.556 96.8046 682.222 93.1925Z" fill="#C2A263"/>
<path d="M917.334 284.273C925.641 276.326 933.947 268.38 935.753 256.46C939.365 235.51 948.032 216.365 956.339 196.86C957.783 193.609 960.312 190.719 962.479 187.83C965.007 184.94 967.896 184.579 971.507 186.385C975.119 188.191 976.564 191.803 975.48 195.415C972.591 204.807 969.702 214.198 966.09 223.59C959.228 241.289 954.533 259.35 950.199 277.41C948.032 286.079 948.755 293.665 952.005 301.972C953.089 304.501 952.727 308.835 951.283 309.919C948.755 311.725 945.504 310.28 942.976 307.752C938.281 303.417 935.753 298.36 934.67 292.22C934.67 291.136 933.586 289.33 932.864 288.969C931.78 288.608 930.336 289.691 929.252 290.414C926.363 292.942 923.835 296.193 920.946 298.722C914.084 304.14 906.499 301.611 902.166 292.942C899.999 288.246 898.193 282.828 897.832 277.771C896.748 250.68 903.249 225.035 914.084 200.111C915.167 197.221 916.973 194.693 920.223 195.415C923.474 196.138 926.002 198.666 925.28 202.639C924.196 207.696 923.474 212.753 922.39 217.449C920.223 228.647 917.695 240.205 915.89 251.403C914.445 258.988 913.723 266.935 912.278 274.52C911.917 279.577 913 282.106 917.334 284.273Z" fill="#C2A263"/>
<path d="M191.412 491.247C196.107 485.467 200.08 480.772 203.692 475.715C211.276 465.962 220.666 458.738 231.5 452.958C236.557 450.43 241.613 447.901 247.391 447.179C258.587 445.373 263.282 452.958 265.449 460.183C267.616 468.129 268.699 476.076 267.616 484.384C266.171 499.916 258.948 513.642 256.059 528.452C255.337 532.064 253.531 534.953 252.809 538.565C252.086 541.455 250.281 541.816 248.475 541.094C247.03 540.371 244.863 538.565 244.863 537.482C245.224 530.619 246.308 523.756 247.391 516.893C249.558 505.334 252.086 493.775 253.892 481.855C254.614 477.882 253.892 473.186 253.17 469.213C252.447 464.878 248.836 462.711 244.863 464.878C237.279 468.852 229.334 472.464 222.472 477.882C208.387 488.718 198.274 502.806 191.051 518.699C187.801 526.284 186.356 535.314 183.828 543.261C179.855 556.626 175.883 570.352 171.549 583.717C170.104 587.69 166.854 589.496 162.52 588.412C159.269 587.329 158.908 584.439 158.547 581.549C158.186 572.158 161.436 563.489 163.964 555.181C167.215 543.261 171.549 531.702 175.521 519.782C179.133 508.585 180.578 497.387 177.327 485.829C176.605 482.578 175.883 479.327 175.16 476.437C174.438 473.547 174.799 470.297 178.049 469.213C180.939 468.129 183.828 468.852 184.911 472.464C185.995 476.076 187.078 480.049 188.523 483.661C189.606 485.829 190.329 487.996 191.412 491.247Z" fill="#C2A263"/>
<path d="M586.877 413.225C576.765 413.225 578.57 404.195 573.875 399.499C569.903 402.028 565.93 404.917 561.957 407.807C556.901 411.058 552.567 410.697 548.233 406.724C547.872 406.362 547.15 406.001 546.428 405.64C546.067 405.279 545.344 405.279 544.261 404.917C543.538 408.168 543.177 411.058 542.094 413.948C541.372 416.115 540.288 418.282 538.843 419.727C535.232 422.978 531.259 421.533 530.898 416.837C530.537 410.697 530.898 404.556 531.62 398.416C533.065 388.302 534.51 378.188 536.677 368.435C540.288 352.903 544.261 337.371 548.233 322.2C549.678 316.782 551.123 311.364 553.29 305.946C554.734 301.972 557.985 300.889 561.596 302.334C564.124 303.417 565.569 307.391 564.485 310.641C561.596 320.394 558.346 330.147 555.818 339.9C552.928 350.375 550.039 360.85 548.233 371.686C546.789 378.91 548.595 386.496 552.567 392.998C554.734 396.61 556.901 396.971 560.152 394.081C570.625 384.328 578.571 373.492 582.182 359.044C585.071 347.124 590.127 335.565 594.822 324.006C597.351 317.866 600.24 312.447 603.49 306.668C604.935 304.14 606.379 301.611 608.546 300.166C610.352 299.083 613.241 297.999 615.047 298.721C616.492 299.444 617.575 302.695 617.214 304.501C615.047 321.117 608.546 336.287 602.407 351.819C597.351 364.462 592.294 377.104 588.683 389.747C586.877 395.526 587.961 402.389 587.599 408.53C587.599 409.613 587.238 411.419 586.877 413.225Z" fill="#C2A263"/>
<path d="M810.793 85.9681C806.098 86.3293 802.848 86.6905 799.236 87.0517C795.986 87.4129 792.736 87.7742 789.846 87.4129C785.513 86.6905 782.623 83.8008 781.901 79.4663C781.179 74.0481 782.623 71.5197 788.041 68.63C808.626 56.71 830.657 46.9573 853.049 38.6495C877.607 28.8968 902.888 20.2277 927.808 10.8362C937.92 7.22413 948.394 3.61202 958.506 -9.25662e-05C962.117 -1.08373 963.201 1.08354 964.646 3.61202C966.451 6.86291 965.007 9.39139 962.117 10.8362C955.978 14.0871 949.477 17.338 943.337 20.2277C932.503 25.2847 921.668 29.9804 910.833 34.6762C890.609 43.7064 870.023 53.0979 849.798 62.1282C839.686 66.8239 829.573 70.7972 819.822 76.2154C815.85 78.7439 812.96 83.4396 810.793 85.9681Z" fill="#C2A263"/>
<path d="M414.606 426.229C416.051 418.282 417.134 408.53 419.662 399.138C421.829 389.385 425.08 379.994 428.33 370.602C429.052 368.435 430.858 366.268 433.025 364.823C435.553 363.017 439.165 361.572 442.054 364.462C444.943 366.99 444.582 370.241 443.499 373.492C440.971 381.439 438.081 389.024 435.914 396.61C432.664 409.613 430.497 422.617 430.858 435.982C430.858 436.704 430.858 437.065 430.858 437.788C432.303 440.677 433.747 443.206 435.192 446.096C436.998 444.289 439.526 442.845 440.971 441.039C446.388 433.814 452.166 426.951 456.5 419.366C460.112 412.864 461.918 405.279 464.084 397.693C467.335 385.412 470.946 373.492 478.892 363.378C480.698 361.211 482.864 358.682 485.393 357.599C487.56 356.515 491.171 356.515 492.616 357.96C495.144 360.127 497.311 363.739 495.505 367.713C491.171 377.104 486.476 386.496 482.503 396.248C478.531 405.64 474.919 415.393 471.669 425.145C469.141 432.731 471.669 440.316 472.752 447.902C473.113 449.708 472.03 451.514 471.669 453.32C469.863 452.597 467.335 452.597 465.89 451.514C463.723 449.346 461.918 446.457 460.834 443.928C459.028 440.677 457.584 441.039 455.417 443.206C452.166 447.179 449.277 451.875 445.666 455.487C442.776 458.377 439.526 461.266 435.914 462.711C429.775 465.601 424.357 463.072 420.385 454.765C418.218 450.069 417.134 444.289 416.051 438.871C415.328 435.259 415.329 431.647 414.606 426.229Z" fill="#C2A263"/>
</g>
<defs>
<clipPath id="clip0_2089_100">
<rect width="1138" height="704" fill="white"/>
</clipPath>
</defs>
</svg>
