<svg width="1138" height="808" viewBox="0 0 1138 808" fill="none" xmlns="http://www.w3.org/2000/svg">
<path d="M405.53 258.541C402.946 262.431 401.19 264.813 399.727 267.341C394.266 276.725 389.438 286.789 380.222 293.11C371.98 298.944 364.666 296.853 360.131 287.859C356.522 280.76 355.644 280.857 349.988 286.205C341.21 294.471 332.335 302.639 323.118 310.515C310.44 321.309 297.761 332.297 284.4 342.264C265.7 356.542 245.605 368.906 224.419 379.167C206.308 388.25 186.788 394.217 166.682 396.815C144.836 399.101 124.842 395.794 111.237 376.152C103.216 363.641 98.8738 349.138 98.7046 334.29C97.1081 310.029 99.2294 285.666 104.995 262.042C108.214 249.06 111.042 235.981 115.285 223.146C120.161 208.56 126.013 193.974 132.108 179.923C138.187 164.66 145.073 149.729 152.736 135.192C169.267 105.778 188.09 77.7239 216.91 58.665C237.342 45.1487 259.725 40.7729 281.62 55.1644C298.511 66.1012 310.392 83.2408 314.682 102.86C316.465 109.954 317.72 117.169 318.437 124.448C319.449 143.969 314.225 163.307 303.515 179.68C303.001 180.493 302.413 181.258 301.76 181.965C293.616 191.203 287.667 189.89 283.278 178.513C277.621 163.927 279.767 149.341 283.278 134.512C283.639 132.021 284.21 129.565 284.985 127.17C285.716 125.614 287.715 124.593 289.13 123.329C289.812 125.08 291.373 127.024 291.032 128.532C287.862 141.562 289.471 154.689 289.959 167.816C290.412 169.892 291.202 171.879 292.299 173.699C293.957 172.192 296.298 171.025 297.176 169.129C303.954 153.814 309.562 138.207 307.368 120.898C305.65 102.621 297.738 85.472 284.936 72.2785C269.819 57.0605 250.801 55.602 232.27 64.4508C210.18 74.904 195.112 93.0392 182.287 113.071C171.679 129.506 162.055 146.552 153.467 164.121C141.422 189.136 131.63 215.169 124.208 241.913C116.299 267.127 111.869 293.298 111.042 319.705C111.042 335.214 112.31 350.821 120.307 364.678C122.843 369.096 126.358 372.878 130.584 375.734C134.81 378.591 139.634 380.447 144.689 381.16C162.489 384.223 179.654 380.382 196.477 375.228C229.637 365.067 258.993 347.418 286.838 327.484C308.782 311.78 329.458 294.374 350.231 277.259C353.043 274.243 354.759 270.374 355.108 266.271C356.815 253.436 356.132 240.065 359.497 227.716C364.721 209.451 371.239 191.579 379.002 174.234C383.035 163.741 390.792 155.091 400.8 149.924C402.517 148.885 404.426 148.2 406.414 147.912C408.401 147.623 410.427 147.736 412.37 148.244C414.312 148.752 416.133 149.645 417.723 150.869C419.312 152.093 420.639 153.624 421.623 155.37C423.963 158.87 425.621 158.773 428.401 156.148C431.18 153.522 433.277 149.827 437.715 152.987C439.5 154.246 440.763 156.112 441.266 158.234C441.769 160.356 441.477 162.588 440.446 164.51C436.37 175.013 435.521 186.489 438.007 197.474C439.416 208.425 439.58 219.5 438.495 230.487C438.206 233.756 437.025 236.883 435.081 239.531C432.936 242.594 430.205 244.976 425.865 241.329C422.988 238.85 421.379 240.697 420.989 243.858C419.524 249.008 419.849 254.502 421.912 259.445C423.975 264.388 427.654 268.49 432.351 271.085C433.951 272.579 435.301 274.319 436.349 276.238C434.049 278.368 431.203 279.822 428.126 280.44C425.048 281.058 421.86 280.814 418.912 279.738C415.965 278.661 413.373 276.792 411.425 274.338C409.476 271.885 408.246 268.941 407.871 265.834C407.286 263.938 406.749 262.187 405.53 258.541ZM369.445 263.646H370.859C370.639 267.127 370.639 270.618 370.859 274.099C371.103 275.995 372.224 278.669 373.687 279.253C374.675 279.363 375.676 279.241 376.608 278.894C377.539 278.548 378.377 277.988 379.051 277.259C390.016 265.86 398.178 252.08 402.897 237.002C408.505 218.916 411.87 200.1 417.526 181.965C419.721 174.915 420.501 169.469 414.942 164.121C414.416 163.43 413.752 162.855 412.992 162.433C412.232 162.01 411.392 161.75 410.526 161.668C409.66 161.585 408.786 161.683 407.96 161.955C407.133 162.227 406.373 162.666 405.725 163.246C398.709 168.247 393.399 175.272 390.511 183.375C385.266 196.283 380.82 209.5 377.198 222.951C373.541 236.419 371.785 250.13 369.445 263.646Z" fill="#C2A263"/>
<path d="M131.086 576.511C121.333 588.86 111.921 601.745 101.291 613.413C94.0852 621.245 85.8891 628.109 76.9085 633.833C65.3513 641.175 54.0868 636.945 47.9912 624.547C43.8178 614.444 42.1452 603.488 43.1148 592.604C43.1148 586.964 43.7975 581.324 43.7975 575.733C43.7975 574.226 42.9685 571.843 41.8957 571.406C41.0772 571.328 40.2521 571.447 39.4888 571.751C38.7256 572.056 38.046 572.537 37.5068 573.156C30.0505 580.818 25.4254 590.778 24.3893 601.404C23.1701 620.512 19.5128 639.474 16.7332 658.435C15.705 665.54 14.1567 672.56 12.1006 679.439C11.5154 681.432 7.8581 684.301 6.68776 683.912C4.06331 682.773 1.98347 680.664 0.884782 678.029C-0.0156211 675.052 -0.232314 671.911 0.250821 668.84C1.71375 651.483 3.07916 634.077 5.12726 616.768C6.44124 608.924 8.21612 601.164 10.4426 593.528C14.9777 575.295 13.3685 556.868 12.0519 538.442C11.539 534.195 11.539 529.902 12.0519 525.655C12.442 523.369 15.0753 521.425 16.9283 519.285C18.44 521.425 20.9757 523.369 21.3171 525.655C23.0238 537.858 24.1454 549.965 25.5596 562.411C25.967 563.602 26.5068 564.743 27.1688 565.814C29.412 563.578 31.265 561.828 33.0693 559.98C42.5784 550.548 50.722 551.666 56.2324 563.675C57.9053 567.591 58.8631 571.773 59.0608 576.025C59.6459 586.283 59.5483 596.591 59.9872 606.898C60.5236 619.977 65.839 623.672 77.1523 617.011C86.8385 610.924 95.8031 603.764 103.875 595.667C112.799 587.013 120.455 577.192 128.696 567.857L136.157 559.202L141.668 567.176C142.997 563.692 144.009 560.096 144.691 556.431C145.91 536.983 146.885 517.535 147.91 498.087C147.91 496.92 147.617 495.462 148.202 494.635C149.697 492.754 151.327 490.983 153.079 489.336C154.298 491.232 156.687 493.128 156.59 494.975C156.004 511.409 154.98 527.842 154.103 544.227C154.029 545.393 154.029 546.562 154.103 547.728C154.103 553.125 155.468 553.854 160.393 551.569C168.973 547.283 178.504 545.242 188.091 545.637C210.474 547.047 222.568 561.925 218.13 583.852C216.498 592.359 212.819 600.343 207.408 607.118C201.997 613.893 195.017 619.257 187.067 622.748C179.216 626.492 170.975 627.61 163.368 621.727C155.761 615.844 155.37 606.023 157.175 597.174C159.846 585.57 165.453 574.84 173.462 566.009C175.001 563.941 176.387 561.764 177.607 559.494L176.242 557.598C170.878 559.98 165.66 562.46 160.198 564.55C152.981 567.176 153.566 572.962 153.03 578.845C150.982 599.719 148.722 620.544 146.251 641.321C145.325 649.1 145.325 655.907 153.127 660.769C155.3 662.574 156.977 664.9 158.004 667.527C158.443 668.402 157.467 670.541 156.492 671.368C155.517 672.195 153.908 671.368 152.932 670.542C144.496 664.756 144.545 664.707 143.179 674.723C139.424 706.715 135.328 738.609 132.11 770.65C131.672 781.056 131.867 791.48 132.695 801.864C132.667 803.652 132.537 805.438 132.305 807.212C129.947 806.434 127.906 804.913 126.49 802.879C125.074 800.844 124.36 798.406 124.454 795.932C123.829 779.074 124.399 762.193 126.161 745.416C129.184 720.036 131.037 694.462 133.183 668.986C133.67 663.2 136.84 657.414 132.646 651.58C130.417 648.212 128.569 644.608 127.136 640.835C121.606 627.681 120.294 613.143 123.381 599.216C125.368 592.527 127.93 586.02 131.037 579.768C131.476 578.747 131.817 577.726 132.207 576.754L131.086 576.511ZM166.245 600.529C167.025 607.773 171.121 611.712 176.437 609.961C182.312 608.195 187.779 605.288 192.524 601.409C197.269 597.529 201.199 592.752 204.086 587.353C211.449 573.885 207.451 563.529 193.797 558.765C190.53 557.598 187.701 557.403 185.751 560.904C180.874 569.121 175.998 577.143 171.95 585.554C169.767 590.435 167.862 595.434 166.245 600.529ZM142.155 582.248C129.915 593.382 126.843 628.242 137.279 639.571C138.254 620.269 141.96 601.356 142.155 582.248Z" fill="#C2A263"/>
<path d="M609.464 173.212C605.563 179.582 601.905 186.145 597.663 192.271C595.078 195.909 592.01 199.18 588.544 201.995C579.376 209.386 568.599 206.031 564.601 194.8C564.015 193.244 563.577 191.639 562.552 188.479L558.749 193.876C549.386 206.955 540.755 220.617 530.417 232.772C524.807 238.624 517.96 243.158 510.375 246.045C497.159 251.831 482.091 241.426 478.044 227.618C474.347 213.275 476.083 198.077 482.92 184.93C483.914 183.266 485.248 181.83 486.836 180.716C488.424 179.602 490.231 178.834 492.137 178.463C496.477 177.734 497.696 182.547 499.695 185.999C504.572 194.605 502.865 203.259 500.963 212.06C500.085 216.046 499.11 219.985 498.427 224.02C497.745 228.056 499.695 230.049 504.035 229.757C512.813 229.174 518.664 223.485 524.126 217.845C538.108 202.71 549.626 185.484 558.261 166.795C559.685 163.178 560.683 159.409 561.236 155.563C564.601 140.978 566.941 125.808 571.476 111.465C577.426 92.8441 584.643 74.6602 592.201 56.6709C595.836 49.3958 600.198 42.5055 605.221 36.1048C607.269 33.139 611.024 30.4163 614.097 33.1876C615.55 34.4756 616.714 36.0553 617.512 37.8233C618.311 39.5912 618.725 41.5074 618.729 43.4463C616.804 52.6866 614.295 61.7967 611.219 70.7221C608.83 78.5012 606.343 86.2317 603.271 93.7678C595.859 112.243 587.764 130.427 580.693 149.048C575.968 159.738 574.607 171.605 576.792 183.082C578.498 189.986 581.668 191.007 586.008 185.367C592.927 177.29 599.021 168.543 604.197 159.259C611.707 144.673 618.046 129.017 624.093 113.507C629.652 99.2618 633.846 84.3355 639.259 70.1872C644.428 57.1084 650.719 44.4187 656.619 31.5831C658.3 27.2632 660.476 23.1518 663.105 19.3309C664.811 17.0944 668.274 16.2679 671.005 14.8093C672.224 17.6779 674.906 20.7895 674.418 23.2691C672.735 30.4425 670.468 37.4671 667.64 44.2729C660.618 61.9219 653.01 79.2305 646.232 97.0254C641.648 109.521 639.21 122.794 634.87 135.338C629.232 150.876 625.818 167.129 624.727 183.617C624.647 193.828 625.102 204.036 626.093 214.199C626.517 216.287 626.826 218.397 627.019 220.52C626.616 222.252 625.906 223.898 624.922 225.382C623.459 224.312 621.314 223.631 620.631 222.221C614.145 209.564 610.926 195.493 611.268 181.283C611.268 178.512 610.976 175.741 610.829 172.969L609.464 173.212Z" fill="#C2A263"/>
<path d="M1092.72 344.987C1060.49 345.425 1038.25 340.125 1020.99 321.844C1014.69 314.518 1009.98 305.978 1007.14 296.756C1002.26 283.435 1004.51 269.043 998.948 256.013C997.975 252.652 997.596 249.148 997.827 245.657C997.593 242.628 998.265 239.598 999.758 236.95C1001.25 234.302 1003.5 232.155 1006.21 230.779C1008.62 229.324 1010.57 227.239 1011.87 224.751C1018.89 211.672 1024.7 197.815 1032.69 185.369C1040.78 172.241 1051.64 161.038 1064.54 152.55C1068.99 149.488 1073.94 147.218 1079.17 145.841C1084.47 144.741 1089.99 145.651 1094.65 148.394C1099.31 151.136 1102.78 155.513 1104.38 160.67C1109.81 175.868 1110.3 192.385 1105.79 207.88C1098.72 235.335 1082.29 259.484 1059.32 276.19C1049.13 283.824 1038.11 290.096 1024.31 287.519C1020.4 286.789 1019.92 289.22 1021.09 292.138C1029.52 313.044 1045.23 324.907 1067.02 330.11C1084.97 334.437 1102.96 333.562 1121.01 332.881C1124.27 332.881 1127.44 331.082 1130.76 331.033C1133.2 331.033 1137.39 331.909 1137.78 333.27C1138.8 336.771 1136.12 338.764 1132.47 339.25L1092.72 344.987ZM1095.45 182.062C1095.1 178.013 1094.52 173.987 1093.7 170.005C1091.84 162.371 1085.5 159.26 1079.07 163.636C1057.37 177.65 1040.57 198.036 1030.99 221.979C1024.42 234.52 1020.27 248.174 1018.75 262.236C1018.83 263.667 1019.22 265.063 1019.9 266.324C1020.59 267.584 1021.54 268.679 1022.7 269.529C1030.01 274.391 1037.33 270.891 1043.52 267.098C1074 247.796 1093.84 221.736 1095.45 182.062Z" fill="#C2A263"/>
<path d="M589.422 332.832C588.905 347.233 584.817 361.281 577.524 373.721C558.652 409.797 530.759 438.386 500.769 465.175C497.55 468.044 496.429 470.475 498.769 474.559C506.669 488.464 503.353 500.668 489.846 510.149C482.336 515.4 474.143 518.122 465.756 513.941C457.369 509.76 453.126 500.814 452.443 490.847C451.167 466.885 456.425 443.027 467.658 421.806C475.306 404.876 483.835 388.355 493.21 372.312C508.279 348.391 524.322 324.81 549.436 309.543C557.774 304.681 566.698 301.667 575.964 306.578C580.434 309.273 584.062 313.158 586.439 317.796C588.817 322.434 589.85 327.641 589.422 332.832ZM468.097 454.139C470.194 456.472 476.435 455.986 472.534 461.529C471.608 462.793 471.803 464.835 471.462 466.391C473.259 466.609 475.077 466.609 476.874 466.391C478.77 465.932 480.537 465.051 482.043 463.814C492.9 455.709 503.241 446.941 513.009 437.559C528.361 421.413 542.848 404.469 556.409 386.8C563.573 376.01 569.789 364.623 574.988 352.766C579.159 344.992 580.338 335.967 578.304 327.387C578.044 325.491 577.317 323.689 576.187 322.143C575.058 320.596 573.561 319.353 571.831 318.524C570.102 317.695 568.193 317.307 566.276 317.395C564.359 317.482 562.493 318.042 560.847 319.024C554.915 321.864 549.348 325.406 544.267 329.575C522.664 348.002 508.083 371.923 494.088 396.038C487.407 407.561 481.604 419.619 476.045 431.725C472.729 439.018 470.681 446.7 468.097 454.139ZM471.169 497.41C470.825 494.733 470.629 492.038 470.584 489.339C470.953 487.696 471.408 486.073 471.949 484.477C472.165 483.614 472.189 482.715 472.018 481.842C471.847 480.969 471.486 480.144 470.961 479.425C470.435 478.706 469.758 478.112 468.976 477.682C468.195 477.253 467.329 477 466.439 476.941C461.562 476.163 462.05 480.199 462.391 482.776C463.064 488.647 464.289 494.442 466.049 500.084C466.787 502.052 468.261 503.657 470.161 504.564C472.062 505.471 474.241 505.608 476.24 504.946C479.796 504.228 483.114 502.632 485.891 500.304C488.668 497.977 490.816 494.993 492.138 491.624C493.031 489.339 493.024 486.801 492.12 484.52C491.216 482.239 489.48 480.383 487.261 479.324C483.945 478.254 480.532 481.657 479.215 487.346C478.953 489.606 478.06 491.748 476.638 493.527C475.215 495.306 473.32 496.652 471.169 497.41Z" fill="#C2A263"/>
<path d="M406.068 477.474C403.888 477.507 401.716 477.751 399.582 478.203C396.718 479.077 393.686 479.257 390.738 478.731C387.789 478.205 385.009 476.986 382.627 475.176C380.244 473.366 378.328 471.016 377.037 468.322C375.745 465.627 375.116 462.665 375.2 459.679C375.251 449.764 377.555 439.988 381.939 431.087C386.322 422.187 392.671 414.392 400.509 408.288C412.066 399.293 423.526 405.906 427.671 418.012C431.335 428.881 432.042 440.524 429.719 451.754C426.992 465.634 423.21 479.287 418.406 492.595C417.058 496.65 415.207 500.521 412.895 504.118C407.044 512.723 411.383 519.871 415.577 527.164C416.26 528.282 417.479 529.4 417.528 530.567C417.476 532.018 416.865 533.394 415.821 534.408C415.333 534.845 413.285 534.067 412.408 533.29C410.729 531.69 409.21 529.931 407.873 528.039C404.459 523.517 402.996 523.712 399.436 528.379C393.341 536.644 387.343 545.056 380.564 552.689C376.093 557.809 370.922 562.277 365.204 565.962C354.427 572.817 344.137 566.497 344.186 553.661C344.339 549.952 345.607 546.374 347.824 543.392C350.041 540.41 353.106 538.161 356.621 536.936C358.176 536.878 359.722 537.193 361.13 537.852C362.538 538.512 363.768 539.498 364.716 540.728C368.032 545.59 370.568 544.326 373.152 540.728C380.028 531.345 386.172 521.28 393.536 512.48C402.118 502.319 400.753 489.435 406.068 477.474ZM419.235 436.731C418.747 434.057 418.308 430.41 417.381 427.007C415.48 419.762 411.188 418.741 405.532 423.749C395.779 432.501 391.244 444.364 387.44 456.324C386.947 457.905 386.891 459.589 387.278 461.199C387.665 462.808 388.482 464.284 389.641 465.469C390.8 466.655 392.258 467.506 393.862 467.933C395.466 468.36 397.156 468.347 398.754 467.896C412.164 465.368 417.089 459.971 418.259 446.552C418.211 443.537 418.796 440.62 419.235 436.731Z" fill="#C2A263"/>
<path d="M813.595 356.705C810.523 358.844 808.719 360.108 807.109 361.178C801.696 364.581 796.576 368.519 789.408 367.158C785.848 366.477 783.8 368.811 783.556 372.02C782.776 381.744 778.241 390.982 781.167 401.192C781.449 401.971 781.539 402.807 781.428 403.628C781.317 404.449 781.01 405.232 780.531 405.909C780.053 406.587 779.417 407.139 778.679 407.52C777.941 407.901 777.121 408.098 776.29 408.096C774.925 408.096 772.243 404.449 772.291 402.553C772.682 390.884 770.975 379.313 775.315 367.547C780.191 354.517 781.703 340.368 785.312 326.901C788.384 315.281 792.236 303.855 795.991 292.429C796.381 291.117 798.283 290.29 799.502 289.22C800.575 290.63 802.623 292.04 802.574 293.402C802.558 299.013 801.92 304.606 800.672 310.078C797.21 322.962 792.87 335.604 789.262 348.439C789.016 349.599 789.034 350.799 789.312 351.951C789.59 353.103 790.123 354.179 790.871 355.1C791.831 355.609 792.889 355.908 793.974 355.975C795.059 356.042 796.146 355.876 797.161 355.489C811.449 350.627 818.13 339.979 819.739 325.296C820.452 320.116 821.931 315.069 824.128 310.321C828.322 300.597 832.759 290.873 837.88 281.538C840.025 277.6 843.244 272.447 849.095 274.197C854.947 275.947 853.972 282.025 854.508 287.033C855.63 304.293 847.876 318.635 837.636 330.79C829.102 340.952 829.004 351.843 828.858 363.414C828.87 366.526 829.247 369.627 829.98 372.652C830.083 374.226 830.62 375.741 831.533 377.03C832.445 378.319 833.697 379.331 835.15 379.954C836.603 380.578 838.201 380.79 839.767 380.565C841.333 380.34 842.806 379.688 844.024 378.681C851.778 372.992 858.897 366.38 866.407 360.303C867.938 359.516 869.583 358.974 871.283 358.698C871.283 360.448 872.405 362.879 871.576 363.9C864.872 373.147 857.402 381.816 849.242 389.815C836.953 400.56 823.64 396.476 817.984 381.063C816.299 375.166 815.157 369.129 814.57 363.025C814.083 361.421 813.936 359.816 813.595 356.705ZM847.34 294.763L845.828 294.228C839.245 300.792 837.685 305.362 840.952 312.363C843.146 305.8 845.146 300.257 847.34 294.763Z" fill="#C2A263"/>
<path d="M724.79 441.254C718.317 441.589 711.876 440.148 706.167 437.087C700.458 434.027 695.7 429.465 692.41 423.897C689.046 419.035 687.29 418.743 683.486 423.654C681.194 426.571 678.61 431.53 674.514 428.516C670.417 425.502 672.612 420.688 675.879 417.868C685.242 409.895 685.632 399.101 686.851 388.064C689.823 363.668 700.182 340.755 716.549 322.379C718.495 320.187 720.706 318.243 723.132 316.593C725.028 315.116 727.282 314.164 729.666 313.835C732.05 313.506 734.479 313.811 736.707 314.719C738.934 315.627 740.882 317.106 742.351 319.007C743.821 320.907 744.761 323.16 745.076 325.539C746.377 331.374 746.441 337.414 745.266 343.275C744.09 349.135 741.7 354.687 738.249 359.573C727.813 374.402 716.402 388.745 705.138 402.893C703.538 404.309 702.541 406.28 702.351 408.404C702.161 410.527 702.791 412.643 704.114 414.319C711.087 424.578 720.108 430.655 733.128 428.565C735.372 428.224 737.42 426.912 739.663 426.571C741.919 426.401 744.185 426.401 746.441 426.571C745.515 428.759 745.222 431.822 743.564 432.94C736.835 437.122 729.813 441.254 724.79 441.254ZM702.504 388.405C704.114 387.578 704.943 387.384 705.333 386.898C712.94 376.882 721.084 367.45 727.765 356.607C731.046 350.339 733.379 343.622 734.689 336.673C735.225 334.826 733.372 332.346 732.592 330.11C730.436 331.141 728.433 332.466 726.643 334.048C714.988 348.148 708.746 365.019 702.602 381.89C702.266 383.965 702.233 386.077 702.504 388.162V388.405Z" fill="#C2A263"/>
<path d="M890.929 316.252C893.66 305.75 896.342 293.984 899.853 282.51C902.535 273.661 906.192 265.104 909.606 256.401C910.11 255.128 910.765 253.92 911.556 252.803C913.409 250.177 915.165 246.58 919.31 248.622C923.455 250.664 921.26 254.116 920.285 257.227C913.751 277.696 906.338 297.971 905.217 319.704C905.058 321.32 905.058 322.949 905.217 324.566C905.607 327.872 904.973 333.074 909.459 332.637C911.379 332.241 913.177 331.395 914.703 330.169C916.229 328.943 917.441 327.372 918.237 325.587C922.187 311.633 924.723 297.241 928.331 283.19C930.294 275.916 932.754 268.785 935.695 261.846C938.962 253.775 942.57 245.899 946.423 238.12C948.227 234.473 951.007 230.195 955.834 232.82C957.868 234.014 959.375 235.929 960.053 238.183C960.731 240.437 960.531 242.862 959.492 244.975C955.396 258.88 952.031 272.98 948.032 286.934C946.472 292.477 943.887 297.728 942.034 303.173C938.815 310.805 936.302 318.714 934.524 326.802C932.866 337.547 929.648 348.535 934.085 359.572C934.622 361.031 933.061 363.267 932.476 365.163C930.818 364.434 928.478 364.094 927.6 362.829C924.451 357.781 921.695 352.498 919.359 347.028C917.896 343.479 916.969 342.166 913.214 344.451C911.556 345.564 909.647 346.249 907.657 346.446C905.668 346.643 903.661 346.345 901.816 345.579C899.97 344.813 898.344 343.603 897.082 342.057C895.821 340.511 894.963 338.678 894.586 336.721C892.977 330.351 892.294 323.934 890.929 316.252Z" fill="#C2A263"/>
<path d="M749.806 92.3079C747.221 119.049 741.955 140.928 725.18 158.09C722.927 160.531 720.312 162.614 717.426 164.265C703.577 171.898 694.556 163.098 691.142 152.645C688.12 142.469 688.548 131.583 692.361 121.674C697.634 106.738 703.789 92.1267 710.794 77.9163C713.897 72.5465 718.121 67.904 723.18 64.3028C724.856 62.6882 726.936 61.5518 729.203 61.0122C731.47 60.4725 733.841 60.5494 736.068 61.2349C738.295 61.9203 740.296 63.1892 741.863 64.9091C743.431 66.6289 744.506 68.7367 744.978 71.0124C747.002 78.011 748.614 85.1216 749.806 92.3079ZM707.966 120.604C706.876 127.821 706.192 135.093 705.918 142.386C705.918 148.464 708.892 149.485 713.72 146.324C719.449 141.986 723.952 136.24 726.789 129.648C733.649 115.833 735.855 100.18 733.079 85.0149C733.079 83.8966 728.739 82.0491 728.203 82.4381C725.464 84.7193 723.336 87.6429 722.01 90.9465C719.718 100.038 718.45 109.422 716.646 118.611C715.671 123.23 713.964 126.342 707.868 120.604H707.966Z" fill="#C2A263"/>
<path d="M626.727 385.099C620.241 393.218 613.121 400.9 607.221 409.409C594.167 429.884 584.61 452.376 578.937 475.969C577.387 482.756 575.434 489.445 573.086 496C572.013 498.723 568.502 500.474 566.112 502.71C564.552 499.453 561.236 495.855 561.675 492.986C564.942 474.316 568.209 455.549 576.743 438.289C583.131 425.259 588.593 411.742 596.249 399.393C603.758 385.922 614.372 374.423 627.214 365.845C638.137 358.99 646.135 363.123 647.159 376.007C647.325 378.138 647.093 380.281 646.476 382.327C642.136 396.573 637.455 410.721 633.163 424.967C630.969 432.211 629.555 439.553 627.458 446.894C626.873 448.742 624.922 450.152 623.606 451.756C622.484 449.909 620.631 448.159 620.436 446.262C618.328 427.679 621.083 408.868 628.433 391.662C628.971 389.977 629.282 388.227 629.36 386.46L626.727 385.099Z" fill="#C2A263"/>
<path d="M835.923 86.621C828.365 86.621 824.22 80.8838 827.097 75.9733C829.525 71.5998 833.12 67.9819 837.484 65.52C859.769 54.0944 882.152 42.8146 904.974 32.5072C930.48 20.8837 957.049 11.7335 984.313 5.18288C988.654 4.16187 993.14 3.87009 997.529 2.99493C1000.11 2.57002 1002.63 1.83549 1005.04 0.807134C1008.11 -0.602839 1010.21 -0.311204 1011.67 2.84908C1013.13 6.00937 1012.26 8.14868 1008.84 8.97522C977.34 16.7544 949.398 32.8475 920.383 46.3152C896.001 57.6922 871.619 69.4096 847.237 81.0297C842.75 83.0718 838.508 85.3083 835.923 86.621Z" fill="#C2A263"/>
<path d="M314.439 514.425C312.098 546.174 299.81 568.49 273.965 582.493C260.701 589.737 252.459 582.493 246.9 572.331C245.34 569.463 246.169 564.698 240.512 564.844C239.181 562.285 238.606 559.402 238.854 556.53C241.492 540.808 247.316 525.786 255.971 512.383C259.774 506.84 262.798 500.714 266.65 495.172C269.149 491.983 271.995 489.081 275.135 486.517C276.013 485.739 278.256 485.156 278.841 485.642C283.181 489.337 287.716 486.614 292.202 486.614C295.853 486.632 299.42 487.701 302.474 489.694C305.528 491.686 307.939 494.518 309.416 497.846C311.661 503.184 313.344 508.74 314.439 514.425ZM303.223 522.01C303.223 506.743 295.372 494.831 281.474 504.409C279.865 505.479 278.11 506.354 276.598 507.375C264.212 514.96 261.481 528.184 258.262 540.582C256.423 548.647 255.896 556.953 256.702 565.184C257.238 573.06 262.456 575.783 269.478 572.039C278.911 567.256 286.962 560.15 292.868 551.394C298.774 542.639 302.338 532.524 303.223 522.01Z" fill="#C2A263"/>
<path d="M142.158 582.249C142.158 601.697 138.257 620.416 137.281 639.572C126.846 628.097 129.918 593.237 142.158 582.249Z" fill="white"/>
</svg>
