<svg width="448" height="277" viewBox="0 0 448 277" fill="none" xmlns="http://www.w3.org/2000/svg">
<path d="M249.972 108.419C249.428 112.066 248.154 115.567 246.227 118.714C243.745 123.097 240.22 126.407 236.9 130.002C236.245 130.592 235.535 131.12 234.781 131.578C233.358 132.587 233.058 133.707 234.339 134.873C237.423 137.711 238.309 141.526 239.211 145.31C239.57 146.495 239.644 147.748 239.427 148.967C239.211 150.185 238.709 151.336 237.963 152.326C236.382 154.344 235.402 156.834 233.047 158.427C228.051 161.816 223.243 159.12 221.108 154.864C219.402 151.655 218.843 147.963 219.525 144.396C219.635 143.781 219.698 143.15 219.777 142.535C220.235 138.972 219.223 137.806 215.65 137.806C215.085 137.766 214.524 137.928 214.069 138.263C211.397 140.738 208.788 143.292 206.164 145.814C205.55 146.435 204.901 147.019 204.219 147.564C203.854 147.781 203.537 148.068 203.286 148.409C203.035 148.751 202.856 149.139 202.758 149.551C202.661 149.963 202.648 150.39 202.72 150.807C202.792 151.224 202.947 151.623 203.176 151.979C203.711 153.159 204.063 154.414 204.221 155.699C204.686 158.178 204.873 160.7 204.775 163.219C204.347 168.74 203.535 174.223 202.343 179.631C200.855 184.877 199.071 190.035 197.002 195.081C196.593 195.937 196.06 196.728 195.421 197.43C194.931 198.076 194.14 198.612 193.84 199.338C192.835 201.885 190.989 204.015 188.607 205.376C187.617 206.225 186.409 206.782 185.119 206.985C183.829 207.189 182.507 207.03 181.302 206.527C178.313 205.231 175.743 203.135 173.875 200.472C172.007 197.809 170.916 194.683 170.721 191.439C169.961 184.313 173.028 178.449 176.41 172.742C179.264 168.185 182.378 163.795 185.737 159.593C187.364 157.692 189.101 155.886 190.938 154.186C191.679 153.508 192.361 152.77 192.978 151.979C193.531 151.159 193.499 150.229 192.345 149.85C190.605 149.251 190.384 147.959 190.51 146.382C190.731 143.497 190.683 143.607 187.948 143.071C187.205 142.914 186.098 141.842 186.113 141.211C186.021 139.524 186.364 137.841 187.108 136.324C189.369 132.713 191.218 128.804 194.633 125.982C195.348 125.228 196.256 124.682 197.259 124.405C198.262 124.127 199.322 124.127 200.325 124.405C201.347 124.72 202.209 125.414 202.733 126.344C203.257 127.274 203.403 128.369 203.141 129.403C202.517 132.85 201.705 136.26 200.708 139.619C200.471 140.58 199.886 141.463 199.617 142.425C199.559 142.673 199.559 142.932 199.616 143.181C199.674 143.429 199.788 143.662 199.949 143.86C200.197 143.986 200.473 144.046 200.751 144.032C201.028 144.018 201.297 143.931 201.53 143.781C204.092 141.652 206.558 139.398 209.103 137.254C210.725 135.817 212.425 134.47 214.194 133.218C216.328 131.783 218.684 130.68 220.771 129.198C221.682 128.453 222.375 127.479 222.779 126.376C224.77 121.567 226.256 116.475 228.69 111.903C230.789 108.134 233.425 104.688 236.515 101.672C238.349 99.8271 240.657 97.7145 243.962 98.3924C247.646 99.0546 250.303 102.775 249.972 108.419ZM199.273 161.785C199.253 160.484 199.126 159.187 198.892 157.906C198.687 157.15 198.007 155.967 197.501 155.952C196.617 156.111 195.821 156.581 195.255 157.276C194.481 158.181 193.758 159.128 193.09 160.114C191.588 162.037 189.928 163.866 188.584 165.884C186.624 168.784 185.091 171.985 182.957 174.728C180.994 177.639 179.481 180.828 178.468 184.187C176.571 189.011 177.663 193.315 180.431 197.399C182.013 199.653 185.175 200.552 186.424 198.817C188.384 196.122 191.309 193.993 191.957 190.399C192.143 189.664 192.431 188.958 192.81 188.302C197.062 179.836 198.057 170.534 199.273 161.785ZM244.802 107.426C244.329 106.518 243.762 105.662 243.109 104.872C242.92 104.683 241.829 105.014 241.528 105.392C238.572 109.428 235.205 113.149 233.624 118.004C233.088 119.482 232.449 120.92 231.712 122.308C231.19 123.38 230.574 124.421 230.131 125.461C230.072 125.991 230.121 126.527 230.274 127.038C230.717 126.912 231.286 126.912 231.602 126.644C233.109 125.446 234.53 124.145 235.855 122.75C237.78 120.773 239.487 118.596 240.945 116.255C242.402 113.389 243.69 110.441 244.802 107.426ZM233.614 147.344C232.886 145.278 232.412 143.607 231.716 142.015C231.019 140.423 229.944 140.17 228.553 141.495C227.184 142.83 226.331 144.603 226.143 146.503C225.956 148.403 226.446 150.308 227.527 151.884C228.46 153.224 229.836 153.461 230.832 152.199C231.868 150.645 232.798 149.023 233.614 147.344ZM190.335 139.918C190.335 141.495 191.126 142.204 192.296 141.652C193.782 140.927 196.39 135.835 196.026 134.306C195.789 133.344 195.125 132.887 194.445 133.722C192.99 135.52 191.742 137.443 190.43 139.335C190.351 139.519 190.318 139.719 190.335 139.918Z" fill="#FDFDFD"/>
<path d="M73.7068 64.8277C75.2857 51.6636 74.2555 38.6415 77.3208 25.9662C78.0002 23.1599 78.2527 20.2592 78.9005 17.4214C79.3521 15.4755 79.9544 13.5674 80.702 11.7144C81.3974 9.91713 81.1759 8.84506 79.547 7.88337C75.4337 5.40949 70.5125 4.63986 65.8376 5.73932C62.3742 6.84914 59.1433 8.58016 56.3038 10.8473C50.6121 14.8674 46.3597 20.3853 42.0756 25.8086C41.8597 26.0384 41.664 26.2863 41.4907 26.5495C38.3293 32.1935 34.0767 37.2068 31.5795 43.308C29.7567 47.0753 27.6977 50.7243 25.4147 54.2334C25.2821 54.448 25.1709 54.675 25.0828 54.9113C22.6648 61.6431 20.3416 68.4064 17.8287 75.1381C16.4348 78.1613 15.2158 81.2617 14.1778 84.4239C12.424 91.7706 11.018 99.2117 9.61207 106.621C9.12412 108.694 8.81241 110.803 8.68028 112.928C8.69762 115.169 8.85646 117.407 9.15585 119.628C9.15594 120.117 9.51971 120.621 9.45655 121.094C8.96704 124.799 10.3591 128.204 11.3559 131.609C13.476 138.798 19.4385 145.893 28.2142 146.177C31.1079 146.271 33.8592 146.65 36.6894 145.215C39.0135 144.033 41.8597 143.922 44.3737 143.055C46.4851 142.283 48.5267 141.334 50.4766 140.217C52.5952 139.051 54.6348 137.742 56.6585 136.402C59.4727 134.51 62.2078 132.524 65.022 130.648C65.5748 130.295 66.2157 130.104 66.8719 130.096C67.1249 130.096 67.5994 130.916 67.5363 131.263C67.399 131.899 67.0678 132.477 66.5878 132.918C65.0069 134.321 63.2678 135.63 61.5761 136.938C61.072 137.309 60.5438 137.646 59.9951 137.947C59.5208 138.231 58.9832 138.42 58.5405 138.735C56.5959 140.107 54.6829 141.526 52.7224 142.882C51.6832 143.667 50.5896 144.378 49.4497 145.01C47.1571 146.24 44.8172 147.359 42.5088 148.51C42.4052 148.585 42.2939 148.648 42.1768 148.699L32.6899 150.906C32.3895 150.985 32.0416 150.906 31.757 150.906C29.4763 151.452 27.104 151.5 24.803 151.045C22.5021 150.591 20.3269 149.645 18.4269 148.273C16.0707 146.749 13.9412 144.903 12.1011 142.787C9.62739 139.775 7.73431 136.333 6.51758 132.634C4.31817 126.885 3.46786 120.71 4.03181 114.583C4.39476 110.531 3.63504 106.338 4.29843 102.349C5.33853 97.3156 6.65195 92.3422 8.23295 87.4508C8.84562 85.9042 9.37319 84.3253 9.81331 82.7212C11.0915 76.6811 12.9818 70.7861 15.4551 65.1272C16.6075 61.4734 18.1383 57.9493 20.0229 54.6117C22.1569 51.3326 23.3421 47.4385 25.0966 43.8913C26.2347 41.6053 27.6416 39.4771 28.9378 37.2699C30.5185 34.6844 31.8937 32.0674 33.5061 29.5449C35.1185 27.0225 36.9996 24.2005 38.9282 21.6623C40.8568 19.1241 42.6906 16.9327 44.73 14.7571C48.0905 10.9438 51.9636 7.61203 56.2395 4.85646C58.282 3.31816 60.555 2.11041 62.9748 1.27771C68.3507 0.0322521 73.7898 -1.15011 79.1349 2.09754C85.0661 5.74589 89.565 11.3099 91.8823 17.8628C92.8315 20.3222 93.8281 22.7501 94.7614 25.2095C94.9711 25.9299 95.1401 26.6615 95.2678 27.4008C95.6318 29.1192 96.0116 30.8219 96.3914 32.5245C96.3914 32.7137 96.5654 32.8871 96.5496 33.0606C96.5501 36.0875 97.6733 39.0199 97.8478 41.9049C98.3395 50.3709 98.7047 58.8526 96.8404 67.3028C95.6406 72.3285 93.6736 77.1405 91.0083 81.5704C88.7795 85.4014 84.8425 86.7099 81.5216 84.8811C80.2388 84.0857 79.1566 83.0069 78.3586 81.728C76.4041 79.1585 75.1701 76.1169 74.7835 72.9152C74.4193 70.2509 74.0077 67.3816 73.7068 64.8277ZM91.8546 39.9815H92.2499C92.1774 38.2917 92.0082 36.6073 91.7431 34.9366C90.9201 31.0899 90.1604 27.2116 88.958 23.4595C88.0133 20.8315 86.8656 18.2804 85.5254 15.8291C85.3662 15.61 85.153 15.4355 84.9066 15.3223C84.6601 15.2091 84.3885 15.161 84.118 15.1827C83.7702 15.2615 83.4699 16.0183 83.3909 16.5228C83.075 18.3831 82.7908 20.2591 82.6014 22.1352C81.7332 30.4593 80.8334 38.7992 80.0759 47.139C79.5394 53.0983 77.5323 59.0418 79.5257 65.0957C79.6208 65.4681 79.6209 65.8583 79.5259 66.2308C78.8941 69.7779 80.0332 73.1202 80.9667 76.4151C81.4942 77.9364 82.5336 79.2287 83.9084 80.0727C84.3354 80.3407 85.9953 78.6853 87.0704 77.9128C87.1702 77.8285 87.2464 77.7199 87.2917 77.5975C88.2006 75.538 89.0024 73.4332 89.694 71.2914C90.5744 68.3439 91.2605 65.3421 91.748 62.3052C92.2692 58.8211 92.5057 55.2896 92.7264 51.774C92.8342 49.8931 92.8074 48.0071 92.6464 46.13C92.5037 44.112 92.1396 42.031 91.8546 39.9815Z" fill="#FDFDFD"/>
<path d="M89.8705 264.165C91.0551 256.96 92.1923 249.755 93.4402 242.551C94.688 235.346 95.9359 228.157 97.3103 220.984C98.1844 216.412 99.1797 211.861 100.296 207.331C100.629 206.353 100.648 205.296 100.35 204.307C100.052 203.319 99.4528 202.447 98.635 201.813C97.1308 200.41 95.9331 198.713 95.1165 196.828C94.3 194.943 93.8822 192.91 93.8894 190.856C93.8385 184.539 95.0467 178.274 97.4438 172.427C97.5044 172.185 97.5947 171.952 97.7125 171.733C99.2933 169.463 100.953 167.177 102.66 164.954C103.564 163.844 104.535 162.791 105.569 161.801C105.996 161.359 106.581 161.076 107.024 160.65C108.194 159.499 109.348 158.317 110.454 157.103C110.487 156.968 110.489 156.827 110.462 156.691C110.435 156.555 110.378 156.427 110.296 156.315C109.906 156.186 109.485 156.186 109.094 156.315C105.896 158.259 102.799 160.364 99.8139 162.621C95.6845 166.016 91.8889 169.796 88.4786 173.909C84.5739 178.638 81.4914 183.825 77.729 188.555C74.1563 193.048 73.4141 198.518 71.1539 203.453C69.8736 206.727 69.8742 210.362 71.1557 213.637C71.411 214.611 71.9369 215.493 72.6727 216.182C73.4085 216.87 74.3244 217.338 75.315 217.531C78.4775 218.209 81.7349 218.887 84.9923 219.281C86.2992 219.229 87.5923 218.995 88.8345 218.587C90.1741 218.321 91.533 218.163 92.8981 218.114C93.2934 218.114 93.6889 218.903 94.0843 219.344C93.7103 219.775 93.2733 220.147 92.7879 220.448C91.5273 221.044 90.2215 221.539 88.8826 221.93C87.7944 222.187 86.6804 222.319 85.5621 222.324C83.6805 222.403 81.783 222.213 79.9172 222.403C73.719 223.065 68.5319 219.076 66.4752 213.227C64.561 207.835 66.3153 203.059 67.4054 198.077C67.7183 197.326 68.1048 196.608 68.5593 195.933C69.3971 194.262 70.1399 192.543 70.9935 190.872C71.9419 188.964 72.9851 187.104 73.9335 185.212C75.9567 181.129 79.0079 177.803 81.7269 174.177C85.2493 169.455 89.1911 165.06 93.5045 161.044C96.5495 158.327 99.7598 155.8 103.117 153.477C105.662 151.648 108.572 150.324 111.022 148.4C111.998 147.358 112.646 146.054 112.887 144.648C113.709 141.495 114.309 138.342 115.004 135.268C115.042 134.824 115.2 134.399 115.463 134.038C116.203 133.471 116.973 132.945 117.771 132.462C118.214 133.218 119.068 134.038 119.021 134.748C118.863 136.86 118.326 138.941 117.978 141.054C117.758 142.23 117.632 143.421 117.599 144.617C117.599 145.941 118.153 146.445 119.687 146.051C126.327 144.364 133.997 147.47 135.769 155.747C137.112 160.839 136.786 166.225 134.839 171.118C132.363 176.871 129.457 182.431 126.146 187.75C124.122 190.904 120.881 193.41 118.241 196.216C115.329 199.086 112.01 201.513 108.391 203.421C107.418 204.056 106.722 205.037 106.447 206.164C103.919 217.2 101.407 228.378 99.1162 239.54C97.2204 248.731 95.6092 257.969 93.919 267.192C93.682 268.485 93.8088 269.84 93.6351 271.149C93.6352 271.638 93.0818 272.063 92.7973 272.52C92.3932 272.204 92.041 271.826 91.7535 271.401C90.4927 269.198 89.8428 266.701 89.8705 264.165ZM121.475 151.853C116.731 151.853 116.051 152.531 115.261 157.008C113.382 167.855 111.391 178.701 109.432 189.532C109.143 190.626 108.921 191.737 108.769 192.858C108.769 193.442 109.196 194.057 109.433 194.671C110 194.44 110.532 194.132 111.014 193.757C112.674 192.039 114.303 190.289 115.836 188.46C117.747 186.4 119.497 184.197 121.069 181.87C123.013 178.638 126.049 176.005 126.712 172.048C126.712 172.048 126.712 171.938 126.807 171.875C129.311 168.481 130.44 164.27 129.967 160.082C129.428 153.713 128.305 151.995 121.538 151.853H121.475ZM99.676 187.278C99.6762 188.255 99.6763 188.854 99.7713 189.516C99.746 191.021 99.8574 192.525 100.104 194.009C100.278 194.734 101.274 195.271 101.891 195.885C102.462 195.326 102.952 194.689 103.346 193.994C103.581 193.148 103.735 192.283 103.804 191.408C105.352 183.904 106.932 176.394 108.543 168.879C108.764 167.839 109.191 166.846 109.412 165.805C109.441 165.597 109.428 165.385 109.374 165.182C109.32 164.979 109.225 164.789 109.096 164.623C109.001 164.497 108.321 164.623 108.131 164.796C106.756 166.262 104.637 167.114 104.401 169.526C104.242 170.333 103.902 171.093 103.405 171.749C100.428 176.35 99.1332 181.835 99.7392 187.278H99.676Z" fill="#FDFDFD"/>
<path d="M154.654 87.026C155.902 82.1073 156.929 77.1097 158.493 72.3012C159.015 70.7247 160.801 69.432 162.208 68.2496C162.563 68.098 162.949 68.0373 163.333 68.0731C163.717 68.1089 164.086 68.2401 164.406 68.4545C165.288 69.0233 166 69.8181 166.468 70.7557C166.935 71.6933 167.141 72.739 167.064 73.7832C166.637 77.0308 166.164 80.2627 165.484 83.4631C165.358 84.141 164.536 84.7085 163.903 85.2445C163.271 85.7806 162.797 85.6387 162.654 86.0013C162.386 86.8315 162.206 87.6875 162.117 88.5553C162.829 88.3346 163.793 88.3345 164.173 87.8616C167.967 83.2108 172.583 79.1907 175.238 73.6728C176.171 71.7337 177.705 70.0783 178.827 68.2023C181.119 64.324 183.458 60.4615 185.529 56.4571C186.606 54.1229 187.514 51.7153 188.247 49.2524C190.46 42.9463 192.42 36.4352 194.948 30.1922C196.398 27.0254 198.218 24.0408 200.37 21.3005C201.667 19.4875 203.121 19.3456 204.434 20.26C205.148 20.7911 205.666 21.5433 205.907 22.399C206.147 23.2548 206.097 24.1657 205.763 24.9896C201.329 34.7836 197.503 44.8397 194.305 55.1013C193.69 57.0219 193.293 59.0048 193.12 61.0133C192.867 64.7024 192.9 68.423 192.885 72.1436C192.885 72.6796 193.359 73.2156 193.612 73.7201C194.183 73.5561 194.719 73.2889 195.193 72.9319C198.533 69.1753 201.206 64.8781 203.097 60.225C203.824 58.7756 204.653 57.3794 205.579 56.0472C205.87 55.7202 206.129 55.3665 206.353 54.9909C208.44 50.0879 210.479 45.1692 212.565 40.2662C213.023 39.1784 213.687 38.1851 214.24 37.1131C214.968 35.7258 215.695 34.3384 216.406 32.9511C216.58 32.62 216.627 32.2101 216.817 31.8948C218.988 28.3844 221.164 24.8792 223.345 21.3793C223.677 20.9216 223.978 20.4423 224.246 19.9447C224.35 19.5736 224.536 19.2304 224.79 18.9406C225.045 18.6508 225.361 18.4218 225.716 18.2704C226.072 18.1191 226.456 18.0492 226.842 18.0661C227.228 18.0831 227.606 18.1863 227.946 18.3682C228.348 18.4406 228.731 18.5962 229.07 18.8252C229.408 19.0542 229.694 19.3512 229.911 19.6974C230.127 20.0435 230.268 20.4309 230.324 20.8347C230.381 21.2384 230.352 21.6496 230.24 22.0415C229.883 23.2423 229.407 24.4043 228.817 25.5099C228.659 25.8409 228.295 26.0774 228.137 26.4084C226.114 30.2552 223.996 34.0704 222.147 37.996C220.424 41.6377 218.875 45.3583 217.405 49.1262C216.251 52.2793 215.461 55.5112 214.418 58.6643C213.043 62.7948 213.408 67.0199 213.677 71.2765C213.874 72.0602 214.178 72.8133 214.579 73.5152C214.977 74.2876 215.229 75.1267 215.323 75.9903C215.3 76.378 215.194 76.7561 215.011 77.099C214.828 77.4418 214.573 77.7413 214.264 77.9768C213.884 78.2132 212.809 77.7718 212.334 77.3304C209.761 75.0452 208.164 71.8626 207.874 68.4387C207.881 67.9341 207.823 67.4307 207.7 66.9411C207.436 66.429 207.123 65.9433 206.766 65.4906C206.371 65.8497 206.011 66.2456 205.691 66.673C203.194 70.7089 201.329 75.1863 197.661 78.3866C196.397 79.6195 194.866 80.5471 193.187 81.0983C192.525 81.1725 191.856 81.0961 191.229 80.8749C190.601 80.6537 190.033 80.2935 189.565 79.8213C187.604 77.5038 186.007 74.8552 186.781 71.5445C186.859 71.1754 186.859 70.7942 186.781 70.4252C186.63 69.9781 186.44 69.5455 186.211 69.1324C185.784 69.3374 185.215 69.4477 184.978 69.7946C183.666 71.6076 182.433 73.4994 181.168 75.3597C179.003 78.5128 176.979 81.6658 174.624 84.7085C172.341 87.5365 169.886 90.2217 167.273 92.7488C165.91 93.9595 164.376 94.9635 162.719 95.7285C161.792 96.059 160.785 96.1003 159.833 95.8469C158.881 95.5934 158.029 95.0573 157.39 94.3096C156.439 93.4068 155.745 92.2689 155.378 91.0116C155.011 89.7544 154.985 88.4226 155.302 87.1521L154.654 87.026Z" fill="#FDFDFD"/>
<path d="M400.561 80.1837C400.644 73.5493 401.768 66.969 403.894 60.682C404.432 59.4224 405.111 58.2272 405.917 57.1191C406.4 56.4592 406.824 55.7574 407.182 55.0223C408.967 50.2927 412.683 46.9505 416.129 43.5294C418.186 41.4979 420.655 39.9284 423.37 38.9259C428.73 37.0025 432.431 39.2885 435.673 44.6487C440.213 52.153 439.487 59.6888 435.029 66.9409C432.694 71.1298 429.333 74.6606 425.259 77.204C423.472 78.2288 421.701 79.3008 419.852 80.231C418.098 81.1839 416.043 81.4289 414.113 80.9155C412.183 80.4021 410.524 79.1695 409.478 77.4721C408.965 76.9767 408.372 76.5716 407.723 76.2739C407.359 76.9518 406.664 77.6297 406.711 78.2918C407.044 84.0462 408.753 89.3276 413.039 93.3792C415.341 95.5175 418.385 96.6818 421.531 96.6269C424.164 96.8314 426.81 96.7998 429.437 96.5323C432.204 96.0278 434.955 95.2395 437.706 94.5932C439.287 94.2148 440.773 93.1428 442.608 93.2058C443.208 93.2058 443.809 92.5752 444.442 92.3702C445.174 92.0767 445.962 91.9475 446.75 91.9919C447.209 92.0707 447.557 92.7959 447.968 93.2216C447.585 93.594 447.178 93.9416 446.751 94.2621C445.802 94.8927 444.806 95.4603 443.81 96.0436C443.433 96.2631 443.042 96.4579 442.64 96.6269C441.233 97.226 439.857 97.9039 438.402 98.3611C435.73 99.2124 433.042 99.9376 430.339 100.694C429.521 100.749 428.708 100.854 427.904 101.01C423.904 102.681 419.903 101.861 415.981 101.01C411.491 99.9376 408.343 96.8318 405.639 93.2374C402.96 89.3343 401.222 84.8668 400.561 80.1837ZM433.319 54.5178C433.474 52.6924 433.204 50.8559 432.529 49.1519C431.853 47.448 430.792 45.9229 429.427 44.696C428.952 44.2333 428.349 43.9219 427.696 43.8012C427.043 43.6805 426.369 43.756 425.759 44.0181C423.467 44.7123 421.443 46.0873 419.956 47.9594C417.949 50.5922 415.799 53.1147 413.902 55.8421C412.685 57.5763 411.894 59.5942 410.74 61.3599C409.239 63.6774 409.365 64.513 411.864 65.7585C413.445 66.5783 413.683 67.335 412.655 68.7066C411.627 70.0781 410.758 71.4339 411.928 72.9789C412.434 73.8213 413.178 74.4955 414.068 74.9164C414.957 75.3373 415.951 75.486 416.925 75.3437C420.133 74.6776 423.065 73.0623 425.337 70.7087C428.941 67.5557 431.818 63.8824 432.656 58.9951C432.956 57.2925 433.161 55.6214 433.319 54.5178Z" fill="#FDFDFD"/>
<path d="M298.041 102.743C299.482 100.774 301.022 98.8801 302.657 97.0678C304.095 95.606 305.741 94.363 307.542 93.3787C309.123 92.5432 310.784 93.3787 311.938 94.9553C313.884 97.6354 314.753 97.6038 317.061 95.3021C318.795 93.4892 320.749 91.9003 322.879 90.5725C323.964 89.8829 325.237 89.5487 326.521 89.6165C327.806 89.6844 329.037 90.1509 330.042 90.9509C332.068 92.5186 333.577 94.6543 334.376 97.0836C335.74 101.852 335.653 106.917 334.126 111.635C332.924 114.867 331.787 118.162 330.285 121.268C329.165 123.291 327.829 125.189 326.301 126.927C326.064 127.15 325.776 127.312 325.462 127.4C325.148 127.488 324.818 127.499 324.499 127.432C324.2 127.293 323.939 127.084 323.738 126.823C323.537 126.563 323.402 126.258 323.344 125.934C323.373 124.498 323.536 123.067 323.834 121.662C324.955 115.277 326.124 108.892 327.246 102.507C327.356 101.95 327.356 101.377 327.245 100.82C326.549 97.2255 324.572 96.4214 322.074 99.0069C319.783 101.561 317.635 104.24 315.64 107.031C313.401 110.312 311.793 113.979 310.899 117.846C310.008 120.127 308.7 122.222 307.042 124.026C306.644 124.319 306.177 124.504 305.686 124.562C305.196 124.62 304.698 124.549 304.243 124.358C303.328 123.333 302.595 122.16 302.076 120.889C302.031 120.636 302.088 120.376 302.234 120.164C304.921 115.434 305.806 110.248 307.086 105.124C307.196 104.698 307.497 104.257 307.433 103.863C307.244 103.128 307.006 102.406 306.721 101.703C306.121 102.05 305.314 102.255 304.966 102.775C303.689 105.138 302.28 107.427 300.746 109.633C297.584 113.479 296.589 118.335 294.344 122.592C293.327 124.956 292.554 127.418 292.037 129.938C291.263 132.682 290.346 133.501 288.417 132.997C286.108 132.382 285.159 130.664 285.996 128.157C287.466 123.743 289.252 119.423 290.516 114.946C291.575 111.194 292.096 107.299 292.823 103.469C292.845 102.903 292.936 102.342 293.091 101.797C293.55 100.851 294.166 99.9686 294.672 99.0542C295.447 99.7637 296.254 100.442 296.981 101.198C297.379 101.681 297.734 102.198 298.041 102.743Z" fill="#FDFDFD"/>
<path d="M347.105 106.685C347.881 97.5429 349.661 88.5131 352.413 79.7582C352.988 78.2926 353.806 76.9337 354.832 75.7381C355.59 74.7764 356.602 73.7832 357.994 74.6187C358.685 75.065 359.213 75.7224 359.498 76.4925C359.783 77.2627 359.81 78.1042 359.576 78.8911C356.012 87.731 354.313 97.2085 354.584 106.733C354.619 107.239 354.764 107.731 355.01 108.175C355.256 108.619 355.597 109.004 356.008 109.302C356.498 109.586 357.889 108.956 358.49 108.341C361.431 105.282 364.339 102.145 367.074 98.8815C367.795 97.8511 368.271 96.6703 368.465 95.4289C369.65 90.3998 370.661 85.3234 371.941 80.3258C372.555 78.4811 373.316 76.6886 374.217 74.9656C374.743 74.1047 375.162 73.1836 375.466 72.2224C375.908 69.4004 378.09 67.8554 379.845 66.0424C380.048 65.7945 380.313 65.6034 380.613 65.4874C380.912 65.3715 381.237 65.3348 381.555 65.3808C381.873 65.4268 382.174 65.5539 382.429 65.7499C382.683 65.946 382.882 66.2042 383.007 66.4996C383.745 67.7662 384.04 69.2413 383.846 70.6931C382.392 76.2741 380.686 81.7289 378.9 87.3098C378.479 88.6224 377.918 89.8858 377.224 91.0777C374.664 95.6339 374.064 100.71 373.195 105.739C372.94 106.845 372.823 107.979 372.848 109.113C372.968 110.577 373.282 112.019 373.781 113.401C374.177 114.458 374.794 115.593 373.655 116.223C373.205 116.356 372.73 116.38 372.269 116.295C371.807 116.21 371.372 116.018 370.999 115.735C369.969 114.82 369.14 113.704 368.563 112.455C367.282 109.697 365.827 109.444 363.819 111.778C361.899 114.289 359.149 116.043 356.057 116.728C354.671 117.024 353.226 116.848 351.953 116.228C350.68 115.607 349.652 114.579 349.035 113.307C348.274 111.135 347.63 108.925 347.105 106.685Z" fill="#FDFDFD"/>
<path d="M96.9589 110.231C97.3424 106.069 98.5055 102.016 100.388 98.2811C101.21 96.5785 101.716 94.7497 102.553 93.0628C103.628 90.8714 104.861 88.7747 106.047 86.6464C106.262 86.3334 106.458 86.0068 106.632 85.6689C108.867 81.096 112.155 77.1148 116.227 74.0499C117.643 72.9893 119.255 72.2178 120.971 71.7796C121.916 71.4868 122.924 71.4599 123.884 71.7019C124.844 71.9439 125.718 72.4455 126.41 73.1513C127.343 74.0814 128.292 74.9958 129.194 75.9732C130.095 76.9507 130.902 76.8561 131.407 75.5476C131.671 74.5751 132.015 73.626 132.435 72.7098C133.324 71.0644 134.384 69.5161 135.596 68.0906C135.964 67.7479 136.408 67.4977 136.892 67.3606C137.376 67.2235 137.886 67.2035 138.379 67.3023C138.768 67.5785 139.08 67.9496 139.285 68.3801C139.49 68.8106 139.581 69.2863 139.549 69.7617C139.082 72.2216 138.245 74.5972 137.068 76.8088C133.164 83.1149 132.153 90.1778 131.237 97.3037C131.082 98.2759 131.234 99.2724 131.674 100.154C132.113 101.036 132.818 101.759 133.689 102.222C134.337 102.617 134.464 103.799 134.828 104.682C133.942 104.918 132.962 105.502 132.172 105.312C130.919 105.074 129.751 104.512 128.785 103.682C127.819 102.852 127.089 101.783 126.668 100.583C126.242 99.47 125.684 98.4116 125.007 97.4298C124.296 96.4051 123.426 96.2789 122.968 97.6663C121.909 101.04 119.205 103.09 116.85 105.439C116.202 106.101 115.901 107.094 115.269 107.709C112.407 110.326 109.498 112.911 106.526 115.386C105.554 116.274 104.383 116.917 103.111 117.263C100.139 117.909 97.624 115.465 97.0699 111.682C96.9749 111.193 96.9906 110.688 96.9589 110.231ZM127.977 82.7996L127.471 82.5474C127.361 81.4506 126.964 80.4017 126.32 79.5055C125.676 78.6093 124.808 77.8969 123.802 77.4394C122.792 77.1808 121.734 77.175 120.722 77.4225C119.709 77.6701 118.774 78.1633 117.999 78.8583C116.239 80.8055 114.607 82.8646 113.114 85.0225C110.65 88.6374 108.453 92.4258 106.539 96.3578C104.888 100.307 103.504 104.363 102.398 108.497C102.202 108.914 102.158 109.387 102.275 109.832C102.392 110.278 102.662 110.669 103.038 110.937C103.414 111.205 103.872 111.333 104.333 111.299C104.794 111.265 105.228 111.071 105.561 110.751C107.679 109.206 109.681 107.51 111.553 105.675C113.244 103.957 114.62 101.954 116.185 100.11C116.558 99.7807 116.96 99.4852 117.386 99.227C117.856 98.8244 118.299 98.3927 118.714 97.9343C119.726 96.7835 120.722 95.6325 121.686 94.4502C122.082 93.9548 122.437 93.4275 122.745 92.8736C123.267 91.9435 123.741 90.9976 124.231 90.0517C125.512 87.6711 126.744 85.2275 127.977 82.7996Z" fill="#FDFDFD"/>
<path d="M249.107 138.405C249.401 131.108 250.851 123.903 253.404 117.059C254.274 114.82 256.392 114.095 258.29 113.26C259.428 112.755 261.452 114.458 261.943 115.955C262.089 116.288 262.161 116.649 262.153 117.012C262.145 117.376 262.058 117.733 261.896 118.059C261.735 118.385 261.505 118.672 261.22 118.899C260.936 119.127 260.605 119.29 260.251 119.376C259.847 119.573 259.488 119.851 259.197 120.193C258.906 120.535 258.689 120.933 258.56 121.363C257.422 126.897 256.411 132.399 255.48 138.043C255.369 138.705 255.97 139.477 256.239 140.187C256.903 139.856 257.82 139.698 258.184 139.178C260.523 136.167 262.8 133.124 264.95 129.987C265.442 129.039 265.748 128.006 265.85 126.944C266.451 123.791 266.766 120.559 267.62 117.485C268.536 114.701 269.618 111.974 270.86 109.318C271.303 108.146 271.831 107.008 272.44 105.913C272.93 105.077 273.515 104.005 274.306 103.706C275.47 103.171 276.799 103.115 278.006 103.548C278.719 104.081 279.237 104.832 279.48 105.686C279.723 106.541 279.677 107.452 279.35 108.278C278.45 111.431 277.691 114.741 276.522 117.847C274.382 124.178 273.216 130.796 273.063 137.475C272.921 139.903 272.225 142.331 273.348 144.743C273.491 145.058 272.447 146.398 272.179 146.319C270.803 146.112 269.5 145.57 268.383 144.743C267.526 143.665 266.882 142.434 266.485 141.117C265.71 139.414 265.014 139.383 263.766 140.754C262.154 142.582 260.411 144.289 258.549 145.862C258.007 146.296 257.379 146.61 256.706 146.784C256.033 146.957 255.331 146.986 254.646 146.868C253.961 146.75 253.309 146.489 252.733 146.1C252.158 145.712 251.671 145.207 251.306 144.617C249.741 142.473 248.712 140.124 249.107 138.405Z" fill="#FDFDFD"/>
<path d="M174.918 141.07C173.685 145.184 172.516 149.094 171.378 153.004C170.651 155.463 169.798 157.923 169.339 160.445C169.368 161.422 169.583 162.385 169.972 163.283C170.321 164.202 170.524 165.17 170.574 166.152C170.4 167.965 169.183 168.438 167.633 167.476C165.245 166.01 163.443 166.294 162.02 168.612C161.493 169.438 160.752 170.107 159.876 170.548C158.999 170.989 158.019 171.186 157.04 171.118C156.089 170.999 155.194 170.607 154.462 169.992C153.729 169.377 153.191 168.563 152.912 167.65C151.56 164.469 151.1 160.981 151.582 157.56C152.397 149.913 154.763 142.511 158.535 135.804C159.926 133.729 161.741 131.972 163.863 130.649C166.108 129.151 168.907 130.822 170.347 133.802C171.227 135.267 172.188 136.683 173.225 138.043C173.858 138.957 174.348 139.998 174.918 141.07ZM162.584 140.912C162.189 141.259 161.983 141.353 161.936 141.495C159.365 148.281 157.95 155.448 157.75 162.7C157.655 164.276 158.952 164.402 160.169 164.087C161.75 163.677 163.331 160.855 163.331 158.932C163.33 157.008 163.567 155.18 163.567 153.288C163.566 150.277 163.566 147.265 163.423 144.254C163.27 143.114 162.994 141.993 162.6 140.912H162.584ZM167.327 137.901L165.746 136.104C165.319 136.655 164.686 137.144 164.56 137.68C164.56 137.964 165.319 138.658 165.841 138.799C166.363 138.941 166.6 138.374 167.311 137.901H167.327Z" fill="#FDFDFD"/>
<path d="M268.191 38.1841C267.543 42.6615 266.611 46.9497 263.687 50.7964C261.02 54.3484 257.764 57.4196 254.059 59.8772C251.893 61.233 247.197 61.4537 245.172 60.1768C243.923 59.3165 242.948 58.1157 242.364 56.7178C241.781 55.3199 241.613 53.7842 241.882 52.2941C242.703 47.4377 244.7 42.8543 247.698 38.9409C248.437 37.7666 249.446 36.7859 250.643 36.081C251.839 35.376 253.188 34.9673 254.576 34.8892C255.561 34.8106 256.504 34.4553 257.295 33.8645C258.586 32.9644 260.124 32.4817 261.699 32.4817C263.274 32.4817 264.812 32.9644 266.103 33.8645C266.795 34.3439 267.351 34.9936 267.717 35.7506C268.083 36.5075 268.246 37.3458 268.191 38.1841ZM260.95 42.9137C260.602 42.0624 260.348 41.0377 260.175 41.0377C259.399 41.0587 258.646 41.3053 258.008 41.7471C254.871 44.2813 252.141 47.28 249.914 50.6388C249.235 51.6478 248.333 52.7198 249.504 53.5396C249.995 53.7214 250.522 53.7876 251.043 53.7329C251.564 53.6782 252.065 53.5041 252.508 53.2243C255.109 51.425 257.27 49.0649 258.831 46.319C259.48 45.1367 260.286 44.0173 260.934 42.898L260.95 42.9137Z" fill="#FDFDFD"/>
<path d="M364.988 11.3371C366.458 11.0946 367.914 10.7789 369.352 10.3912C370.373 10.054 371.452 9.9235 372.524 10.0074C373.597 10.0913 374.642 10.388 375.598 10.8799C375.865 11.0124 376.099 11.203 376.283 11.4376C376.466 11.6723 376.594 11.9451 376.658 12.2357C376.658 12.6456 375.93 13.2605 375.44 13.3866C372.405 14.1276 369.575 15.7671 366.286 15.4203C365.537 15.4891 364.811 15.709 364.151 16.0667C363.503 16.3032 362.902 16.6815 362.238 16.8707C358.396 17.9901 354.538 19.0779 350.68 20.1657C347.612 21.0328 344.513 21.7422 341.493 22.7827C339.059 23.5867 336.75 24.7376 334.331 25.6204C331.912 26.5033 329.145 27.197 326.726 28.2375C323.358 29.814 319.247 30.1293 317.24 34.0391C316.07 36.2305 312.244 36.8138 310.124 35.458C309.668 35.1668 309.284 34.776 309.002 34.3152C308.719 33.8543 308.546 33.3355 308.494 32.7979C308.442 32.2603 308.513 31.718 308.702 31.212C308.892 30.706 309.194 30.2495 309.586 29.8771C311.534 28.2081 313.654 26.7495 315.91 25.5259C318.222 24.2656 320.596 23.1238 323.025 22.1048C324.732 21.3638 326.503 20.7332 328.274 20.1342C330.804 19.2671 333.334 18.4 335.895 17.6275C339.057 16.6816 342.22 15.7672 345.493 14.9631C349.319 14.0015 353.193 13.1659 357.035 12.2988C358.142 12.0623 359.264 11.8731 360.371 11.6524L364.972 10.8011L364.988 11.3371Z" fill="#FDFDFD"/>
<path d="M99.7404 187.276C99.1391 181.832 100.439 176.347 103.422 171.748C103.919 171.092 104.259 170.332 104.418 169.525C104.654 167.113 106.773 166.261 108.148 164.795C108.338 164.59 109.018 164.496 109.113 164.622C109.242 164.788 109.337 164.978 109.391 165.181C109.445 165.384 109.458 165.596 109.429 165.804C109.208 166.845 108.781 167.838 108.56 168.878C106.98 176.383 105.401 183.892 103.821 191.407C103.752 192.281 103.598 193.147 103.363 193.992C102.969 194.688 102.479 195.325 101.908 195.884C101.291 195.269 100.327 194.733 100.121 194.008C99.8743 192.524 99.7629 191.02 99.7882 189.515C99.8039 188.885 99.788 188.254 99.7404 187.276Z" fill="white"/>
</svg>
